<?xml version="1.0" standalone="no"?>
<!DOCTYPE svg
  PUBLIC '-//W3C//DTD SVG 1.1//EN'
  'http://www.w3.org/Graphics/SVG/1.1/DTD/svg11.dtd'><svg version="1.1" xmlns="http://www.w3.org/2000/svg"><defs><font horiz-adv-x="0" id="font"><font-face ascent="650" bbox="-176 -248 1281 990" cap-height="680" descent="-200" font-family="Inria Sans" font-stretch="normal" font-style="normal" font-weight="680" units-per-em="1000" x-height="495" /><missing-glyph d="M551 0 133 0V680H551ZM220 598 220 81H464V598Z" horiz-adv-x="684" /><glyph d="" glyph-name=".null" horiz-adv-x="0" unicode="" /><glyph d="" glyph-name="CR" horiz-adv-x="0" unicode="" /><glyph d="" glyph-name="space" horiz-adv-x="218" unicode=" " /><glyph d="" glyph-name="uni00A0" horiz-adv-x="218" unicode=" " /><glyph d="M556 0 466 0L415 158H157L106 0H21L247 680H329ZM286 564 220 354L182 237H389L351 354Z" glyph-name="A" horiz-adv-x="577" unicode="A" /><glyph d="M331 0 106 0V680H306Q399 680 448 635Q497 590 497 505V483Q497 438 477 404Q457 370 419 351Q471 334 499 295.5Q527 257 527 203V181Q527 94 476.5 47Q426 0 331 0ZM306 600 193 600V385H306Q355 385 381 410Q407 435 407 481V505Q407 551 381 575.5Q355 600 306 600ZM331 305 193 305V79H331Q382 79 409.5 105.5Q437 132 437 181V205Q437 253 409.5 279Q382 305 331 305Z" glyph-name="B" horiz-adv-x="585" unicode="B" /><glyph d="M165 415 165 265Q165 168 203.5 119Q242 70 318 70Q353 70 386.5 78.5Q420 87 464 106L493 32Q447 11 403 0.5Q359 -10 315 -10Q200 -10 137.5 62Q75 134 75 265V415Q75 546 138 618Q201 690 315 690Q358 690 402.5 679.5Q447 669 491 648L463 573Q421 592 386 600.5Q351 609 318 609Q242 609 203.5 560Q165 511 165 415Z" glyph-name="C" horiz-adv-x="529" unicode="C" /><glyph d="M317 0 106 0V680H317Q432 680 496 610.5Q560 541 560 415V266Q560 139 496.5 69.5Q433 0 317 0ZM315 598 193 598V81H315Q392 81 431 127.5Q470 174 470 266V415Q470 506 431 552Q392 598 315 598Z" glyph-name="D" horiz-adv-x="637" unicode="D" /><glyph d="M193 81 486 81V0H106V680H476V598H193V385H446V303H193Z" glyph-name="E" horiz-adv-x="531" unicode="E" /><glyph d="M440 368 440 286H193V0H106V680H470V598H193V368Z" glyph-name="F" horiz-adv-x="506" unicode="F" /><glyph d="M536 356 536 47Q494 20 439.5 5Q385 -10 325 -10Q208 -10 142 64Q76 138 76 266V415Q76 546 142 618Q208 690 328 690Q376 690 425.5 679Q475 668 521 647L493 572Q447 591 407 600Q367 609 329 609Q248 609 207 560Q166 511 166 415V266Q166 172 208.5 121Q251 70 331 70Q362 70 396 77Q430 84 456 96V279H329V356Z" glyph-name="G" horiz-adv-x="604" unicode="G" /><glyph d="M577 0 490 0V303H193V0H106V680H193V385H490V680H577Z" glyph-name="H" horiz-adv-x="683" unicode="H" /><glyph d="M193 680 193 0H106V680Z" glyph-name="I" horiz-adv-x="300" unicode="I" /><glyph d="M27 -7 27 76Q111 76 147 110.5Q183 145 183 224V680H270V224Q270 104 211 48.5Q152 -7 27 -7Z" glyph-name="J" horiz-adv-x="363" unicode="J" /><glyph d="M583 0 477 0L283 321Q264 301 242 278.5Q220 256 193 230V0H106V680H193V327Q283 418 347 503.5Q411 589 457 680H551Q507 594 459 522.5Q411 451 347 378Z" glyph-name="K" horiz-adv-x="596" unicode="K" /><glyph d="M193 81 478 81V0H106V680H193Z" glyph-name="L" horiz-adv-x="506" unicode="L" /><glyph d="M106 680 208 680L415 176L623 680H722V0H637V291L648 553L453 80H371L180 555L191 291V0H106Z" glyph-name="M" horiz-adv-x="829" unicode="M" /><glyph d="M191 0 106 0V680H197Q288 550 364.5 418Q441 286 508 144L498 404V680H583V0H492Q405 181 332 312Q259 443 185 555L191 278Z" glyph-name="N" horiz-adv-x="690" unicode="N" /><glyph d="M323 690Q439 690 504 617Q569 544 569 415V266Q569 136 504 63Q439 -10 323 -10Q207 -10 142 63Q77 136 77 266V415Q77 544 142 617Q207 690 323 690ZM479 266 479 415Q479 510 439 559.5Q399 609 323 609Q247 609 207 559Q167 509 167 415V266Q167 171 207 120.5Q247 70 323 70Q399 70 439 120.5Q479 171 479 266Z" glyph-name="O" horiz-adv-x="647" unicode="O" /><glyph d="M193 0 106 0V680H318Q413 680 466 630Q519 580 519 491V438Q519 349 466 298.5Q413 248 318 248H193ZM318 598 193 598V329H318Q371 329 400 357.5Q429 386 429 438V491Q429 542 400 570Q371 598 318 598Z" glyph-name="P" horiz-adv-x="564" unicode="P" /><glyph d="M408 2Q428 -55 457.5 -73.5Q487 -92 562 -94V-183Q469 -183 417 -151Q365 -119 337 -42L326 -10H323Q207 -10 142 63Q77 136 77 266V415Q77 544 142 617Q207 690 323 690Q439 690 504 617Q569 544 569 415V266Q569 163 527.5 94.5Q486 26 408 2ZM479 266 479 415Q479 510 439 559.5Q399 609 323 609Q247 609 207 559Q167 509 167 415V266Q167 171 207 120.5Q247 70 323 70Q399 70 439 120.5Q479 171 479 266Z" glyph-name="Q" horiz-adv-x="647" unicode="Q" /><glyph d="M329 266 193 266V0H106V680H319Q413 680 466.5 630.5Q520 581 520 495V452Q520 392 492.5 348Q465 304 414 283Q455 217 492 146Q529 75 562 0H462Q434 68 400.5 134.5Q367 201 329 266ZM319 600 193 600V346H319Q370 346 400 374.5Q430 403 430 452V495Q430 544 400.5 572Q371 600 319 600Z" glyph-name="R" horiz-adv-x="601" unicode="R" /><glyph d="M245 68Q309 68 342.5 95.5Q376 123 376 176Q376 222 351.5 251.5Q327 281 276 296L195 320Q121 342 84 388Q47 434 47 504Q47 593 100 641.5Q153 690 253 690Q299 690 347 679Q395 668 443 646L415 571Q368 592 329.5 601.5Q291 611 255 611Q194 611 164.5 586Q135 561 135 510Q135 468 158 442Q181 416 231 401L312 377Q388 354 426 306Q464 258 464 183Q464 89 408 39.5Q352 -10 245 -10Q194 -10 141.5 2Q89 14 37 38L64 112Q116 89 158 78.5Q200 68 245 68Z" glyph-name="S" horiz-adv-x="506" unicode="S" /><glyph d="M211 598 13 598V680H496V598H298V0H211Z" glyph-name="T" horiz-adv-x="509" unicode="T" /><glyph d="M92 244 92 680H182V244Q182 158 218 114Q254 70 324 70Q395 70 430.5 114Q466 158 466 244V680H556V244Q556 121 496.5 55.5Q437 -10 324 -10Q211 -10 151.5 55Q92 120 92 244Z" glyph-name="U" horiz-adv-x="648" unicode="U" /><glyph d="M457 680 543 680L326 0H238L20 680H112L220 335L285 117L351 336Z" glyph-name="V" horiz-adv-x="563" unicode="V" /><glyph d="M127 680 186 392L234 117L391 680H472L629 120L679 392L738 680H824L674 0H586L430 556L274 0H185L36 680Z" glyph-name="W" horiz-adv-x="860" unicode="W" /><glyph d="M527 0 429 0L267 277L111 0H20L222 351L30 680H129L279 421L426 680H516L324 347Z" glyph-name="X" horiz-adv-x="548" unicode="X" /><glyph d="M424 680 514 680L306 272V0H219V272L10 680H104L267 358Z" glyph-name="Y" horiz-adv-x="524" unicode="Y" /><glyph d="M144 81 470 81V0H41V70L356 598H51V680H460V609Z" glyph-name="Z" horiz-adv-x="508" unicode="Z" /><glyph d="M97 0 3 0L368 680H779V598H496V385H749V303H496V81H789V0H409V158H181ZM409 590 222 237H409Z" glyph-name="AE" horiz-adv-x="834" unicode="Æ" /><glyph d="M77 266 77 415Q77 541 141 610.5Q205 680 320 680H813V598H531V385H783V303H531V81H823V0H320Q204 0 140.5 69.5Q77 139 77 266ZM322 81 444 81V598H322Q245 598 206 552Q167 506 167 415V266Q167 174 206 127.5Q245 81 322 81Z" glyph-name="OE" horiz-adv-x="868" unicode="Œ" /><glyph d="M203 81 488 81V0H116V277L29 236V320L116 361V680H203V402L339 466V382L203 318Z" glyph-name="Lslash" horiz-adv-x="516" unicode="Ł" /><glyph d="M323 -10Q283 -10 248.5 -1Q214 8 185 26L154 -30H77L134 72Q106 107 91.5 156.5Q77 206 77 266V415Q77 544 142 617Q207 690 323 690Q362 690 396.5 681Q431 672 461 654L492 710H569L512 608Q540 571 554.5 522.5Q569 474 569 415V266Q569 136 504 63Q439 -10 323 -10ZM166 415 166 266Q166 235 170.5 208.5Q175 182 184 160L419 580Q400 595 376 602.5Q352 610 323 610Q247 610 206.5 560Q166 510 166 415ZM480 266 480 415Q480 445 475.5 471.5Q471 498 463 520L227 100Q245 85 269.5 77Q294 69 323 69Q399 69 439.5 120Q480 171 480 266Z" glyph-name="Oslash" horiz-adv-x="647" unicode="Ø" /><glyph d="M29 305 29 384H116V680H327Q442 680 505.5 610.5Q569 541 569 415V266Q569 139 506 69.5Q443 0 327 0H116V305ZM340 384 340 305H203V81H325Q402 81 440.5 127Q479 173 479 266V415Q479 507 440.5 552.5Q402 598 325 598H203V384Z" glyph-name="Eth" horiz-adv-x="647" unicode="Ð" /><glyph d="M318 128 193 128V0H106V680H193V560H318Q413 560 466 510Q519 460 519 371V318Q519 229 466 178.5Q413 128 318 128ZM318 478 193 478V209H318Q371 209 400 237.5Q429 266 429 318V371Q429 422 400 450Q371 478 318 478Z" glyph-name="Thorn" horiz-adv-x="564" unicode="Þ" /><glyph d="M560 176 560 160Q560 81 514 35.5Q468 -10 387 -10Q348 -10 308.5 -0.5Q269 9 231 27L255 101Q288 85 319.5 77Q351 69 384 69Q426 69 448.5 92.5Q471 116 471 160V176Q471 220 452 246Q433 272 386 291L298 326V391L402 584Q379 597 353 603.5Q327 610 298 610Q239 610 207.5 574Q176 538 176 469V0H89V469Q89 573 143.5 631.5Q198 690 295 690Q351 690 399 673Q447 656 482 624V565L381 382L422 366Q497 337 528.5 292.5Q560 248 560 176Z" glyph-name="uni1E9E" horiz-adv-x="603" unicode="ẞ" /><glyph d="M465 -5 450 -5Q408 -5 379 14Q350 33 338 68Q293 27 252.5 8.5Q212 -10 169 -10Q109 -10 75.5 28.5Q42 67 42 135Q42 206 83 241.5Q124 277 205 277Q229 277 260 274Q291 271 329 265V332Q329 383 307 406Q285 429 233 429Q201 429 165.5 420.5Q130 412 90 394L64 462Q112 484 154 494.5Q196 505 237 505Q324 505 366.5 464.5Q409 424 409 338V124Q409 96 420 83Q431 70 454 70H465ZM209 212Q165 212 144 193.5Q123 175 123 136Q123 100 139.5 80Q156 60 185 60Q217 60 252 79Q287 98 329 138V201Q297 206 265.5 209Q234 212 209 212Z" glyph-name="a" horiz-adv-x="493" unicode="a" /><glyph d="M488 276 488 218Q488 110 434 50Q380 -10 283 -10Q234 -10 183.5 3.5Q133 17 85 43V740H167V428Q210 469 248 487Q286 505 326 505Q404 505 446 445Q488 385 488 276ZM306 428Q273 428 241 410Q209 392 167 351V89Q198 76 224.5 70Q251 64 278 64Q340 64 371.5 102.5Q403 141 403 218V276Q403 353 379 390.5Q355 428 306 428Z" glyph-name="b" horiz-adv-x="552" unicode="b" /><glyph d="M263 429Q203 429 174.5 392Q146 355 146 277V218Q146 140 174.5 102.5Q203 65 263 65Q293 65 325 73Q357 81 392 96L417 27Q377 9 336.5 -0.5Q296 -10 258 -10Q164 -10 113 49.5Q62 109 62 218V277Q62 386 113 445.5Q164 505 258 505Q293 505 331.5 496Q370 487 410 469L385 399Q350 414 319.5 421.5Q289 429 263 429Z" glyph-name="c" horiz-adv-x="449" unicode="c" /><glyph d="M467 0 389 0V69Q346 27 308 8.5Q270 -10 228 -10Q150 -10 107 49.5Q64 109 64 218V276Q64 384 118 444.5Q172 505 269 505Q295 505 323.5 499.5Q352 494 385 482V740H467ZM149 276 149 218Q149 141 173 104Q197 67 247 67Q281 67 312 84.5Q343 102 385 142V406Q357 418 330.5 424Q304 430 276 430Q212 430 180.5 392Q149 354 149 276Z" glyph-name="d" horiz-adv-x="556" unicode="d" /><glyph d="M422 97 447 29Q408 10 363 0Q318 -10 274 -10Q171 -10 116.5 48.5Q62 107 62 218V278Q62 383 115.5 444Q169 505 263 505Q348 505 399 454.5Q450 404 450 316Q450 295 447 271Q444 247 438 220H143V218Q143 139 175.5 101.5Q208 64 276 64Q311 64 349.5 72.5Q388 81 422 97ZM370 324Q370 375 341 404Q312 433 263 433Q207 433 176.5 396.5Q146 360 143 290H367Q368 299 369 307.5Q370 316 370 324Z" glyph-name="e" horiz-adv-x="504" unicode="e" /><glyph d="M348 495 348 423H186V0H104V423H18V495H104V577Q104 659 145 704.5Q186 750 263 750Q293 750 325 743Q357 736 385 724L362 655Q337 665 314.5 670Q292 675 273 675Q229 675 207.5 651Q186 627 186 578V495Z" glyph-name="f" horiz-adv-x="350" unicode="f" /><glyph d="M484 -62Q484 -136 424 -179.5Q364 -223 261 -223Q204 -223 148.5 -208Q93 -193 46 -164L74 -100Q119 -126 165 -138.5Q211 -151 261 -151Q328 -151 365.5 -129.5Q403 -108 403 -70Q403 -42 384 -28Q365 -14 327 -14H212Q155 -14 122 13.5Q89 41 89 85Q89 110 100.5 135.5Q112 161 135 187Q98 209 78 246.5Q58 284 58 333Q58 413 107.5 459Q157 505 240 505H257Q275 505 291 502.5Q307 500 321 495H499V422L391 437Q415 417 426.5 390Q438 363 438 328Q438 252 388 206.5Q338 161 257 161H240Q229 161 217 162Q205 163 191 166Q177 150 169.5 134Q162 118 162 103Q162 83 176 73Q190 63 218 63H330Q403 63 443.5 30.5Q484 -2 484 -62ZM240 232 257 232Q301 232 328.5 259.5Q356 287 356 333Q356 379 328.5 406.5Q301 434 257 434H240Q195 434 167.5 406.5Q140 379 140 333Q140 286 167.5 259Q195 232 240 232Z" glyph-name="g" horiz-adv-x="520" unicode="g" /><glyph d="M326 428Q291 428 253 410.5Q215 393 170 357V0H88V740H170V429Q217 468 259 486.5Q301 505 346 505Q414 505 451 461.5Q488 418 488 338V0H406V326Q406 378 386.5 403Q367 428 326 428Z" glyph-name="h" horiz-adv-x="571" unicode="h" /><glyph d="M175 708 175 616H83V708ZM170 495 170 0H88V495Z" glyph-name="i" horiz-adv-x="259" unicode="i" /><glyph d="M175 708 175 616H83V708ZM-20 -223 -20 -145Q39 -145 63.5 -116.5Q88 -88 88 -23V495H170V-23Q170 -125 123 -174Q76 -223 -20 -223Z" glyph-name="j" horiz-adv-x="259" unicode="j" /><glyph d="M492 0 393 0L254 229Q237 212 216.5 192.5Q196 173 170 150V0H88V740H170V242Q240 310 289.5 370Q339 430 378 495H472Q437 436 399.5 385.5Q362 335 314 282Z" glyph-name="k" horiz-adv-x="508" unicode="k" /><glyph d="M87 120 87 740H169V124Q169 93 179 81.5Q189 70 212 70H228V-5H205Q146 -5 116.5 26Q87 57 87 120Z" glyph-name="l" horiz-adv-x="264" unicode="l" /><glyph d="M321 428Q288 428 252 411Q216 394 170 357V0H88V495H166V426Q216 467 257.5 486Q299 505 341 505Q386 505 418 484Q450 463 465 422Q516 465 560 485Q604 505 649 505Q714 505 749.5 461.5Q785 418 785 338V0H703V326Q703 378 685 403Q667 428 629 428Q596 428 560 411Q524 394 477 357Q478 354 478 350Q478 346 478 338V0H396V326Q396 378 377.5 403Q359 428 321 428Z" glyph-name="m" horiz-adv-x="869" unicode="m" /><glyph d="M326 428Q291 428 253 410.5Q215 393 170 357V0H88V495H166V426Q214 467 257.5 486Q301 505 346 505Q414 505 451 461.5Q488 418 488 338V0H406V326Q406 378 386.5 403Q367 428 326 428Z" glyph-name="n" horiz-adv-x="571" unicode="n" /><glyph d="M270 505Q369 505 424.5 444.5Q480 384 480 278V218Q480 110 424.5 50Q369 -10 270 -10Q171 -10 115.5 50Q60 110 60 218V278Q60 384 115.5 444.5Q171 505 270 505ZM395 218 395 278Q395 350 362.5 390Q330 430 270 430Q211 430 178 390Q145 350 145 278V218Q145 144 177.5 104Q210 64 270 64Q331 64 363 103.5Q395 143 395 218Z" glyph-name="o" horiz-adv-x="541" unicode="o" /><glyph d="M286 -10Q258 -10 229 -4.5Q200 1 170 13V-213H88V495H166V425Q209 467 247.5 486Q286 505 328 505Q406 505 449 445Q492 385 492 276V218Q492 111 438 50.5Q384 -10 286 -10ZM308 428Q275 428 243.5 410.5Q212 393 170 352V88Q198 76 224.5 70Q251 64 279 64Q343 64 375 102.5Q407 141 407 218V276Q407 353 382.5 390.5Q358 428 308 428Z" glyph-name="p" horiz-adv-x="556" unicode="p" /><glyph d="M269 505Q317 505 367.5 491.5Q418 478 467 451V-213H385V67Q342 27 304.5 8.5Q267 -10 226 -10Q149 -10 106.5 49.5Q64 109 64 218V276Q64 384 118 444.5Q172 505 269 505ZM149 276 149 218Q149 141 173 104Q197 67 246 67Q280 67 311.5 84.5Q343 102 385 143V405Q354 418 327.5 424Q301 430 274 430Q211 430 180 391.5Q149 353 149 276Z" glyph-name="q" horiz-adv-x="553" unicode="q" /><glyph d="M348 505 348 423Q297 423 255 404.5Q213 386 170 346V0H88V495H166V415Q214 463 257 484Q300 505 348 505Z" glyph-name="r" horiz-adv-x="367" unicode="r" /><glyph d="M209 63Q259 63 284 80Q309 97 309 131Q309 161 290 178Q271 195 225 206L170 220Q111 235 80 271.5Q49 308 49 362Q49 428 93 466.5Q137 505 216 505Q256 505 295.5 495.5Q335 486 374 468L348 399Q311 416 278 424Q245 432 216 432Q173 432 151 415.5Q129 399 129 367Q129 338 147 321Q165 304 205 295L260 281Q325 265 356.5 229.5Q388 194 388 136Q388 65 343 27.5Q298 -10 211 -10Q166 -10 123.5 -0.5Q81 9 38 28L60 96Q103 79 138 71Q173 63 209 63Z" glyph-name="s" horiz-adv-x="431" unicode="s" /><glyph d="M335 85 360 18Q333 4 302.5 -3Q272 -10 241 -10Q171 -10 136 30.5Q101 71 101 153V423H15V495H101V633H183V495H345V423H183V156Q183 106 199 85.5Q215 65 255 65Q275 65 294.5 70Q314 75 335 85Z" glyph-name="t" horiz-adv-x="380" unicode="t" /><glyph d="M470 0 393 0V70Q344 28 303 9Q262 -10 218 -10Q152 -10 117 33Q82 76 82 156V495H164V168Q164 116 182 91.5Q200 67 238 67Q272 67 308 84Q344 101 388 137V495H470Z" glyph-name="u" horiz-adv-x="559" unicode="u" /><glyph d="M369 495 450 495L275 0H198L21 495H106L189 254L239 103L288 254Z" glyph-name="v" horiz-adv-x="472" unicode="v" /><glyph d="M604 495 685 495L558 0H463L359 406L252 0H157L31 495H115L165 288L210 83L317 495H404L511 81L555 287Z" glyph-name="w" horiz-adv-x="716" unicode="w" /><glyph d="M440 0 350 0L227 193L109 0H22L186 256L34 495H125L234 322L341 495H427L276 258Z" glyph-name="x" horiz-adv-x="463" unicode="x" /><glyph d="M450 495 257 -50Q223 -144 175.5 -183.5Q128 -223 49 -223V-142Q107 -141 135.5 -116.5Q164 -92 189 -28L199 -3L21 495H105L188 254L239 100L288 254L369 495Z" glyph-name="y" horiz-adv-x="472" unicode="y" /><glyph d="M131 71 379 71V0H35V64L272 423H45V495H369V430Z" glyph-name="z" horiz-adv-x="412" unicode="z" /><glyph d="M690 97 715 29Q674 10 629 0Q584 -10 541 -10Q477 -10 431.5 12.5Q386 35 361 80Q310 33 264 11.5Q218 -10 170 -10Q110 -10 76 29Q42 68 42 135Q42 206 83 241.5Q124 277 205 277Q229 277 260 274Q291 271 329 265V332Q329 383 307 406Q285 429 233 429Q201 429 165.5 420.5Q130 412 90 394L64 462Q112 484 154 494.5Q196 505 237 505Q293 505 329 487Q365 469 383 432Q407 468 444.5 486.5Q482 505 531 505Q616 505 667 454.5Q718 404 718 316Q718 294 715 270.5Q712 247 705 222H410V218Q410 140 443 102Q476 64 544 64Q579 64 617 72.5Q655 81 690 97ZM637 324Q637 375 608 404Q579 433 531 433Q475 433 443.5 396Q412 359 410 289H634Q636 299 636.5 307.5Q637 316 637 324ZM209 212Q165 212 144.5 193.5Q124 175 124 136Q124 100 140 80Q156 60 185 60Q219 60 256.5 80.5Q294 101 337 143Q334 158 332 172Q330 186 329 200Q298 206 266.5 209Q235 212 209 212Z" glyph-name="ae" horiz-adv-x="771" unicode="æ" /><glyph d="M756 97 781 29Q740 10 695 0Q650 -10 608 -10Q548 -10 504.5 13Q461 36 437 81Q413 37 370 13.5Q327 -10 270 -10Q171 -10 115.5 50Q60 110 60 218V278Q60 384 115.5 444.5Q171 505 270 505Q327 505 369.5 481Q412 457 437 412Q461 457 502 481Q543 505 597 505Q682 505 733 454.5Q784 404 784 316Q784 295 781 271.5Q778 248 772 222H476V218Q476 140 509 102Q542 64 610 64Q645 64 683 72.5Q721 81 756 97ZM703 324Q703 375 674.5 404Q646 433 597 433Q541 433 509.5 396Q478 359 476 289H700Q702 299 702.5 307.5Q703 316 703 324ZM395 218 395 278Q395 351 362.5 390.5Q330 430 270 430Q210 430 177.5 390Q145 350 145 278V218Q145 144 177.5 104Q210 64 270 64Q331 64 363 103.5Q395 143 395 218Z" glyph-name="oe" horiz-adv-x="838" unicode="œ" /><glyph d="M233 70 249 70V-5H226Q166 -5 137 25.5Q108 56 108 120V307L21 257V340L108 390V740H190V436L277 486V403L190 353V124Q190 93 200 81.5Q210 70 233 70Z" glyph-name="lslash" horiz-adv-x="302" unicode="ł" /><glyph d="M270 -10Q239 -10 212 -4Q185 2 162 14L134 -30H60L112 54Q86 83 73 125Q60 167 60 218V278Q60 384 115.5 444.5Q171 505 270 505Q301 505 328.5 498.5Q356 492 379 480L407 525H480L428 441Q454 412 467 370.5Q480 329 480 278V218Q480 110 424.5 50Q369 -10 270 -10ZM143 278 143 218Q143 193 147 170.5Q151 148 159 129L338 415Q323 424 306.5 428Q290 432 270 432Q210 432 176.5 391.5Q143 351 143 278ZM397 218 397 278Q397 303 392.5 325.5Q388 348 380 365L202 79Q217 71 234 66.5Q251 62 270 62Q332 62 364.5 102Q397 142 397 218Z" glyph-name="oslash" horiz-adv-x="541" unicode="ø" /><glyph d="M480 294 480 254Q480 125 424.5 57.5Q369 -10 264 -10Q164 -10 109.5 43.5Q55 97 55 196V232Q55 328 106.5 385Q158 442 245 442Q283 442 316.5 430Q350 418 384 393Q372 442 348 486Q324 530 288 569L159 482V559L241 614Q216 635 191 652.5Q166 670 139 686L172 750Q210 727 243 704Q276 681 303 657L441 750V673L350 611Q415 541 447.5 461.5Q480 382 480 294ZM140 232 140 196Q140 131 171.5 97.5Q203 64 264 64Q329 64 362 111.5Q395 159 395 254V307Q358 338 325.5 352Q293 366 259 366Q203 366 171.5 330.5Q140 295 140 232Z" glyph-name="eth" horiz-adv-x="538" unicode="ð" /><glyph d="M286 -10Q258 -10 229 -4.5Q200 1 170 13V-213H88V740H170V429Q212 469 249.5 487Q287 505 328 505Q406 505 448 445Q490 385 490 276V218Q490 110 436.5 50Q383 -10 286 -10ZM308 428Q275 428 243.5 410.5Q212 393 170 352V88Q198 76 224.5 70Q251 64 279 64Q342 64 373.5 102.5Q405 141 405 218V276Q405 353 381 390.5Q357 428 308 428Z" glyph-name="thorn" horiz-adv-x="554" unicode="þ" /><glyph d="M578 138Q578 69 535 29.5Q492 -10 415 -10Q380 -10 342.5 -1.5Q305 7 268 23L290 94Q324 78 354.5 70Q385 62 414 62Q454 62 476 80Q498 98 498 132Q498 158 485 178.5Q472 199 444 219L394 254Q354 282 335.5 312.5Q317 343 317 381Q317 404 324 428Q331 452 352 496Q372 536 378 556.5Q384 577 384 596Q384 633 357.5 654Q331 675 285 675Q234 675 210 649.5Q186 624 186 569V0H104V423H18V495H104V569Q104 655 150.5 702.5Q197 750 284 750Q368 750 416.5 710.5Q465 671 465 600Q465 574 457.5 547.5Q450 521 427 478Q409 443 403.5 425.5Q398 408 398 392Q398 370 409 353Q420 336 444 320L494 286Q537 257 557.5 220.5Q578 184 578 138Z" glyph-name="germandbls" horiz-adv-x="608" unicode="ß" /><glyph d="M170 495 170 0H88V495Z" glyph-name="dotlessi" horiz-adv-x="259" unicode="ı" /><glyph d="M-20 -223 -20 -145Q39 -145 63.5 -116.5Q88 -88 88 -23V495H170V-23Q170 -125 123 -174Q76 -223 -20 -223Z" glyph-name="dotlessj" horiz-adv-x="259" unicode="ȷ" /><glyph d="M302 675Q244 675 215 648.5Q186 622 186 568V495H493V0H411V423H186V0H104V423H18V495H104V567Q104 655 154.5 702.5Q205 750 300 750Q344 750 389.5 740Q435 730 479 710L450 645Q411 660 373.5 667.5Q336 675 302 675Z" glyph-name="fi" horiz-adv-x="582" unicode="ﬁ" /><glyph d="M493 0 411 0V423H186V0H104V423H18V495H104V570Q104 651 145 695.5Q186 740 262 740Q288 740 316 734.5Q344 729 371 718L347 648Q325 656 304.5 660.5Q284 665 267 665Q226 665 206 641.5Q186 618 186 570V495H411V567Q411 655 461.5 702.5Q512 750 607 750Q651 750 696 740Q741 730 786 710L757 645Q718 660 680.5 667.5Q643 675 609 675Q550 675 521.5 648.5Q493 622 493 568V495H800V0H718V423H493Z" glyph-name="ffi" horiz-adv-x="889" unicode="ﬃ" /><glyph d="M541 70 557 70V-5H535Q475 -5 445.5 26Q416 57 416 120V656Q381 666 352.5 670.5Q324 675 297 675Q240 675 213 649Q186 623 186 568V495H340V423H186V0H104V423H18V495H104V567Q104 655 153 702.5Q202 750 295 750Q343 750 394.5 738Q446 726 498 703V124Q498 94 508 82Q518 70 541 70Z" glyph-name="fl" horiz-adv-x="593" unicode="ﬂ" /><glyph d="M267 665Q226 665 206 641.5Q186 618 186 570V495H411V567Q411 655 460 702.5Q509 750 602 750Q650 750 701.5 738Q753 726 805 703V124Q805 94 815 82Q825 70 848 70H864V-5H842Q782 -5 752.5 26Q723 57 723 120V656Q688 666 659.5 670.5Q631 675 604 675Q547 675 520 649Q493 623 493 568V495H647V423H493V0H411V423H186V0H104V423H18V495H104V570Q104 651 145 695.5Q186 740 262 740Q288 740 316 734.5Q344 729 371 718L347 648Q325 656 304.5 660.5Q284 665 267 665Z" glyph-name="ffl" horiz-adv-x="900" unicode="ﬄ" /><glyph d="M552 -10Q484 -10 450 29.5Q416 69 416 149V423H186V0H104V423H18V495H104V567Q104 655 153 702.5Q202 750 295 750Q343 750 394.5 738Q446 726 498 703V495H660V423H498V152Q498 105 513 85Q528 65 566 65Q587 65 607.5 70.5Q628 76 651 88L675 20Q646 5 614.5 -2.5Q583 -10 552 -10ZM297 675Q240 675 213 649Q186 623 186 568V495H416V656Q381 666 352.5 670.5Q324 675 297 675Z" glyph-name="ft" horiz-adv-x="695" unicode="" /><glyph d="M267 665Q226 665 206 641.5Q186 618 186 570V495H411V567Q411 655 460 702.5Q509 750 602 750Q650 750 701.5 738Q753 726 805 703V495H967V423H805V152Q805 105 820 85Q835 65 873 65Q894 65 914.5 70.5Q935 76 958 88L982 20Q953 5 921.5 -2.5Q890 -10 859 -10Q791 -10 757 29.5Q723 69 723 149V423H493V0H411V423H186V0H104V423H18V495H104V570Q104 651 145 695.5Q186 740 262 740Q288 740 316 734.5Q344 729 371 718L347 648Q325 656 304.5 660.5Q284 665 267 665ZM604 675Q547 675 520 649Q493 623 493 568V495H723V656Q688 666 659.5 670.5Q631 675 604 675Z" glyph-name="fft" horiz-adv-x="1002" unicode="" /><glyph d="M820 276 820 218Q820 110 766 50Q712 -10 615 -10Q566 -10 516 3.5Q466 17 416 43V656Q381 666 352.5 670.5Q324 675 297 675Q240 675 213 649Q186 623 186 568V495H340V423H186V0H104V423H18V495H104V567Q104 655 153 702.5Q202 750 295 750Q343 750 394.5 738Q446 726 498 703V427Q541 468 578.5 486.5Q616 505 657 505Q735 505 777.5 445Q820 385 820 276ZM638 428Q605 428 573.5 410Q542 392 498 350V89Q528 76 555 70Q582 64 609 64Q672 64 703.5 102.5Q735 141 735 218V276Q735 353 711 390.5Q687 428 638 428Z" glyph-name="fb" horiz-adv-x="884" unicode="" /><glyph d="M267 665Q226 665 206 641.5Q186 618 186 570V495H411V567Q411 655 460 702.5Q509 750 602 750Q650 750 701.5 738Q753 726 805 703V427Q848 468 885.5 486.5Q923 505 964 505Q1042 505 1084.5 445Q1127 385 1127 276V218Q1127 110 1073 50Q1019 -10 922 -10Q873 -10 823 3.5Q773 17 723 43V656Q688 666 659.5 670.5Q631 675 604 675Q547 675 520 649Q493 623 493 568V495H647V423H493V0H411V423H186V0H104V423H18V495H104V570Q104 651 145 695.5Q186 740 262 740Q288 740 316 734.5Q344 729 371 718L347 648Q325 656 304.5 660.5Q284 665 267 665ZM945 428Q912 428 880.5 410Q849 392 805 350V89Q835 76 862 70Q889 64 916 64Q979 64 1010.5 102.5Q1042 141 1042 218V276Q1042 353 1018 390.5Q994 428 945 428Z" glyph-name="ffb" horiz-adv-x="1191" unicode="" /><glyph d="M493 0 411 0V423H186V0H104V423H18V495H104V570Q104 651 145 695.5Q186 740 262 740Q288 740 316 734.5Q344 729 371 718L347 648Q325 656 304.5 660.5Q284 665 267 665Q226 665 206 641.5Q186 618 186 570V495H411V577Q411 659 452 704.5Q493 750 570 750Q600 750 631.5 743Q663 736 692 724L669 655Q644 665 621.5 670Q599 675 580 675Q536 675 514.5 651Q493 627 493 578V495H655V423H493Z" glyph-name="ff" horiz-adv-x="657" unicode="ﬀ" /><glyph d="M493 0 411 0V423H186V0H104V423H18V495H104V570Q104 651 145 695.5Q186 740 262 740Q288 740 316 734.5Q344 729 371 718L347 648Q325 656 304.5 660.5Q284 665 267 665Q226 665 206 641.5Q186 618 186 570V495H411V570Q411 651 452 695.5Q493 740 569 740Q595 740 623 734.5Q651 729 678 718L654 648Q632 656 611.5 660.5Q591 665 574 665Q533 665 513 641.5Q493 618 493 570V495H718V577Q718 659 759 704.5Q800 750 877 750Q907 750 938.5 743Q970 736 999 724L976 655Q951 665 928.5 670Q906 675 887 675Q843 675 821.5 651Q800 627 800 578V495H962V423H800V0H718V423H493Z" glyph-name="fff" horiz-adv-x="964" unicode="" /><glyph d="M340 495 340 423H186V0H104V423H18V495H104V567Q104 655 153 702.5Q202 750 295 750Q343 750 394.5 738Q446 726 498 703V429Q545 468 587.5 486.5Q630 505 674 505Q742 505 779 461.5Q816 418 816 338V0H734V326Q734 378 714.5 403Q695 428 654 428Q619 428 581.5 410.5Q544 393 498 357V0H416V656Q381 666 352.5 670.5Q324 675 297 675Q240 675 213 649Q186 623 186 568V495Z" glyph-name="fh" horiz-adv-x="899" unicode="" /><glyph d="M493 0 411 0V423H186V0H104V423H18V495H104V570Q104 651 145 695.5Q186 740 262 740Q288 740 316 734.5Q344 729 371 718L347 648Q325 656 304.5 660.5Q284 665 267 665Q226 665 206 641.5Q186 618 186 570V495H411V567Q411 655 460 702.5Q509 750 602 750Q650 750 701.5 738Q753 726 805 703V429Q852 468 894.5 486.5Q937 505 981 505Q1049 505 1086 461.5Q1123 418 1123 338V0H1041V326Q1041 378 1021.5 403Q1002 428 961 428Q926 428 888.5 410.5Q851 393 805 357V0H723V656Q688 666 659.5 670.5Q631 675 604 675Q547 675 520 649Q493 623 493 568V495H647V423H493Z" glyph-name="ffh" horiz-adv-x="1206" unicode="" /><glyph d="M302 675Q244 675 215 648.5Q186 622 186 568V495H493V-23Q493 -125 446 -174Q399 -223 302 -223V-145Q361 -145 386 -116.5Q411 -88 411 -23V423H186V0H104V423H18V495H104V567Q104 655 154.5 702.5Q205 750 300 750Q344 750 389.5 740Q435 730 479 710L450 645Q411 660 373.5 667.5Q336 675 302 675Z" glyph-name="fj" horiz-adv-x="582" unicode="" /><glyph d="M609 675Q550 675 521.5 648.5Q493 622 493 568V495H800V-23Q800 -125 753 -174Q706 -223 609 -223V-145Q668 -145 693 -116.5Q718 -88 718 -23V423H493V0H411V423H186V0H104V423H18V495H104V570Q104 651 145 695.5Q186 740 262 740Q288 740 316 734.5Q344 729 371 718L347 648Q325 656 304.5 660.5Q284 665 267 665Q226 665 206 641.5Q186 618 186 570V495H411V567Q411 655 461.5 702.5Q512 750 607 750Q651 750 696 740Q741 730 786 710L757 645Q718 660 680.5 667.5Q643 675 609 675Z" glyph-name="ffj" horiz-adv-x="889" unicode="" /><glyph d="M340 495 340 423H186V0H104V423H18V495H104V567Q104 655 153 702.5Q202 750 295 750Q343 750 394.5 738Q446 726 498 703V242Q568 310 617.5 370Q667 430 706 495H800Q765 436 727.5 385.5Q690 335 642 282L820 0H721L582 229Q565 212 544.5 192.5Q524 173 498 150V0H416V656Q381 666 352.5 670.5Q324 675 297 675Q240 675 213 649Q186 623 186 568V495Z" glyph-name="fk" horiz-adv-x="836" unicode="" /><glyph d="M493 0 411 0V423H186V0H104V423H18V495H104V570Q104 651 145 695.5Q186 740 262 740Q288 740 316 734.5Q344 729 371 718L347 648Q325 656 304.5 660.5Q284 665 267 665Q226 665 206 641.5Q186 618 186 570V495H411V567Q411 655 460 702.5Q509 750 602 750Q650 750 701.5 738Q753 726 805 703V242Q875 310 924.5 370Q974 430 1013 495H1107Q1072 436 1034.5 385.5Q997 335 949 282L1127 0H1028L889 229Q872 212 851.5 192.5Q831 173 805 150V0H723V656Q688 666 659.5 670.5Q631 675 604 675Q547 675 520 649Q493 623 493 568V495H647V423H493Z" glyph-name="ffk" horiz-adv-x="1143" unicode="" /><glyph d="M556 0 466 0L415 158H157L106 0H21L247 680H329ZM286 564 220 354L182 237H389L351 354ZM421 894 324 764H253L343 930Z" glyph-name="Aacute" horiz-adv-x="577" unicode="Á" /><glyph d="M556 0 466 0L415 158H157L106 0H21L247 680H329ZM286 564 220 354L182 237H389L351 354ZM422 764 353 764L286 859L219 764H154L247 925H329Z" glyph-name="Acircumflex" horiz-adv-x="577" unicode="Â" /><glyph d="M556 0 466 0L415 158H157L106 0H21L247 680H329ZM286 564 220 354L182 237H389L351 354ZM235 890 235 804H149V890ZM426 890 426 804H340V890Z" glyph-name="Adieresis" horiz-adv-x="577" unicode="Ä" /><glyph d="M556 0 466 0L415 158H157L106 0H21L247 680H329ZM286 564 220 354L182 237H389L351 354ZM323 764 252 764L154 894L233 930Z" glyph-name="Agrave" horiz-adv-x="577" unicode="À" /><glyph d="M415 158 157 158L106 0H21L233 637Q205 650 190 675Q175 700 175 734V745Q175 794 206 823.5Q237 853 289 853Q340 853 371.5 823Q403 793 403 745V734Q403 700 387.5 674.5Q372 649 344 636L556 0H466ZM343 734 343 745Q343 769 328 783.5Q313 798 289 798Q264 798 249 783.5Q234 769 234 745V734Q234 709 249 694.5Q264 680 289 680Q313 680 328 695Q343 710 343 734ZM286 564 220 354L182 237H389L351 354Z" glyph-name="Aring" horiz-adv-x="577" unicode="Å" /><glyph d="M556 0 466 0L415 158H157L106 0H21L247 680H329ZM286 564 220 354L182 237H389L351 354ZM348 773Q327 773 309.5 783Q292 793 268 824Q253 844 245 849.5Q237 855 229 855Q216 855 210.5 838Q205 821 205 785H142Q143 853 164.5 888Q186 923 227 923Q248 923 265.5 912.5Q283 902 307 871Q322 852 330 846Q338 840 346 840Q359 840 364.5 857Q370 874 371 910H434Q433 841 411.5 807Q390 773 348 773Z" glyph-name="Atilde" horiz-adv-x="577" unicode="Ã" /><glyph d="M556 0 466 0L415 158H157L106 0H21L247 680H329ZM286 564 220 354L182 237H389L351 354ZM288 833Q320 833 335 853Q350 873 353 916H419Q414 844 380.5 807Q347 770 288 770Q228 770 195 807Q162 844 157 916H222Q225 873 240.5 853Q256 833 288 833Z" glyph-name="Abreve" horiz-adv-x="577" unicode="Ă" /><glyph d="M556 0 466 0L415 158H157L106 0H21L247 680H329ZM286 564 220 354L182 237H389L351 354ZM145 857 431 857V794H145Z" glyph-name="Amacron" horiz-adv-x="577" unicode="Ā" /><glyph d="M541 -143 556 -206Q535 -215 515.5 -219Q496 -223 477 -223Q430 -223 403 -199.5Q376 -176 376 -136Q376 -103 397.5 -70.5Q419 -38 466 1L415 158H157L106 0H21L247 680H329L556 0Q497 -45 474 -72Q451 -99 451 -123Q451 -139 460.5 -147Q470 -155 488 -155Q500 -155 513.5 -152Q527 -149 541 -143ZM286 564 220 354L182 237H389L351 354Z" glyph-name="Aogonek" horiz-adv-x="577" unicode="Ą" /><glyph d="M412 -132Q412 -174 381.5 -198.5Q351 -223 299 -223Q280 -223 260.5 -219.5Q241 -216 220 -208L231 -152Q247 -158 265 -161Q283 -164 298 -164Q321 -164 333 -156Q345 -148 345 -133Q345 -118 333 -110.5Q321 -103 297 -103Q293 -103 289 -103.5Q285 -104 274 -105L250 -67L261 -5Q171 10 123 80.5Q75 151 75 265V415Q75 546 138 618Q201 690 315 690Q358 690 402.5 679.5Q447 669 491 648L463 573Q421 592 386 600.5Q351 609 318 609Q242 609 203.5 560Q165 511 165 415V265Q165 168 203.5 119Q242 70 318 70Q353 70 386.5 78.5Q420 87 464 106L493 32Q449 12 406 1.5Q363 -9 320 -10L313 -50Q360 -50 386 -71.5Q412 -93 412 -132Z" glyph-name="Ccedilla" horiz-adv-x="529" unicode="Ç" /><glyph d="M165 415 165 265Q165 168 203.5 119Q242 70 318 70Q353 70 386.5 78.5Q420 87 464 106L493 32Q447 11 403 0.5Q359 -10 315 -10Q200 -10 137.5 62Q75 134 75 265V415Q75 546 138 618Q201 690 315 690Q358 690 402.5 679.5Q447 669 491 648L463 573Q421 592 386 600.5Q351 609 318 609Q242 609 203.5 560Q165 511 165 415ZM446 894 349 764H278L368 930Z" glyph-name="Cacute" horiz-adv-x="529" unicode="Ć" /><glyph d="M165 415 165 265Q165 168 203.5 119Q242 70 318 70Q353 70 386.5 78.5Q420 87 464 106L493 32Q447 11 403 0.5Q359 -10 315 -10Q200 -10 137.5 62Q75 134 75 265V415Q75 546 138 618Q201 690 315 690Q358 690 402.5 679.5Q447 669 491 648L463 573Q421 592 386 600.5Q351 609 318 609Q242 609 203.5 560Q165 511 165 415ZM381 925 446 925L353 764H271L178 925H247L314 830Z" glyph-name="Ccaron" horiz-adv-x="529" unicode="Č" /><glyph d="M165 415 165 265Q165 168 203.5 119Q242 70 318 70Q353 70 386.5 78.5Q420 87 464 106L493 32Q447 11 403 0.5Q359 -10 315 -10Q200 -10 137.5 62Q75 134 75 265V415Q75 546 138 618Q201 690 315 690Q358 690 402.5 679.5Q447 669 491 648L463 573Q421 592 386 600.5Q351 609 318 609Q242 609 203.5 560Q165 511 165 415ZM446 764 377 764L310 859L243 764H178L271 925H353Z" glyph-name="Ccircumflex" horiz-adv-x="529" unicode="Ĉ" /><glyph d="M165 415 165 265Q165 168 203.5 119Q242 70 318 70Q353 70 386.5 78.5Q420 87 464 106L493 32Q447 11 403 0.5Q359 -10 315 -10Q200 -10 137.5 62Q75 134 75 265V415Q75 546 138 618Q201 690 315 690Q358 690 402.5 679.5Q447 669 491 648L463 573Q421 592 386 600.5Q351 609 318 609Q242 609 203.5 560Q165 511 165 415ZM359 893 359 801H267V893Z" glyph-name="Cdotaccent" horiz-adv-x="529" unicode="Ċ" /><glyph d="M317 0 106 0V680H317Q432 680 496 610.5Q560 541 560 415V266Q560 139 496.5 69.5Q433 0 317 0ZM315 598 193 598V81H315Q392 81 431 127.5Q470 174 470 266V415Q470 506 431 552Q392 598 315 598ZM381 925 446 925L353 764H271L178 925H247L314 830Z" glyph-name="Dcaron" horiz-adv-x="637" unicode="Ď" /><glyph d="M29 305 29 384H116V680H327Q442 680 505.5 610.5Q569 541 569 415V266Q569 139 506 69.5Q443 0 327 0H116V305ZM340 384 340 305H203V81H325Q402 81 440.5 127Q479 173 479 266V415Q479 507 440.5 552.5Q402 598 325 598H203V384Z" glyph-name="Dcroat" horiz-adv-x="647" unicode="Đ" /><glyph d="M193 81 486 81V0H106V680H476V598H193V385H446V303H193ZM423 894 326 764H255L345 930Z" glyph-name="Eacute" horiz-adv-x="531" unicode="É" /><glyph d="M193 81 486 81V0H106V680H476V598H193V385H446V303H193ZM424 764 355 764L288 859L221 764H156L249 925H331Z" glyph-name="Ecircumflex" horiz-adv-x="531" unicode="Ê" /><glyph d="M193 81 486 81V0H106V680H476V598H193V385H446V303H193ZM237 890 237 804H151V890ZM428 890 428 804H342V890Z" glyph-name="Edieresis" horiz-adv-x="531" unicode="Ë" /><glyph d="M193 81 486 81V0H106V680H476V598H193V385H446V303H193ZM325 764 254 764L156 894L235 930Z" glyph-name="Egrave" horiz-adv-x="531" unicode="È" /><glyph d="M193 81 486 81V0H106V680H476V598H193V385H446V303H193ZM290 833Q322 833 337 853Q352 873 355 916H421Q416 844 382.5 807Q349 770 290 770Q230 770 197 807Q164 844 159 916H224Q227 873 242.5 853Q258 833 290 833Z" glyph-name="Ebreve" horiz-adv-x="531" unicode="Ĕ" /><glyph d="M193 81 486 81V0H106V680H476V598H193V385H446V303H193ZM359 925 424 925L331 764H249L156 925H225L292 830Z" glyph-name="Ecaron" horiz-adv-x="531" unicode="Ě" /><glyph d="M193 81 486 81V0H106V680H476V598H193V385H446V303H193ZM336 893 336 801H244V893Z" glyph-name="Edotaccent" horiz-adv-x="531" unicode="Ė" /><glyph d="M193 81 486 81V0H106V680H476V598H193V385H446V303H193ZM147 857 433 857V794H147Z" glyph-name="Emacron" horiz-adv-x="531" unicode="Ē" /><glyph d="M471 -143 486 -206Q465 -215 445.5 -219Q426 -223 407 -223Q360 -223 333 -199.5Q306 -176 306 -136Q306 -103 327.5 -71Q349 -39 398 0H106V680H476V598H193V385H446V303H193V81H486V0Q428 -46 404.5 -73Q381 -100 381 -123Q381 -139 390.5 -147Q400 -155 418 -155Q430 -155 443.5 -152Q457 -149 471 -143Z" glyph-name="Eogonek" horiz-adv-x="531" unicode="Ę" /><glyph d="M536 356 536 47Q494 20 439.5 5Q385 -10 325 -10Q208 -10 142 64Q76 138 76 266V415Q76 546 142 618Q208 690 328 690Q376 690 425.5 679Q475 668 521 647L493 572Q447 591 407 600Q367 609 329 609Q248 609 207 560Q166 511 166 415V266Q166 172 208.5 121Q251 70 331 70Q362 70 396 77Q430 84 456 96V279H329V356ZM328 833Q360 833 375 853Q390 873 393 916H459Q454 844 420.5 807Q387 770 328 770Q268 770 235 807Q202 844 197 916H262Q265 873 280.5 853Q296 833 328 833Z" glyph-name="Gbreve" horiz-adv-x="604" unicode="Ğ" /><glyph d="M536 356 536 47Q494 20 439.5 5Q385 -10 325 -10Q208 -10 142 64Q76 138 76 266V415Q76 546 142 618Q208 690 328 690Q376 690 425.5 679Q475 668 521 647L493 572Q447 591 407 600Q367 609 329 609Q248 609 207 560Q166 511 166 415V266Q166 172 208.5 121Q251 70 331 70Q362 70 396 77Q430 84 456 96V279H329V356ZM462 764 393 764L326 859L259 764H194L287 925H369Z" glyph-name="Gcircumflex" horiz-adv-x="604" unicode="Ĝ" /><glyph d="M536 356 536 47Q494 20 439.5 5Q385 -10 325 -10Q208 -10 142 64Q76 138 76 266V415Q76 546 142 618Q208 690 328 690Q376 690 425.5 679Q475 668 521 647L493 572Q447 591 407 600Q367 609 329 609Q248 609 207 560Q166 511 166 415V266Q166 172 208.5 121Q251 70 331 70Q362 70 396 77Q430 84 456 96V279H329V356ZM372 -77 302 -248L252 -234L283 -77Z" glyph-name="Gcommaaccent" horiz-adv-x="604" unicode="Ģ" /><glyph d="M536 356 536 47Q494 20 439.5 5Q385 -10 325 -10Q208 -10 142 64Q76 138 76 266V415Q76 546 142 618Q208 690 328 690Q376 690 425.5 679Q475 668 521 647L493 572Q447 591 407 600Q367 609 329 609Q248 609 207 560Q166 511 166 415V266Q166 172 208.5 121Q251 70 331 70Q362 70 396 77Q430 84 456 96V279H329V356ZM374 893 374 801H282V893Z" glyph-name="Gdotaccent" horiz-adv-x="604" unicode="Ġ" /><glyph d="M499 303 202 303V0H115V504H29V571H115V680H202V571H499V680H586V571H673V504H586V0H499ZM202 504 202 385H499V504Z" glyph-name="Hbar" horiz-adv-x="703" unicode="Ħ" /><glyph d="M577 0 490 0V303H193V0H106V680H193V385H490V680H577ZM475 764 406 764L339 859L272 764H207L300 925H382Z" glyph-name="Hcircumflex" horiz-adv-x="683" unicode="Ĥ" /><glyph d="M193 680 193 0H106V680ZM284 894 187 764H116L206 930Z" glyph-name="Iacute" horiz-adv-x="300" unicode="Í" /><glyph d="M193 680 193 0H106V680ZM284 764 215 764L148 859L81 764H16L109 925H191Z" glyph-name="Icircumflex" horiz-adv-x="300" unicode="Î" /><glyph d="M193 680 193 0H106V680ZM97 890 97 804H11V890ZM288 890 288 804H202V890Z" glyph-name="Idieresis" horiz-adv-x="300" unicode="Ï" /><glyph d="M193 680 193 0H106V680ZM186 764 115 764L17 894L96 930Z" glyph-name="Igrave" horiz-adv-x="300" unicode="Ì" /><glyph d="M193 680 193 0H106V680ZM151 833Q183 833 198 853Q213 873 216 916H282Q277 844 243.5 807Q210 770 151 770Q91 770 58 807Q25 844 20 916H85Q88 873 103.5 853Q119 833 151 833Z" glyph-name="Ibreve" horiz-adv-x="300" unicode="Ĭ" /><glyph d="M193 680 193 0H106V680ZM196 893 196 801H104V893Z" glyph-name="Idotaccent" horiz-adv-x="300" unicode="İ" /><glyph d="M193 680 193 0H106V680ZM7 857 293 857V794H7Z" glyph-name="Imacron" horiz-adv-x="300" unicode="Ī" /><glyph d="M202 -143 217 -206Q196 -215 177 -219Q158 -223 139 -223Q92 -223 64.5 -199.5Q37 -176 37 -136Q37 -106 54 -73.5Q71 -41 106 -4V680H193V0Q151 -41 131.5 -70Q112 -99 112 -122Q112 -138 121.5 -146.5Q131 -155 149 -155Q161 -155 174.5 -152Q188 -149 202 -143Z" glyph-name="Iogonek" horiz-adv-x="300" unicode="Į" /><glyph d="M193 680 193 0H106V680ZM211 773Q190 773 172.5 783Q155 793 131 824Q116 844 108 849.5Q100 855 92 855Q79 855 73.5 838Q68 821 68 785H5Q6 853 27.5 888Q49 923 90 923Q111 923 128.5 912.5Q146 902 170 871Q185 852 193 846Q201 840 209 840Q222 840 227.5 857Q233 874 234 910H297Q296 841 274.5 807Q253 773 211 773Z" glyph-name="Itilde" horiz-adv-x="300" unicode="Ĩ" /><glyph d="M27 -7 27 76Q111 76 147 110.5Q183 145 183 224V680H270V224Q270 104 211 48.5Q152 -7 27 -7ZM360 764 291 764L224 859L157 764H92L185 925H267Z" glyph-name="Jcircumflex" horiz-adv-x="363" unicode="Ĵ" /><glyph d="M193 680 193 0H106V680ZM327 -7 327 76Q411 76 447 110.5Q483 145 483 224V680H570V224Q570 104 511 48.5Q452 -7 327 -7Z" glyph-name="IJ" horiz-adv-x="663" unicode="Ĳ" /><glyph d="M583 0 477 0L283 321Q264 301 242 278.5Q220 256 193 230V0H106V680H193V327Q283 418 347 503.5Q411 589 457 680H551Q507 594 459 522.5Q411 451 347 378ZM369 -77 299 -248L249 -234L280 -77Z" glyph-name="Kcommaaccent" horiz-adv-x="596" unicode="Ķ" /><glyph d="M573 501 645 685L695 671L662 501ZM583 0 477 0L283 321Q264 301 242 278.5Q220 256 193 230V0H106V680H193V327Q283 418 347 503.5Q411 589 457 680H551Q507 594 459 522.5Q411 451 347 378Z" glyph-name="kgreenlandic.case" horiz-adv-x="635" unicode="" /><glyph d="M193 81 478 81V0H106V680H193ZM288 894 191 764H120L210 930Z" glyph-name="Lacute" horiz-adv-x="506" unicode="Ĺ" /><glyph d="M193 81 478 81V0H106V680H193ZM362 680 333 486H278V680Z" glyph-name="Lcaron" horiz-adv-x="506" unicode="Ľ" /><glyph d="M193 81 478 81V0H106V680H193ZM338 -77 268 -248L218 -234L249 -77Z" glyph-name="Lcommaaccent" horiz-adv-x="506" unicode="Ļ" /><glyph d="M193 81 478 81V0H106V680H193ZM448 430 448 338H356V430Z" glyph-name="Ldot" horiz-adv-x="506" unicode="Ŀ" /><glyph d="M191 0 106 0V680H197Q288 550 364.5 418Q441 286 508 144L498 404V680H583V0H492Q405 181 332 312Q259 443 185 555L191 278ZM405 773Q384 773 366.5 783Q349 793 325 824Q310 844 302 849.5Q294 855 286 855Q273 855 267.5 838Q262 821 262 785H199Q200 853 221.5 888Q243 923 284 923Q305 923 322.5 912.5Q340 902 364 871Q379 852 387 846Q395 840 403 840Q416 840 421.5 857Q427 874 428 910H491Q490 841 468.5 807Q447 773 405 773Z" glyph-name="Ntilde" horiz-adv-x="690" unicode="Ñ" /><glyph d="M191 0 106 0V680H197Q288 550 364.5 418Q441 286 508 144L498 404V680H583V0H492Q405 181 332 312Q259 443 185 555L191 278ZM478 894 381 764H310L400 930Z" glyph-name="Nacute" horiz-adv-x="690" unicode="Ń" /><glyph d="M191 0 106 0V680H197Q288 550 364.5 418Q441 286 508 144L498 404V680H583V0H492Q405 181 332 312Q259 443 185 555L191 278ZM413 925 478 925L385 764H303L210 925H279L346 830Z" glyph-name="Ncaron" horiz-adv-x="690" unicode="Ň" /><glyph d="M191 0 106 0V680H197Q288 550 364.5 418Q441 286 508 144L498 404V680H583V0H492Q405 181 332 312Q259 443 185 555L191 278ZM389 -77 319 -248L269 -234L300 -77Z" glyph-name="Ncommaaccent" horiz-adv-x="690" unicode="Ņ" /><glyph d="M498 404 498 680H583V8Q583 -112 524 -167.5Q465 -223 340 -223V-139Q423 -139 459 -107.5Q495 -76 498 -3Q423 152 345 291.5Q267 431 185 554L191 278V0H106V680H197Q289 549 365.5 419.5Q442 290 508 154Z" glyph-name="Eng" horiz-adv-x="690" unicode="Ŋ" /><glyph d="M274 0 189 0V680H280Q371 550 447.5 418Q524 286 591 144L581 404V680H666V0H575Q488 181 415 312Q342 443 268 555L274 278ZM17 680 99 680V661Q99 601 81.5 544.5Q64 488 25 420L-30 447Q-2 508 7.5 555Q17 602 17 680Z" glyph-name="napostrophe.case" horiz-adv-x="773" unicode="" /><glyph d="M323 690Q439 690 504 617Q569 544 569 415V266Q569 136 504 63Q439 -10 323 -10Q207 -10 142 63Q77 136 77 266V415Q77 544 142 617Q207 690 323 690ZM479 266 479 415Q479 510 439 559.5Q399 609 323 609Q247 609 207 559Q167 509 167 415V266Q167 171 207 120.5Q247 70 323 70Q399 70 439 120.5Q479 171 479 266ZM456 894 359 764H288L378 930Z" glyph-name="Oacute" horiz-adv-x="647" unicode="Ó" /><glyph d="M323 690Q439 690 504 617Q569 544 569 415V266Q569 136 504 63Q439 -10 323 -10Q207 -10 142 63Q77 136 77 266V415Q77 544 142 617Q207 690 323 690ZM479 266 479 415Q479 510 439 559.5Q399 609 323 609Q247 609 207 559Q167 509 167 415V266Q167 171 207 120.5Q247 70 323 70Q399 70 439 120.5Q479 171 479 266ZM456 764 387 764L320 859L253 764H188L281 925H363Z" glyph-name="Ocircumflex" horiz-adv-x="647" unicode="Ô" /><glyph d="M323 690Q439 690 504 617Q569 544 569 415V266Q569 136 504 63Q439 -10 323 -10Q207 -10 142 63Q77 136 77 266V415Q77 544 142 617Q207 690 323 690ZM479 266 479 415Q479 510 439 559.5Q399 609 323 609Q247 609 207 559Q167 509 167 415V266Q167 171 207 120.5Q247 70 323 70Q399 70 439 120.5Q479 171 479 266ZM270 890 270 804H184V890ZM461 890 461 804H375V890Z" glyph-name="Odieresis" horiz-adv-x="647" unicode="Ö" /><glyph d="M323 690Q439 690 504 617Q569 544 569 415V266Q569 136 504 63Q439 -10 323 -10Q207 -10 142 63Q77 136 77 266V415Q77 544 142 617Q207 690 323 690ZM479 266 479 415Q479 510 439 559.5Q399 609 323 609Q247 609 207 559Q167 509 167 415V266Q167 171 207 120.5Q247 70 323 70Q399 70 439 120.5Q479 171 479 266ZM358 764 287 764L189 894L268 930Z" glyph-name="Ograve" horiz-adv-x="647" unicode="Ò" /><glyph d="M323 690Q439 690 504 617Q569 544 569 415V266Q569 136 504 63Q439 -10 323 -10Q207 -10 142 63Q77 136 77 266V415Q77 544 142 617Q207 690 323 690ZM479 266 479 415Q479 510 439 559.5Q399 609 323 609Q247 609 207 559Q167 509 167 415V266Q167 171 207 120.5Q247 70 323 70Q399 70 439 120.5Q479 171 479 266ZM383 773Q362 773 344.5 783Q327 793 303 824Q288 844 280 849.5Q272 855 264 855Q251 855 245.5 838Q240 821 240 785H177Q178 853 199.5 888Q221 923 262 923Q283 923 300.5 912.5Q318 902 342 871Q357 852 365 846Q373 840 381 840Q394 840 399.5 857Q405 874 406 910H469Q468 841 446.5 807Q425 773 383 773Z" glyph-name="Otilde" horiz-adv-x="647" unicode="Õ" /><glyph d="M323 690Q439 690 504 617Q569 544 569 415V266Q569 136 504 63Q439 -10 323 -10Q207 -10 142 63Q77 136 77 266V415Q77 544 142 617Q207 690 323 690ZM479 266 479 415Q479 510 439 559.5Q399 609 323 609Q247 609 207 559Q167 509 167 415V266Q167 171 207 120.5Q247 70 323 70Q399 70 439 120.5Q479 171 479 266ZM323 833Q355 833 370 853Q385 873 388 916H454Q449 844 415.5 807Q382 770 323 770Q263 770 230 807Q197 844 192 916H257Q260 873 275.5 853Q291 833 323 833Z" glyph-name="Obreve" horiz-adv-x="647" unicode="Ŏ" /><glyph d="M323 690Q439 690 504 617Q569 544 569 415V266Q569 136 504 63Q439 -10 323 -10Q207 -10 142 63Q77 136 77 266V415Q77 544 142 617Q207 690 323 690ZM479 266 479 415Q479 510 439 559.5Q399 609 323 609Q247 609 207 559Q167 509 167 415V266Q167 171 207 120.5Q247 70 323 70Q399 70 439 120.5Q479 171 479 266ZM370 894 288 764H221L303 930ZM508 894 426 764H359L441 930Z" glyph-name="Ohungarumlaut" horiz-adv-x="647" unicode="Ő" /><glyph d="M323 690Q439 690 504 617Q569 544 569 415V266Q569 136 504 63Q439 -10 323 -10Q207 -10 142 63Q77 136 77 266V415Q77 544 142 617Q207 690 323 690ZM479 266 479 415Q479 510 439 559.5Q399 609 323 609Q247 609 207 559Q167 509 167 415V266Q167 171 207 120.5Q247 70 323 70Q399 70 439 120.5Q479 171 479 266ZM180 857 466 857V794H180Z" glyph-name="Omacron" horiz-adv-x="647" unicode="Ō" /><glyph d="M329 266 193 266V0H106V680H319Q413 680 466.5 630.5Q520 581 520 495V452Q520 392 492.5 348Q465 304 414 283Q455 217 492 146Q529 75 562 0H462Q434 68 400.5 134.5Q367 201 329 266ZM319 600 193 600V346H319Q370 346 400 374.5Q430 403 430 452V495Q430 544 400.5 572Q371 600 319 600ZM434 894 337 764H266L356 930Z" glyph-name="Racute" horiz-adv-x="601" unicode="Ŕ" /><glyph d="M329 266 193 266V0H106V680H319Q413 680 466.5 630.5Q520 581 520 495V452Q520 392 492.5 348Q465 304 414 283Q455 217 492 146Q529 75 562 0H462Q434 68 400.5 134.5Q367 201 329 266ZM319 600 193 600V346H319Q370 346 400 374.5Q430 403 430 452V495Q430 544 400.5 572Q371 600 319 600ZM369 925 434 925L341 764H259L166 925H235L302 830Z" glyph-name="Rcaron" horiz-adv-x="601" unicode="Ř" /><glyph d="M329 266 193 266V0H106V680H319Q413 680 466.5 630.5Q520 581 520 495V452Q520 392 492.5 348Q465 304 414 283Q455 217 492 146Q529 75 562 0H462Q434 68 400.5 134.5Q367 201 329 266ZM319 600 193 600V346H319Q370 346 400 374.5Q430 403 430 452V495Q430 544 400.5 572Q371 600 319 600ZM368 -77 298 -248L248 -234L279 -77Z" glyph-name="Rcommaaccent" horiz-adv-x="601" unicode="Ŗ" /><glyph d="M245 68Q309 68 342.5 95.5Q376 123 376 176Q376 222 351.5 251.5Q327 281 276 296L195 320Q121 342 84 388Q47 434 47 504Q47 593 100 641.5Q153 690 253 690Q299 690 347 679Q395 668 443 646L415 571Q368 592 329.5 601.5Q291 611 255 611Q194 611 164.5 586Q135 561 135 510Q135 468 158 442Q181 416 231 401L312 377Q388 354 426 306Q464 258 464 183Q464 89 408 39.5Q352 -10 245 -10Q194 -10 141.5 2Q89 14 37 38L64 112Q116 89 158 78.5Q200 68 245 68ZM326 925 391 925L298 764H216L123 925H192L259 830Z" glyph-name="Scaron" horiz-adv-x="506" unicode="Š" /><glyph d="M245 68Q309 68 342.5 95.5Q376 123 376 176Q376 222 351.5 251.5Q327 281 276 296L195 320Q121 342 84 388Q47 434 47 504Q47 593 100 641.5Q153 690 253 690Q299 690 347 679Q395 668 443 646L415 571Q368 592 329.5 601.5Q291 611 255 611Q194 611 164.5 586Q135 561 135 510Q135 468 158 442Q181 416 231 401L312 377Q388 354 426 306Q464 258 464 183Q464 89 408 39.5Q352 -10 245 -10Q194 -10 141.5 2Q89 14 37 38L64 112Q116 89 158 78.5Q200 68 245 68ZM391 894 294 764H223L313 930Z" glyph-name="Sacute" horiz-adv-x="506" unicode="Ś" /><glyph d="M349 -132Q349 -174 318.5 -198.5Q288 -223 236 -223Q217 -223 197.5 -219.5Q178 -216 157 -208L168 -152Q184 -158 202 -161Q220 -164 235 -164Q258 -164 270 -156Q282 -148 282 -133Q282 -118 270 -110.5Q258 -103 234 -103Q230 -103 226 -103.5Q222 -104 211 -105L187 -67L198 -7Q157 -3 117 8.5Q77 20 37 38L64 112Q116 89 158 78.5Q200 68 245 68Q309 68 342.5 95.5Q376 123 376 176Q376 222 351.5 251.5Q327 281 276 296L195 320Q121 342 84 388Q47 434 47 504Q47 593 100 641.5Q153 690 253 690Q299 690 347 679Q395 668 443 646L415 571Q368 592 329.5 601.5Q291 611 255 611Q194 611 164.5 586Q135 561 135 510Q135 468 158 442Q181 416 231 401L312 377Q388 354 426 306Q464 258 464 183Q464 92 411 42.5Q358 -7 257 -10L250 -50Q297 -50 323 -71.5Q349 -93 349 -132Z" glyph-name="Scedilla" horiz-adv-x="506" unicode="Ş" /><glyph d="M245 68Q309 68 342.5 95.5Q376 123 376 176Q376 222 351.5 251.5Q327 281 276 296L195 320Q121 342 84 388Q47 434 47 504Q47 593 100 641.5Q153 690 253 690Q299 690 347 679Q395 668 443 646L415 571Q368 592 329.5 601.5Q291 611 255 611Q194 611 164.5 586Q135 561 135 510Q135 468 158 442Q181 416 231 401L312 377Q388 354 426 306Q464 258 464 183Q464 89 408 39.5Q352 -10 245 -10Q194 -10 141.5 2Q89 14 37 38L64 112Q116 89 158 78.5Q200 68 245 68ZM391 764 322 764L255 859L188 764H123L216 925H298Z" glyph-name="Scircumflex" horiz-adv-x="506" unicode="Ŝ" /><glyph d="M245 68Q309 68 342.5 95.5Q376 123 376 176Q376 222 351.5 251.5Q327 281 276 296L195 320Q121 342 84 388Q47 434 47 504Q47 593 100 641.5Q153 690 253 690Q299 690 347 679Q395 668 443 646L415 571Q368 592 329.5 601.5Q291 611 255 611Q194 611 164.5 586Q135 561 135 510Q135 468 158 442Q181 416 231 401L312 377Q388 354 426 306Q464 258 464 183Q464 89 408 39.5Q352 -10 245 -10Q194 -10 141.5 2Q89 14 37 38L64 112Q116 89 158 78.5Q200 68 245 68ZM292 -77 222 -248L172 -234L203 -77Z" glyph-name="uni0218" horiz-adv-x="506" unicode="Ș" /><glyph d="M427 365 427 298H298V0H211V298H82V365H211V598H13V680H496V598H298V365Z" glyph-name="Tbar" horiz-adv-x="509" unicode="Ŧ" /><glyph d="M211 598 13 598V680H496V598H298V0H211ZM323 925 388 925L295 764H213L120 925H189L256 830Z" glyph-name="Tcaron" horiz-adv-x="509" unicode="Ť" /><glyph d="M211 598 13 598V680H496V598H298V0H211ZM299 -77 229 -248L179 -234L210 -77Z" glyph-name="uni0162" horiz-adv-x="509" unicode="Ţ" /><glyph d="M211 598 13 598V680H496V598H298V0H211ZM299 -77 229 -248L179 -234L210 -77Z" glyph-name="uni021A" horiz-adv-x="509" unicode="Ț" /><glyph d="M92 244 92 680H182V244Q182 158 218 114Q254 70 324 70Q395 70 430.5 114Q466 158 466 244V680H556V244Q556 121 496.5 55.5Q437 -10 324 -10Q211 -10 151.5 55Q92 120 92 244ZM457 894 360 764H289L379 930Z" glyph-name="Uacute" horiz-adv-x="648" unicode="Ú" /><glyph d="M92 244 92 680H182V244Q182 158 218 114Q254 70 324 70Q395 70 430.5 114Q466 158 466 244V680H556V244Q556 121 496.5 55.5Q437 -10 324 -10Q211 -10 151.5 55Q92 120 92 244ZM457 764 388 764L321 859L254 764H189L282 925H364Z" glyph-name="Ucircumflex" horiz-adv-x="648" unicode="Û" /><glyph d="M92 244 92 680H182V244Q182 158 218 114Q254 70 324 70Q395 70 430.5 114Q466 158 466 244V680H556V244Q556 121 496.5 55.5Q437 -10 324 -10Q211 -10 151.5 55Q92 120 92 244ZM270 890 270 804H184V890ZM461 890 461 804H375V890Z" glyph-name="Udieresis" horiz-adv-x="648" unicode="Ü" /><glyph d="M92 244 92 680H182V244Q182 158 218 114Q254 70 324 70Q395 70 430.5 114Q466 158 466 244V680H556V244Q556 121 496.5 55.5Q437 -10 324 -10Q211 -10 151.5 55Q92 120 92 244ZM359 764 288 764L190 894L269 930Z" glyph-name="Ugrave" horiz-adv-x="648" unicode="Ù" /><glyph d="M92 244 92 680H182V244Q182 158 218 114Q254 70 324 70Q395 70 430.5 114Q466 158 466 244V680H556V244Q556 121 496.5 55.5Q437 -10 324 -10Q211 -10 151.5 55Q92 120 92 244ZM324 833Q356 833 371 853Q386 873 389 916H455Q450 844 416.5 807Q383 770 324 770Q264 770 231 807Q198 844 193 916H258Q261 873 276.5 853Q292 833 324 833Z" glyph-name="Ubreve" horiz-adv-x="648" unicode="Ŭ" /><glyph d="M92 244 92 680H182V244Q182 158 218 114Q254 70 324 70Q395 70 430.5 114Q466 158 466 244V680H556V244Q556 121 496.5 55.5Q437 -10 324 -10Q211 -10 151.5 55Q92 120 92 244ZM371 894 289 764H222L304 930ZM509 894 427 764H360L442 930Z" glyph-name="Uhungarumlaut" horiz-adv-x="648" unicode="Ű" /><glyph d="M92 244 92 680H182V244Q182 158 218 114Q254 70 324 70Q395 70 430.5 114Q466 158 466 244V680H556V244Q556 121 496.5 55.5Q437 -10 324 -10Q211 -10 151.5 55Q92 120 92 244ZM180 857 466 857V794H180Z" glyph-name="Umacron" horiz-adv-x="648" unicode="Ū" /><glyph d="M441 -143 456 -206Q435 -215 416 -219Q397 -223 378 -223Q331 -223 303.5 -199.5Q276 -176 276 -136Q276 -107 292 -77Q308 -47 344 -9Q341 -10 337 -10Q333 -10 324 -10Q211 -10 151.5 55Q92 120 92 244V680H182V244Q182 158 218 114Q254 70 324 70Q395 70 430.5 114Q466 158 466 244V680H556V244Q556 177 538.5 128Q521 79 486 46Q410 -25 380.5 -61.5Q351 -98 351 -123Q351 -139 360.5 -147Q370 -155 388 -155Q400 -155 413.5 -152Q427 -149 441 -143Z" glyph-name="Uogonek" horiz-adv-x="648" unicode="Ų" /><glyph d="M92 244 92 680H182V244Q182 158 218 114Q254 70 324 70Q395 70 430.5 114Q466 158 466 244V680H556V244Q556 121 496.5 55.5Q437 -10 324 -10Q211 -10 151.5 55Q92 120 92 244ZM324 976Q375 976 406.5 946Q438 916 438 868V857Q438 808 406.5 778Q375 748 324 748Q272 748 241 778Q210 808 210 857V868Q210 917 241 946.5Q272 976 324 976ZM378 857 378 868Q378 892 363 906.5Q348 921 324 921Q299 921 284 906.5Q269 892 269 868V857Q269 832 284 817.5Q299 803 324 803Q348 803 363 818Q378 833 378 857Z" glyph-name="Uring" horiz-adv-x="648" unicode="Ů" /><glyph d="M92 244 92 680H182V244Q182 158 218 114Q254 70 324 70Q395 70 430.5 114Q466 158 466 244V680H556V244Q556 121 496.5 55.5Q437 -10 324 -10Q211 -10 151.5 55Q92 120 92 244ZM384 773Q363 773 345.5 783Q328 793 304 824Q289 844 281 849.5Q273 855 265 855Q252 855 246.5 838Q241 821 241 785H178Q179 853 200.5 888Q222 923 263 923Q284 923 301.5 912.5Q319 902 343 871Q358 852 366 846Q374 840 382 840Q395 840 400.5 857Q406 874 407 910H470Q469 841 447.5 807Q426 773 384 773Z" glyph-name="Utilde" horiz-adv-x="648" unicode="Ũ" /><glyph d="M127 680 186 392L234 117L391 680H472L629 120L679 392L738 680H824L674 0H586L430 556L274 0H185L36 680ZM563 894 466 764H395L485 930Z" glyph-name="Wacute" horiz-adv-x="860" unicode="Ẃ" /><glyph d="M127 680 186 392L234 117L391 680H472L629 120L679 392L738 680H824L674 0H586L430 556L274 0H185L36 680ZM563 764 494 764L427 859L360 764H295L388 925H470Z" glyph-name="Wcircumflex" horiz-adv-x="860" unicode="Ŵ" /><glyph d="M127 680 186 392L234 117L391 680H472L629 120L679 392L738 680H824L674 0H586L430 556L274 0H185L36 680ZM376 890 376 804H290V890ZM567 890 567 804H481V890Z" glyph-name="Wdieresis" horiz-adv-x="860" unicode="Ẅ" /><glyph d="M127 680 186 392L234 117L391 680H472L629 120L679 392L738 680H824L674 0H586L430 556L274 0H185L36 680ZM465 764 394 764L296 894L375 930Z" glyph-name="Wgrave" horiz-adv-x="860" unicode="Ẁ" /><glyph d="M424 680 514 680L306 272V0H219V272L10 680H104L267 358ZM395 894 298 764H227L317 930Z" glyph-name="Yacute" horiz-adv-x="524" unicode="Ý" /><glyph d="M424 680 514 680L306 272V0H219V272L10 680H104L267 358ZM208 890 208 804H122V890ZM399 890 399 804H313V890Z" glyph-name="Ydieresis" horiz-adv-x="524" unicode="Ÿ" /><glyph d="M424 680 514 680L306 272V0H219V272L10 680H104L267 358ZM395 764 326 764L259 859L192 764H127L220 925H302Z" glyph-name="Ycircumflex" horiz-adv-x="524" unicode="Ŷ" /><glyph d="M424 680 514 680L306 272V0H219V272L10 680H104L267 358ZM297 764 226 764L128 894L207 930Z" glyph-name="Ygrave" horiz-adv-x="524" unicode="Ỳ" /><glyph d="M144 81 470 81V0H41V70L356 598H51V680H460V609ZM323 925 388 925L295 764H213L120 925H189L256 830Z" glyph-name="Zcaron" horiz-adv-x="508" unicode="Ž" /><glyph d="M144 81 470 81V0H41V70L356 598H51V680H460V609ZM388 894 291 764H220L310 930Z" glyph-name="Zacute" horiz-adv-x="508" unicode="Ź" /><glyph d="M144 81 470 81V0H41V70L356 598H51V680H460V609ZM300 893 300 801H208V893Z" glyph-name="Zdotaccent" horiz-adv-x="508" unicode="Ż" /><glyph d="M465 -5 450 -5Q408 -5 379 14Q350 33 338 68Q293 27 252.5 8.5Q212 -10 169 -10Q109 -10 75.5 28.5Q42 67 42 135Q42 206 83 241.5Q124 277 205 277Q229 277 260 274Q291 271 329 265V332Q329 383 307 406Q285 429 233 429Q201 429 165.5 420.5Q130 412 90 394L64 462Q112 484 154 494.5Q196 505 237 505Q324 505 366.5 464.5Q409 424 409 338V124Q409 96 420 83Q431 70 454 70H465ZM209 212Q165 212 144 193.5Q123 175 123 136Q123 100 139.5 80Q156 60 185 60Q217 60 252 79Q287 98 329 138V201Q297 206 265.5 209Q234 212 209 212ZM364 709 267 579H196L286 745Z" glyph-name="aacute" horiz-adv-x="493" unicode="á" /><glyph d="M465 -5 450 -5Q408 -5 379 14Q350 33 338 68Q293 27 252.5 8.5Q212 -10 169 -10Q109 -10 75.5 28.5Q42 67 42 135Q42 206 83 241.5Q124 277 205 277Q229 277 260 274Q291 271 329 265V332Q329 383 307 406Q285 429 233 429Q201 429 165.5 420.5Q130 412 90 394L64 462Q112 484 154 494.5Q196 505 237 505Q324 505 366.5 464.5Q409 424 409 338V124Q409 96 420 83Q431 70 454 70H465ZM209 212Q165 212 144 193.5Q123 175 123 136Q123 100 139.5 80Q156 60 185 60Q217 60 252 79Q287 98 329 138V201Q297 206 265.5 209Q234 212 209 212ZM364 579 295 579L228 674L161 579H96L189 740H271Z" glyph-name="acircumflex" horiz-adv-x="493" unicode="â" /><glyph d="M465 -5 450 -5Q408 -5 379 14Q350 33 338 68Q293 27 252.5 8.5Q212 -10 169 -10Q109 -10 75.5 28.5Q42 67 42 135Q42 206 83 241.5Q124 277 205 277Q229 277 260 274Q291 271 329 265V332Q329 383 307 406Q285 429 233 429Q201 429 165.5 420.5Q130 412 90 394L64 462Q112 484 154 494.5Q196 505 237 505Q324 505 366.5 464.5Q409 424 409 338V124Q409 96 420 83Q431 70 454 70H465ZM209 212Q165 212 144 193.5Q123 175 123 136Q123 100 139.5 80Q156 60 185 60Q217 60 252 79Q287 98 329 138V201Q297 206 265.5 209Q234 212 209 212ZM177 705 177 619H91V705ZM368 705 368 619H282V705Z" glyph-name="adieresis" horiz-adv-x="493" unicode="ä" /><glyph d="M465 -5 450 -5Q408 -5 379 14Q350 33 338 68Q293 27 252.5 8.5Q212 -10 169 -10Q109 -10 75.5 28.5Q42 67 42 135Q42 206 83 241.5Q124 277 205 277Q229 277 260 274Q291 271 329 265V332Q329 383 307 406Q285 429 233 429Q201 429 165.5 420.5Q130 412 90 394L64 462Q112 484 154 494.5Q196 505 237 505Q324 505 366.5 464.5Q409 424 409 338V124Q409 96 420 83Q431 70 454 70H465ZM209 212Q165 212 144 193.5Q123 175 123 136Q123 100 139.5 80Q156 60 185 60Q217 60 252 79Q287 98 329 138V201Q297 206 265.5 209Q234 212 209 212ZM266 579 195 579L97 709L176 745Z" glyph-name="agrave" horiz-adv-x="493" unicode="à" /><glyph d="M465 -5 450 -5Q408 -5 379 14Q350 33 338 68Q293 27 252.5 8.5Q212 -10 169 -10Q109 -10 75.5 28.5Q42 67 42 135Q42 206 83 241.5Q124 277 205 277Q229 277 260 274Q291 271 329 265V332Q329 383 307 406Q285 429 233 429Q201 429 165.5 420.5Q130 412 90 394L64 462Q112 484 154 494.5Q196 505 237 505Q324 505 366.5 464.5Q409 424 409 338V124Q409 96 420 83Q431 70 454 70H465ZM209 212Q165 212 144 193.5Q123 175 123 136Q123 100 139.5 80Q156 60 185 60Q217 60 252 79Q287 98 329 138V201Q297 206 265.5 209Q234 212 209 212ZM231 791Q282 791 313.5 761Q345 731 345 683V672Q345 623 313.5 593Q282 563 231 563Q179 563 148 593Q117 623 117 672V683Q117 732 148 761.5Q179 791 231 791ZM285 672 285 683Q285 707 270 721.5Q255 736 231 736Q206 736 191 721.5Q176 707 176 683V672Q176 647 191 632.5Q206 618 231 618Q255 618 270 633Q285 648 285 672Z" glyph-name="aring" horiz-adv-x="493" unicode="å" /><glyph d="M465 -5 450 -5Q408 -5 379 14Q350 33 338 68Q293 27 252.5 8.5Q212 -10 169 -10Q109 -10 75.5 28.5Q42 67 42 135Q42 206 83 241.5Q124 277 205 277Q229 277 260 274Q291 271 329 265V332Q329 383 307 406Q285 429 233 429Q201 429 165.5 420.5Q130 412 90 394L64 462Q112 484 154 494.5Q196 505 237 505Q324 505 366.5 464.5Q409 424 409 338V124Q409 96 420 83Q431 70 454 70H465ZM209 212Q165 212 144 193.5Q123 175 123 136Q123 100 139.5 80Q156 60 185 60Q217 60 252 79Q287 98 329 138V201Q297 206 265.5 209Q234 212 209 212ZM291 588Q270 588 252.5 598Q235 608 211 639Q196 659 188 664.5Q180 670 172 670Q159 670 153.5 653Q148 636 148 600H85Q86 668 107.5 703Q129 738 170 738Q191 738 208.5 727.5Q226 717 250 686Q265 667 273 661Q281 655 289 655Q302 655 307.5 672Q313 689 314 725H377Q376 656 354.5 622Q333 588 291 588Z" glyph-name="atilde" horiz-adv-x="493" unicode="ã" /><glyph d="M465 -5 450 -5Q408 -5 379 14Q350 33 338 68Q293 27 252.5 8.5Q212 -10 169 -10Q109 -10 75.5 28.5Q42 67 42 135Q42 206 83 241.5Q124 277 205 277Q229 277 260 274Q291 271 329 265V332Q329 383 307 406Q285 429 233 429Q201 429 165.5 420.5Q130 412 90 394L64 462Q112 484 154 494.5Q196 505 237 505Q324 505 366.5 464.5Q409 424 409 338V124Q409 96 420 83Q431 70 454 70H465ZM209 212Q165 212 144 193.5Q123 175 123 136Q123 100 139.5 80Q156 60 185 60Q217 60 252 79Q287 98 329 138V201Q297 206 265.5 209Q234 212 209 212ZM231 648Q263 648 278 668Q293 688 296 731H362Q357 659 323.5 622Q290 585 231 585Q171 585 138 622Q105 659 100 731H165Q168 688 183.5 668Q199 648 231 648Z" glyph-name="abreve" horiz-adv-x="493" unicode="ă" /><glyph d="M465 -5 450 -5Q408 -5 379 14Q350 33 338 68Q293 27 252.5 8.5Q212 -10 169 -10Q109 -10 75.5 28.5Q42 67 42 135Q42 206 83 241.5Q124 277 205 277Q229 277 260 274Q291 271 329 265V332Q329 383 307 406Q285 429 233 429Q201 429 165.5 420.5Q130 412 90 394L64 462Q112 484 154 494.5Q196 505 237 505Q324 505 366.5 464.5Q409 424 409 338V124Q409 96 420 83Q431 70 454 70H465ZM209 212Q165 212 144 193.5Q123 175 123 136Q123 100 139.5 80Q156 60 185 60Q217 60 252 79Q287 98 329 138V201Q297 206 265.5 209Q234 212 209 212ZM87 672 373 672V609H87Z" glyph-name="amacron" horiz-adv-x="493" unicode="ā" /><glyph d="M450 -143 465 -206Q444 -215 425 -219Q406 -223 387 -223Q340 -223 312.5 -199.5Q285 -176 285 -136Q285 -100 310 -65.5Q335 -31 389 8Q371 17 358 32.5Q345 48 338 68Q293 27 252.5 8.5Q212 -10 169 -10Q109 -10 75.5 28.5Q42 67 42 135Q42 206 83 241.5Q124 277 205 277Q229 277 260 274Q291 271 329 265V332Q329 383 307 406Q285 429 233 429Q201 429 165.5 420.5Q130 412 90 394L64 462Q112 484 154 494.5Q196 505 237 505Q324 505 366.5 464.5Q409 424 409 338V124Q409 96 420 83Q431 70 454 70H465V-5Q409 -45 384.5 -72Q360 -99 360 -123Q360 -139 369.5 -147Q379 -155 397 -155Q409 -155 422.5 -152Q436 -149 450 -143ZM209 212Q165 212 144 193.5Q123 175 123 136Q123 100 139.5 80Q156 60 185 60Q217 60 252 79Q287 98 329 138V201Q297 206 265.5 209Q234 212 209 212Z" glyph-name="aogonek" horiz-adv-x="493" unicode="ą" /><glyph d="M359 -132Q359 -174 328.5 -198.5Q298 -223 246 -223Q227 -223 207.5 -219.5Q188 -216 167 -208L178 -152Q194 -158 212 -161Q230 -164 245 -164Q268 -164 280 -156Q292 -148 292 -133Q292 -118 280 -110.5Q268 -103 244 -103Q240 -103 236 -103.5Q232 -104 221 -105L197 -67L208 -5Q137 10 99.5 67.5Q62 125 62 218V277Q62 386 113 445.5Q164 505 258 505Q293 505 331.5 496Q370 487 410 469L385 399Q350 414 319.5 421.5Q289 429 263 429Q203 429 174.5 392Q146 355 146 277V218Q146 140 174.5 102.5Q203 65 263 65Q293 65 325 73Q357 81 392 96L417 27Q381 10 343 1Q305 -8 267 -10L260 -50Q307 -50 333 -71.5Q359 -93 359 -132Z" glyph-name="ccedilla" horiz-adv-x="449" unicode="ç" /><glyph d="M263 429Q203 429 174.5 392Q146 355 146 277V218Q146 140 174.5 102.5Q203 65 263 65Q293 65 325 73Q357 81 392 96L417 27Q377 9 336.5 -0.5Q296 -10 258 -10Q164 -10 113 49.5Q62 109 62 218V277Q62 386 113 445.5Q164 505 258 505Q293 505 331.5 496Q370 487 410 469L385 399Q350 414 319.5 421.5Q289 429 263 429ZM391 709 294 579H223L313 745Z" glyph-name="cacute" horiz-adv-x="449" unicode="ć" /><glyph d="M263 429Q203 429 174.5 392Q146 355 146 277V218Q146 140 174.5 102.5Q203 65 263 65Q293 65 325 73Q357 81 392 96L417 27Q377 9 336.5 -0.5Q296 -10 258 -10Q164 -10 113 49.5Q62 109 62 218V277Q62 386 113 445.5Q164 505 258 505Q293 505 331.5 496Q370 487 410 469L385 399Q350 414 319.5 421.5Q289 429 263 429ZM327 740 392 740L299 579H217L124 740H193L260 645Z" glyph-name="ccaron" horiz-adv-x="449" unicode="č" /><glyph d="M263 429Q203 429 174.5 392Q146 355 146 277V218Q146 140 174.5 102.5Q203 65 263 65Q293 65 325 73Q357 81 392 96L417 27Q377 9 336.5 -0.5Q296 -10 258 -10Q164 -10 113 49.5Q62 109 62 218V277Q62 386 113 445.5Q164 505 258 505Q293 505 331.5 496Q370 487 410 469L385 399Q350 414 319.5 421.5Q289 429 263 429ZM392 579 323 579L256 674L189 579H124L217 740H299Z" glyph-name="ccircumflex" horiz-adv-x="449" unicode="ĉ" /><glyph d="M263 429Q203 429 174.5 392Q146 355 146 277V218Q146 140 174.5 102.5Q203 65 263 65Q293 65 325 73Q357 81 392 96L417 27Q377 9 336.5 -0.5Q296 -10 258 -10Q164 -10 113 49.5Q62 109 62 218V277Q62 386 113 445.5Q164 505 258 505Q293 505 331.5 496Q370 487 410 469L385 399Q350 414 319.5 421.5Q289 429 263 429ZM304 708 304 616H212V708Z" glyph-name="cdotaccent" horiz-adv-x="449" unicode="ċ" /><glyph d="M467 0 389 0V69Q346 27 308 8.5Q270 -10 228 -10Q150 -10 107 49.5Q64 109 64 218V276Q64 384 118 444.5Q172 505 269 505Q295 505 323.5 499.5Q352 494 385 482V740H467ZM149 276 149 218Q149 141 173 104Q197 67 247 67Q281 67 312 84.5Q343 102 385 142V406Q357 418 330.5 424Q304 430 276 430Q212 430 180.5 392Q149 354 149 276ZM634 740 605 546H550V740Z" glyph-name="dcaron" horiz-adv-x="618" unicode="ď" /><glyph d="M467 0 389 0V69Q346 27 308 8.5Q270 -10 228 -10Q150 -10 107 49.5Q64 109 64 218V276Q64 384 118 444.5Q172 505 269 505Q295 505 323.5 499.5Q352 494 385 482V586H231V648H385V740H467V648H554V586H467ZM149 276 149 218Q149 141 173 104Q197 67 247 67Q281 67 312 84.5Q343 102 385 142V406Q357 418 330.5 424Q304 430 276 430Q212 430 180.5 392Q149 354 149 276Z" glyph-name="dcroat" horiz-adv-x="556" unicode="đ" /><glyph d="M422 97 447 29Q408 10 363 0Q318 -10 274 -10Q171 -10 116.5 48.5Q62 107 62 218V278Q62 383 115.5 444Q169 505 263 505Q348 505 399 454.5Q450 404 450 316Q450 295 447 271Q444 247 438 220H143V218Q143 139 175.5 101.5Q208 64 276 64Q311 64 349.5 72.5Q388 81 422 97ZM370 324Q370 375 341 404Q312 433 263 433Q207 433 176.5 396.5Q146 360 143 290H367Q368 299 369 307.5Q370 316 370 324ZM396 709 299 579H228L318 745Z" glyph-name="eacute" horiz-adv-x="504" unicode="é" /><glyph d="M422 97 447 29Q408 10 363 0Q318 -10 274 -10Q171 -10 116.5 48.5Q62 107 62 218V278Q62 383 115.5 444Q169 505 263 505Q348 505 399 454.5Q450 404 450 316Q450 295 447 271Q444 247 438 220H143V218Q143 139 175.5 101.5Q208 64 276 64Q311 64 349.5 72.5Q388 81 422 97ZM370 324Q370 375 341 404Q312 433 263 433Q207 433 176.5 396.5Q146 360 143 290H367Q368 299 369 307.5Q370 316 370 324ZM396 579 327 579L260 674L193 579H128L221 740H303Z" glyph-name="ecircumflex" horiz-adv-x="504" unicode="ê" /><glyph d="M422 97 447 29Q408 10 363 0Q318 -10 274 -10Q171 -10 116.5 48.5Q62 107 62 218V278Q62 383 115.5 444Q169 505 263 505Q348 505 399 454.5Q450 404 450 316Q450 295 447 271Q444 247 438 220H143V218Q143 139 175.5 101.5Q208 64 276 64Q311 64 349.5 72.5Q388 81 422 97ZM370 324Q370 375 341 404Q312 433 263 433Q207 433 176.5 396.5Q146 360 143 290H367Q368 299 369 307.5Q370 316 370 324ZM210 705 210 619H124V705ZM401 705 401 619H315V705Z" glyph-name="edieresis" horiz-adv-x="504" unicode="ë" /><glyph d="M422 97 447 29Q408 10 363 0Q318 -10 274 -10Q171 -10 116.5 48.5Q62 107 62 218V278Q62 383 115.5 444Q169 505 263 505Q348 505 399 454.5Q450 404 450 316Q450 295 447 271Q444 247 438 220H143V218Q143 139 175.5 101.5Q208 64 276 64Q311 64 349.5 72.5Q388 81 422 97ZM370 324Q370 375 341 404Q312 433 263 433Q207 433 176.5 396.5Q146 360 143 290H367Q368 299 369 307.5Q370 316 370 324ZM298 579 227 579L129 709L208 745Z" glyph-name="egrave" horiz-adv-x="504" unicode="è" /><glyph d="M422 97 447 29Q408 10 363 0Q318 -10 274 -10Q171 -10 116.5 48.5Q62 107 62 218V278Q62 383 115.5 444Q169 505 263 505Q348 505 399 454.5Q450 404 450 316Q450 295 447 271Q444 247 438 220H143V218Q143 139 175.5 101.5Q208 64 276 64Q311 64 349.5 72.5Q388 81 422 97ZM370 324Q370 375 341 404Q312 433 263 433Q207 433 176.5 396.5Q146 360 143 290H367Q368 299 369 307.5Q370 316 370 324ZM263 648Q295 648 310 668Q325 688 328 731H394Q389 659 355.5 622Q322 585 263 585Q203 585 170 622Q137 659 132 731H197Q200 688 215.5 668Q231 648 263 648Z" glyph-name="ebreve" horiz-adv-x="504" unicode="ĕ" /><glyph d="M422 97 447 29Q408 10 363 0Q318 -10 274 -10Q171 -10 116.5 48.5Q62 107 62 218V278Q62 383 115.5 444Q169 505 263 505Q348 505 399 454.5Q450 404 450 316Q450 295 447 271Q444 247 438 220H143V218Q143 139 175.5 101.5Q208 64 276 64Q311 64 349.5 72.5Q388 81 422 97ZM370 324Q370 375 341 404Q312 433 263 433Q207 433 176.5 396.5Q146 360 143 290H367Q368 299 369 307.5Q370 316 370 324ZM331 740 396 740L303 579H221L128 740H197L264 645Z" glyph-name="ecaron" horiz-adv-x="504" unicode="ě" /><glyph d="M422 97 447 29Q408 10 363 0Q318 -10 274 -10Q171 -10 116.5 48.5Q62 107 62 218V278Q62 383 115.5 444Q169 505 263 505Q348 505 399 454.5Q450 404 450 316Q450 295 447 271Q444 247 438 220H143V218Q143 139 175.5 101.5Q208 64 276 64Q311 64 349.5 72.5Q388 81 422 97ZM370 324Q370 375 341 404Q312 433 263 433Q207 433 176.5 396.5Q146 360 143 290H367Q368 299 369 307.5Q370 316 370 324ZM309 708 309 616H217V708Z" glyph-name="edotaccent" horiz-adv-x="504" unicode="ė" /><glyph d="M422 97 447 29Q408 10 363 0Q318 -10 274 -10Q171 -10 116.5 48.5Q62 107 62 218V278Q62 383 115.5 444Q169 505 263 505Q348 505 399 454.5Q450 404 450 316Q450 295 447 271Q444 247 438 220H143V218Q143 139 175.5 101.5Q208 64 276 64Q311 64 349.5 72.5Q388 81 422 97ZM370 324Q370 375 341 404Q312 433 263 433Q207 433 176.5 396.5Q146 360 143 290H367Q368 299 369 307.5Q370 316 370 324ZM120 672 406 672V609H120Z" glyph-name="emacron" horiz-adv-x="504" unicode="ē" /><glyph d="M430 -143 445 -206Q424 -215 404.5 -219Q385 -223 366 -223Q318 -223 291.5 -199Q265 -175 265 -133Q265 -102 281 -70.5Q297 -39 331 -3Q317 -6 301 -8Q285 -10 269 -10Q169 -10 115.5 49Q62 108 62 218V278Q62 383 115.5 444Q169 505 263 505Q348 505 399 454.5Q450 404 450 316Q450 295 447 271.5Q444 248 438 222H143V218Q143 139 175.5 101.5Q208 64 276 64Q311 64 349 72.5Q387 81 422 97L447 29Q391 -22 365.5 -57.5Q340 -93 340 -120Q340 -137 349.5 -146Q359 -155 377 -155Q389 -155 402.5 -152Q416 -149 430 -143ZM370 324Q370 375 341 404Q312 433 263 433Q207 433 176 396Q145 359 143 289H367Q369 299 369.5 307.5Q370 316 370 324Z" glyph-name="eogonek" horiz-adv-x="504" unicode="ę" /><glyph d="M484 -62Q484 -136 424 -179.5Q364 -223 261 -223Q204 -223 148.5 -208Q93 -193 46 -164L74 -100Q119 -126 165 -138.5Q211 -151 261 -151Q328 -151 365.5 -129.5Q403 -108 403 -70Q403 -42 384 -28Q365 -14 327 -14H212Q155 -14 122 13.5Q89 41 89 85Q89 110 100.5 135.5Q112 161 135 187Q98 209 78 246.5Q58 284 58 333Q58 413 107.5 459Q157 505 240 505H257Q275 505 291 502.5Q307 500 321 495H499V422L391 437Q415 417 426.5 390Q438 363 438 328Q438 252 388 206.5Q338 161 257 161H240Q229 161 217 162Q205 163 191 166Q177 150 169.5 134Q162 118 162 103Q162 83 176 73Q190 63 218 63H330Q403 63 443.5 30.5Q484 -2 484 -62ZM240 232 257 232Q301 232 328.5 259.5Q356 287 356 333Q356 379 328.5 406.5Q301 434 257 434H240Q195 434 167.5 406.5Q140 379 140 333Q140 286 167.5 259Q195 232 240 232ZM248 648Q280 648 295 668Q310 688 313 731H379Q374 659 340.5 622Q307 585 248 585Q188 585 155 622Q122 659 117 731H182Q185 688 200.5 668Q216 648 248 648Z" glyph-name="gbreve" horiz-adv-x="520" unicode="ğ" /><glyph d="M484 -62Q484 -136 424 -179.5Q364 -223 261 -223Q204 -223 148.5 -208Q93 -193 46 -164L74 -100Q119 -126 165 -138.5Q211 -151 261 -151Q328 -151 365.5 -129.5Q403 -108 403 -70Q403 -42 384 -28Q365 -14 327 -14H212Q155 -14 122 13.5Q89 41 89 85Q89 110 100.5 135.5Q112 161 135 187Q98 209 78 246.5Q58 284 58 333Q58 413 107.5 459Q157 505 240 505H257Q275 505 291 502.5Q307 500 321 495H499V422L391 437Q415 417 426.5 390Q438 363 438 328Q438 252 388 206.5Q338 161 257 161H240Q229 161 217 162Q205 163 191 166Q177 150 169.5 134Q162 118 162 103Q162 83 176 73Q190 63 218 63H330Q403 63 443.5 30.5Q484 -2 484 -62ZM240 232 257 232Q301 232 328.5 259.5Q356 287 356 333Q356 379 328.5 406.5Q301 434 257 434H240Q195 434 167.5 406.5Q140 379 140 333Q140 286 167.5 259Q195 232 240 232ZM381 579 312 579L245 674L178 579H113L206 740H288Z" glyph-name="gcircumflex" horiz-adv-x="520" unicode="ĝ" /><glyph d="M484 -62Q484 -136 424 -179.5Q364 -223 261 -223Q204 -223 148.5 -208Q93 -193 46 -164L74 -100Q119 -126 165 -138.5Q211 -151 261 -151Q328 -151 365.5 -129.5Q403 -108 403 -70Q403 -42 384 -28Q365 -14 327 -14H212Q155 -14 122 13.5Q89 41 89 85Q89 110 100.5 135.5Q112 161 135 187Q98 209 78 246.5Q58 284 58 333Q58 413 107.5 459Q157 505 240 505H257Q275 505 291 502.5Q307 500 321 495H499V422L391 437Q415 417 426.5 390Q438 363 438 328Q438 252 388 206.5Q338 161 257 161H240Q229 161 217 162Q205 163 191 166Q177 150 169.5 134Q162 118 162 103Q162 83 176 73Q190 63 218 63H330Q403 63 443.5 30.5Q484 -2 484 -62ZM240 232 257 232Q301 232 328.5 259.5Q356 287 356 333Q356 379 328.5 406.5Q301 434 257 434H240Q195 434 167.5 406.5Q140 379 140 333Q140 286 167.5 259Q195 232 240 232ZM203 579 273 750L323 736L292 579Z" glyph-name="gcommaaccent" horiz-adv-x="520" unicode="ģ" /><glyph d="M484 -62Q484 -136 424 -179.5Q364 -223 261 -223Q204 -223 148.5 -208Q93 -193 46 -164L74 -100Q119 -126 165 -138.5Q211 -151 261 -151Q328 -151 365.5 -129.5Q403 -108 403 -70Q403 -42 384 -28Q365 -14 327 -14H212Q155 -14 122 13.5Q89 41 89 85Q89 110 100.5 135.5Q112 161 135 187Q98 209 78 246.5Q58 284 58 333Q58 413 107.5 459Q157 505 240 505H257Q275 505 291 502.5Q307 500 321 495H499V422L391 437Q415 417 426.5 390Q438 363 438 328Q438 252 388 206.5Q338 161 257 161H240Q229 161 217 162Q205 163 191 166Q177 150 169.5 134Q162 118 162 103Q162 83 176 73Q190 63 218 63H330Q403 63 443.5 30.5Q484 -2 484 -62ZM240 232 257 232Q301 232 328.5 259.5Q356 287 356 333Q356 379 328.5 406.5Q301 434 257 434H240Q195 434 167.5 406.5Q140 379 140 333Q140 286 167.5 259Q195 232 240 232ZM294 708 294 616H202V708Z" glyph-name="gdotaccent" horiz-adv-x="520" unicode="ġ" /><glyph d="M326 428Q291 428 253 410.5Q215 393 170 357V0H88V588H1V648H88V740H170V648H325V588H170V429Q217 468 259 486.5Q301 505 346 505Q414 505 451 461.5Q488 418 488 338V0H406V326Q406 378 386.5 403Q367 428 326 428Z" glyph-name="hbar" horiz-adv-x="571" unicode="ħ" /><glyph d="M326 428Q291 428 253 410.5Q215 393 170 357V0H88V740H170V429Q217 468 259 486.5Q301 505 346 505Q414 505 451 461.5Q488 418 488 338V0H406V326Q406 378 386.5 403Q367 428 326 428ZM365 824 296 824L229 919L162 824H97L190 985H272Z" glyph-name="hcircumflex" horiz-adv-x="571" unicode="ĥ" /><glyph d="M170 495 170 0H88V495ZM263 709 166 579H95L185 745Z" glyph-name="iacute" horiz-adv-x="259" unicode="í" /><glyph d="M170 495 170 0H88V495ZM264 579 195 579L128 674L61 579H-4L89 740H171Z" glyph-name="icircumflex" horiz-adv-x="259" unicode="î" /><glyph d="M170 495 170 0H88V495ZM77 705 77 619H-9V705ZM268 705 268 619H182V705Z" glyph-name="idieresis" horiz-adv-x="259" unicode="ï" /><glyph d="M170 495 170 0H88V495ZM165 579 94 579L-4 709L75 745Z" glyph-name="igrave" horiz-adv-x="259" unicode="ì" /><glyph d="M170 495 170 0H88V495ZM130 648Q162 648 177 668Q192 688 195 731H261Q256 659 222.5 622Q189 585 130 585Q70 585 37 622Q4 659 -1 731H64Q67 688 82.5 668Q98 648 130 648Z" glyph-name="ibreve" horiz-adv-x="259" unicode="ĭ" /><glyph d="M175 708 175 616H83V708ZM170 495 170 0H88V495Z" glyph-name="i.dot" horiz-adv-x="259" unicode="" /><glyph d="M170 495 170 0H88V495ZM-13 672 273 672V609H-13Z" glyph-name="imacron" horiz-adv-x="259" unicode="ī" /><glyph d="M172 705 172 619H86V705ZM179 -143 194 -206Q173 -215 154 -219Q135 -223 116 -223Q69 -223 41.5 -199.5Q14 -176 14 -136Q14 -105 32 -71Q50 -37 88 1V495H170V0Q128 -41 108.5 -70Q89 -99 89 -122Q89 -138 98.5 -146.5Q108 -155 126 -155Q138 -155 151.5 -152Q165 -149 179 -143Z" glyph-name="iogonek" horiz-adv-x="259" unicode="į" /><glyph d="M170 495 170 0H88V495ZM190 588Q169 588 151.5 598Q134 608 110 639Q95 659 87 664.5Q79 670 71 670Q58 670 52.5 653Q47 636 47 600H-16Q-15 668 6.5 703Q28 738 69 738Q90 738 107.5 727.5Q125 717 149 686Q164 667 172 661Q180 655 188 655Q201 655 206.5 672Q212 689 213 725H276Q275 656 253.5 622Q232 588 190 588Z" glyph-name="itilde" horiz-adv-x="259" unicode="ĩ" /><glyph d="M-20 -223 -20 -145Q39 -145 63.5 -116.5Q88 -88 88 -23V495H170V-23Q170 -125 123 -174Q76 -223 -20 -223ZM263 579 194 579L127 674L60 579H-5L88 740H170Z" glyph-name="jcircumflex" horiz-adv-x="259" unicode="ĵ" /><glyph d="M175 708 175 616H83V708ZM170 495 170 0H88V495ZM434 708 434 616H342V708ZM239 -223 239 -145Q298 -145 322.5 -116.5Q347 -88 347 -23V495H429V-23Q429 -125 382 -174Q335 -223 239 -223Z" glyph-name="ij" horiz-adv-x="519" unicode="ĳ" /><glyph d="M492 0 393 0L254 229Q237 212 216.5 192.5Q196 173 170 150V0H88V740H170V242Q240 310 289.5 370Q339 430 378 495H472Q437 436 399.5 385.5Q362 335 314 282ZM319 -77 249 -248L199 -234L230 -77Z" glyph-name="kcommaaccent" horiz-adv-x="508" unicode="ķ" /><glyph d="M492 0 393 0L254 229Q237 212 216.5 192.5Q196 173 170 150V0H88V495H170V242Q240 310 289.5 370Q339 430 378 495H472Q437 436 399.5 385.5Q362 335 314 282Z" glyph-name="kgreenlandic" horiz-adv-x="508" unicode="ĸ" /><glyph d="M87 120 87 740H169V124Q169 93 179 81.5Q189 70 212 70H228V-5H205Q146 -5 116.5 26Q87 57 87 120ZM267 954 170 824H99L189 990Z" glyph-name="lacute" horiz-adv-x="264" unicode="ĺ" /><glyph d="M87 120 87 740H169V124Q169 93 179 81.5Q189 70 212 70H228V-5H205Q146 -5 116.5 26Q87 57 87 120ZM339 740 310 546H255V740Z" glyph-name="lcaron" horiz-adv-x="321" unicode="ľ" /><glyph d="M87 120 87 740H169V124Q169 93 179 81.5Q189 70 212 70H228V-5H205Q146 -5 116.5 26Q87 57 87 120ZM206 -77 136 -248L86 -234L117 -77Z" glyph-name="lcommaaccent" horiz-adv-x="264" unicode="ļ" /><glyph d="M87 120 87 740H169V124Q169 93 179 81.5Q189 70 212 70H228V-5H205Q146 -5 116.5 26Q87 57 87 120ZM318 430 318 338H226V430Z" glyph-name="ldot" horiz-adv-x="288" unicode="ŀ" /><glyph d="M326 428Q291 428 253 410.5Q215 393 170 357V0H88V495H166V426Q214 467 257.5 486Q301 505 346 505Q414 505 451 461.5Q488 418 488 338V0H406V326Q406 378 386.5 403Q367 428 326 428ZM350 588Q329 588 311.5 598Q294 608 270 639Q255 659 247 664.5Q239 670 231 670Q218 670 212.5 653Q207 636 207 600H144Q145 668 166.5 703Q188 738 229 738Q250 738 267.5 727.5Q285 717 309 686Q324 667 332 661Q340 655 348 655Q361 655 366.5 672Q372 689 373 725H436Q435 656 413.5 622Q392 588 350 588Z" glyph-name="ntilde" horiz-adv-x="571" unicode="ñ" /><glyph d="M326 428Q291 428 253 410.5Q215 393 170 357V0H88V495H166V426Q214 467 257.5 486Q301 505 346 505Q414 505 451 461.5Q488 418 488 338V0H406V326Q406 378 386.5 403Q367 428 326 428ZM423 709 326 579H255L345 745Z" glyph-name="nacute" horiz-adv-x="571" unicode="ń" /><glyph d="M326 428Q291 428 253 410.5Q215 393 170 357V0H88V495H166V426Q214 467 257.5 486Q301 505 346 505Q414 505 451 461.5Q488 418 488 338V0H406V326Q406 378 386.5 403Q367 428 326 428ZM359 740 424 740L331 579H249L156 740H225L292 645Z" glyph-name="ncaron" horiz-adv-x="571" unicode="ň" /><glyph d="M326 428Q291 428 253 410.5Q215 393 170 357V0H88V495H166V426Q214 467 257.5 486Q301 505 346 505Q414 505 451 461.5Q488 418 488 338V0H406V326Q406 378 386.5 403Q367 428 326 428ZM332 -77 262 -248L212 -234L243 -77Z" glyph-name="ncommaaccent" horiz-adv-x="571" unicode="ņ" /><glyph d="M346 505Q414 505 451 461.5Q488 418 488 338V-23Q488 -125 440.5 -174Q393 -223 296 -223V-145Q356 -145 381 -116.5Q406 -88 406 -23V326Q406 378 386.5 403Q367 428 326 428Q291 428 253 410.5Q215 393 170 357V0H88V495H166V426Q214 467 257.5 486Q301 505 346 505Z" glyph-name="eng" horiz-adv-x="571" unicode="ŋ" /><glyph d="M405 428Q370 428 332 410.5Q294 393 249 357V0H167V495H245V426Q293 467 336.5 486Q380 505 425 505Q493 505 530 461.5Q567 418 567 338V0H485V326Q485 378 465.5 403Q446 428 405 428ZM32 680 114 680V661Q114 601 96.5 544.5Q79 488 40 420L-15 447Q13 508 22.5 555Q32 602 32 680Z" glyph-name="napostrophe" horiz-adv-x="650" unicode="ŉ" /><glyph d="M270 505Q369 505 424.5 444.5Q480 384 480 278V218Q480 110 424.5 50Q369 -10 270 -10Q171 -10 115.5 50Q60 110 60 218V278Q60 384 115.5 444.5Q171 505 270 505ZM395 218 395 278Q395 350 362.5 390Q330 430 270 430Q211 430 178 390Q145 350 145 278V218Q145 144 177.5 104Q210 64 270 64Q331 64 363 103.5Q395 143 395 218ZM403 709 306 579H235L325 745Z" glyph-name="oacute" horiz-adv-x="541" unicode="ó" /><glyph d="M270 505Q369 505 424.5 444.5Q480 384 480 278V218Q480 110 424.5 50Q369 -10 270 -10Q171 -10 115.5 50Q60 110 60 218V278Q60 384 115.5 444.5Q171 505 270 505ZM395 218 395 278Q395 350 362.5 390Q330 430 270 430Q211 430 178 390Q145 350 145 278V218Q145 144 177.5 104Q210 64 270 64Q331 64 363 103.5Q395 143 395 218ZM404 579 335 579L268 674L201 579H136L229 740H311Z" glyph-name="ocircumflex" horiz-adv-x="541" unicode="ô" /><glyph d="M270 505Q369 505 424.5 444.5Q480 384 480 278V218Q480 110 424.5 50Q369 -10 270 -10Q171 -10 115.5 50Q60 110 60 218V278Q60 384 115.5 444.5Q171 505 270 505ZM395 218 395 278Q395 350 362.5 390Q330 430 270 430Q211 430 178 390Q145 350 145 278V218Q145 144 177.5 104Q210 64 270 64Q331 64 363 103.5Q395 143 395 218ZM217 705 217 619H131V705ZM408 705 408 619H322V705Z" glyph-name="odieresis" horiz-adv-x="541" unicode="ö" /><glyph d="M270 505Q369 505 424.5 444.5Q480 384 480 278V218Q480 110 424.5 50Q369 -10 270 -10Q171 -10 115.5 50Q60 110 60 218V278Q60 384 115.5 444.5Q171 505 270 505ZM395 218 395 278Q395 350 362.5 390Q330 430 270 430Q211 430 178 390Q145 350 145 278V218Q145 144 177.5 104Q210 64 270 64Q331 64 363 103.5Q395 143 395 218ZM305 579 234 579L136 709L215 745Z" glyph-name="ograve" horiz-adv-x="541" unicode="ò" /><glyph d="M270 505Q369 505 424.5 444.5Q480 384 480 278V218Q480 110 424.5 50Q369 -10 270 -10Q171 -10 115.5 50Q60 110 60 218V278Q60 384 115.5 444.5Q171 505 270 505ZM395 218 395 278Q395 350 362.5 390Q330 430 270 430Q211 430 178 390Q145 350 145 278V218Q145 144 177.5 104Q210 64 270 64Q331 64 363 103.5Q395 143 395 218ZM330 588Q309 588 291.5 598Q274 608 250 639Q235 659 227 664.5Q219 670 211 670Q198 670 192.5 653Q187 636 187 600H124Q125 668 146.5 703Q168 738 209 738Q230 738 247.5 727.5Q265 717 289 686Q304 667 312 661Q320 655 328 655Q341 655 346.5 672Q352 689 353 725H416Q415 656 393.5 622Q372 588 330 588Z" glyph-name="otilde" horiz-adv-x="541" unicode="õ" /><glyph d="M270 505Q369 505 424.5 444.5Q480 384 480 278V218Q480 110 424.5 50Q369 -10 270 -10Q171 -10 115.5 50Q60 110 60 218V278Q60 384 115.5 444.5Q171 505 270 505ZM395 218 395 278Q395 350 362.5 390Q330 430 270 430Q211 430 178 390Q145 350 145 278V218Q145 144 177.5 104Q210 64 270 64Q331 64 363 103.5Q395 143 395 218ZM270 648Q302 648 317 668Q332 688 335 731H401Q396 659 362.5 622Q329 585 270 585Q210 585 177 622Q144 659 139 731H204Q207 688 222.5 668Q238 648 270 648Z" glyph-name="obreve" horiz-adv-x="541" unicode="ŏ" /><glyph d="M270 505Q369 505 424.5 444.5Q480 384 480 278V218Q480 110 424.5 50Q369 -10 270 -10Q171 -10 115.5 50Q60 110 60 218V278Q60 384 115.5 444.5Q171 505 270 505ZM395 218 395 278Q395 350 362.5 390Q330 430 270 430Q211 430 178 390Q145 350 145 278V218Q145 144 177.5 104Q210 64 270 64Q331 64 363 103.5Q395 143 395 218ZM317 709 235 579H168L250 745ZM455 709 373 579H306L388 745Z" glyph-name="ohungarumlaut" horiz-adv-x="541" unicode="ő" /><glyph d="M270 505Q369 505 424.5 444.5Q480 384 480 278V218Q480 110 424.5 50Q369 -10 270 -10Q171 -10 115.5 50Q60 110 60 218V278Q60 384 115.5 444.5Q171 505 270 505ZM395 218 395 278Q395 350 362.5 390Q330 430 270 430Q211 430 178 390Q145 350 145 278V218Q145 144 177.5 104Q210 64 270 64Q331 64 363 103.5Q395 143 395 218ZM127 672 413 672V609H127Z" glyph-name="omacron" horiz-adv-x="541" unicode="ō" /><glyph d="M348 505 348 423Q297 423 255 404.5Q213 386 170 346V0H88V495H166V415Q214 463 257 484Q300 505 348 505ZM353 709 256 579H185L275 745Z" glyph-name="racute" horiz-adv-x="367" unicode="ŕ" /><glyph d="M348 505 348 423Q297 423 255 404.5Q213 386 170 346V0H88V495H166V415Q214 463 257 484Q300 505 348 505ZM288 740 353 740L260 579H178L85 740H154L221 645Z" glyph-name="rcaron" horiz-adv-x="367" unicode="ř" /><glyph d="M348 505 348 423Q297 423 255 404.5Q213 386 170 346V0H88V495H166V415Q214 463 257 484Q300 505 348 505ZM174 -77 104 -248L54 -234L85 -77Z" glyph-name="rcommaaccent" horiz-adv-x="367" unicode="ŗ" /><glyph d="M209 63Q259 63 284 80Q309 97 309 131Q309 161 290 178Q271 195 225 206L170 220Q111 235 80 271.5Q49 308 49 362Q49 428 93 466.5Q137 505 216 505Q256 505 295.5 495.5Q335 486 374 468L348 399Q311 416 278 424Q245 432 216 432Q173 432 151 415.5Q129 399 129 367Q129 338 147 321Q165 304 205 295L260 281Q325 265 356.5 229.5Q388 194 388 136Q388 65 343 27.5Q298 -10 211 -10Q166 -10 123.5 -0.5Q81 9 38 28L60 96Q103 79 138 71Q173 63 209 63ZM286 740 351 740L258 579H176L83 740H152L219 645Z" glyph-name="scaron" horiz-adv-x="431" unicode="š" /><glyph d="M209 63Q259 63 284 80Q309 97 309 131Q309 161 290 178Q271 195 225 206L170 220Q111 235 80 271.5Q49 308 49 362Q49 428 93 466.5Q137 505 216 505Q256 505 295.5 495.5Q335 486 374 468L348 399Q311 416 278 424Q245 432 216 432Q173 432 151 415.5Q129 399 129 367Q129 338 147 321Q165 304 205 295L260 281Q325 265 356.5 229.5Q388 194 388 136Q388 65 343 27.5Q298 -10 211 -10Q166 -10 123.5 -0.5Q81 9 38 28L60 96Q103 79 138 71Q173 63 209 63ZM351 709 254 579H183L273 745Z" glyph-name="sacute" horiz-adv-x="431" unicode="ś" /><glyph d="M311 -132Q311 -174 280.5 -198.5Q250 -223 198 -223Q179 -223 159.5 -219.5Q140 -216 119 -208L130 -152Q146 -158 164 -161Q182 -164 197 -164Q220 -164 232 -156Q244 -148 244 -133Q244 -118 232 -110.5Q220 -103 196 -103Q192 -103 188 -103.5Q184 -104 173 -105L149 -67L160 -7Q129 -3 98.5 5.5Q68 14 38 28L60 96Q103 79 138 71Q173 63 209 63Q259 63 284 80Q309 97 309 131Q309 161 290 178Q271 195 225 206L170 220Q111 235 80 271.5Q49 308 49 362Q49 428 93 466.5Q137 505 216 505Q256 505 295.5 495.5Q335 486 374 468L348 399Q311 416 278 424Q245 432 216 432Q173 432 151 415.5Q129 399 129 367Q129 338 147 321Q165 304 205 295L260 281Q325 265 356.5 229.5Q388 194 388 136Q388 67 345 29.5Q302 -8 219 -10L212 -50Q259 -50 285 -71.5Q311 -93 311 -132Z" glyph-name="scedilla" horiz-adv-x="431" unicode="ş" /><glyph d="M209 63Q259 63 284 80Q309 97 309 131Q309 161 290 178Q271 195 225 206L170 220Q111 235 80 271.5Q49 308 49 362Q49 428 93 466.5Q137 505 216 505Q256 505 295.5 495.5Q335 486 374 468L348 399Q311 416 278 424Q245 432 216 432Q173 432 151 415.5Q129 399 129 367Q129 338 147 321Q165 304 205 295L260 281Q325 265 356.5 229.5Q388 194 388 136Q388 65 343 27.5Q298 -10 211 -10Q166 -10 123.5 -0.5Q81 9 38 28L60 96Q103 79 138 71Q173 63 209 63ZM351 579 282 579L215 674L148 579H83L176 740H258Z" glyph-name="scircumflex" horiz-adv-x="431" unicode="ŝ" /><glyph d="M209 63Q259 63 284 80Q309 97 309 131Q309 161 290 178Q271 195 225 206L170 220Q111 235 80 271.5Q49 308 49 362Q49 428 93 466.5Q137 505 216 505Q256 505 295.5 495.5Q335 486 374 468L348 399Q311 416 278 424Q245 432 216 432Q173 432 151 415.5Q129 399 129 367Q129 338 147 321Q165 304 205 295L260 281Q325 265 356.5 229.5Q388 194 388 136Q388 65 343 27.5Q298 -10 211 -10Q166 -10 123.5 -0.5Q81 9 38 28L60 96Q103 79 138 71Q173 63 209 63ZM251 -77 181 -248L131 -234L162 -77Z" glyph-name="uni0219" horiz-adv-x="431" unicode="ș" /><glyph d="M352 85 377 18Q350 4 319.5 -3Q289 -10 258 -10Q188 -10 153 30.5Q118 71 118 153V232H32V292H118V423H32V495H118V633H200V495H362V423H200V292H331V232H200V156Q200 106 216 85.5Q232 65 272 65Q292 65 311.5 70Q331 75 352 85Z" glyph-name="tbar" horiz-adv-x="399" unicode="ŧ" /><glyph d="M335 85 360 18Q333 4 302.5 -3Q272 -10 241 -10Q171 -10 136 30.5Q101 71 101 153V423H15V495H101V633H183V495H345V423H183V156Q183 106 199 85.5Q215 65 255 65Q275 65 294.5 70Q314 75 335 85ZM339 762 310 568H255V762Z" glyph-name="tcaron" horiz-adv-x="380" unicode="ť" /><glyph d="M335 85 360 18Q333 4 302.5 -3Q272 -10 241 -10Q171 -10 136 30.5Q101 71 101 153V423H15V495H101V633H183V495H345V423H183V156Q183 106 199 85.5Q215 65 255 65Q275 65 294.5 70Q314 75 335 85ZM266 -77 196 -248L146 -234L177 -77Z" glyph-name="uni0163" horiz-adv-x="380" unicode="ţ" /><glyph d="M335 85 360 18Q333 4 302.5 -3Q272 -10 241 -10Q171 -10 136 30.5Q101 71 101 153V423H15V495H101V633H183V495H345V423H183V156Q183 106 199 85.5Q215 65 255 65Q275 65 294.5 70Q314 75 335 85ZM266 -77 196 -248L146 -234L177 -77Z" glyph-name="uni021B" horiz-adv-x="380" unicode="ț" /><glyph d="M470 0 393 0V70Q344 28 303 9Q262 -10 218 -10Q152 -10 117 33Q82 76 82 156V495H164V168Q164 116 182 91.5Q200 67 238 67Q272 67 308 84Q344 101 388 137V495H470ZM409 709 312 579H241L331 745Z" glyph-name="uacute" horiz-adv-x="559" unicode="ú" /><glyph d="M470 0 393 0V70Q344 28 303 9Q262 -10 218 -10Q152 -10 117 33Q82 76 82 156V495H164V168Q164 116 182 91.5Q200 67 238 67Q272 67 308 84Q344 101 388 137V495H470ZM410 579 341 579L274 674L207 579H142L235 740H317Z" glyph-name="ucircumflex" horiz-adv-x="559" unicode="û" /><glyph d="M470 0 393 0V70Q344 28 303 9Q262 -10 218 -10Q152 -10 117 33Q82 76 82 156V495H164V168Q164 116 182 91.5Q200 67 238 67Q272 67 308 84Q344 101 388 137V495H470ZM223 705 223 619H137V705ZM414 705 414 619H328V705Z" glyph-name="udieresis" horiz-adv-x="559" unicode="ü" /><glyph d="M470 0 393 0V70Q344 28 303 9Q262 -10 218 -10Q152 -10 117 33Q82 76 82 156V495H164V168Q164 116 182 91.5Q200 67 238 67Q272 67 308 84Q344 101 388 137V495H470ZM311 579 240 579L142 709L221 745Z" glyph-name="ugrave" horiz-adv-x="559" unicode="ù" /><glyph d="M470 0 393 0V70Q344 28 303 9Q262 -10 218 -10Q152 -10 117 33Q82 76 82 156V495H164V168Q164 116 182 91.5Q200 67 238 67Q272 67 308 84Q344 101 388 137V495H470ZM276 648Q308 648 323 668Q338 688 341 731H407Q402 659 368.5 622Q335 585 276 585Q216 585 183 622Q150 659 145 731H210Q213 688 228.5 668Q244 648 276 648Z" glyph-name="ubreve" horiz-adv-x="559" unicode="ŭ" /><glyph d="M470 0 393 0V70Q344 28 303 9Q262 -10 218 -10Q152 -10 117 33Q82 76 82 156V495H164V168Q164 116 182 91.5Q200 67 238 67Q272 67 308 84Q344 101 388 137V495H470ZM323 709 241 579H174L256 745ZM461 709 379 579H312L394 745Z" glyph-name="uhungarumlaut" horiz-adv-x="559" unicode="ű" /><glyph d="M470 0 393 0V70Q344 28 303 9Q262 -10 218 -10Q152 -10 117 33Q82 76 82 156V495H164V168Q164 116 182 91.5Q200 67 238 67Q272 67 308 84Q344 101 388 137V495H470ZM133 672 419 672V609H133Z" glyph-name="umacron" horiz-adv-x="559" unicode="ū" /><glyph d="M455 -143 470 -206Q449 -215 429.5 -219Q410 -223 391 -223Q344 -223 317 -199.5Q290 -176 290 -136Q290 -100 314.5 -65.5Q339 -31 393 11V70Q344 28 303 9Q262 -10 218 -10Q152 -10 117 33Q82 76 82 156V495H164V168Q164 116 182 91.5Q200 67 238 67Q272 67 308 84Q344 101 388 137V495H470V0Q411 -45 388 -72Q365 -99 365 -123Q365 -139 374.5 -147Q384 -155 402 -155Q414 -155 427.5 -152Q441 -149 455 -143Z" glyph-name="uogonek" horiz-adv-x="559" unicode="ų" /><glyph d="M470 0 393 0V70Q344 28 303 9Q262 -10 218 -10Q152 -10 117 33Q82 76 82 156V495H164V168Q164 116 182 91.5Q200 67 238 67Q272 67 308 84Q344 101 388 137V495H470ZM276 791Q327 791 358.5 761Q390 731 390 683V672Q390 623 358.5 593Q327 563 276 563Q224 563 193 593Q162 623 162 672V683Q162 732 193 761.5Q224 791 276 791ZM330 672 330 683Q330 707 315 721.5Q300 736 276 736Q251 736 236 721.5Q221 707 221 683V672Q221 647 236 632.5Q251 618 276 618Q300 618 315 633Q330 648 330 672Z" glyph-name="uring" horiz-adv-x="559" unicode="ů" /><glyph d="M470 0 393 0V70Q344 28 303 9Q262 -10 218 -10Q152 -10 117 33Q82 76 82 156V495H164V168Q164 116 182 91.5Q200 67 238 67Q272 67 308 84Q344 101 388 137V495H470ZM336 588Q315 588 297.5 598Q280 608 256 639Q241 659 233 664.5Q225 670 217 670Q204 670 198.5 653Q193 636 193 600H130Q131 668 152.5 703Q174 738 215 738Q236 738 253.5 727.5Q271 717 295 686Q310 667 318 661Q326 655 334 655Q347 655 352.5 672Q358 689 359 725H422Q421 656 399.5 622Q378 588 336 588Z" glyph-name="utilde" horiz-adv-x="559" unicode="ũ" /><glyph d="M604 495 685 495L558 0H463L359 406L252 0H157L31 495H115L165 288L210 83L317 495H404L511 81L555 287ZM491 709 394 579H323L413 745Z" glyph-name="wacute" horiz-adv-x="716" unicode="ẃ" /><glyph d="M604 495 685 495L558 0H463L359 406L252 0H157L31 495H115L165 288L210 83L317 495H404L511 81L555 287ZM491 579 422 579L355 674L288 579H223L316 740H398Z" glyph-name="wcircumflex" horiz-adv-x="716" unicode="ŵ" /><glyph d="M604 495 685 495L558 0H463L359 406L252 0H157L31 495H115L165 288L210 83L317 495H404L511 81L555 287ZM304 705 304 619H218V705ZM495 705 495 619H409V705Z" glyph-name="wdieresis" horiz-adv-x="716" unicode="ẅ" /><glyph d="M604 495 685 495L558 0H463L359 406L252 0H157L31 495H115L165 288L210 83L317 495H404L511 81L555 287ZM393 579 322 579L224 709L303 745Z" glyph-name="wgrave" horiz-adv-x="716" unicode="ẁ" /><glyph d="M450 495 257 -50Q223 -144 175.5 -183.5Q128 -223 49 -223V-142Q107 -141 135.5 -116.5Q164 -92 189 -28L199 -3L21 495H105L188 254L239 100L288 254L369 495ZM370 709 273 579H202L292 745Z" glyph-name="yacute" horiz-adv-x="472" unicode="ý" /><glyph d="M450 495 257 -50Q223 -144 175.5 -183.5Q128 -223 49 -223V-142Q107 -141 135.5 -116.5Q164 -92 189 -28L199 -3L21 495H105L188 254L239 100L288 254L369 495ZM183 705 183 619H97V705ZM374 705 374 619H288V705Z" glyph-name="ydieresis" horiz-adv-x="472" unicode="ÿ" /><glyph d="M450 495 257 -50Q223 -144 175.5 -183.5Q128 -223 49 -223V-142Q107 -141 135.5 -116.5Q164 -92 189 -28L199 -3L21 495H105L188 254L239 100L288 254L369 495ZM370 579 301 579L234 674L167 579H102L195 740H277Z" glyph-name="ycircumflex" horiz-adv-x="472" unicode="ŷ" /><glyph d="M450 495 257 -50Q223 -144 175.5 -183.5Q128 -223 49 -223V-142Q107 -141 135.5 -116.5Q164 -92 189 -28L199 -3L21 495H105L188 254L239 100L288 254L369 495ZM272 579 201 579L103 709L182 745Z" glyph-name="ygrave" horiz-adv-x="472" unicode="ỳ" /><glyph d="M131 71 379 71V0H35V64L272 423H45V495H369V430ZM275 740 340 740L247 579H165L72 740H141L208 645Z" glyph-name="zcaron" horiz-adv-x="412" unicode="ž" /><glyph d="M131 71 379 71V0H35V64L272 423H45V495H369V430ZM340 709 243 579H172L262 745Z" glyph-name="zacute" horiz-adv-x="412" unicode="ź" /><glyph d="M131 71 379 71V0H35V64L272 423H45V495H369V430ZM252 708 252 616H160V708Z" glyph-name="zdotaccent" horiz-adv-x="412" unicode="ż" /><glyph d="M340 709 243 579H172L262 745Z" glyph-name="acute" horiz-adv-x="500" unicode="´" /><glyph d="M272 579 201 579L103 709L182 745Z" glyph-name="grave" horiz-adv-x="500" unicode="`" /><glyph d="M370 579 301 579L234 674L167 579H102L195 740H277Z" glyph-name="circumflex" horiz-adv-x="500" unicode="ˆ" /><glyph d="M275 740 340 740L247 579H165L72 740H141L208 645Z" glyph-name="caron" horiz-adv-x="500" unicode="ˇ" /><glyph d="M336 588Q315 588 297.5 598Q280 608 256 639Q241 659 233 664.5Q225 670 217 670Q204 670 198.5 653Q193 636 193 600H130Q131 668 152.5 703Q174 738 215 738Q236 738 253.5 727.5Q271 717 295 686Q310 667 318 661Q326 655 334 655Q347 655 352.5 672Q358 689 359 725H422Q421 656 399.5 622Q378 588 336 588Z" glyph-name="tilde" horiz-adv-x="500" unicode="˜" /><glyph d="M183 705 183 619H97V705ZM374 705 374 619H288V705Z" glyph-name="dieresis" horiz-adv-x="500" unicode="¨" /><glyph d="M276 791Q327 791 358.5 761Q390 731 390 683V672Q390 623 358.5 593Q327 563 276 563Q224 563 193 593Q162 623 162 672V683Q162 732 193 761.5Q224 791 276 791ZM330 672 330 683Q330 707 315 721.5Q300 736 276 736Q251 736 236 721.5Q221 707 221 683V672Q221 647 236 632.5Q251 618 276 618Q300 618 315 633Q330 648 330 672Z" glyph-name="ring" horiz-adv-x="500" unicode="˚" /><glyph d="M349 -132Q349 -174 318.5 -198.5Q288 -223 236 -223Q217 -223 197.5 -219.5Q178 -216 157 -208L168 -152Q184 -158 202 -161Q220 -164 235 -164Q258 -164 270 -156Q282 -148 282 -133Q282 -118 270 -110.5Q258 -103 234 -103Q230 -103 226 -103.5Q222 -104 211 -105L187 -67L199 0H259L250 -50Q297 -50 323 -71.5Q349 -93 349 -132Z" glyph-name="cedilla" horiz-adv-x="500" unicode="¸" /><glyph d="M323 709 241 579H174L256 745ZM461 709 379 579H312L394 745Z" glyph-name="hungarumlaut" horiz-adv-x="500" unicode="˝" /><glyph d="M276 648Q308 648 323 668Q338 688 341 731H407Q402 659 368.5 622Q335 585 276 585Q216 585 183 622Q150 659 145 731H210Q213 688 228.5 668Q244 648 276 648Z" glyph-name="breve" horiz-adv-x="500" unicode="˘" /><glyph d="M133 672 419 672V609H133Z" glyph-name="macron" horiz-adv-x="500" unicode="¯" /><glyph d="M252 708 252 616H160V708Z" glyph-name="dotaccent" horiz-adv-x="500" unicode="˙" /><glyph d="M318 430 318 338H226V430Z" glyph-name="periodcentered" horiz-adv-x="500" unicode="·" /><glyph d="M234 -123Q234 -139 243.5 -147Q253 -155 271 -155Q283 -155 296.5 -152Q310 -149 324 -143L339 -206Q318 -215 298.5 -219Q279 -223 260 -223Q213 -223 186 -199.5Q159 -176 159 -136Q159 -94 193 -52.5Q227 -11 306 43L339 0Q280 -45 257 -72Q234 -99 234 -123Z" glyph-name="ogonek" horiz-adv-x="500" unicode="˛" /><glyph d="M266 -77 196 -248L146 -234L177 -77Z" glyph-name="commaaccent" horiz-adv-x="500" unicode="" /><glyph d="M339 762 310 568H255V762Z" glyph-name="caron.alt" horiz-adv-x="500" unicode="" /><glyph d="M203 579 273 750L323 736L292 579Z" glyph-name="revcommaaccent" horiz-adv-x="500" unicode="" /><glyph d="M142 91 142 0H50V91Z" glyph-name="period" horiz-adv-x="192" unicode="." /><glyph d="M55 91 137 91V72Q137 -6 117.5 -72Q98 -138 54 -208L0 -178Q32 -116 43.5 -63Q55 -10 55 91Z" glyph-name="comma" horiz-adv-x="192" unicode="," /><glyph d="M142 495 142 403H50V495ZM142 91 142 0H50V91Z" glyph-name="colon" horiz-adv-x="192" unicode=":" /><glyph d="M142 495 142 403H50V495ZM55 91 137 91V72Q137 -6 117.5 -72Q98 -138 54 -208L0 -178Q32 -116 43.5 -63Q55 -10 55 91Z" glyph-name="semicolon" horiz-adv-x="192" unicode=";" /><glyph d="M542 91 542 0H450V91ZM542 91 542 0H450V91ZM542 91 542 0H450V91Z" glyph-name="ellipsis" horiz-adv-x="592" unicode="…" /><glyph d="M197 614Q160 614 121 604.5Q82 595 38 575L10 647Q56 668 104 679Q152 690 200 690Q296 690 348 645.5Q400 601 400 521V503Q400 450 383 411Q366 372 327 337L293 306Q264 279 253 258Q242 237 242 202V182H158V205Q158 253 174 285.5Q190 318 235 360L269 391Q294 414 304.5 438.5Q315 463 315 499V517Q315 563 284 588.5Q253 614 197 614ZM247 91 247 0H155V91Z" glyph-name="question" horiz-adv-x="434" unicode="?" /><glyph d="M181 430 173 182H107L99 430V680H181ZM186 91 186 0H94V91Z" glyph-name="exclam" horiz-adv-x="280" unicode="!" /><glyph d="M200 403 200 495H292V403ZM250 -119Q287 -119 326 -109.5Q365 -100 409 -80L437 -152Q391 -173 343 -184Q295 -195 247 -195Q151 -195 99 -150.5Q47 -106 47 -26V-8Q47 44 64 83Q81 122 120 157L154 188Q183 215 194 236.5Q205 258 205 293V312H289V290Q289 241 273 208.5Q257 176 212 135L178 104Q153 81 142.5 56Q132 31 132 -4V-22Q132 -68 163 -93.5Q194 -119 250 -119Z" glyph-name="questiondown" horiz-adv-x="434" unicode="¿" /><glyph d="M94 403 94 495H186V403ZM98 65 107 312H173L180 65V-185H98Z" glyph-name="exclamdown" horiz-adv-x="280" unicode="¡" /><glyph d="M60 280 60 317Q60 442 109.5 551Q159 660 257 750L312 694Q227 610 186 518Q145 426 145 317V280Q145 171 186 78.5Q227 -14 312 -97L257 -153Q159 -63 109.5 46Q60 155 60 280Z" glyph-name="parenleft" horiz-adv-x="315" unicode="(" /><glyph d="M255 317 255 280Q255 155 205.5 46Q156 -63 58 -153L2 -97Q88 -14 129 78Q170 170 170 280V317Q170 426 129 518.5Q88 611 2 694L58 750Q156 660 205.5 551Q255 442 255 317Z" glyph-name="parenright" horiz-adv-x="315" unicode=")" /><glyph d="M288 -72 374 -72V-144H285Q194 -144 155 -94Q116 -44 135 49L155 147Q168 208 151 235Q134 262 85 262H20V334H85Q134 334 151 361Q168 388 155 449L135 547Q116 640 155 690Q194 740 285 740H374V668H288Q243 668 224.5 641Q206 614 216 566L236 468Q250 401 233 357Q216 313 171 298Q216 283 233 239Q250 195 236 128L216 30Q206 -18 224.5 -45Q243 -72 288 -72Z" glyph-name="braceleft" horiz-adv-x="377" unicode="{" /><glyph d="M221 147 241 49Q261 -43 222 -93.5Q183 -144 91 -144H2V-72H89Q134 -72 152.5 -45Q171 -18 161 30L141 128Q127 195 143.5 239Q160 283 205 298Q160 314 143.5 357Q127 400 141 468L161 566Q171 614 152.5 641Q134 668 89 668H2V740H91Q183 740 222 689.5Q261 639 241 547L221 449Q208 387 225 360Q242 333 291 333H356V261H291Q242 261 225 234Q208 207 221 147Z" glyph-name="braceright" horiz-adv-x="377" unicode="}" /><glyph d="M188 -71 343 -71V-143H106V740H343V668H188Z" glyph-name="bracketleft" horiz-adv-x="346" unicode="[" /><glyph d="M2 740 239 740V-143H2V-71H157V668H2Z" glyph-name="bracketright" horiz-adv-x="346" unicode="]" /><glyph d="M-39 -143 289 740H373L44 -143Z" glyph-name="slash" horiz-adv-x="364" unicode="/" /><glyph d="M-9 740 74 740L403 -143H319Z" glyph-name="backslash" horiz-adv-x="364" unicode="\" /><glyph d="M385 -157 5 -157V-96H385Z" glyph-name="underscore" horiz-adv-x="390" unicode="_" /><glyph d="M336 267 56 267V339H336Z" glyph-name="hyphen" horiz-adv-x="392" unicode="-" /><glyph d="" glyph-name="uni00AD" horiz-adv-x="0" unicode="­" /><glyph d="M536 267 56 267V339H536Z" glyph-name="endash" horiz-adv-x="592" unicode="–" /><glyph d="M736 267 56 267V339H736Z" glyph-name="emdash" horiz-adv-x="792" unicode="—" /><glyph d="M100 357 100 740H182V357ZM100 -213 100 170H182V-213Z" glyph-name="brokenbar" horiz-adv-x="282" unicode="¦" /><glyph d="M106 -213 106 740H188V-213Z" glyph-name="bar" horiz-adv-x="295" unicode="|" /><glyph d="M120 248 322 105V14L38 221V274L322 478V390ZM410 248 612 105V14L328 221V274L612 478V390Z" glyph-name="guillemotleft" horiz-adv-x="667" unicode="«" /><glyph d="M628 271 628 218L344 14V101L546 243L344 386V478ZM338 271 338 218L54 14V101L256 243L54 386V478Z" glyph-name="guillemotright" horiz-adv-x="667" unicode="»" /><glyph d="M120 248 322 105V14L38 221V274L322 478V390Z" glyph-name="guilsinglleft" horiz-adv-x="377" unicode="‹" /><glyph d="M338 271 338 218L54 14V101L256 243L54 386V478Z" glyph-name="guilsinglright" horiz-adv-x="377" unicode="›" /><glyph d="M55 91 137 91V72Q137 13 119.5 -43.5Q102 -100 63 -168L8 -141Q36 -81 45.5 -33.5Q55 14 55 91Z" glyph-name="quotesinglbase" horiz-adv-x="192" unicode="‚" /><glyph d="M55 91 137 91V72Q137 13 119.5 -43.5Q102 -100 63 -168L8 -141Q36 -81 45.5 -33.5Q55 14 55 91ZM219 91 301 91V72Q301 13 283.5 -43.5Q266 -100 227 -168L172 -141Q200 -81 209.5 -33.5Q219 14 219 91Z" glyph-name="quotedblbase" horiz-adv-x="356" unicode="„" /><glyph d="M119 430 37 430V449Q37 508 54.5 564.5Q72 621 111 690L165 662Q138 603 128.5 556.5Q119 510 119 430Z" glyph-name="quoteleft" horiz-adv-x="192" unicode="‘" /><glyph d="M283 430 201 430V449Q201 508 218.5 564.5Q236 621 275 690L329 662Q302 603 292.5 556.5Q283 510 283 430ZM119 430 37 430V449Q37 508 54.5 564.5Q72 621 111 690L165 662Q138 603 128.5 556.5Q119 510 119 430Z" glyph-name="quotedblleft" horiz-adv-x="356" unicode="“" /><glyph d="M32 680 114 680V661Q114 601 96.5 544.5Q79 488 40 420L-15 447Q13 508 22.5 555Q32 602 32 680Z" glyph-name="quoteright" horiz-adv-x="192" unicode="’" /><glyph d="M73 680 155 680V661Q155 601 137.5 544.5Q120 488 81 420L26 447Q54 508 63.5 555Q73 602 73 680ZM237 680 319 680V661Q319 601 301.5 544.5Q284 488 245 420L190 447Q218 508 227.5 555Q237 602 237 680Z" glyph-name="quotedblright" horiz-adv-x="356" unicode="”" /><glyph d="M136 602 123 430H69L56 602V680H136Z" glyph-name="quotesingle" horiz-adv-x="192" unicode="'" /><glyph d="M136 602 123 430H69L56 602V680H136ZM297 602 284 430H230L217 602V680H297Z" glyph-name="quotedbl" horiz-adv-x="353" unicode="&quot;" /><glyph d="M184 396 184 271H59V396Z" glyph-name="bullet" horiz-adv-x="243" unicode="•" /><glyph d="M126 167Q126 118 154.5 91.5Q183 65 234 65Q308 65 338.5 117Q369 169 333 237L400 277L561 0H469L405 116Q396 59 348.5 24.5Q301 -10 229 -10Q142 -10 92 37.5Q42 85 42 165Q42 224 73 269.5Q104 315 176 362Q128 403 104.5 445.5Q81 488 81 534Q81 604 128 647Q175 690 255 690Q334 690 379.5 647.5Q425 605 425 531Q425 474 396 431Q367 388 296 345L225 302Q172 270 149 238.5Q126 207 126 167ZM256 616Q213 616 188 594Q163 572 163 532Q163 499 181 466Q199 433 235 398L256 411Q305 442 323.5 468Q342 494 342 530Q342 571 319.5 593.5Q297 616 256 616Z" glyph-name="ampersand" horiz-adv-x="560" unicode="&amp;" /><glyph d="M43 438 43 491Q43 580 96 630Q149 680 244 680H542V609H455V-143H368V609H301V248H244Q149 248 96 298.5Q43 349 43 438Z" glyph-name="paragraph" horiz-adv-x="562" unicode="¶" /><glyph d="M416 434 380 434L244 448L258 296V230L242 -143H187L172 230V296L186 448L50 435H14V517H50L186 503L172 644V680H258V644L244 503L380 516H416Z" glyph-name="dagger" horiz-adv-x="431" unicode="†" /><glyph d="M255 33 269 -107V-143H183V-107L197 33L61 20H25V102H61L197 88L183 240V296L197 448L61 435H25V517H61L197 503L184 644V680H269V644L256 503L392 516H428V434H392L256 448L269 296V240L255 88L391 102H427V20H391Z" glyph-name="daggerdbl" horiz-adv-x="453" unicode="‡" /><glyph d="M376 90Q412 65 430 30Q448 -5 448 -50Q448 -131 393.5 -177Q339 -223 239 -223Q190 -223 139 -211Q88 -199 38 -176L65 -100Q115 -122 156.5 -132.5Q198 -143 239 -143Q298 -143 328.5 -121.5Q359 -100 359 -58Q359 -22 335.5 2.5Q312 27 262 44L184 69Q115 92 80.5 133Q46 174 46 232Q46 276 70 315.5Q94 355 136 379Q104 403 88 438Q72 473 72 518Q72 598 123 644Q174 690 265 690Q308 690 353 680Q398 670 445 650L418 575Q375 593 339 601.5Q303 610 267 610Q214 610 187.5 588Q161 566 161 522Q161 485 181.5 461.5Q202 438 246 424L325 399Q395 377 431 335.5Q467 294 467 236Q467 191 443 153Q419 115 376 90ZM135 244Q135 208 157 185.5Q179 163 230 147L312 121Q347 141 362.5 165.5Q378 190 378 222Q378 260 355 283Q332 306 278 322L198 348Q166 328 150.5 302.5Q135 277 135 244Z" glyph-name="section" horiz-adv-x="509" unicode="§" /><glyph d="M324 387 343 361L283 317L264 343L202 459L140 342L121 317L61 361L80 386L171 480L42 504L11 514L34 585L64 574L182 518L165 648V680H239V648L221 518L339 575L370 585L392 515L362 504L233 481Z" glyph-name="asterisk" horiz-adv-x="404" unicode="*" /><glyph d="M324 680 395 680L494 462L593 680H662V340H602V437L605 583L514 384H469L381 582L384 437V340H324ZM109 621 5 621V680H276V621H172V340H109Z" glyph-name="trademark" horiz-adv-x="716" unicode="™" /><glyph d="M505 479Q505 377 438 309Q371 241 271 241Q171 241 104 309Q37 377 37 479Q37 582 103.5 649.5Q170 717 271 717Q372 717 438.5 649.5Q505 582 505 479ZM90 479Q90 397 141.5 343.5Q193 290 271 290Q350 290 401 343.5Q452 397 452 479Q452 561 401 614.5Q350 668 271 668Q193 668 141.5 614.5Q90 561 90 479ZM241 353 190 353V608H277Q315 608 336.5 587.5Q358 567 358 531V517Q358 494 349 477Q340 460 323 450Q338 425 350.5 401Q363 377 373 353H316Q304 381 294 401Q284 421 274 439H241ZM277 559 241 559V488H277Q290 488 297.5 496Q305 504 305 517V531Q305 544 297.5 551.5Q290 559 277 559Z" glyph-name="registered" horiz-adv-x="543" unicode="®" /><glyph d="M792 340Q792 177 686.5 70Q581 -37 420 -37Q259 -37 153.5 70Q48 177 48 340Q48 503 153.5 610Q259 717 420 717Q581 717 686.5 610Q792 503 792 340ZM112 340Q112 200 198.5 110.5Q285 21 420 21Q554 21 641 111Q728 201 728 340Q728 478 641 568.5Q554 659 420 659Q286 659 199 569Q112 479 112 340ZM422 490Q370 490 344.5 458Q319 426 319 361V320Q319 254 344 222Q369 190 422 190Q449 190 477.5 197Q506 204 536 219L559 158Q526 141 489.5 132Q453 123 417 123Q333 123 288.5 174Q244 225 244 320V361Q244 455 288.5 506Q333 557 417 557Q452 557 486 548.5Q520 540 550 525L527 464Q497 477 471 483.5Q445 490 422 490Z" glyph-name="copyright" horiz-adv-x="840" unicode="©" /><glyph d="M704 -99 731 -167Q671 -194 602.5 -208.5Q534 -223 466 -223Q272 -223 160 -108Q48 7 48 204Q48 416 172.5 553Q297 690 493 690Q672 690 788 575Q904 460 904 285Q904 161 841.5 79.5Q779 -2 685 -2Q635 -2 604.5 19Q574 40 565 81Q525 37 484.5 15Q444 -7 401 -7Q332 -7 298.5 52Q265 111 280 206L288 261Q303 363 357.5 416.5Q412 470 500 470Q545 470 591.5 454.5Q638 439 686 408L643 157Q634 111 646.5 88.5Q659 66 692 66Q748 66 787 128.5Q826 191 826 285Q826 430 732.5 525Q639 620 493 620Q331 620 228 503Q125 386 125 204Q125 38 215.5 -57.5Q306 -153 466 -153Q527 -153 589.5 -139Q652 -125 704 -99ZM372 261 364 206Q354 139 369 102.5Q384 66 423 66Q456 66 492 93Q528 120 565 173L598 369Q573 383 550 389.5Q527 396 505 396Q449 396 415.5 362Q382 328 372 261Z" glyph-name="at" horiz-adv-x="950" unicode="@" /><glyph d="M313 338 306 338Q276 338 255 349Q234 360 225 381Q197 357 172 346Q147 335 122 335Q78 335 53.5 361Q29 387 29 432Q29 480 57.5 504.5Q86 529 143 529Q156 529 173.5 527.5Q191 526 216 522V568Q216 599 201.5 612Q187 625 153 625Q131 625 108 619Q85 613 58 600L39 655Q70 670 98 677.5Q126 685 154 685Q216 685 247.5 657.5Q279 630 279 575V431Q279 413 285 405.5Q291 398 304 398H313ZM147 478Q119 478 106 467.5Q93 457 93 434Q93 413 103 401.5Q113 390 131 390Q150 390 170.5 399.5Q191 409 216 430V472Q197 475 178.5 476.5Q160 478 147 478Z" glyph-name="ordfeminine" horiz-adv-x="335" unicode="ª" /><glyph d="M174 685Q243 685 282 644Q321 603 321 531V489Q321 416 282.5 375.5Q244 335 174 335Q104 335 65.5 375Q27 415 27 489V531Q27 603 66 644Q105 685 174 685ZM256 489 256 531Q256 575 234.5 600Q213 625 174 625Q135 625 113.5 600Q92 575 92 531V489Q92 443 113 419Q134 395 174 395Q214 395 235 419Q256 443 256 489Z" glyph-name="ordmasculine" horiz-adv-x="348" unicode="º" /><glyph d="M370 0 299 0L360 195H188L127 0H56L117 195H16V261H137L186 418H86V484H206L267 680H339L278 484H449L510 680H582L521 484H622V418H500L451 261H552V195H431ZM257 418 208 261H380L429 418Z" glyph-name="numbersign" horiz-adv-x="638" unicode="#" /><glyph d="M884 685Q956 685 999 640Q1042 595 1042 521V479Q1042 404 999.5 359.5Q957 315 884 315Q810 315 768 359Q726 403 726 479V521Q726 595 768.5 640Q811 685 884 685ZM191 0 106 0V680H197Q288 550 364.5 418Q441 286 508 144L498 404V680H583V0H492Q405 181 332 312Q259 443 185 555L191 278ZM971 479 971 521Q971 567 948 593Q925 619 884 619Q842 619 819 593Q796 567 796 521V479Q796 431 819 405.5Q842 380 884 380Q926 380 948.5 405.5Q971 431 971 479ZM1023 164 745 164V229H1023Z" glyph-name="uni2116" horiz-adv-x="1088" unicode="№" /><glyph d="M511 106 540 32Q494 11 450 0.5Q406 -10 362 -10Q260 -10 198.5 47Q137 104 125 211H36V280H122V380H36V448H123Q131 563 193 626.5Q255 690 362 690Q405 690 449.5 679.5Q494 669 538 648L510 573Q468 592 433 600.5Q398 609 365 609Q296 609 257.5 568.5Q219 528 213 448H448L435 380H212V280H419L405 211H215Q225 141 262.5 105.5Q300 70 365 70Q400 70 433.5 78.5Q467 87 511 106Z" glyph-name="Euro" horiz-adv-x="576" unicode="€" /><glyph d="M464 183Q464 102 421.5 53.5Q379 5 297 -7V-133H217V-9Q173 -7 128 5Q83 17 37 38L64 112Q116 89 158 78.5Q200 68 245 68Q309 68 342.5 95.5Q376 123 376 176Q376 222 351.5 251.5Q327 281 276 296L195 320Q121 342 84 388Q47 434 47 504Q47 584 91 632Q135 680 217 688V813H297V688Q335 683 371.5 672.5Q408 662 443 646L415 571Q368 592 329.5 601.5Q291 611 255 611Q194 611 164.5 586Q135 561 135 510Q135 468 158 442Q181 416 231 401L312 377Q388 354 426 306Q464 258 464 183Z" glyph-name="dollar" horiz-adv-x="506" unicode="$" /><glyph d="M503 232 503 164H320V0H233V164H52V232H233V272L202 332H52V400H167L24 680H118L281 358L438 680H528L385 400H503V332H351L320 272V232Z" glyph-name="yen" horiz-adv-x="554" unicode="¥" /><glyph d="M460 81 460 0H69V69Q119 121 141 159Q163 197 163 235Q163 246 161.5 257.5Q160 269 157 279H61V355H126Q95 417 85.5 452Q76 487 76 520Q76 601 126.5 645.5Q177 690 271 690Q314 690 359 679.5Q404 669 450 648L422 572Q379 591 343 600Q307 609 273 609Q219 609 192.5 585Q166 561 166 513Q166 494 170 474Q174 454 183 431Q190 415 202.5 388.5Q215 362 218 355H391V279H245Q247 271 248 262Q249 253 249 243Q249 204 231 164.5Q213 125 174 81Z" glyph-name="sterling" horiz-adv-x="486" unicode="£" /><glyph d="M392 96 417 27Q388 14 359 5.5Q330 -3 300 -7V-125H220V-7Q144 5 103 63Q62 121 62 218V277Q62 373 103 431.5Q144 490 220 502V620H300V502Q325 499 352.5 490.5Q380 482 410 469L385 399Q350 414 319.5 421.5Q289 429 263 429Q203 429 174.5 392Q146 355 146 277V218Q146 140 174.5 102.5Q203 65 263 65Q293 65 325 73Q357 81 392 96Z" glyph-name="cent" horiz-adv-x="449" unicode="¢" /><glyph d="M217 321 184 -54Q175 -145 140 -184Q105 -223 38 -223Q13 -223 -14 -217.5Q-41 -212 -64 -202L-40 -133Q-22 -141 -5.5 -144.5Q11 -148 27 -148Q62 -148 78.5 -126.5Q95 -105 100 -54L134 321H13V393H140L157 581Q165 671 200.5 710.5Q236 750 303 750Q328 750 355 744.5Q382 739 405 729L382 660Q363 668 346 671.5Q329 675 313 675Q278 675 261.5 653.5Q245 632 240 581L223 393H344V321Z" glyph-name="florin" horiz-adv-x="362" unicode="ƒ" /><glyph d="M459 0 345 0Q269 84 204 144.5Q139 205 60 266V333H217Q267 333 298 361.5Q329 390 333 440H60V507H333Q329 557 298.5 585Q268 613 217 613H60V680H505V613H366Q389 593 402.5 566.5Q416 540 418 507H505V440H418Q414 359 360.5 312.5Q307 266 217 266H179Q258 204 323.5 142Q389 80 459 0Z" glyph-name="uni20B9" horiz-adv-x="541" unicode="₹" /><glyph d="M446 184 547 79L501 32L399 137Q375 120 347 111.5Q319 103 288 103Q256 103 228 111.5Q200 120 176 137L74 32L28 79L130 184Q113 208 104.5 237.5Q96 267 96 300Q96 332 104.5 361Q113 390 129 415L28 520L74 567L176 463Q200 480 228 488.5Q256 497 288 497Q319 497 348 488.5Q377 480 400 463L501 567L547 520L446 416Q463 392 471.5 362.5Q480 333 480 300Q480 269 471.5 239Q463 209 446 184ZM168 300Q168 242 201.5 206Q235 170 288 170Q341 170 374 206Q407 242 407 300Q407 357 374 393Q341 429 288 429Q235 429 201.5 393.5Q168 358 168 300Z" glyph-name="currency" horiz-adv-x="576" unicode="¤" /><glyph d="M306 690Q417 690 477 618.5Q537 547 537 415V266Q537 133 477 61.5Q417 -10 306 -10Q195 -10 135.5 61.5Q76 133 76 266V415Q76 547 136 618.5Q196 690 306 690ZM449 266 449 415Q449 513 413.5 562Q378 611 306 611Q235 611 199.5 562Q164 513 164 415V266Q164 168 199.5 118Q235 68 306 68Q377 68 413 117.5Q449 167 449 266Z" glyph-name="zero" horiz-adv-x="613" unicode="0" /><glyph d="M57 520 19 586L181 680H260V0H175V588Z" glyph-name="one" horiz-adv-x="366" unicode="1" /><glyph d="M435 79 435 0H47V66Q47 163 81.5 228.5Q116 294 186 330L251 363Q311 395 331.5 422Q352 449 352 488V505Q352 559 321.5 585Q291 611 228 611Q192 611 154 602Q116 593 72 574L44 647Q91 668 138 679Q185 690 230 690Q332 690 384.5 642.5Q437 595 437 505V488Q437 425 404.5 380Q372 335 291 294L226 260Q179 235 156.5 191.5Q134 148 132 79Z" glyph-name="two" horiz-adv-x="493" unicode="2" /><glyph d="M432 193 432 177Q432 87 377 38.5Q322 -10 217 -10Q169 -10 120.5 1Q72 12 23 34L49 106Q98 86 137.5 77Q177 68 215 68Q281 68 313.5 95.5Q346 123 346 179V195Q346 248 315.5 276.5Q285 305 228 305H128V381H228Q282 381 310.5 408Q339 435 339 487V501Q339 557 309 584Q279 611 218 611Q182 611 145 602Q108 593 62 574L34 647Q81 668 127.5 679Q174 690 220 690Q320 690 373 641.5Q426 593 426 503V489Q426 440 403 402.5Q380 365 337 343Q383 322 407.5 283Q432 244 432 193Z" glyph-name="three" horiz-adv-x="498" unicode="3" /><glyph d="M481 240 481 163H406V0H324V163H32V230Q126 374 183 480Q240 586 275 680H367Q329 580 271 473.5Q213 367 129 240H324V364H406V240Z" glyph-name="four" horiz-adv-x="508" unicode="4" /><glyph d="M119 314 68 354L88 680H426V600H165L153 405Q175 413 198.5 416.5Q222 420 248 420Q346 420 400 368.5Q454 317 454 222V192Q454 95 397.5 42.5Q341 -10 235 -10Q187 -10 138.5 1Q90 12 41 34L68 106Q114 86 154 77Q194 68 234 68Q301 68 333.5 98.5Q366 129 366 192V222Q366 280 333 311.5Q300 343 239 343Q210 343 181 336Q152 329 119 314Z" glyph-name="five" horiz-adv-x="507" unicode="5" /><glyph d="M512 223 512 193Q512 101 454 45.5Q396 -10 300 -10Q193 -10 135 62Q77 134 77 267V415Q77 549 138 619.5Q199 690 314 690Q358 690 403 679.5Q448 669 493 648L462 575Q423 593 387 602Q351 611 317 611Q237 611 198.5 562.5Q160 514 160 415V357Q198 391 239 408Q280 425 323 425Q410 425 461 370Q512 315 512 223ZM160 280 160 267Q160 168 195.5 118Q231 68 300 68Q360 68 394 101.5Q428 135 428 193V223Q428 281 397.5 314.5Q367 348 313 348Q273 348 234 331Q195 314 160 280Z" glyph-name="six" horiz-adv-x="564" unicode="6" /><glyph d="M435 680 435 610Q358 453 306.5 301Q255 149 229 0H140Q166 146 216.5 296Q267 446 342 600H28V680Z" glyph-name="seven" horiz-adv-x="470" unicode="7" /><glyph d="M384 348Q442 319 469 278Q496 237 496 179Q496 91 438 40.5Q380 -10 274 -10Q173 -10 117.5 37Q62 84 62 166Q62 221 88.5 264Q115 307 172 343Q124 370 100 411Q76 452 76 507Q76 588 130.5 639Q185 690 277 690Q372 690 426.5 642Q481 594 481 512Q481 461 457.5 421Q434 381 384 348ZM161 507Q161 464 184.5 437.5Q208 411 263 393L318 374Q359 405 377.5 436Q396 467 396 504Q396 556 365.5 585Q335 614 279 614Q224 614 192.5 585.5Q161 557 161 507ZM147 177Q147 124 181 94.5Q215 65 277 65Q341 65 376 93.5Q411 122 411 175Q411 220 386 246Q361 272 296 294L238 314Q190 280 168.5 247.5Q147 215 147 177Z" glyph-name="eight" horiz-adv-x="558" unicode="8" /><glyph d="M486 412 486 264Q486 130 425.5 60Q365 -10 249 -10Q204 -10 160 0Q116 10 71 31L101 104Q141 86 178 77Q215 68 247 68Q326 68 365 116.5Q404 165 404 264V323Q365 289 323.5 271.5Q282 254 240 254Q154 254 103 309Q52 364 52 456V486Q52 577 110 633.5Q168 690 264 690Q370 690 428 617.5Q486 545 486 412ZM135 486 135 456Q135 398 166 364.5Q197 331 251 331Q291 331 329.5 348.5Q368 366 404 400V412Q404 510 368.5 560.5Q333 611 263 611Q205 611 170 576.5Q135 542 135 486Z" glyph-name="nine" horiz-adv-x="564" unicode="9" /><glyph d="M263 690Q374 690 434 618.5Q494 547 494 415V266Q494 133 434 61.5Q374 -10 263 -10Q152 -10 92.5 61.5Q33 133 33 266V415Q33 547 93 618.5Q153 690 263 690ZM406 266 406 415Q406 513 370.5 562Q335 611 263 611Q192 611 156.5 562Q121 513 121 415V266Q121 168 156.5 118Q192 68 263 68Q334 68 370 117.5Q406 167 406 266Z" glyph-name="zero.tlf" horiz-adv-x="529" unicode="" /><glyph d="M110 504 71 572L256 680H335V80H456V0H93V80H249V583Z" glyph-name="one.tlf" horiz-adv-x="529" unicode="" /><glyph d="M454 79 454 0H66V66Q66 163 100.5 228.5Q135 294 205 330L270 363Q330 395 350.5 422Q371 449 371 488V505Q371 559 340.5 585Q310 611 247 611Q211 611 173 602Q135 593 91 574L63 647Q110 668 157 679Q204 690 249 690Q351 690 403.5 642.5Q456 595 456 505V488Q456 425 423.5 380Q391 335 310 294L245 260Q198 235 175.5 191.5Q153 148 151 79Z" glyph-name="two.tlf" horiz-adv-x="529" unicode="" /><glyph d="M448 193 448 177Q448 87 393 38.5Q338 -10 233 -10Q185 -10 136.5 1Q88 12 39 34L65 106Q114 86 153.5 77Q193 68 231 68Q297 68 329.5 95.5Q362 123 362 179V195Q362 248 331.5 276.5Q301 305 244 305H144V381H244Q298 381 326.5 408Q355 435 355 487V501Q355 557 325 584Q295 611 234 611Q198 611 161 602Q124 593 78 574L50 647Q97 668 143.5 679Q190 690 236 690Q336 690 389 641.5Q442 593 442 503V489Q442 440 419 402.5Q396 365 353 343Q399 322 423.5 283Q448 244 448 193Z" glyph-name="three.tlf" horiz-adv-x="529" unicode="" /><glyph d="M496 240 496 163H421V0H339V163H47V230Q141 374 198 480Q255 586 290 680H382Q344 580 286 473.5Q228 367 144 240H339V364H421V240Z" glyph-name="four.tlf" horiz-adv-x="529" unicode="" /><glyph d="M129 314 78 354L98 680H436V600H175L163 405Q185 413 208.5 416.5Q232 420 258 420Q356 420 410 368.5Q464 317 464 222V192Q464 95 407.5 42.5Q351 -10 245 -10Q197 -10 148.5 1Q100 12 51 34L78 106Q124 86 164 77Q204 68 244 68Q311 68 343.5 98.5Q376 129 376 192V222Q376 280 343 311.5Q310 343 249 343Q220 343 191 336Q162 329 129 314Z" glyph-name="five.tlf" horiz-adv-x="529" unicode="" /><glyph d="M492 223 492 193Q492 101 434 45.5Q376 -10 280 -10Q173 -10 115 62Q57 134 57 267V415Q57 549 118 619.5Q179 690 294 690Q338 690 383 679.5Q428 669 473 648L442 575Q403 593 367 602Q331 611 297 611Q217 611 178.5 562.5Q140 514 140 415V357Q178 391 219 408Q260 425 303 425Q390 425 441 370Q492 315 492 223ZM140 280 140 267Q140 168 175.5 118Q211 68 280 68Q340 68 374 101.5Q408 135 408 193V223Q408 281 377.5 314.5Q347 348 293 348Q253 348 214 331Q175 314 140 280Z" glyph-name="six.tlf" horiz-adv-x="529" unicode="" /><glyph d="M468 680 468 610Q391 453 339.5 301Q288 149 262 0H173Q199 146 249.5 296Q300 446 375 600H61V680Z" glyph-name="seven.tlf" horiz-adv-x="529" unicode="" /><glyph d="M370 348Q428 319 455 278Q482 237 482 179Q482 91 424 40.5Q366 -10 260 -10Q159 -10 103.5 37Q48 84 48 166Q48 221 74.5 264Q101 307 158 343Q110 370 86 411Q62 452 62 507Q62 588 116.5 639Q171 690 263 690Q358 690 412.5 642Q467 594 467 512Q467 461 443.5 421Q420 381 370 348ZM147 507Q147 464 170.5 437.5Q194 411 249 393L304 374Q345 405 363.5 436Q382 467 382 504Q382 556 351.5 585Q321 614 265 614Q210 614 178.5 585.5Q147 557 147 507ZM133 177Q133 124 167 94.5Q201 65 263 65Q327 65 362 93.5Q397 122 397 175Q397 220 372 246Q347 272 282 294L224 314Q176 280 154.5 247.5Q133 215 133 177Z" glyph-name="eight.tlf" horiz-adv-x="529" unicode="" /><glyph d="M472 412 472 264Q472 130 411.5 60Q351 -10 235 -10Q190 -10 146 0Q102 10 57 31L87 104Q127 86 164 77Q201 68 233 68Q312 68 351 116.5Q390 165 390 264V323Q351 289 309.5 271.5Q268 254 226 254Q140 254 89 309Q38 364 38 456V486Q38 577 96 633.5Q154 690 250 690Q356 690 414 617.5Q472 545 472 412ZM121 486 121 456Q121 398 152 364.5Q183 331 237 331Q277 331 315.5 348.5Q354 366 390 400V412Q390 510 354.5 560.5Q319 611 249 611Q191 611 156 576.5Q121 542 121 486Z" glyph-name="nine.tlf" horiz-adv-x="529" unicode="" /><glyph d="M284 505Q390 505 449 444.5Q508 384 508 276V220Q508 111 449.5 50.5Q391 -10 284 -10Q177 -10 118.5 50Q60 110 60 220V276Q60 384 119 444.5Q178 505 284 505ZM422 220 422 276Q422 351 387 390Q352 429 284 429Q216 429 181 390Q146 351 146 276V220Q146 143 180.5 104Q215 65 284 65Q353 65 387.5 104Q422 143 422 220Z" glyph-name="zero.posf" horiz-adv-x="568" unicode="" /><glyph d="M57 335 19 401L181 495H260V0H175V403Z" glyph-name="one.posf" horiz-adv-x="348" unicode="" /><glyph d="M412 76 412 0H54V66Q54 141 83 185.5Q112 230 176 251L247 275Q289 289 308 306.5Q327 324 327 349V359Q327 393 301.5 410.5Q276 428 226 428Q189 428 155 420Q121 412 82 395L54 465Q98 485 141 495Q184 505 229 505Q317 505 364 467.5Q411 430 411 361V351Q411 300 379 264.5Q347 229 282 207L211 183Q173 170 156 145.5Q139 121 139 76Z" glyph-name="two.posf" horiz-adv-x="470" unicode="" /><glyph d="M414 8 414 -8Q414 -98 359 -146.5Q304 -195 199 -195Q151 -195 102.5 -184Q54 -173 5 -151L31 -79Q80 -99 119.5 -108Q159 -117 197 -117Q263 -117 295.5 -89.5Q328 -62 328 -6V10Q328 63 297.5 91.5Q267 120 210 120H110V196H210Q264 196 292.5 223Q321 250 321 302V316Q321 372 291 399Q261 426 200 426Q164 426 127 417Q90 408 44 389L16 462Q63 483 109.5 494Q156 505 202 505Q302 505 355 456.5Q408 408 408 318V304Q408 255 385 217.5Q362 180 319 158Q365 137 389.5 98Q414 59 414 8Z" glyph-name="three.posf" horiz-adv-x="469" unicode="" /><glyph d="M470 76 470 0H396V-185H313V0H21V66Q114 195 171.5 296.5Q229 398 265 495H357Q320 398 264 299Q208 200 119 76H313V179H396V76Z" glyph-name="four.posf" horiz-adv-x="488" unicode="" /><glyph d="M110 129 59 169L79 495H417V415H156L144 220Q166 228 189.5 231.5Q213 235 239 235Q337 235 391 183.5Q445 132 445 37V7Q445 -90 388.5 -142.5Q332 -195 226 -195Q178 -195 129.5 -184Q81 -173 32 -151L59 -79Q105 -99 145 -108Q185 -117 225 -117Q292 -117 324.5 -86.5Q357 -56 357 7V37Q357 95 324 126.5Q291 158 230 158Q201 158 172 151Q143 144 110 129Z" glyph-name="five.posf" horiz-adv-x="487" unicode="" /><glyph d="M500 223 500 193Q500 101 442 45.5Q384 -10 288 -10Q181 -10 123 62Q65 134 65 267V415Q65 549 126 619.5Q187 690 302 690Q346 690 391 679.5Q436 669 481 648L450 575Q411 593 375 602Q339 611 305 611Q225 611 186.5 562.5Q148 514 148 415V357Q186 391 227 408Q268 425 311 425Q398 425 449 370Q500 315 500 223ZM148 280 148 267Q148 168 183.5 118Q219 68 288 68Q348 68 382 101.5Q416 135 416 193V223Q416 281 385.5 314.5Q355 348 301 348Q261 348 222 331Q183 314 148 280Z" glyph-name="six.posf" horiz-adv-x="552" unicode="" /><glyph d="M428 495 428 425Q351 268 299.5 116Q248 -36 222 -185H133Q159 -39 209.5 111Q260 261 335 415H21V495Z" glyph-name="seven.posf" horiz-adv-x="452" unicode="" /><glyph d="M368 348Q426 319 453 278Q480 237 480 179Q480 91 422 40.5Q364 -10 258 -10Q157 -10 101.5 37Q46 84 46 166Q46 221 72.5 264Q99 307 156 343Q108 370 84 411Q60 452 60 507Q60 588 114.5 639Q169 690 261 690Q356 690 410.5 642Q465 594 465 512Q465 461 441.5 421Q418 381 368 348ZM145 507Q145 464 168.5 437.5Q192 411 247 393L302 374Q343 405 361.5 436Q380 467 380 504Q380 556 349.5 585Q319 614 263 614Q208 614 176.5 585.5Q145 557 145 507ZM131 177Q131 124 165 94.5Q199 65 261 65Q325 65 360 93.5Q395 122 395 175Q395 220 370 246Q345 272 280 294L222 314Q174 280 152.5 247.5Q131 215 131 177Z" glyph-name="eight.posf" horiz-adv-x="525" unicode="" /><glyph d="M484 227 484 79Q484 -55 423.5 -125Q363 -195 247 -195Q202 -195 158 -185Q114 -175 69 -154L99 -81Q139 -99 176 -108Q213 -117 245 -117Q324 -117 363 -68.5Q402 -20 402 79V138Q363 104 321.5 86.5Q280 69 238 69Q152 69 101 124Q50 179 50 271V301Q50 392 108 448.5Q166 505 262 505Q368 505 426 432.5Q484 360 484 227ZM133 301 133 271Q133 213 164 179.5Q195 146 249 146Q289 146 327.5 163.5Q366 181 402 215V227Q402 325 366.5 375.5Q331 426 261 426Q203 426 168 391.5Q133 357 133 301Z" glyph-name="nine.posf" horiz-adv-x="548" unicode="" /><glyph d="M338 528Q338 457 294 411.5Q250 366 181 366Q112 366 68 411Q24 456 24 528Q24 600 67.5 645Q111 690 181 690Q250 690 294 645Q338 600 338 528ZM89 528Q89 483 114 455.5Q139 428 181 428Q223 428 248 455.5Q273 483 273 528Q273 573 248 600.5Q223 628 181 628Q139 628 114 600.5Q89 573 89 528Z" glyph-name="degree" horiz-adv-x="363" unicode="°" /><glyph d="M175 685Q238 685 273.5 648.5Q309 612 309 546V515Q309 449 273.5 412Q238 375 175 375Q111 375 76 411.5Q41 448 41 515V546Q41 612 76 648.5Q111 685 175 685ZM170 0 518 680H589L241 0ZM243 515 243 546Q243 584 225.5 604Q208 624 175 624Q142 624 124.5 604Q107 584 107 546V515Q107 477 124.5 456.5Q142 436 175 436Q208 436 225.5 456.5Q243 477 243 515ZM584 305Q648 305 683 268.5Q718 232 718 166V135Q718 69 682.5 32Q647 -5 584 -5Q520 -5 485 31.5Q450 68 450 135V166Q450 232 485 268.5Q520 305 584 305ZM653 135 653 166Q653 204 635 224Q617 244 584 244Q551 244 533.5 224Q516 204 516 166V135Q516 97 533.5 76.5Q551 56 584 56Q617 56 635 76.5Q653 97 653 135Z" glyph-name="percent" horiz-adv-x="760" unicode="%" /><glyph d="M175 685Q238 685 273.5 648.5Q309 612 309 546V515Q309 449 273.5 412Q238 375 175 375Q111 375 76 411.5Q41 448 41 515V546Q41 612 76 648.5Q111 685 175 685ZM170 0 518 680H589L241 0ZM243 515 243 546Q243 584 225.5 604Q208 624 175 624Q142 624 124.5 604Q107 584 107 546V515Q107 477 124.5 456.5Q142 436 175 436Q208 436 225.5 456.5Q243 477 243 515ZM584 305Q648 305 683 268.5Q718 232 718 166V135Q718 69 682.5 32Q647 -5 584 -5Q520 -5 485 31.5Q450 68 450 135V166Q450 232 485 268.5Q520 305 584 305ZM922 305Q985 305 1020.5 268.5Q1056 232 1056 166V135Q1056 69 1020.5 32Q985 -5 922 -5Q858 -5 823 31.5Q788 68 788 135V166Q788 232 823 268.5Q858 305 922 305ZM653 135 653 166Q653 204 635 224Q617 244 584 244Q551 244 533.5 224Q516 204 516 166V135Q516 97 533.5 76.5Q551 56 584 56Q617 56 635 76.5Q653 97 653 135ZM990 135 990 166Q990 204 972.5 224Q955 244 922 244Q889 244 871.5 224Q854 204 854 166V135Q854 97 871.5 76.5Q889 56 922 56Q955 56 972.5 76.5Q990 97 990 135Z" glyph-name="perthousand" horiz-adv-x="1097" unicode="‰" /><glyph d="M-154 0 194 680H265L-83 0Z" glyph-name="fraction" horiz-adv-x="111" unicode="⁄" /><glyph d="M-154 0 194 680H265L-83 0Z" glyph-name="uni2215" horiz-adv-x="111" unicode="∕" /><glyph d="M168 790Q230 790 263 754.5Q296 719 296 652V578Q296 511 263 475.5Q230 440 168 440Q106 440 73 475.5Q40 511 40 578V652Q40 719 73 754.5Q106 790 168 790ZM231 578 231 652Q231 690 215 709.5Q199 729 168 729Q137 729 121.5 709.5Q106 690 106 652V578Q106 540 121.5 520.5Q137 501 168 501Q199 501 215 520.5Q231 540 231 578Z" glyph-name="zerosuperior" horiz-adv-x="336" unicode="⁰" /><glyph d="M48 684 21 735L112 785H168V445H104V714Z" glyph-name="onesuperior" horiz-adv-x="222" unicode="¹" /><glyph d="M240 507 240 445H24V486Q24 535 42 565.5Q60 596 103 617L136 633Q159 645 167.5 656Q176 667 176 683V690Q176 709 163 719Q150 729 124 729Q105 729 83.5 724Q62 719 37 709L22 768Q49 779 74 784.5Q99 790 125 790Q182 790 211.5 764.5Q241 739 241 691V682Q241 648 223 624.5Q205 601 160 580L128 564Q109 555 100 542Q91 529 89 507Z" glyph-name="twosuperior" horiz-adv-x="270" unicode="²" /><glyph d="M235 544 235 536Q235 490 204.5 465Q174 440 116 440Q89 440 64 445.5Q39 451 17 461L34 518Q53 509 73 505Q93 501 114 501Q142 501 156 510.5Q170 520 170 539V547Q170 567 155 578Q140 589 113 589H70V644H113Q139 644 153 654.5Q167 665 167 684V691Q167 710 153.5 719.5Q140 729 115 729Q97 729 79 725Q61 721 42 712L23 770Q46 780 69.5 785Q93 790 117 790Q172 790 202 765Q232 740 232 695V688Q232 664 220 645.5Q208 627 185 616Q210 606 222.5 587.5Q235 569 235 544Z" glyph-name="threesuperior" horiz-adv-x="274" unicode="³" /><glyph d="M256 579 256 522H219V445H160V522H12V568Q62 644 89 692.5Q116 741 132 785H200Q182 739 155.5 690.5Q129 642 86 579H160V627H219V579Z" glyph-name="foursuperior" horiz-adv-x="267" unicode="⁴" /><glyph d="M69 591 37 619L47 785H234V726H102L97 654Q106 657 116.5 658.5Q127 660 138 660Q188 660 217.5 633.5Q247 607 247 560V545Q247 495 215 467.5Q183 440 124 440Q96 440 71 445Q46 450 23 461L42 519Q62 510 81.5 505.5Q101 501 122 501Q152 501 166.5 512Q181 523 181 545V560Q181 581 167 592.5Q153 604 126 604Q113 604 99.5 601Q86 598 69 591Z" glyph-name="fivesuperior" horiz-adv-x="274" unicode="⁵" /><glyph d="M276 561 276 543Q276 497 245 468.5Q214 440 162 440Q104 440 72.5 476Q41 512 41 579V652Q41 720 74 755Q107 790 170 790Q194 790 217 784.5Q240 779 265 768L246 712Q228 721 210 725Q192 729 172 729Q137 729 120 710Q103 691 103 652V633Q120 649 139.5 656.5Q159 664 182 664Q224 664 250 636Q276 608 276 561ZM167 605Q152 605 136 598.5Q120 592 103 578Q103 539 118 519.5Q133 500 162 500Q186 500 199.5 511.5Q213 523 213 543V561Q213 582 200.5 593.5Q188 605 167 605Z" glyph-name="sixsuperior" horiz-adv-x="304" unicode="⁶" /><glyph d="M225 785 225 729Q189 655 165.5 584Q142 513 130 445H63Q75 514 99 584.5Q123 655 158 724H9V785Z" glyph-name="sevensuperior" horiz-adv-x="239" unicode="⁷" /><glyph d="M218 623Q245 607 258 586Q271 565 271 536Q271 491 240 465.5Q209 440 153 440Q99 440 69 464Q39 488 39 530Q39 555 51.5 575Q64 595 91 613Q69 628 58 649Q47 670 47 696Q47 739 76 764.5Q105 790 154 790Q205 790 234.5 765Q264 740 264 699Q264 677 252.5 658Q241 639 218 623ZM109 695Q109 679 118.5 668Q128 657 147 651L175 641Q188 654 194.5 667Q201 680 201 694Q201 712 189 722.5Q177 733 155 733Q134 733 121.5 722.5Q109 712 109 695ZM101 537Q101 518 115 507.5Q129 497 154 497Q181 497 195 507Q209 517 209 536Q209 552 198.5 562.5Q188 573 164 582L133 592Q117 579 109 565Q101 551 101 537Z" glyph-name="eightsuperior" horiz-adv-x="307" unicode="⁸" /><glyph d="M263 650 263 577Q263 510 230 475Q197 440 133 440Q108 440 85 445Q62 450 38 461L58 518Q75 509 93 504.5Q111 500 131 500Q166 500 183.5 519Q201 538 201 577V597Q183 581 163.5 573.5Q144 566 122 566Q79 566 53.5 593.5Q28 621 28 668V686Q28 733 59 761.5Q90 790 142 790Q200 790 231.5 753.5Q263 717 263 650ZM91 686 91 668Q91 647 103.5 635.5Q116 624 137 624Q152 624 168 630.5Q184 637 201 651Q201 690 186 709.5Q171 729 142 729Q118 729 104.5 717.5Q91 706 91 686Z" glyph-name="ninesuperior" horiz-adv-x="304" unicode="⁹" /><glyph d="M168 240Q230 240 263 204.5Q296 169 296 102V28Q296 -39 263 -74.5Q230 -110 168 -110Q106 -110 73 -74.5Q40 -39 40 28V102Q40 169 73 204.5Q106 240 168 240ZM231 28 231 102Q231 140 215 159.5Q199 179 168 179Q137 179 121.5 159.5Q106 140 106 102V28Q106 -10 121.5 -29.5Q137 -49 168 -49Q199 -49 215 -29.5Q231 -10 231 28Z" glyph-name="zeroinferior" horiz-adv-x="336" unicode="₀" /><glyph d="M48 134 21 185L112 235H168V-105H104V164Z" glyph-name="oneinferior" horiz-adv-x="222" unicode="₁" /><glyph d="M240 -43 240 -105H24V-64Q24 -15 42 15.5Q60 46 103 67L136 83Q159 95 167.5 106Q176 117 176 133V140Q176 159 163 169Q150 179 124 179Q105 179 83.5 174Q62 169 37 159L22 218Q49 229 74 234.5Q99 240 125 240Q182 240 211.5 214.5Q241 189 241 141V132Q241 98 223 74.5Q205 51 160 30L128 14Q109 5 100 -8Q91 -21 89 -43Z" glyph-name="twoinferior" horiz-adv-x="270" unicode="₂" /><glyph d="M235 -6 235 -14Q235 -60 204.5 -85Q174 -110 116 -110Q89 -110 64 -104.5Q39 -99 17 -89L34 -32Q53 -41 73 -45Q93 -49 114 -49Q142 -49 156 -39.5Q170 -30 170 -11V-3Q170 17 155 28Q140 39 113 39H70V94H113Q139 94 153 104.5Q167 115 167 134V141Q167 160 153.5 169.5Q140 179 115 179Q97 179 79 175Q61 171 42 162L23 220Q46 230 69.5 235Q93 240 117 240Q172 240 202 215Q232 190 232 145V138Q232 114 220 95.5Q208 77 185 66Q210 56 222.5 37.5Q235 19 235 -6Z" glyph-name="threeinferior" horiz-adv-x="274" unicode="₃" /><glyph d="M256 29 256 -28H219V-105H160V-28H12V18Q62 94 89 142.5Q116 191 132 235H200Q182 189 155.5 140.5Q129 92 86 29H160V77H219V29Z" glyph-name="fourinferior" horiz-adv-x="267" unicode="₄" /><glyph d="M69 41 37 69L47 235H234V176H102L97 104Q106 107 116.5 108.5Q127 110 138 110Q188 110 217.5 83.5Q247 57 247 10V-5Q247 -55 215 -82.5Q183 -110 124 -110Q96 -110 71 -105Q46 -100 23 -89L42 -31Q62 -40 81.5 -44.5Q101 -49 122 -49Q152 -49 166.5 -38Q181 -27 181 -5V10Q181 31 167 42.5Q153 54 126 54Q113 54 99.5 51Q86 48 69 41Z" glyph-name="fiveinferior" horiz-adv-x="274" unicode="₅" /><glyph d="M276 11 276 -7Q276 -53 245 -81.5Q214 -110 162 -110Q104 -110 72.5 -74Q41 -38 41 29V102Q41 170 74 205Q107 240 170 240Q194 240 217 234.5Q240 229 265 218L246 162Q228 171 210 175Q192 179 172 179Q137 179 120 160Q103 141 103 102V83Q120 99 139.5 106.5Q159 114 182 114Q224 114 250 86Q276 58 276 11ZM167 55Q152 55 136 48.5Q120 42 103 28Q103 -11 118 -30.5Q133 -50 162 -50Q186 -50 199.5 -38.5Q213 -27 213 -7V11Q213 32 200.5 43.5Q188 55 167 55Z" glyph-name="sixinferior" horiz-adv-x="304" unicode="₆" /><glyph d="M225 235 225 179Q189 105 165.5 34Q142 -37 130 -105H63Q75 -36 99 34.5Q123 105 158 174H9V235Z" glyph-name="seveninferior" horiz-adv-x="239" unicode="₇" /><glyph d="M218 73Q245 57 258 36Q271 15 271 -14Q271 -59 240 -84.5Q209 -110 153 -110Q99 -110 69 -86Q39 -62 39 -20Q39 5 51.5 25Q64 45 91 63Q69 78 58 99Q47 120 47 146Q47 189 76 214.5Q105 240 154 240Q205 240 234.5 215Q264 190 264 149Q264 127 252.5 108Q241 89 218 73ZM109 145Q109 129 118.5 118Q128 107 147 101L175 91Q188 104 194.5 117Q201 130 201 144Q201 162 189 172.5Q177 183 155 183Q134 183 121.5 172.5Q109 162 109 145ZM101 -13Q101 -32 115 -42.5Q129 -53 154 -53Q181 -53 195 -43Q209 -33 209 -14Q209 2 198.5 12.5Q188 23 164 32L133 42Q117 29 109 15Q101 1 101 -13Z" glyph-name="eightinferior" horiz-adv-x="307" unicode="₈" /><glyph d="M263 100 263 27Q263 -40 230 -75Q197 -110 133 -110Q108 -110 85 -105Q62 -100 38 -89L58 -32Q75 -41 93 -45.5Q111 -50 131 -50Q166 -50 183.5 -31Q201 -12 201 27V47Q183 31 163.5 23.5Q144 16 122 16Q79 16 53.5 43.5Q28 71 28 118V136Q28 183 59 211.5Q90 240 142 240Q200 240 231.5 203.5Q263 167 263 100ZM91 136 91 118Q91 97 103.5 85.5Q116 74 137 74Q152 74 168 80.5Q184 87 201 101Q201 140 186 159.5Q171 179 142 179Q118 179 104.5 167.5Q91 156 91 136Z" glyph-name="nineinferior" horiz-adv-x="304" unicode="₉" /><glyph d="M168 240Q230 240 263 204.5Q296 169 296 102V28Q296 -39 263 -74.5Q230 -110 168 -110Q106 -110 73 -74.5Q40 -39 40 28V102Q40 169 73 204.5Q106 240 168 240ZM231 28 231 102Q231 140 215 159.5Q199 179 168 179Q137 179 121.5 159.5Q106 140 106 102V28Q106 -10 121.5 -29.5Q137 -49 168 -49Q199 -49 215 -29.5Q231 -10 231 28Z" glyph-name="zero.numerator" horiz-adv-x="336" unicode="" /><glyph d="M48 134 21 185L112 235H168V-105H104V164Z" glyph-name="one.numerator" horiz-adv-x="222" unicode="" /><glyph d="M240 -43 240 -105H24V-64Q24 -15 42 15.5Q60 46 103 67L136 83Q159 95 167.5 106Q176 117 176 133V140Q176 159 163 169Q150 179 124 179Q105 179 83.5 174Q62 169 37 159L22 218Q49 229 74 234.5Q99 240 125 240Q182 240 211.5 214.5Q241 189 241 141V132Q241 98 223 74.5Q205 51 160 30L128 14Q109 5 100 -8Q91 -21 89 -43Z" glyph-name="two.numerator" horiz-adv-x="270" unicode="" /><glyph d="M235 -6 235 -14Q235 -60 204.5 -85Q174 -110 116 -110Q89 -110 64 -104.5Q39 -99 17 -89L34 -32Q53 -41 73 -45Q93 -49 114 -49Q142 -49 156 -39.5Q170 -30 170 -11V-3Q170 17 155 28Q140 39 113 39H70V94H113Q139 94 153 104.5Q167 115 167 134V141Q167 160 153.5 169.5Q140 179 115 179Q97 179 79 175Q61 171 42 162L23 220Q46 230 69.5 235Q93 240 117 240Q172 240 202 215Q232 190 232 145V138Q232 114 220 95.5Q208 77 185 66Q210 56 222.5 37.5Q235 19 235 -6Z" glyph-name="three.numerator" horiz-adv-x="274" unicode="" /><glyph d="M256 29 256 -28H219V-105H160V-28H12V18Q62 94 89 142.5Q116 191 132 235H200Q182 189 155.5 140.5Q129 92 86 29H160V77H219V29Z" glyph-name="four.numerator" horiz-adv-x="267" unicode="" /><glyph d="M69 41 37 69L47 235H234V176H102L97 104Q106 107 116.5 108.5Q127 110 138 110Q188 110 217.5 83.5Q247 57 247 10V-5Q247 -55 215 -82.5Q183 -110 124 -110Q96 -110 71 -105Q46 -100 23 -89L42 -31Q62 -40 81.5 -44.5Q101 -49 122 -49Q152 -49 166.5 -38Q181 -27 181 -5V10Q181 31 167 42.5Q153 54 126 54Q113 54 99.5 51Q86 48 69 41Z" glyph-name="five.numerator" horiz-adv-x="274" unicode="" /><glyph d="M276 11 276 -7Q276 -53 245 -81.5Q214 -110 162 -110Q104 -110 72.5 -74Q41 -38 41 29V102Q41 170 74 205Q107 240 170 240Q194 240 217 234.5Q240 229 265 218L246 162Q228 171 210 175Q192 179 172 179Q137 179 120 160Q103 141 103 102V83Q120 99 139.5 106.5Q159 114 182 114Q224 114 250 86Q276 58 276 11ZM167 55Q152 55 136 48.5Q120 42 103 28Q103 -11 118 -30.5Q133 -50 162 -50Q186 -50 199.5 -38.5Q213 -27 213 -7V11Q213 32 200.5 43.5Q188 55 167 55Z" glyph-name="six.numerator" horiz-adv-x="304" unicode="" /><glyph d="M225 235 225 179Q189 105 165.5 34Q142 -37 130 -105H63Q75 -36 99 34.5Q123 105 158 174H9V235Z" glyph-name="seven.numerator" horiz-adv-x="239" unicode="" /><glyph d="M218 73Q245 57 258 36Q271 15 271 -14Q271 -59 240 -84.5Q209 -110 153 -110Q99 -110 69 -86Q39 -62 39 -20Q39 5 51.5 25Q64 45 91 63Q69 78 58 99Q47 120 47 146Q47 189 76 214.5Q105 240 154 240Q205 240 234.5 215Q264 190 264 149Q264 127 252.5 108Q241 89 218 73ZM109 145Q109 129 118.5 118Q128 107 147 101L175 91Q188 104 194.5 117Q201 130 201 144Q201 162 189 172.5Q177 183 155 183Q134 183 121.5 172.5Q109 162 109 145ZM101 -13Q101 -32 115 -42.5Q129 -53 154 -53Q181 -53 195 -43Q209 -33 209 -14Q209 2 198.5 12.5Q188 23 164 32L133 42Q117 29 109 15Q101 1 101 -13Z" glyph-name="eight.numerator" horiz-adv-x="307" unicode="" /><glyph d="M263 100 263 27Q263 -40 230 -75Q197 -110 133 -110Q108 -110 85 -105Q62 -100 38 -89L58 -32Q75 -41 93 -45.5Q111 -50 131 -50Q166 -50 183.5 -31Q201 -12 201 27V47Q183 31 163.5 23.5Q144 16 122 16Q79 16 53.5 43.5Q28 71 28 118V136Q28 183 59 211.5Q90 240 142 240Q200 240 231.5 203.5Q263 167 263 100ZM91 136 91 118Q91 97 103.5 85.5Q116 74 137 74Q152 74 168 80.5Q184 87 201 101Q201 140 186 159.5Q171 179 142 179Q118 179 104.5 167.5Q91 156 91 136Z" glyph-name="nine.numerator" horiz-adv-x="304" unicode="" /><glyph d="M168 345Q230 345 263 309.5Q296 274 296 207V133Q296 66 263 30.5Q230 -5 168 -5Q106 -5 73 30.5Q40 66 40 133V207Q40 274 73 309.5Q106 345 168 345ZM231 133 231 207Q231 245 215 264.5Q199 284 168 284Q137 284 121.5 264.5Q106 245 106 207V133Q106 95 121.5 75.5Q137 56 168 56Q199 56 215 75.5Q231 95 231 133Z" glyph-name="zero.denominator" horiz-adv-x="336" unicode="" /><glyph d="M48 239 21 290L112 340H168V0H104V269Z" glyph-name="one.denominator" horiz-adv-x="222" unicode="" /><glyph d="M240 62 240 0H24V41Q24 90 42 120.5Q60 151 103 172L136 188Q159 200 167.5 211Q176 222 176 238V245Q176 264 163 274Q150 284 124 284Q105 284 83.5 279Q62 274 37 264L22 323Q49 334 74 339.5Q99 345 125 345Q182 345 211.5 319.5Q241 294 241 246V237Q241 203 223 179.5Q205 156 160 135L128 119Q109 110 100 97Q91 84 89 62Z" glyph-name="two.denominator" horiz-adv-x="270" unicode="" /><glyph d="M235 99 235 91Q235 45 204.5 20Q174 -5 116 -5Q89 -5 64 0.5Q39 6 17 16L34 73Q53 64 73 60Q93 56 114 56Q142 56 156 65.5Q170 75 170 94V102Q170 122 155 133Q140 144 113 144H70V199H113Q139 199 153 209.5Q167 220 167 239V246Q167 265 153.5 274.5Q140 284 115 284Q97 284 79 280Q61 276 42 267L23 325Q46 335 69.5 340Q93 345 117 345Q172 345 202 320Q232 295 232 250V243Q232 219 220 200.5Q208 182 185 171Q210 161 222.5 142.5Q235 124 235 99Z" glyph-name="three.denominator" horiz-adv-x="274" unicode="" /><glyph d="M256 134 256 77H219V0H160V77H12V123Q62 199 89 247.5Q116 296 132 340H200Q182 294 155.5 245.5Q129 197 86 134H160V182H219V134Z" glyph-name="four.denominator" horiz-adv-x="267" unicode="" /><glyph d="M69 146 37 174L47 340H234V281H102L97 209Q106 212 116.5 213.5Q127 215 138 215Q188 215 217.5 188.5Q247 162 247 115V100Q247 50 215 22.5Q183 -5 124 -5Q96 -5 71 0Q46 5 23 16L42 74Q62 65 81.5 60.5Q101 56 122 56Q152 56 166.5 67Q181 78 181 100V115Q181 136 167 147.5Q153 159 126 159Q113 159 99.5 156Q86 153 69 146Z" glyph-name="five.denominator" horiz-adv-x="274" unicode="" /><glyph d="M276 116 276 98Q276 52 245 23.5Q214 -5 162 -5Q104 -5 72.5 31Q41 67 41 134V207Q41 275 74 310Q107 345 170 345Q194 345 217 339.5Q240 334 265 323L246 267Q228 276 210 280Q192 284 172 284Q137 284 120 265Q103 246 103 207V188Q120 204 139.5 211.5Q159 219 182 219Q224 219 250 191Q276 163 276 116ZM167 160Q152 160 136 153.5Q120 147 103 133Q103 94 118 74.5Q133 55 162 55Q186 55 199.5 66.5Q213 78 213 98V116Q213 137 200.5 148.5Q188 160 167 160Z" glyph-name="six.denominator" horiz-adv-x="304" unicode="" /><glyph d="M225 340 225 284Q189 210 165.5 139Q142 68 130 0H63Q75 69 99 139.5Q123 210 158 279H9V340Z" glyph-name="seven.denominator" horiz-adv-x="239" unicode="" /><glyph d="M218 178Q245 162 258 141Q271 120 271 91Q271 46 240 20.5Q209 -5 153 -5Q99 -5 69 19Q39 43 39 85Q39 110 51.5 130Q64 150 91 168Q69 183 58 204Q47 225 47 251Q47 294 76 319.5Q105 345 154 345Q205 345 234.5 320Q264 295 264 254Q264 232 252.5 213Q241 194 218 178ZM109 250Q109 234 118.5 223Q128 212 147 206L175 196Q188 209 194.5 222Q201 235 201 249Q201 267 189 277.5Q177 288 155 288Q134 288 121.5 277.5Q109 267 109 250ZM101 92Q101 73 115 62.5Q129 52 154 52Q181 52 195 62Q209 72 209 91Q209 107 198.5 117.5Q188 128 164 137L133 147Q117 134 109 120Q101 106 101 92Z" glyph-name="eight.denominator" horiz-adv-x="307" unicode="" /><glyph d="M263 205 263 132Q263 65 230 30Q197 -5 133 -5Q108 -5 85 0Q62 5 38 16L58 73Q75 64 93 59.5Q111 55 131 55Q166 55 183.5 74Q201 93 201 132V152Q183 136 163.5 128.5Q144 121 122 121Q79 121 53.5 148.5Q28 176 28 223V241Q28 288 59 316.5Q90 345 142 345Q200 345 231.5 308.5Q263 272 263 205ZM91 241 91 223Q91 202 103.5 190.5Q116 179 137 179Q152 179 168 185.5Q184 192 201 206Q201 245 186 264.5Q171 284 142 284Q118 284 104.5 272.5Q91 261 91 241Z" glyph-name="nine.denominator" horiz-adv-x="304" unicode="" /><glyph d="M48 579 21 630L112 680H168V340H104V609ZM87 0 435 680H506L158 0ZM609 62 609 0H393V41Q393 90 411 120.5Q429 151 472 172L505 188Q528 200 536.5 211Q545 222 545 238V245Q545 264 532 274Q519 284 493 284Q474 284 452.5 279Q431 274 406 264L391 323Q418 334 443 339.5Q468 345 494 345Q551 345 580.5 319.5Q610 294 610 246V237Q610 203 592 179.5Q574 156 529 135L497 119Q478 110 469 97Q460 84 458 62Z" glyph-name="onehalf" horiz-adv-x="639" unicode="½" /><glyph d="M48 579 21 630L112 680H168V340H104V609ZM87 0 435 680H506L158 0ZM598 99 598 91Q598 45 567.5 20Q537 -5 479 -5Q452 -5 427 0.5Q402 6 380 16L397 73Q416 64 436 60Q456 56 477 56Q505 56 519 65.5Q533 75 533 94V102Q533 122 518 133Q503 144 476 144H433V199H476Q502 199 516 209.5Q530 220 530 239V246Q530 265 516.5 274.5Q503 284 478 284Q460 284 442 280Q424 276 405 267L386 325Q409 335 432.5 340Q456 345 480 345Q535 345 565 320Q595 295 595 250V243Q595 219 583 200.5Q571 182 548 171Q573 161 585.5 142.5Q598 124 598 99Z" glyph-name="onethird" horiz-adv-x="638" unicode="⅓" /><glyph d="M48 579 21 630L112 680H168V340H104V609ZM87 0 435 680H506L158 0ZM590 134 590 77H553V0H494V77H346V123Q396 199 423 247.5Q450 296 466 340H534Q516 294 489.5 245.5Q463 197 420 134H494V182H553V134Z" glyph-name="onequarter" horiz-adv-x="596" unicode="¼" /><glyph d="M48 579 21 630L112 680H168V340H104V609ZM87 0 435 680H506L158 0ZM423 146 391 174L401 340H588V281H456L451 209Q460 212 470.5 213.5Q481 215 492 215Q542 215 571.5 188.5Q601 162 601 115V100Q601 50 569 22.5Q537 -5 478 -5Q450 -5 425 0Q400 5 377 16L396 74Q416 65 435.5 60.5Q455 56 476 56Q506 56 520.5 67Q535 78 535 100V115Q535 136 521 147.5Q507 159 480 159Q467 159 453.5 156Q440 153 423 146Z" glyph-name="onefifth" horiz-adv-x="629" unicode="" /><glyph d="M48 579 21 630L112 680H168V340H104V609ZM87 0 435 680H506L158 0ZM620 116 620 98Q620 52 589 23.5Q558 -5 506 -5Q448 -5 416.5 31Q385 67 385 134V207Q385 275 418 310Q451 345 514 345Q538 345 561 339.5Q584 334 609 323L590 267Q572 276 554 280Q536 284 516 284Q481 284 464 265Q447 246 447 207V188Q464 204 483.5 211.5Q503 219 526 219Q568 219 594 191Q620 163 620 116ZM511 160Q496 160 480 153.5Q464 147 447 133Q447 94 462 74.5Q477 55 506 55Q530 55 543.5 66.5Q557 78 557 98V116Q557 137 544.5 148.5Q532 160 511 160Z" glyph-name="onesixth" horiz-adv-x="648" unicode="" /><glyph d="M48 579 21 630L112 680H168V340H104V609ZM87 0 435 680H506L158 0ZM617 340 617 284Q581 210 557.5 139Q534 68 522 0H455Q467 69 491 139.5Q515 210 550 279H401V340Z" glyph-name="oneseventh" horiz-adv-x="631" unicode="" /><glyph d="M48 579 21 630L112 680H168V340H104V609ZM87 0 435 680H506L158 0ZM564 178Q591 162 604 141Q617 120 617 91Q617 46 586 20.5Q555 -5 499 -5Q445 -5 415 19Q385 43 385 85Q385 110 397.5 130Q410 150 437 168Q415 183 404 204Q393 225 393 251Q393 294 422 319.5Q451 345 500 345Q551 345 580.5 320Q610 295 610 254Q610 232 598.5 213Q587 194 564 178ZM455 250Q455 234 464.5 223Q474 212 493 206L521 196Q534 209 540.5 222Q547 235 547 249Q547 267 535 277.5Q523 288 501 288Q480 288 467.5 277.5Q455 267 455 250ZM447 92Q447 73 461 62.5Q475 52 500 52Q527 52 541 62Q555 72 555 91Q555 107 544.5 117.5Q534 128 510 137L479 147Q463 134 455 120Q447 106 447 92Z" glyph-name="oneeighth" horiz-adv-x="653" unicode="⅛" /><glyph d="M48 579 21 630L112 680H168V340H104V609ZM87 0 435 680H506L158 0ZM615 205 615 132Q615 65 582 30Q549 -5 485 -5Q460 -5 437 0Q414 5 390 16L410 73Q427 64 445 59.5Q463 55 483 55Q518 55 535.5 74Q553 93 553 132V152Q535 136 515.5 128.5Q496 121 474 121Q431 121 405.5 148.5Q380 176 380 223V241Q380 288 411 316.5Q442 345 494 345Q552 345 583.5 308.5Q615 272 615 205ZM443 241 443 223Q443 202 455.5 190.5Q468 179 489 179Q504 179 520 185.5Q536 192 553 206Q553 245 538 264.5Q523 284 494 284Q470 284 456.5 272.5Q443 261 443 241Z" glyph-name="oneninth" horiz-adv-x="656" unicode="" /><glyph d="M240 402 240 340H24V381Q24 430 42 460.5Q60 491 103 512L136 528Q159 540 167.5 551Q176 562 176 578V585Q176 604 163 614Q150 624 124 624Q105 624 83.5 619Q62 614 37 604L22 663Q49 674 74 679.5Q99 685 125 685Q182 685 211.5 659.5Q241 634 241 586V577Q241 543 223 519.5Q205 496 160 475L128 459Q109 450 100 437Q91 424 89 402ZM135 0 483 680H554L206 0ZM646 99 646 91Q646 45 615.5 20Q585 -5 527 -5Q500 -5 475 0.5Q450 6 428 16L445 73Q464 64 484 60Q504 56 525 56Q553 56 567 65.5Q581 75 581 94V102Q581 122 566 133Q551 144 524 144H481V199H524Q550 199 564 209.5Q578 220 578 239V246Q578 265 564.5 274.5Q551 284 526 284Q508 284 490 280Q472 276 453 267L434 325Q457 335 480.5 340Q504 345 528 345Q583 345 613 320Q643 295 643 250V243Q643 219 631 200.5Q619 182 596 171Q621 161 633.5 142.5Q646 124 646 99Z" glyph-name="twothirds" horiz-adv-x="685" unicode="⅔" /><glyph d="M240 402 240 340H24V381Q24 430 42 460.5Q60 491 103 512L136 528Q159 540 167.5 551Q176 562 176 578V585Q176 604 163 614Q150 624 124 624Q105 624 83.5 619Q62 614 37 604L22 663Q49 674 74 679.5Q99 685 125 685Q182 685 211.5 659.5Q241 634 241 586V577Q241 543 223 519.5Q205 496 160 475L128 459Q109 450 100 437Q91 424 89 402ZM135 0 483 680H554L206 0ZM471 146 439 174L449 340H636V281H504L499 209Q508 212 518.5 213.5Q529 215 540 215Q590 215 619.5 188.5Q649 162 649 115V100Q649 50 617 22.5Q585 -5 526 -5Q498 -5 473 0Q448 5 425 16L444 74Q464 65 483.5 60.5Q503 56 524 56Q554 56 568.5 67Q583 78 583 100V115Q583 136 569 147.5Q555 159 528 159Q515 159 501.5 156Q488 153 471 146Z" glyph-name="twofifths" horiz-adv-x="676" unicode="" /><glyph d="M240 402 240 340H24V381Q24 430 42 460.5Q60 491 103 512L136 528Q159 540 167.5 551Q176 562 176 578V585Q176 604 163 614Q150 624 124 624Q105 624 83.5 619Q62 614 37 604L22 663Q49 674 74 679.5Q99 685 125 685Q182 685 211.5 659.5Q241 634 241 586V577Q241 543 223 519.5Q205 496 160 475L128 459Q109 450 100 437Q91 424 89 402ZM135 0 483 680H554L206 0ZM665 340 665 284Q629 210 605.5 139Q582 68 570 0H503Q515 69 539 139.5Q563 210 598 279H449V340Z" glyph-name="twosevenths" horiz-adv-x="679" unicode="" /><glyph d="M240 402 240 340H24V381Q24 430 42 460.5Q60 491 103 512L136 528Q159 540 167.5 551Q176 562 176 578V585Q176 604 163 614Q150 624 124 624Q105 624 83.5 619Q62 614 37 604L22 663Q49 674 74 679.5Q99 685 125 685Q182 685 211.5 659.5Q241 634 241 586V577Q241 543 223 519.5Q205 496 160 475L128 459Q109 450 100 437Q91 424 89 402ZM135 0 483 680H554L206 0ZM663 205 663 132Q663 65 630 30Q597 -5 533 -5Q508 -5 485 0Q462 5 438 16L458 73Q475 64 493 59.5Q511 55 531 55Q566 55 583.5 74Q601 93 601 132V152Q583 136 563.5 128.5Q544 121 522 121Q479 121 453.5 148.5Q428 176 428 223V241Q428 288 459 316.5Q490 345 542 345Q600 345 631.5 308.5Q663 272 663 205ZM491 241 491 223Q491 202 503.5 190.5Q516 179 537 179Q552 179 568 185.5Q584 192 601 206Q601 245 586 264.5Q571 284 542 284Q518 284 504.5 272.5Q491 261 491 241Z" glyph-name="twoninths" horiz-adv-x="704" unicode="" /><glyph d="M235 439 235 431Q235 385 204.5 360Q174 335 116 335Q89 335 64 340.5Q39 346 17 356L34 413Q53 404 73 400Q93 396 114 396Q142 396 156 405.5Q170 415 170 434V442Q170 462 155 473Q140 484 113 484H70V539H113Q139 539 153 549.5Q167 560 167 579V586Q167 605 153.5 614.5Q140 624 115 624Q97 624 79 620Q61 616 42 607L23 665Q46 675 69.5 680Q93 685 117 685Q172 685 202 660Q232 635 232 590V583Q232 559 220 540.5Q208 522 185 511Q210 501 222.5 482.5Q235 464 235 439ZM120 0 468 680H539L191 0ZM623 134 623 77H586V0H527V77H379V123Q429 199 456 247.5Q483 296 499 340H567Q549 294 522.5 245.5Q496 197 453 134H527V182H586V134Z" glyph-name="threequarters" horiz-adv-x="629" unicode="¾" /><glyph d="M235 439 235 431Q235 385 204.5 360Q174 335 116 335Q89 335 64 340.5Q39 346 17 356L34 413Q53 404 73 400Q93 396 114 396Q142 396 156 405.5Q170 415 170 434V442Q170 462 155 473Q140 484 113 484H70V539H113Q139 539 153 549.5Q167 560 167 579V586Q167 605 153.5 614.5Q140 624 115 624Q97 624 79 620Q61 616 42 607L23 665Q46 675 69.5 680Q93 685 117 685Q172 685 202 660Q232 635 232 590V583Q232 559 220 540.5Q208 522 185 511Q210 501 222.5 482.5Q235 464 235 439ZM120 0 468 680H539L191 0ZM456 146 424 174L434 340H621V281H489L484 209Q493 212 503.5 213.5Q514 215 525 215Q575 215 604.5 188.5Q634 162 634 115V100Q634 50 602 22.5Q570 -5 511 -5Q483 -5 458 0Q433 5 410 16L429 74Q449 65 468.5 60.5Q488 56 509 56Q539 56 553.5 67Q568 78 568 100V115Q568 136 554 147.5Q540 159 513 159Q500 159 486.5 156Q473 153 456 146Z" glyph-name="threefifths" horiz-adv-x="662" unicode="" /><glyph d="M235 439 235 431Q235 385 204.5 360Q174 335 116 335Q89 335 64 340.5Q39 346 17 356L34 413Q53 404 73 400Q93 396 114 396Q142 396 156 405.5Q170 415 170 434V442Q170 462 155 473Q140 484 113 484H70V539H113Q139 539 153 549.5Q167 560 167 579V586Q167 605 153.5 614.5Q140 624 115 624Q97 624 79 620Q61 616 42 607L23 665Q46 675 69.5 680Q93 685 117 685Q172 685 202 660Q232 635 232 590V583Q232 559 220 540.5Q208 522 185 511Q210 501 222.5 482.5Q235 464 235 439ZM120 0 468 680H539L191 0ZM650 340 650 284Q614 210 590.5 139Q567 68 555 0H488Q500 69 524 139.5Q548 210 583 279H434V340Z" glyph-name="threesevenths" horiz-adv-x="664" unicode="" /><glyph d="M235 439 235 431Q235 385 204.5 360Q174 335 116 335Q89 335 64 340.5Q39 346 17 356L34 413Q53 404 73 400Q93 396 114 396Q142 396 156 405.5Q170 415 170 434V442Q170 462 155 473Q140 484 113 484H70V539H113Q139 539 153 549.5Q167 560 167 579V586Q167 605 153.5 614.5Q140 624 115 624Q97 624 79 620Q61 616 42 607L23 665Q46 675 69.5 680Q93 685 117 685Q172 685 202 660Q232 635 232 590V583Q232 559 220 540.5Q208 522 185 511Q210 501 222.5 482.5Q235 464 235 439ZM120 0 468 680H539L191 0ZM597 178Q624 162 637 141Q650 120 650 91Q650 46 619 20.5Q588 -5 532 -5Q478 -5 448 19Q418 43 418 85Q418 110 430.5 130Q443 150 470 168Q448 183 437 204Q426 225 426 251Q426 294 455 319.5Q484 345 533 345Q584 345 613.5 320Q643 295 643 254Q643 232 631.5 213Q620 194 597 178ZM488 250Q488 234 497.5 223Q507 212 526 206L554 196Q567 209 573.5 222Q580 235 580 249Q580 267 568 277.5Q556 288 534 288Q513 288 500.5 277.5Q488 267 488 250ZM480 92Q480 73 494 62.5Q508 52 533 52Q560 52 574 62Q588 72 588 91Q588 107 577.5 117.5Q567 128 543 137L512 147Q496 134 488 120Q480 106 480 92Z" glyph-name="threeeighths" horiz-adv-x="686" unicode="⅜" /><glyph d="M256 474 256 417H219V340H160V417H12V463Q62 539 89 587.5Q116 636 132 680H200Q182 634 155.5 585.5Q129 537 86 474H160V522H219V474ZM133 0 481 680H552L204 0ZM469 146 437 174L447 340H634V281H502L497 209Q506 212 516.5 213.5Q527 215 538 215Q588 215 617.5 188.5Q647 162 647 115V100Q647 50 615 22.5Q583 -5 524 -5Q496 -5 471 0Q446 5 423 16L442 74Q462 65 481.5 60.5Q501 56 522 56Q552 56 566.5 67Q581 78 581 100V115Q581 136 567 147.5Q553 159 526 159Q513 159 499.5 156Q486 153 469 146Z" glyph-name="fourfifths" horiz-adv-x="674" unicode="" /><glyph d="M256 474 256 417H219V340H160V417H12V463Q62 539 89 587.5Q116 636 132 680H200Q182 634 155.5 585.5Q129 537 86 474H160V522H219V474ZM133 0 481 680H552L204 0ZM663 340 663 284Q627 210 603.5 139Q580 68 568 0H501Q513 69 537 139.5Q561 210 596 279H447V340Z" glyph-name="foursevenths" horiz-adv-x="677" unicode="" /><glyph d="M256 474 256 417H219V340H160V417H12V463Q62 539 89 587.5Q116 636 132 680H200Q182 634 155.5 585.5Q129 537 86 474H160V522H219V474ZM133 0 481 680H552L204 0ZM661 205 661 132Q661 65 628 30Q595 -5 531 -5Q506 -5 483 0Q460 5 436 16L456 73Q473 64 491 59.5Q509 55 529 55Q564 55 581.5 74Q599 93 599 132V152Q581 136 561.5 128.5Q542 121 520 121Q477 121 451.5 148.5Q426 176 426 223V241Q426 288 457 316.5Q488 345 540 345Q598 345 629.5 308.5Q661 272 661 205ZM489 241 489 223Q489 202 501.5 190.5Q514 179 535 179Q550 179 566 185.5Q582 192 599 206Q599 245 584 264.5Q569 284 540 284Q516 284 502.5 272.5Q489 261 489 241Z" glyph-name="fourninths" horiz-adv-x="702" unicode="" /><glyph d="M69 486 37 514L47 680H234V621H102L97 549Q106 552 116.5 553.5Q127 555 138 555Q188 555 217.5 528.5Q247 502 247 455V440Q247 390 215 362.5Q183 335 124 335Q96 335 71 340Q46 345 23 356L42 414Q62 405 81.5 400.5Q101 396 122 396Q152 396 166.5 407Q181 418 181 440V455Q181 476 167 487.5Q153 499 126 499Q113 499 99.5 496Q86 493 69 486ZM120 0 468 680H539L191 0ZM652 116 652 98Q652 52 621 23.5Q590 -5 538 -5Q480 -5 448.5 31Q417 67 417 134V207Q417 275 450 310Q483 345 546 345Q570 345 593 339.5Q616 334 641 323L622 267Q604 276 586 280Q568 284 548 284Q513 284 496 265Q479 246 479 207V188Q496 204 515.5 211.5Q535 219 558 219Q600 219 626 191Q652 163 652 116ZM543 160Q528 160 512 153.5Q496 147 479 133Q479 94 494 74.5Q509 55 538 55Q562 55 575.5 66.5Q589 78 589 98V116Q589 137 576.5 148.5Q564 160 543 160Z" glyph-name="fivesixths" horiz-adv-x="681" unicode="" /><glyph d="M69 486 37 514L47 680H234V621H102L97 549Q106 552 116.5 553.5Q127 555 138 555Q188 555 217.5 528.5Q247 502 247 455V440Q247 390 215 362.5Q183 335 124 335Q96 335 71 340Q46 345 23 356L42 414Q62 405 81.5 400.5Q101 396 122 396Q152 396 166.5 407Q181 418 181 440V455Q181 476 167 487.5Q153 499 126 499Q113 499 99.5 496Q86 493 69 486ZM120 0 468 680H539L191 0ZM650 340 650 284Q614 210 590.5 139Q567 68 555 0H488Q500 69 524 139.5Q548 210 583 279H434V340Z" glyph-name="fivesevenths" horiz-adv-x="664" unicode="" /><glyph d="M69 486 37 514L47 680H234V621H102L97 549Q106 552 116.5 553.5Q127 555 138 555Q188 555 217.5 528.5Q247 502 247 455V440Q247 390 215 362.5Q183 335 124 335Q96 335 71 340Q46 345 23 356L42 414Q62 405 81.5 400.5Q101 396 122 396Q152 396 166.5 407Q181 418 181 440V455Q181 476 167 487.5Q153 499 126 499Q113 499 99.5 496Q86 493 69 486ZM120 0 468 680H539L191 0ZM597 178Q624 162 637 141Q650 120 650 91Q650 46 619 20.5Q588 -5 532 -5Q478 -5 448 19Q418 43 418 85Q418 110 430.5 130Q443 150 470 168Q448 183 437 204Q426 225 426 251Q426 294 455 319.5Q484 345 533 345Q584 345 613.5 320Q643 295 643 254Q643 232 631.5 213Q620 194 597 178ZM488 250Q488 234 497.5 223Q507 212 526 206L554 196Q567 209 573.5 222Q580 235 580 249Q580 267 568 277.5Q556 288 534 288Q513 288 500.5 277.5Q488 267 488 250ZM480 92Q480 73 494 62.5Q508 52 533 52Q560 52 574 62Q588 72 588 91Q588 107 577.5 117.5Q567 128 543 137L512 147Q496 134 488 120Q480 106 480 92Z" glyph-name="fiveeighths" horiz-adv-x="686" unicode="⅝" /><glyph d="M69 486 37 514L47 680H234V621H102L97 549Q106 552 116.5 553.5Q127 555 138 555Q188 555 217.5 528.5Q247 502 247 455V440Q247 390 215 362.5Q183 335 124 335Q96 335 71 340Q46 345 23 356L42 414Q62 405 81.5 400.5Q101 396 122 396Q152 396 166.5 407Q181 418 181 440V455Q181 476 167 487.5Q153 499 126 499Q113 499 99.5 496Q86 493 69 486ZM120 0 468 680H539L191 0ZM648 205 648 132Q648 65 615 30Q582 -5 518 -5Q493 -5 470 0Q447 5 423 16L443 73Q460 64 478 59.5Q496 55 516 55Q551 55 568.5 74Q586 93 586 132V152Q568 136 548.5 128.5Q529 121 507 121Q464 121 438.5 148.5Q413 176 413 223V241Q413 288 444 316.5Q475 345 527 345Q585 345 616.5 308.5Q648 272 648 205ZM476 241 476 223Q476 202 488.5 190.5Q501 179 522 179Q537 179 553 185.5Q569 192 586 206Q586 245 571 264.5Q556 284 527 284Q503 284 489.5 272.5Q476 261 476 241Z" glyph-name="fiveninths" horiz-adv-x="689" unicode="" /><glyph d="M276 456 276 438Q276 392 245 363.5Q214 335 162 335Q104 335 72.5 371Q41 407 41 474V547Q41 615 74 650Q107 685 170 685Q194 685 217 679.5Q240 674 265 663L246 607Q228 616 210 620Q192 624 172 624Q137 624 120 605Q103 586 103 547V528Q120 544 139.5 551.5Q159 559 182 559Q224 559 250 531Q276 503 276 456ZM167 500Q152 500 136 493.5Q120 487 103 473Q103 434 118 414.5Q133 395 162 395Q186 395 199.5 406.5Q213 418 213 438V456Q213 477 200.5 488.5Q188 500 167 500ZM150 0 498 680H569L221 0ZM680 340 680 284Q644 210 620.5 139Q597 68 585 0H518Q530 69 554 139.5Q578 210 613 279H464V340Z" glyph-name="sixsevenths" horiz-adv-x="694" unicode="" /><glyph d="M225 680 225 624Q189 550 165.5 479Q142 408 130 340H63Q75 409 99 479.5Q123 550 158 619H9V680ZM79 0 427 680H498L150 0ZM556 178Q583 162 596 141Q609 120 609 91Q609 46 578 20.5Q547 -5 491 -5Q437 -5 407 19Q377 43 377 85Q377 110 389.5 130Q402 150 429 168Q407 183 396 204Q385 225 385 251Q385 294 414 319.5Q443 345 492 345Q543 345 572.5 320Q602 295 602 254Q602 232 590.5 213Q579 194 556 178ZM447 250Q447 234 456.5 223Q466 212 485 206L513 196Q526 209 532.5 222Q539 235 539 249Q539 267 527 277.5Q515 288 493 288Q472 288 459.5 277.5Q447 267 447 250ZM439 92Q439 73 453 62.5Q467 52 492 52Q519 52 533 62Q547 72 547 91Q547 107 536.5 117.5Q526 128 502 137L471 147Q455 134 447 120Q439 106 439 92Z" glyph-name="seveneighths" horiz-adv-x="645" unicode="⅞" /><glyph d="M225 680 225 624Q189 550 165.5 479Q142 408 130 340H63Q75 409 99 479.5Q123 550 158 619H9V680ZM79 0 427 680H498L150 0ZM607 205 607 132Q607 65 574 30Q541 -5 477 -5Q452 -5 429 0Q406 5 382 16L402 73Q419 64 437 59.5Q455 55 475 55Q510 55 527.5 74Q545 93 545 132V152Q527 136 507.5 128.5Q488 121 466 121Q423 121 397.5 148.5Q372 176 372 223V241Q372 288 403 316.5Q434 345 486 345Q544 345 575.5 308.5Q607 272 607 205ZM435 241 435 223Q435 202 447.5 190.5Q460 179 481 179Q496 179 512 185.5Q528 192 545 206Q545 245 530 264.5Q515 284 486 284Q462 284 448.5 272.5Q435 261 435 241Z" glyph-name="sevenninths" horiz-adv-x="648" unicode="" /><glyph d="M218 518Q245 502 258 481Q271 460 271 431Q271 386 240 360.5Q209 335 153 335Q99 335 69 359Q39 383 39 425Q39 450 51.5 470Q64 490 91 508Q69 523 58 544Q47 565 47 591Q47 634 76 659.5Q105 685 154 685Q205 685 234.5 660Q264 635 264 594Q264 572 252.5 553Q241 534 218 518ZM109 590Q109 574 118.5 563Q128 552 147 546L175 536Q188 549 194.5 562Q201 575 201 589Q201 607 189 617.5Q177 628 155 628Q134 628 121.5 617.5Q109 607 109 590ZM101 432Q101 413 115 402.5Q129 392 154 392Q181 392 195 402Q209 412 209 431Q209 447 198.5 457.5Q188 468 164 477L133 487Q117 474 109 460Q101 446 101 432ZM153 0 501 680H572L224 0ZM681 205 681 132Q681 65 648 30Q615 -5 551 -5Q526 -5 503 0Q480 5 456 16L476 73Q493 64 511 59.5Q529 55 549 55Q584 55 601.5 74Q619 93 619 132V152Q601 136 581.5 128.5Q562 121 540 121Q497 121 471.5 148.5Q446 176 446 223V241Q446 288 477 316.5Q508 345 560 345Q618 345 649.5 308.5Q681 272 681 205ZM509 241 509 223Q509 202 521.5 190.5Q534 179 555 179Q570 179 586 185.5Q602 192 619 206Q619 245 604 264.5Q589 284 560 284Q536 284 522.5 272.5Q509 261 509 241Z" glyph-name="eightninths" horiz-adv-x="722" unicode="" /><glyph d="M501 334 501 262H331V87H256V262H87V334H256V509H331V334Z" glyph-name="plus" horiz-adv-x="588" unicode="+" /><glyph d="M501 266 87 266V338H501Z" glyph-name="minus" horiz-adv-x="588" unicode="−" /><glyph d="M344 303 493 153L442 103L294 252L145 103L94 153L243 303L94 452L145 503L294 354L442 503L493 452Z" glyph-name="multiply" horiz-adv-x="588" unicode="×" /><glyph d="M340 547 340 456H248V547ZM501 266 87 266V338H501ZM340 145 340 53H248V145Z" glyph-name="divide" horiz-adv-x="588" unicode="÷" /><glyph d="M501 366 87 366V438H501ZM501 166 87 166V238H501Z" glyph-name="equal" horiz-adv-x="588" unicode="=" /><glyph d="M426 376 87 376V448H501V205H426Z" glyph-name="logicalnot" horiz-adv-x="588" unicode="¬" /><glyph d="M382 208Q353 208 327.5 221.5Q302 235 266 276Q242 304 229 312Q216 320 203 320Q181 320 167 296Q153 272 143 221L77 237Q91 315 122.5 353.5Q154 392 204 392Q233 392 258 378.5Q283 365 319 325Q344 296 357 288Q370 280 383 280Q405 280 419.5 304Q434 328 445 380L511 364Q496 285 464 246.5Q432 208 382 208Z" glyph-name="asciitilde" horiz-adv-x="588" unicode="~" /><glyph d="M203 302 501 187V104L87 272V327L501 492V414Z" glyph-name="less" horiz-adv-x="588" unicode="&lt;" /><glyph d="M501 324 501 269L87 104V183L385 295L87 410V492Z" glyph-name="greater" horiz-adv-x="588" unicode="&gt;" /><glyph d="M501 374 501 302H331V131H256V302H87V374H256V545H331V374ZM501 0 87 0V71H501Z" glyph-name="plusminus" horiz-adv-x="588" unicode="±" /><glyph d="M487 266 405 266L291 563L178 266H100L265 680H320Z" glyph-name="asciicircum" horiz-adv-x="588" unicode="^" /><glyph d="M501 238 501 166H257L191 40L137 69L188 166H87V238H226L293 366H87V438H331L397 564L451 534L400 438H501V366H363L295 238Z" glyph-name="notequal" horiz-adv-x="588" unicode="≠" /><glyph d="M382 312Q353 312 327.5 325.5Q302 339 266 380Q242 408 229 416Q216 424 203 424Q181 424 167 400Q153 376 143 325L77 341Q91 419 122.5 457.5Q154 496 204 496Q233 496 258.5 482.5Q284 469 320 428Q344 400 357 392Q370 384 383 384Q405 384 419.5 408Q434 432 445 484L511 468Q496 389 464 350.5Q432 312 382 312ZM382 104Q353 104 327.5 117.5Q302 131 266 172Q242 200 229 208Q216 216 203 216Q181 216 167 192Q153 168 143 117L77 133Q91 211 122.5 249.5Q154 288 204 288Q233 288 258.5 274.5Q284 261 320 220Q344 192 357 184Q370 176 383 176Q405 176 419.5 200Q434 224 445 276L511 260Q496 181 464 142.5Q432 104 382 104Z" glyph-name="approxequal" horiz-adv-x="588" unicode="≈" /><glyph d="M203 334 501 219V137L87 305V359L501 524V446ZM501 0 87 0V71H501Z" glyph-name="lessequal" horiz-adv-x="588" unicode="≤" /><glyph d="M501 356 501 302L87 137V215L385 327L87 442V524ZM501 0 87 0V71H501Z" glyph-name="greaterequal" horiz-adv-x="588" unicode="≥" /><glyph d="M734 309Q734 214 684 159Q634 104 551 104Q494 104 450 133.5Q406 163 377 220Q347 161 306.5 132Q266 103 214 103Q137 103 90 158Q43 213 43 308Q43 403 92.5 458Q142 513 224 513Q282 513 327 483Q372 453 400 396Q430 456 469.5 484.5Q509 513 562 513Q640 513 687 458.5Q734 404 734 309ZM428 322 438 293Q457 239 484 214.5Q511 190 551 190Q602 190 630.5 222Q659 254 659 310Q659 365 631 396Q603 427 555 427Q517 427 487.5 402.5Q458 378 428 322ZM224 426Q174 426 146 394Q118 362 118 307Q118 251 146 220.5Q174 190 224 190Q261 190 290 214.5Q319 239 349 294L339 324Q320 377 292.5 401.5Q265 426 224 426Z" glyph-name="infinity" horiz-adv-x="777" unicode="∞" /><glyph d="M322 0 269 0L101 340L266 680H319L487 340ZM291 575 183 343L296 105L406 337Z" glyph-name="lozenge" horiz-adv-x="588" unicode="◊" /><glyph d="M134 299 32 299V371H189L285 120L502 680H581L310 0H255Z" glyph-name="radical" horiz-adv-x="588" unicode="√" /><glyph d="M238 581 182 -54Q174 -144 138.5 -183.5Q103 -223 36 -223Q11 -223 -15.5 -217.5Q-42 -212 -65 -202L-42 -133Q-24 -141 -7.5 -144.5Q9 -148 25 -148Q60 -148 77 -126.5Q94 -105 99 -54L155 581Q163 671 198.5 710.5Q234 750 301 750Q326 750 353 744.5Q380 739 403 729L380 660Q361 668 344.5 671.5Q328 675 312 675Q277 675 260 653.5Q243 632 238 581Z" glyph-name="integral" horiz-adv-x="343" unicode="∫" /><glyph d="M473 287 471 246Q463 126 402.5 58Q342 -10 243 -10Q149 -10 95 50.5Q41 111 48 209L51 245Q57 333 109.5 387.5Q162 442 243 442Q282 442 316 429.5Q350 417 381 391Q363 480 305.5 555.5Q248 631 159 682L196 750Q339 666 410.5 545.5Q482 425 473 287ZM136 242 133 206Q129 141 159 102.5Q189 64 243 64Q305 64 343 113Q381 162 386 250L389 303Q356 335 322 350.5Q288 366 252 366Q202 366 171 332.5Q140 299 136 242Z" glyph-name="partialdiff" horiz-adv-x="537" unicode="∂" /><glyph d="M116 598 29 598V680H673V598H586V-143H499V598H203V-143H116Z" glyph-name="product" horiz-adv-x="703" unicode="∏" /><glyph d="M104 423 25 423V495H533V423H454V131Q454 97 465.5 83.5Q477 70 504 70H533V-5H500Q433 -5 402.5 26.5Q372 58 372 131V423H186V0H104Z" glyph-name="pi" horiz-adv-x="561" unicode="π" /><glyph d="M170 -125 170 -213H88V495H170V168Q170 116 188 91.5Q206 67 244 67Q278 67 314 84Q350 101 394 137V495H476V124Q476 96 487 83Q498 70 521 70H533V-5H518Q471 -5 441.5 15Q412 35 403 73Q353 30 311.5 10Q270 -10 230 -10Q206 -10 187.5 -3.5Q169 3 154 16Z" glyph-name="mu" horiz-adv-x="566" unicode="µ" /><glyph d="M144 -61 513 -61V-143H30V-72L300 270L33 609V680H495V598H150L382 302V243Z" glyph-name="summation" horiz-adv-x="525" unicode="∑" /><glyph d="M275 185 275 0H62V79H196V133Q132 163 98 225Q64 287 64 374V416Q64 544 133.5 617Q203 690 326 690Q449 690 519 616.5Q589 543 589 416V374Q589 289 555.5 226.5Q522 164 459 134V79H593V0H380V186Q438 201 468.5 249.5Q499 298 499 374V416Q499 509 454 559Q409 609 326 609Q243 609 198.5 558.5Q154 508 154 416V374Q154 297 185.5 248Q217 199 275 185Z" glyph-name="Omega" horiz-adv-x="655" unicode="Ω" /><glyph d="M319 680 521 65V0H37V65L238 680ZM276 561 211 354L124 76H429L341 354Z" glyph-name="Delta" horiz-adv-x="558" unicode="∆" /><glyph d="M300 88 322 19Q294 5 264.5 -2.5Q235 -10 205 -10Q139 -10 105 25.5Q71 61 71 131V531Q71 603 109.5 646.5Q148 690 215 690Q282 690 320 650.5Q358 611 358 538Q358 464 313 392.5Q268 321 153 214V136Q153 99 167 82Q181 65 212 65Q233 65 256 71Q279 77 300 88ZM217 615Q186 615 169.5 593.5Q153 572 153 532V310Q218 376 247.5 429Q277 482 277 534Q277 573 261 594Q245 615 217 615Z" glyph-name="uni2113" horiz-adv-x="383" unicode="ℓ" /><glyph d="M166 324 315 185L280 139L42 334V379L280 572L315 526L167 391H599V324Z" glyph-name="arrowleft" horiz-adv-x="651" unicode="←" /><glyph d="M539 397 493 362L357 511V78H290V511L152 362L106 397L301 635H346Z" glyph-name="arrowup" horiz-adv-x="651" unicode="↑" /><glyph d="M602 379 602 334L364 141L329 187L478 322H45V389H479L329 528L364 574Z" glyph-name="arrowright" horiz-adv-x="651" unicode="→" /><glyph d="M493 353 539 317L344 79H299L106 317L152 353L287 205V636H354V203Z" glyph-name="arrowdown" horiz-adv-x="651" unicode="↓" /><glyph d="M166 324 315 185L280 139L42 334V379L280 572L315 526L167 391H614L465 529L501 575L739 380V335L501 142L465 188L614 324Z" glyph-name="uni2194" horiz-adv-x="781" unicode="↔" /><glyph d="M497 283 543 247L348 9H303L110 247L156 283L292 134V583L153 433L107 468L302 706H347L540 468L494 433L359 582V134Z" glyph-name="uni2195" horiz-adv-x="651" unicode="↕" /><glyph d="M236 490 542 184L495 137L189 443L197 239L139 231L108 538L140 570L445 538L438 480Z" glyph-name="uni2196" horiz-adv-x="651" unicode="↖" /><glyph d="M504 232 447 239L455 440L150 135L103 183L409 489L205 481L198 538L504 569L536 537Z" glyph-name="uni2197" horiz-adv-x="651" unicode="↗" /><glyph d="M502 482 533 176L501 144L196 176L203 233L405 224L99 530L146 577L452 271L445 475Z" glyph-name="uni2198" horiz-adv-x="651" unicode="↘" /><glyph d="M438 234 445 177L139 146L107 178L139 483L197 475L187 274L493 580L540 532L234 226Z" glyph-name="uni2199" horiz-adv-x="651" unicode="↙" /><glyph d="M774 314 774 305H191Q188 305 187 304Q186 303 186 301V125Q186 119 188 114Q190 109 194 105Q238 59 295 34Q352 9 415 9Q482 9 542 37Q602 65 647 116H699Q648 57 573 23.5Q498 -10 414 -10Q265 -10 159.5 85Q54 180 54 314Q54 448 159.5 543Q265 638 414 638Q563 638 668.5 543Q774 448 774 314ZM642 328 642 506Q642 512 640 517.5Q638 523 633 527Q589 571 532.5 595Q476 619 415 619Q353 619 296 594.5Q239 570 195 524Q190 519 188 514Q186 509 186 502V328Q186 326 187.5 324.5Q189 323 191 323H638Q640 323 641 324.5Q642 326 642 328Z" glyph-name="estimated" horiz-adv-x="813" unicode="℮" /><glyph d="M704 -21 731 -89Q671 -116 602.5 -130.5Q534 -145 466 -145Q272 -145 160 -30Q48 85 48 282Q48 494 172.5 631Q297 768 493 768Q672 768 788 653Q904 538 904 363Q904 239 841.5 157.5Q779 76 685 76Q635 76 604.5 97Q574 118 565 159Q525 115 484.5 93Q444 71 401 71Q332 71 298.5 130Q265 189 280 284L288 339Q303 441 357.5 494.5Q412 548 500 548Q545 548 591.5 532.5Q638 517 686 486L643 235Q634 189 646.5 166.5Q659 144 692 144Q748 144 787 206.5Q826 269 826 363Q826 508 732.5 603Q639 698 493 698Q331 698 228 581Q125 464 125 282Q125 116 215.5 20.5Q306 -75 466 -75Q527 -75 589.5 -61Q652 -47 704 -21ZM372 339 364 284Q354 217 369 180.5Q384 144 423 144Q456 144 492 171Q528 198 565 251L598 447Q573 461 550 467.5Q527 474 505 474Q449 474 415.5 440Q382 406 372 339Z" glyph-name="at.case" horiz-adv-x="950" unicode="" /><glyph d="M185 588 185 680H277V588ZM235 66Q272 66 311 75.5Q350 85 394 105L422 33Q376 12 328 1Q280 -10 232 -10Q136 -10 84 34.5Q32 79 32 159V177Q32 229 49 268Q66 307 105 342L139 373Q168 400 179 421.5Q190 443 190 478V497H274V475Q274 426 258 393.5Q242 361 197 320L163 289Q138 266 127.5 241Q117 216 117 181V163Q117 117 148 91.5Q179 66 235 66Z" glyph-name="questiondown.case" horiz-adv-x="434" unicode="" /><glyph d="M94 588 94 680H186V588ZM98 250 107 497H173L180 250V0H98Z" glyph-name="exclamdown.case" horiz-adv-x="280" unicode="" /><glyph d="M60 322 60 359Q60 484 109.5 593Q159 702 257 792L312 736Q227 652 186 560Q145 468 145 359V322Q145 213 186 120.5Q227 28 312 -55L257 -111Q159 -21 109.5 88Q60 197 60 322Z" glyph-name="parenleft.case" horiz-adv-x="315" unicode="" /><glyph d="M255 358 255 321Q255 196 205.5 87Q156 -22 58 -112L2 -56Q88 27 129 119Q170 211 170 321V358Q170 467 129 559.5Q88 652 2 735L58 791Q156 701 205.5 592Q255 483 255 358Z" glyph-name="parenright.case" horiz-adv-x="315" unicode="" /><glyph d="M288 -30 374 -30V-102H285Q194 -102 155 -52Q116 -2 135 91L155 189Q168 250 151 277Q134 304 85 304H20V376H85Q134 376 151 403Q168 430 155 491L135 589Q116 682 155 732Q194 782 285 782H374V710H288Q243 710 224.5 683Q206 656 216 608L236 510Q250 443 233 399Q216 355 171 340Q216 325 233 281Q250 237 236 170L216 72Q206 24 224.5 -3Q243 -30 288 -30Z" glyph-name="braceleft.case" horiz-adv-x="377" unicode="" /><glyph d="M221 189 241 91Q261 -1 222 -51.5Q183 -102 91 -102H2V-30H89Q134 -30 152.5 -3Q171 24 161 72L141 170Q127 237 143.5 281Q160 325 205 340Q160 356 143.5 399Q127 442 141 510L161 608Q171 656 152.5 683Q134 710 89 710H2V782H91Q183 782 222 731.5Q261 681 241 589L221 491Q208 429 225 402Q242 375 291 375H356V303H291Q242 303 225 276Q208 249 221 189Z" glyph-name="braceright.case" horiz-adv-x="377" unicode="" /><glyph d="M188 -30 343 -30V-102H106V781H343V709H188Z" glyph-name="bracketleft.case" horiz-adv-x="346" unicode="" /><glyph d="M2 781 239 781V-102H2V-30H157V709H2Z" glyph-name="bracketright.case" horiz-adv-x="346" unicode="" /><glyph d="M336 287 56 287V359H336Z" glyph-name="hyphen.case" horiz-adv-x="392" unicode="" /><glyph d="M536 287 56 287V359H536Z" glyph-name="endash.case" horiz-adv-x="592" unicode="" /><glyph d="M736 287 56 287V359H736Z" glyph-name="emdash.case" horiz-adv-x="792" unicode="" /><glyph d="M100 433 100 816H182V433ZM100 -137 100 246H182V-137Z" glyph-name="brokenbar.case" horiz-adv-x="282" unicode="" /><glyph d="M106 -137 106 816H188V-137Z" glyph-name="bar.case" horiz-adv-x="295" unicode="" /><glyph d="M120 338 322 195V104L38 311V364L322 568V480ZM410 338 612 195V104L328 311V364L612 568V480Z" glyph-name="guillemotleft.case" horiz-adv-x="667" unicode="" /><glyph d="M628 361 628 308L344 104V191L546 333L344 476V568ZM338 361 338 308L54 104V191L256 333L54 476V568Z" glyph-name="guillemotright.case" horiz-adv-x="667" unicode="" /><glyph d="M120 338 322 195V104L38 311V364L322 568V480Z" glyph-name="guilsinglleft.case" horiz-adv-x="377" unicode="" /><glyph d="M338 361 338 308L54 104V191L256 333L54 476V568Z" glyph-name="guilsinglright.case" horiz-adv-x="377" unicode="" /><glyph d="M106 418 22 418Q22 547 85.5 613.5Q149 680 272 680H455L682 0H592L541 158H284L274 125Q211 -71 137 -147Q63 -223 -64 -223V-139Q31 -139 87 -75Q143 -11 196 147L347 602H274Q187 602 146.5 557.5Q106 513 106 418ZM412 564 346 354L309 237H515L477 354Z" glyph-name="A.alt" horiz-adv-x="703" unicode="" /><glyph d="M100 418 16 418Q16 546 80 613Q144 680 266 680H480Q573 680 622 635Q671 590 671 505V483Q671 438 651 404Q631 370 593 351Q645 334 673 295.5Q701 257 701 203V181Q701 94 650.5 47Q600 0 505 0H280V602H268Q181 602 140.5 557.5Q100 513 100 418ZM480 600 367 600V385H480Q529 385 555 410Q581 435 581 481V505Q581 551 555 575.5Q529 600 480 600ZM505 305 367 305V79H505Q556 79 583.5 105.5Q611 132 611 181V205Q611 253 583.5 279Q556 305 505 305Z" glyph-name="B.alt" horiz-adv-x="759" unicode="" /><glyph d="M100 418 16 418Q16 546 80 613Q144 680 266 680H491Q606 680 670 610.5Q734 541 734 415V266Q734 139 670.5 69.5Q607 0 491 0H280V602H268Q181 602 140.5 557.5Q100 513 100 418ZM489 598 367 598V81H489Q566 81 605 127.5Q644 174 644 266V415Q644 506 605 552Q566 598 489 598Z" glyph-name="D.alt" horiz-adv-x="811" unicode="" /><glyph d="M100 418 16 418Q16 546 80 613Q144 680 266 680H650V598H367V385H620V303H367V81H660V0H280V602H268Q181 602 140.5 557.5Q100 513 100 418Z" glyph-name="E.alt" horiz-adv-x="705" unicode="" /><glyph d="M100 418 16 418Q16 546 80 613Q144 680 266 680H644V598H367V368H614V286H367V0H280V602H268Q181 602 140.5 557.5Q100 513 100 418Z" glyph-name="F.alt" horiz-adv-x="680" unicode="" /><glyph d="M329 279 329 356H536V8Q536 -112 476.5 -167.5Q417 -223 292 -223V-143Q383 -143 419.5 -109Q456 -75 456 8V21Q425 10 392 4Q359 -2 324 -2Q208 -2 142 72Q76 146 76 274V415Q76 546 142 618Q208 690 328 690Q376 690 425.5 679Q475 668 521 647L493 572Q447 591 407 600Q367 609 329 609Q248 609 207 560Q166 511 166 415V274Q166 180 208.5 129Q251 78 331 78Q362 78 396 85Q430 92 456 104V279Z" glyph-name="G.alt" horiz-adv-x="604" unicode="" /><glyph d="M100 418 16 418Q16 546 80 613Q144 680 266 680H367V385H664V680H751V0H664V303H367V0H280V602H268Q181 602 140.5 557.5Q100 513 100 418Z" glyph-name="H.alt" horiz-adv-x="857" unicode="" /><glyph d="M100 418 16 418Q16 546 80 613Q144 680 266 680H374V224Q374 104 315 48.5Q256 -7 131 -7V76Q215 76 251 110.5Q287 145 287 224V602H268Q181 602 140.5 557.5Q100 513 100 418Z" glyph-name="J.alt" horiz-adv-x="467" unicode="" /><glyph d="M100 418 16 418Q16 546 80 613Q144 680 266 680H367V327Q457 418 521 503.5Q585 589 631 680H725Q681 594 633 522.5Q585 451 521 378L757 0H651L457 321Q438 301 416 278.5Q394 256 367 230V0H280V602H268Q181 602 140.5 557.5Q100 513 100 418Z" glyph-name="K.alt" horiz-adv-x="770" unicode="" /><glyph d="M100 418 16 418Q16 546 80 613Q144 680 266 680H367V81H652V0H280V602H268Q181 602 140.5 557.5Q100 513 100 418Z" glyph-name="L.alt" horiz-adv-x="680" unicode="" /><glyph d="M266 680 382 680L589 176L797 680H896V0H811V291L822 553L627 80H545L354 555L365 291V0H280V602H268Q181 602 140.5 557.5Q100 513 100 418H16Q16 546 80 613Q144 680 266 680Z" glyph-name="M.alt" horiz-adv-x="1003" unicode="" /><glyph d="M100 418 16 418Q16 546 80 613Q144 680 266 680H371Q462 550 538.5 418Q615 286 682 144L672 404V680H757V0H666Q579 181 506 312Q433 443 359 555L365 278V0H280V602H268Q181 602 140.5 557.5Q100 513 100 418Z" glyph-name="N.alt" horiz-adv-x="864" unicode="" /><glyph d="M100 418 16 418Q16 546 80 613Q144 680 266 680H492Q587 680 640 630Q693 580 693 491V438Q693 349 640 298.5Q587 248 492 248H367V0H280V602H268Q181 602 140.5 557.5Q100 513 100 418ZM492 598 367 598V329H492Q545 329 574 357.5Q603 386 603 438V491Q603 542 574 570Q545 598 492 598Z" glyph-name="P.alt" horiz-adv-x="738" unicode="" /><glyph d="M503 266 367 266V0H280V602H268Q181 602 140.5 557.5Q100 513 100 418H16Q16 546 80 613Q144 680 266 680H493Q587 680 640.5 630.5Q694 581 694 495V452Q694 392 666.5 348Q639 304 588 283Q629 217 666 146Q703 75 736 0H636Q608 68 574.5 134.5Q541 201 503 266ZM493 600 367 600V346H493Q544 346 574 374.5Q604 403 604 452V495Q604 544 574.5 572Q545 600 493 600Z" glyph-name="R.alt" horiz-adv-x="775" unicode="" /><glyph d="M100 418 16 418Q16 546 80 613Q144 680 266 680H605V598H406V0H319V598H268Q181 598 140.5 555Q100 512 100 418Z" glyph-name="T.alt" horiz-adv-x="618" unicode="" /><glyph d="M100 418 16 418Q16 546 80 613Q144 680 266 680H368V244Q368 158 404 114Q440 70 510 70Q581 70 616.5 114Q652 158 652 244V680H742V244Q742 121 682.5 55.5Q623 -10 510 -10Q397 -10 337.5 55.5Q278 121 278 244V602H268Q181 602 140.5 557.5Q100 513 100 418Z" glyph-name="U.alt" horiz-adv-x="834" unicode="" /><glyph d="M100 418 16 418Q16 546 80 613Q144 680 266 680H336L444 335L509 117L575 336L642 552Q704 750 778.5 826.5Q853 903 982 903V819Q885 819 828 754Q771 689 721 532L550 0H462L269 602H268Q181 602 140.5 557.5Q100 513 100 418Z" glyph-name="V.alt" horiz-adv-x="792" unicode="" /><glyph d="M351 680 410 392L459 118L616 680H697L854 120L904 392L936 552Q975 739 1054 821Q1133 903 1281 903V819Q1169 819 1107.5 745.5Q1046 672 1010 508L899 0H810L654 556L498 0H409L277 602H268Q181 602 140.5 557.5Q100 513 100 418H16Q16 546 80 613Q144 680 266 680Z" glyph-name="W.alt" horiz-adv-x="1087" unicode="" /><glyph d="M100 418 16 418Q16 546 78.5 613Q141 680 262 680H307L457 421L604 680H695L503 348L705 0H607L446 276L289 0H198L400 350L254 602Q174 599 137 554.5Q100 510 100 418Z" glyph-name="X.alt" horiz-adv-x="726" unicode="" /><glyph d="M100 418 16 418Q16 546 79 613Q142 680 262 680H326L489 358L646 680H736L528 272V0H441V272L272 602H264Q179 602 139.5 557.5Q100 513 100 418Z" glyph-name="Y.alt" horiz-adv-x="746" unicode="" /><glyph d="M106 418 22 418Q22 547 85.5 613.5Q149 680 272 680H455L682 0H592L541 158H284L274 125Q211 -71 137 -147Q63 -223 -64 -223V-139Q31 -139 87 -75Q143 -11 196 147L347 602H274Q187 602 146.5 557.5Q106 513 106 418ZM412 564 346 354L309 237H515L477 354ZM548 894 451 764H380L470 930Z" glyph-name="Aacute.alt" horiz-adv-x="703" unicode="" /><glyph d="M106 418 22 418Q22 547 85.5 613.5Q149 680 272 680H455L682 0H592L541 158H284L274 125Q211 -71 137 -147Q63 -223 -64 -223V-139Q31 -139 87 -75Q143 -11 196 147L347 602H274Q187 602 146.5 557.5Q106 513 106 418ZM412 564 346 354L309 237H515L477 354ZM548 764 479 764L412 859L345 764H280L373 925H455Z" glyph-name="Acircumflex.alt" horiz-adv-x="703" unicode="" /><glyph d="M106 418 22 418Q22 547 85.5 613.5Q149 680 272 680H455L682 0H592L541 158H284L274 125Q211 -71 137 -147Q63 -223 -64 -223V-139Q31 -139 87 -75Q143 -11 196 147L347 602H274Q187 602 146.5 557.5Q106 513 106 418ZM412 564 346 354L309 237H515L477 354ZM361 890 361 804H275V890ZM552 890 552 804H466V890Z" glyph-name="Adieresis.alt" horiz-adv-x="703" unicode="" /><glyph d="M106 418 22 418Q22 547 85.5 613.5Q149 680 272 680H455L682 0H592L541 158H284L274 125Q211 -71 137 -147Q63 -223 -64 -223V-139Q31 -139 87 -75Q143 -11 196 147L347 602H274Q187 602 146.5 557.5Q106 513 106 418ZM412 564 346 354L309 237H515L477 354ZM450 764 379 764L281 894L360 930Z" glyph-name="Agrave.alt" horiz-adv-x="703" unicode="" /><glyph d="M172 158 169 147Q102 -65 27 -144Q-48 -223 -176 -223V-139Q-81 -139 -25 -75Q31 -11 84 147L247 636Q220 649 204.5 675Q189 701 189 734V745Q189 794 220 823.5Q251 853 303 853Q354 853 385.5 823Q417 793 417 745V734Q417 700 401.5 674.5Q386 649 358 636L570 0H481L429 158ZM357 734 357 745Q357 769 342 783.5Q327 798 303 798Q278 798 263 783.5Q248 769 248 745V734Q248 709 263 694.5Q278 680 303 680Q327 680 342 695Q357 710 357 734ZM300 564 234 354L197 237H403L365 354Z" glyph-name="Aring.alt" horiz-adv-x="592" unicode="" /><glyph d="M106 418 22 418Q22 547 85.5 613.5Q149 680 272 680H455L682 0H592L541 158H284L274 125Q211 -71 137 -147Q63 -223 -64 -223V-139Q31 -139 87 -75Q143 -11 196 147L347 602H274Q187 602 146.5 557.5Q106 513 106 418ZM412 564 346 354L309 237H515L477 354ZM475 773Q454 773 436.5 783Q419 793 395 824Q380 844 372 849.5Q364 855 356 855Q343 855 337.5 838Q332 821 332 785H269Q270 853 291.5 888Q313 923 354 923Q375 923 392.5 912.5Q410 902 434 871Q449 852 457 846Q465 840 473 840Q486 840 491.5 857Q497 874 498 910H561Q560 841 538.5 807Q517 773 475 773Z" glyph-name="Atilde.alt" horiz-adv-x="703" unicode="" /><glyph d="M106 418 22 418Q22 547 85.5 613.5Q149 680 272 680H455L682 0H592L541 158H284L274 125Q211 -71 137 -147Q63 -223 -64 -223V-139Q31 -139 87 -75Q143 -11 196 147L347 602H274Q187 602 146.5 557.5Q106 513 106 418ZM412 564 346 354L309 237H515L477 354ZM415 833Q447 833 462 853Q477 873 480 916H546Q541 844 507.5 807Q474 770 415 770Q355 770 322 807Q289 844 284 916H349Q352 873 367.5 853Q383 833 415 833Z" glyph-name="Abreve.alt" horiz-adv-x="703" unicode="" /><glyph d="M106 418 22 418Q22 547 85.5 613.5Q149 680 272 680H455L682 0H592L541 158H284L274 125Q211 -71 137 -147Q63 -223 -64 -223V-139Q31 -139 87 -75Q143 -11 196 147L347 602H274Q187 602 146.5 557.5Q106 513 106 418ZM412 564 346 354L309 237H515L477 354ZM271 857 557 857V794H271Z" glyph-name="Amacron.alt" horiz-adv-x="703" unicode="" /><glyph d="M106 418 22 418Q22 547 85.5 613.5Q149 680 272 680H455L682 0Q623 -45 600 -72Q577 -99 577 -123Q577 -139 586.5 -147Q596 -155 614 -155Q626 -155 639.5 -152Q653 -149 667 -143L682 -206Q661 -215 641.5 -219Q622 -223 603 -223Q556 -223 529 -199.5Q502 -176 502 -136Q502 -103 523.5 -70.5Q545 -38 592 1L541 158H284L281 147Q213 -65 138.5 -144Q64 -223 -64 -223V-139Q31 -139 87 -75Q143 -11 196 147L347 602H274Q187 602 146.5 557.5Q106 513 106 418ZM412 564 346 354L309 237H515L477 354Z" glyph-name="Aogonek.alt" horiz-adv-x="703" unicode="" /><glyph d="M100 418 16 418Q16 546 80 613Q144 680 266 680H491Q606 680 670 610.5Q734 541 734 415V266Q734 139 670.5 69.5Q607 0 491 0H280V602H268Q181 602 140.5 557.5Q100 513 100 418ZM489 598 367 598V81H489Q566 81 605 127.5Q644 174 644 266V415Q644 506 605 552Q566 598 489 598ZM555 925 620 925L527 764H445L352 925H421L488 830Z" glyph-name="Dcaron.alt" horiz-adv-x="811" unicode="" /><glyph d="M100 418 16 418Q16 546 80 613Q144 680 266 680H650V598H367V385H620V303H367V81H660V0H280V602H268Q181 602 140.5 557.5Q100 513 100 418ZM597 894 500 764H429L519 930Z" glyph-name="Eacute.alt" horiz-adv-x="705" unicode="" /><glyph d="M100 418 16 418Q16 546 80 613Q144 680 266 680H650V598H367V385H620V303H367V81H660V0H280V602H268Q181 602 140.5 557.5Q100 513 100 418ZM598 764 529 764L462 859L395 764H330L423 925H505Z" glyph-name="Ecircumflex.alt" horiz-adv-x="705" unicode="" /><glyph d="M100 418 16 418Q16 546 80 613Q144 680 266 680H650V598H367V385H620V303H367V81H660V0H280V602H268Q181 602 140.5 557.5Q100 513 100 418ZM411 890 411 804H325V890ZM602 890 602 804H516V890Z" glyph-name="Edieresis.alt" horiz-adv-x="705" unicode="" /><glyph d="M100 418 16 418Q16 546 80 613Q144 680 266 680H650V598H367V385H620V303H367V81H660V0H280V602H268Q181 602 140.5 557.5Q100 513 100 418ZM499 764 428 764L330 894L409 930Z" glyph-name="Egrave.alt" horiz-adv-x="705" unicode="" /><glyph d="M100 418 16 418Q16 546 80 613Q144 680 266 680H650V598H367V385H620V303H367V81H660V0H280V602H268Q181 602 140.5 557.5Q100 513 100 418ZM464 833Q496 833 511 853Q526 873 529 916H595Q590 844 556.5 807Q523 770 464 770Q404 770 371 807Q338 844 333 916H398Q401 873 416.5 853Q432 833 464 833Z" glyph-name="Ebreve.alt" horiz-adv-x="705" unicode="" /><glyph d="M100 418 16 418Q16 546 80 613Q144 680 266 680H650V598H367V385H620V303H367V81H660V0H280V602H268Q181 602 140.5 557.5Q100 513 100 418ZM533 925 598 925L505 764H423L330 925H399L466 830Z" glyph-name="Ecaron.alt" horiz-adv-x="705" unicode="" /><glyph d="M100 418 16 418Q16 546 80 613Q144 680 266 680H650V598H367V385H620V303H367V81H660V0H280V602H268Q181 602 140.5 557.5Q100 513 100 418ZM510 893 510 801H418V893Z" glyph-name="Edotaccent.alt" horiz-adv-x="705" unicode="" /><glyph d="M100 418 16 418Q16 546 80 613Q144 680 266 680H650V598H367V385H620V303H367V81H660V0H280V602H268Q181 602 140.5 557.5Q100 513 100 418ZM321 857 607 857V794H321Z" glyph-name="Emacron.alt" horiz-adv-x="705" unicode="" /><glyph d="M100 418 16 418Q16 546 80 613Q144 680 266 680H650V598H367V385H620V303H367V81H660V0Q602 -46 578.5 -73Q555 -100 555 -123Q555 -139 564.5 -147Q574 -155 592 -155Q604 -155 617.5 -152Q631 -149 645 -143L660 -206Q639 -215 619.5 -219Q600 -223 581 -223Q534 -223 507 -199.5Q480 -176 480 -136Q480 -103 501.5 -71Q523 -39 572 0H280V602H268Q181 602 140.5 557.5Q100 513 100 418Z" glyph-name="Eogonek.alt" horiz-adv-x="705" unicode="" /><glyph d="M329 279 329 356H536V8Q536 -112 476.5 -167.5Q417 -223 292 -223V-143Q383 -143 419.5 -109Q456 -75 456 8V21Q425 10 392 4Q359 -2 324 -2Q208 -2 142 72Q76 146 76 274V415Q76 546 142 618Q208 690 328 690Q376 690 425.5 679Q475 668 521 647L493 572Q447 591 407 600Q367 609 329 609Q248 609 207 560Q166 511 166 415V274Q166 180 208.5 129Q251 78 331 78Q362 78 396 85Q430 92 456 104V279ZM329 833Q361 833 376 853Q391 873 394 916H460Q455 844 421.5 807Q388 770 329 770Q269 770 236 807Q203 844 198 916H263Q266 873 281.5 853Q297 833 329 833Z" glyph-name="Gbreve.alt" horiz-adv-x="604" unicode="" /><glyph d="M329 279 329 356H536V8Q536 -112 476.5 -167.5Q417 -223 292 -223V-143Q383 -143 419.5 -109Q456 -75 456 8V21Q425 10 392 4Q359 -2 324 -2Q208 -2 142 72Q76 146 76 274V415Q76 546 142 618Q208 690 328 690Q376 690 425.5 679Q475 668 521 647L493 572Q447 591 407 600Q367 609 329 609Q248 609 207 560Q166 511 166 415V274Q166 180 208.5 129Q251 78 331 78Q362 78 396 85Q430 92 456 104V279ZM462 764 393 764L326 859L259 764H194L287 925H369Z" glyph-name="Gcircumflex.alt" horiz-adv-x="604" unicode="" /><glyph d="M329 279 329 356H536V8Q536 -112 476.5 -167.5Q417 -223 292 -223V-143Q383 -143 419.5 -109Q456 -75 456 8V21Q425 10 392 4Q359 -2 324 -2Q208 -2 142 72Q76 146 76 274V415Q76 546 142 618Q208 690 328 690Q376 690 425.5 679Q475 668 521 647L493 572Q447 591 407 600Q367 609 329 609Q248 609 207 560Q166 511 166 415V274Q166 180 208.5 129Q251 78 331 78Q362 78 396 85Q430 92 456 104V279ZM374 893 374 801H282V893Z" glyph-name="Gdotaccent.alt" horiz-adv-x="604" unicode="" /><glyph d="M100 418 16 418Q16 546 80 613Q144 680 266 680H367V385H664V680H751V0H664V303H367V0H280V602H268Q181 602 140.5 557.5Q100 513 100 418ZM649 764 580 764L513 859L446 764H381L474 925H556Z" glyph-name="Hcircumflex.alt" horiz-adv-x="857" unicode="" /><glyph d="M100 418 16 418Q16 546 80 613Q144 680 266 680H374V224Q374 104 315 48.5Q256 -7 131 -7V76Q215 76 251 110.5Q287 145 287 224V602H268Q181 602 140.5 557.5Q100 513 100 418ZM463 764 394 764L327 859L260 764H195L288 925H370Z" glyph-name="Jcircumflex.alt" horiz-adv-x="467" unicode="" /><glyph d="M100 418 16 418Q16 546 80 613Q144 680 266 680H367V327Q457 418 521 503.5Q585 589 631 680H725Q681 594 633 522.5Q585 451 521 378L757 0H651L457 321Q438 301 416 278.5Q394 256 367 230V0H280V602H268Q181 602 140.5 557.5Q100 513 100 418ZM544 -77 474 -248L424 -234L455 -77Z" glyph-name="Kcommaaccent.alt" horiz-adv-x="770" unicode="" /><glyph d="M100 418 16 418Q16 546 80 613Q144 680 266 680H367V81H652V0H280V602H268Q181 602 140.5 557.5Q100 513 100 418ZM461 894 364 764H293L383 930Z" glyph-name="Lacute.alt" horiz-adv-x="680" unicode="" /><glyph d="M100 418 16 418Q16 546 80 613Q144 680 266 680H367V81H652V0H280V602H268Q181 602 140.5 557.5Q100 513 100 418ZM536 680 507 486H452V680Z" glyph-name="Lcaron.alt" horiz-adv-x="680" unicode="" /><glyph d="M100 418 16 418Q16 546 80 613Q144 680 266 680H367V81H652V0H280V602H268Q181 602 140.5 557.5Q100 513 100 418ZM512 -77 442 -248L392 -234L423 -77Z" glyph-name="Lcommaaccent.alt" horiz-adv-x="680" unicode="" /><glyph d="M100 418 16 418Q16 546 80 613Q144 680 266 680H371Q462 550 538.5 418Q615 286 682 144L672 404V680H757V0H666Q579 181 506 312Q433 443 359 555L365 278V0H280V602H268Q181 602 140.5 557.5Q100 513 100 418ZM579 773Q558 773 540.5 783Q523 793 499 824Q484 844 476 849.5Q468 855 460 855Q447 855 441.5 838Q436 821 436 785H373Q374 853 395.5 888Q417 923 458 923Q479 923 496.5 912.5Q514 902 538 871Q553 852 561 846Q569 840 577 840Q590 840 595.5 857Q601 874 602 910H665Q664 841 642.5 807Q621 773 579 773Z" glyph-name="Ntilde.alt" horiz-adv-x="864" unicode="" /><glyph d="M100 418 16 418Q16 546 80 613Q144 680 266 680H371Q462 550 538.5 418Q615 286 682 144L672 404V680H757V0H666Q579 181 506 312Q433 443 359 555L365 278V0H280V602H268Q181 602 140.5 557.5Q100 513 100 418ZM652 894 555 764H484L574 930Z" glyph-name="Nacute.alt" horiz-adv-x="864" unicode="" /><glyph d="M100 418 16 418Q16 546 80 613Q144 680 266 680H371Q462 550 538.5 418Q615 286 682 144L672 404V680H757V0H666Q579 181 506 312Q433 443 359 555L365 278V0H280V602H268Q181 602 140.5 557.5Q100 513 100 418ZM587 925 652 925L559 764H477L384 925H453L520 830Z" glyph-name="Ncaron.alt" horiz-adv-x="864" unicode="" /><glyph d="M100 418 16 418Q16 546 80 613Q144 680 266 680H371Q462 550 538.5 418Q615 286 682 144L672 404V680H757V0H666Q579 181 506 312Q433 443 359 555L365 278V0H280V602H268Q181 602 140.5 557.5Q100 513 100 418ZM563 -77 493 -248L443 -234L474 -77Z" glyph-name="Ncommaaccent.alt" horiz-adv-x="864" unicode="" /><glyph d="M672 404 672 680H757V8Q757 -112 698 -167.5Q639 -223 514 -223V-139Q597 -139 633 -107.5Q669 -76 672 -3Q597 152 519 291.5Q441 431 359 554L365 278V0H280V602H268Q181 602 140.5 557.5Q100 513 100 418H16Q16 546 80 613Q144 680 266 680H371Q463 549 539.5 419.5Q616 290 682 154Z" glyph-name="Eng.alt" horiz-adv-x="864" unicode="" /><glyph d="M503 266 367 266V0H280V602H268Q181 602 140.5 557.5Q100 513 100 418H16Q16 546 80 613Q144 680 266 680H493Q587 680 640.5 630.5Q694 581 694 495V452Q694 392 666.5 348Q639 304 588 283Q629 217 666 146Q703 75 736 0H636Q608 68 574.5 134.5Q541 201 503 266ZM493 600 367 600V346H493Q544 346 574 374.5Q604 403 604 452V495Q604 544 574.5 572Q545 600 493 600ZM608 894 511 764H440L530 930Z" glyph-name="Racute.alt" horiz-adv-x="775" unicode="" /><glyph d="M503 266 367 266V0H280V602H268Q181 602 140.5 557.5Q100 513 100 418H16Q16 546 80 613Q144 680 266 680H493Q587 680 640.5 630.5Q694 581 694 495V452Q694 392 666.5 348Q639 304 588 283Q629 217 666 146Q703 75 736 0H636Q608 68 574.5 134.5Q541 201 503 266ZM493 600 367 600V346H493Q544 346 574 374.5Q604 403 604 452V495Q604 544 574.5 572Q545 600 493 600ZM543 925 608 925L515 764H433L340 925H409L476 830Z" glyph-name="Rcaron.alt" horiz-adv-x="775" unicode="" /><glyph d="M503 266 367 266V0H280V602H268Q181 602 140.5 557.5Q100 513 100 418H16Q16 546 80 613Q144 680 266 680H493Q587 680 640.5 630.5Q694 581 694 495V452Q694 392 666.5 348Q639 304 588 283Q629 217 666 146Q703 75 736 0H636Q608 68 574.5 134.5Q541 201 503 266ZM493 600 367 600V346H493Q544 346 574 374.5Q604 403 604 452V495Q604 544 574.5 572Q545 600 493 600ZM541 -77 471 -248L421 -234L452 -77Z" glyph-name="Rcommaaccent.alt" horiz-adv-x="775" unicode="" /><glyph d="M536 365 536 295H406V0H319V295H190V365H319V598H268Q181 598 140.5 555Q100 512 100 418H16Q16 546 80 613Q144 680 266 680H605V598H406V365Z" glyph-name="Tbar.alt" horiz-adv-x="618" unicode="" /><glyph d="M100 418 16 418Q16 546 80 613Q144 680 266 680H605V598H406V0H319V598H268Q181 598 140.5 555Q100 512 100 418ZM431 925 496 925L403 764H321L228 925H297L364 830Z" glyph-name="Tcaron.alt" horiz-adv-x="618" unicode="" /><glyph d="M100 418 16 418Q16 546 80 613Q144 680 266 680H605V598H406V0H319V598H268Q181 598 140.5 555Q100 512 100 418ZM408 -77 338 -248L288 -234L319 -77Z" glyph-name="uni0162.alt" horiz-adv-x="618" unicode="" /><glyph d="M100 418 16 418Q16 546 80 613Q144 680 266 680H605V598H406V0H319V598H268Q181 598 140.5 555Q100 512 100 418ZM408 -77 338 -248L288 -234L319 -77Z" glyph-name="uni021A.alt" horiz-adv-x="618" unicode="" /><glyph d="M100 418 16 418Q16 546 80 613Q144 680 266 680H368V244Q368 158 404 114Q440 70 510 70Q581 70 616.5 114Q652 158 652 244V680H742V244Q742 121 682.5 55.5Q623 -10 510 -10Q397 -10 337.5 55.5Q278 121 278 244V602H268Q181 602 140.5 557.5Q100 513 100 418ZM643 894 546 764H475L565 930Z" glyph-name="Uacute.alt" horiz-adv-x="834" unicode="" /><glyph d="M100 418 16 418Q16 546 80 613Q144 680 266 680H368V244Q368 158 404 114Q440 70 510 70Q581 70 616.5 114Q652 158 652 244V680H742V244Q742 121 682.5 55.5Q623 -10 510 -10Q397 -10 337.5 55.5Q278 121 278 244V602H268Q181 602 140.5 557.5Q100 513 100 418ZM644 764 575 764L508 859L441 764H376L469 925H551Z" glyph-name="Ucircumflex.alt" horiz-adv-x="834" unicode="" /><glyph d="M100 418 16 418Q16 546 80 613Q144 680 266 680H368V244Q368 158 404 114Q440 70 510 70Q581 70 616.5 114Q652 158 652 244V680H742V244Q742 121 682.5 55.5Q623 -10 510 -10Q397 -10 337.5 55.5Q278 121 278 244V602H268Q181 602 140.5 557.5Q100 513 100 418ZM457 890 457 804H371V890ZM648 890 648 804H562V890Z" glyph-name="Udieresis.alt" horiz-adv-x="834" unicode="" /><glyph d="M100 418 16 418Q16 546 80 613Q144 680 266 680H368V244Q368 158 404 114Q440 70 510 70Q581 70 616.5 114Q652 158 652 244V680H742V244Q742 121 682.5 55.5Q623 -10 510 -10Q397 -10 337.5 55.5Q278 121 278 244V602H268Q181 602 140.5 557.5Q100 513 100 418ZM545 764 474 764L376 894L455 930Z" glyph-name="Ugrave.alt" horiz-adv-x="834" unicode="" /><glyph d="M100 418 16 418Q16 546 80 613Q144 680 266 680H368V244Q368 158 404 114Q440 70 510 70Q581 70 616.5 114Q652 158 652 244V680H742V244Q742 121 682.5 55.5Q623 -10 510 -10Q397 -10 337.5 55.5Q278 121 278 244V602H268Q181 602 140.5 557.5Q100 513 100 418ZM510 833Q542 833 557 853Q572 873 575 916H641Q636 844 602.5 807Q569 770 510 770Q450 770 417 807Q384 844 379 916H444Q447 873 462.5 853Q478 833 510 833Z" glyph-name="Ubreve.alt" horiz-adv-x="834" unicode="" /><glyph d="M100 418 16 418Q16 546 80 613Q144 680 266 680H368V244Q368 158 404 114Q440 70 510 70Q581 70 616.5 114Q652 158 652 244V680H742V244Q742 121 682.5 55.5Q623 -10 510 -10Q397 -10 337.5 55.5Q278 121 278 244V602H268Q181 602 140.5 557.5Q100 513 100 418ZM557 894 475 764H408L490 930ZM695 894 613 764H546L628 930Z" glyph-name="Uhungarumlaut.alt" horiz-adv-x="834" unicode="" /><glyph d="M100 418 16 418Q16 546 80 613Q144 680 266 680H368V244Q368 158 404 114Q440 70 510 70Q581 70 616.5 114Q652 158 652 244V680H742V244Q742 121 682.5 55.5Q623 -10 510 -10Q397 -10 337.5 55.5Q278 121 278 244V602H268Q181 602 140.5 557.5Q100 513 100 418ZM367 857 653 857V794H367Z" glyph-name="Umacron.alt" horiz-adv-x="834" unicode="" /><glyph d="M100 418 16 418Q16 546 80 613Q144 680 266 680H368V244Q368 158 404 114Q440 70 510 70Q581 70 616.5 114Q652 158 652 244V680H742V244Q742 176 725 127Q708 78 673 46Q595 -28 566 -63.5Q537 -99 537 -123Q537 -139 546.5 -147Q556 -155 575 -155Q586 -155 599.5 -152Q613 -149 628 -143L642 -206Q622 -215 602.5 -219Q583 -223 564 -223Q517 -223 490 -199.5Q463 -176 463 -136Q463 -107 479 -77Q495 -47 531 -9Q527 -10 523 -10Q519 -10 510 -10Q397 -10 337.5 55.5Q278 121 278 244V602H268Q181 602 140.5 557.5Q100 513 100 418Z" glyph-name="Uogonek.alt" horiz-adv-x="834" unicode="" /><glyph d="M100 418 16 418Q16 546 80 613Q144 680 266 680H368V244Q368 158 404 114Q440 70 510 70Q581 70 616.5 114Q652 158 652 244V680H742V244Q742 121 682.5 55.5Q623 -10 510 -10Q397 -10 337.5 55.5Q278 121 278 244V602H268Q181 602 140.5 557.5Q100 513 100 418ZM510 976Q561 976 592.5 946Q624 916 624 868V857Q624 808 592.5 778Q561 748 510 748Q458 748 427 778Q396 808 396 857V868Q396 917 427 946.5Q458 976 510 976ZM564 857 564 868Q564 892 549 906.5Q534 921 510 921Q485 921 470 906.5Q455 892 455 868V857Q455 832 470 817.5Q485 803 510 803Q534 803 549 818Q564 833 564 857Z" glyph-name="Uring.alt" horiz-adv-x="834" unicode="" /><glyph d="M100 418 16 418Q16 546 80 613Q144 680 266 680H368V244Q368 158 404 114Q440 70 510 70Q581 70 616.5 114Q652 158 652 244V680H742V244Q742 121 682.5 55.5Q623 -10 510 -10Q397 -10 337.5 55.5Q278 121 278 244V602H268Q181 602 140.5 557.5Q100 513 100 418ZM570 773Q549 773 531.5 783Q514 793 490 824Q475 844 467 849.5Q459 855 451 855Q438 855 432.5 838Q427 821 427 785H364Q365 853 386.5 888Q408 923 449 923Q470 923 487.5 912.5Q505 902 529 871Q544 852 552 846Q560 840 568 840Q581 840 586.5 857Q592 874 593 910H656Q655 841 633.5 807Q612 773 570 773Z" glyph-name="Utilde.alt" horiz-adv-x="834" unicode="" /><glyph d="M351 680 410 392L459 118L616 680H697L854 120L904 392L936 552Q975 739 1054 821Q1133 903 1281 903V819Q1169 819 1107.5 745.5Q1046 672 1010 508L899 0H810L654 556L498 0H409L277 602H268Q181 602 140.5 557.5Q100 513 100 418H16Q16 546 80 613Q144 680 266 680ZM787 894 690 764H619L709 930Z" glyph-name="Wacute.alt" horiz-adv-x="1087" unicode="" /><glyph d="M351 680 410 392L459 118L616 680H697L854 120L904 392L936 552Q975 739 1054 821Q1133 903 1281 903V819Q1169 819 1107.5 745.5Q1046 672 1010 508L899 0H810L654 556L498 0H409L277 602H268Q181 602 140.5 557.5Q100 513 100 418H16Q16 546 80 613Q144 680 266 680ZM788 764 719 764L652 859L585 764H520L613 925H695Z" glyph-name="Wcircumflex.alt" horiz-adv-x="1087" unicode="" /><glyph d="M351 680 410 392L459 118L616 680H697L854 120L904 392L936 552Q975 739 1054 821Q1133 903 1281 903V819Q1169 819 1107.5 745.5Q1046 672 1010 508L899 0H810L654 556L498 0H409L277 602H268Q181 602 140.5 557.5Q100 513 100 418H16Q16 546 80 613Q144 680 266 680ZM601 890 601 804H515V890ZM792 890 792 804H706V890Z" glyph-name="Wdieresis.alt" horiz-adv-x="1087" unicode="" /><glyph d="M351 680 410 392L459 118L616 680H697L854 120L904 392L936 552Q975 739 1054 821Q1133 903 1281 903V819Q1169 819 1107.5 745.5Q1046 672 1010 508L899 0H810L654 556L498 0H409L277 602H268Q181 602 140.5 557.5Q100 513 100 418H16Q16 546 80 613Q144 680 266 680ZM689 764 618 764L520 894L599 930Z" glyph-name="Wgrave.alt" horiz-adv-x="1087" unicode="" /><glyph d="M100 418 16 418Q16 546 79 613Q142 680 262 680H326L489 358L646 680H736L528 272V0H441V272L272 602H264Q179 602 139.5 557.5Q100 513 100 418ZM619 894 522 764H451L541 930Z" glyph-name="Yacute.alt" horiz-adv-x="746" unicode="" /><glyph d="M100 418 16 418Q16 546 79 613Q142 680 262 680H326L489 358L646 680H736L528 272V0H441V272L272 602H264Q179 602 139.5 557.5Q100 513 100 418ZM433 890 433 804H347V890ZM624 890 624 804H538V890Z" glyph-name="Ydieresis.alt" horiz-adv-x="746" unicode="" /><glyph d="M100 418 16 418Q16 546 79 613Q142 680 262 680H326L489 358L646 680H736L528 272V0H441V272L272 602H264Q179 602 139.5 557.5Q100 513 100 418ZM619 764 550 764L483 859L416 764H351L444 925H526Z" glyph-name="Ycircumflex.alt" horiz-adv-x="746" unicode="" /><glyph d="M100 418 16 418Q16 546 79 613Q142 680 262 680H326L489 358L646 680H736L528 272V0H441V272L272 602H264Q179 602 139.5 557.5Q100 513 100 418ZM521 764 450 764L352 894L431 930Z" glyph-name="Ygrave.alt" horiz-adv-x="746" unicode="" /></font>
</defs>
</svg>
