<?xml version="1.0" standalone="no"?>
<!DOCTYPE svg
  PUBLIC '-//W3C//DTD SVG 1.1//EN'
  'http://www.w3.org/Graphics/SVG/1.1/DTD/svg11.dtd'><svg version="1.1" xmlns="http://www.w3.org/2000/svg"><defs><font horiz-adv-x="0" id="font"><font-face ascent="650" bbox="-253 -243 1390 998" cap-height="680" descent="-200" font-family="Inria Sans Light" font-stretch="normal" font-style="normal" font-weight="680" units-per-em="1000" x-height="487" /><missing-glyph d="M514 0 116 0L236 680H634ZM290 621 191 59H459L558 621Z" horiz-adv-x="716" /><glyph d="" glyph-name=".null" horiz-adv-x="0" unicode="" /><glyph d="" glyph-name="CR" horiz-adv-x="0" unicode="" /><glyph d="" glyph-name="space" horiz-adv-x="230" unicode=" " /><glyph d="" glyph-name="uni00A0" horiz-adv-x="230" unicode=" " /><glyph d="M497 0 432 0L405 175H134L46 0H-21L325 680H390ZM343 593 229 363L163 233H397L377 363Z" glyph-name="A" horiz-adv-x="562" unicode="A" /><glyph d="M302 0 72 0L192 680H377Q465 680 508.5 630Q552 580 538 497L535 479Q527 433 500.5 399Q474 365 432 347Q480 327 501.5 285Q523 243 514 187L511 169Q498 89 443.5 44.5Q389 0 302 0ZM376 621 247 621L203 375H333Q389 375 424 402Q459 429 467 479L470 497Q480 557 455.5 589Q431 621 376 621ZM348 316 193 316L147 59H302Q360 59 397 87.5Q434 116 443 169L446 187Q456 247 430 281.5Q404 316 348 316Z" glyph-name="B" horiz-adv-x="586" unicode="B" /><glyph d="M183 417 159 283Q138 168 170 108.5Q202 49 285 49Q326 49 364 57Q402 65 439 81L457 26Q416 8 370 -1Q324 -10 278 -10Q166 -10 116 67.5Q66 145 91 283L115 417Q140 558 204.5 624Q269 690 381 690Q424 690 466.5 679.5Q509 669 548 649L526 591Q488 611 451.5 621Q415 631 380 631Q300 631 251.5 578Q203 525 183 417Z" glyph-name="C" horiz-adv-x="531" unicode="C" /><glyph d="M279 0 72 0L192 680H374Q489 680 545 602.5Q601 525 578 397L553 254Q532 134 460 67Q388 0 279 0ZM373 621 247 621L147 59H280Q360 59 414.5 111Q469 163 485 254L510 397Q529 503 492.5 562Q456 621 373 621Z" glyph-name="D" horiz-adv-x="637" unicode="D" /><glyph d="M147 59 452 59L442 0H72L192 680H552L541 621H246L203 374H468L458 315H193Z" glyph-name="E" horiz-adv-x="528" unicode="E" /><glyph d="M460 363 450 304H191L137 0H72L192 680H546L535 621H246L201 363Z" glyph-name="F" horiz-adv-x="507" unicode="F" /><glyph d="M549 345 495 40Q442 14 392.5 2Q343 -10 290 -10Q172 -10 120 67.5Q68 145 93 283L117 417Q142 558 209.5 624Q277 690 394 690Q445 690 492.5 679Q540 668 581 647L559 590Q520 611 479 621Q438 631 393 631Q308 631 256 578Q204 525 185 417L161 283Q140 165 174 106Q208 47 297 47Q336 47 370 54.5Q404 62 441 79L477 286H340L351 345Z" glyph-name="G" horiz-adv-x="605" unicode="G" /><glyph d="M527 0 462 0L518 315H193L137 0H72L192 680H257L203 374H528L582 680H647Z" glyph-name="H" horiz-adv-x="685" unicode="H" /><glyph d="M257 680 137 0H72L192 680Z" glyph-name="I" horiz-adv-x="295" unicode="I" /><glyph d="M-16 -5 -5 57Q85 57 124.5 91Q164 125 180 212L263 680H328L245 212Q223 89 163.5 42Q104 -5 -16 -5Z" glyph-name="J" horiz-adv-x="355" unicode="J" /><glyph d="M529 0 456 0L303 340Q280 319 251.5 295.5Q223 272 179 237L137 0H72L192 680H257L193 316Q309 412 394.5 501Q480 590 542 680H617Q557 596 493 523Q429 450 354 378Z" glyph-name="K" horiz-adv-x="583" unicode="K" /><glyph d="M147 59 441 59L431 0H72L192 680H257Z" glyph-name="L" horiz-adv-x="506" unicode="L" /><glyph d="M192 680 271 680L395 151L712 680H791L671 0H610L665 312L716 580L416 80H351L233 591L188 312L133 0H72Z" glyph-name="M" horiz-adv-x="829" unicode="M" /><glyph d="M133 0 72 0L192 680H270Q348 504 400.5 363.5Q453 223 497 77L544 388L596 680H657L537 0H459Q407 169 353.5 314.5Q300 460 239 603L184 291Z" glyph-name="N" horiz-adv-x="695" unicode="N" /><glyph d="M387 690Q504 690 560.5 610Q617 530 594 397L569 254Q547 130 476 60Q405 -10 299 -10Q181 -10 125 70Q69 150 93 284L118 427Q140 551 210.5 620.5Q281 690 387 690ZM501 254 526 397Q545 507 508 569Q471 631 386 631Q308 631 255.5 577.5Q203 524 186 427L161 284Q141 174 178 111.5Q215 49 300 49Q378 49 431 103.5Q484 158 501 254Z" glyph-name="O" horiz-adv-x="653" unicode="O" /><glyph d="M137 0 72 0L192 680H385Q479 680 525 626.5Q571 573 555 487L545 434Q529 349 474.5 304.5Q420 260 331 260H183ZM384 621 247 621L193 319H331Q391 319 428.5 348.5Q466 378 477 434L487 487Q499 550 472 585.5Q445 621 384 621Z" glyph-name="P" horiz-adv-x="559" unicode="P" /><glyph d="M502 -108 490 -173Q405 -173 359.5 -140Q314 -107 298 -36L292 -10Q178 -8 124 72Q70 152 93 284L118 427Q140 551 210.5 620.5Q281 690 387 690Q504 690 560.5 610Q617 530 594 397L569 254Q551 148 496 81Q441 14 358 -4L359 -9Q373 -68 398.5 -87Q424 -106 502 -108ZM501 254 526 397Q545 507 508 569Q471 631 386 631Q308 631 255.5 577.5Q203 524 186 427L161 284Q141 174 178 111.5Q215 49 300 49Q378 49 431 103.5Q484 158 501 254Z" glyph-name="Q" horiz-adv-x="653" unicode="Q" /><glyph d="M343 278 186 278L137 0H72L192 680H386Q474 680 521.5 627Q569 574 555 491L548 448Q538 387 501.5 345Q465 303 407 287Q439 220 464.5 148Q490 76 509 0H439Q423 65 399.5 134Q376 203 343 278ZM384 621 247 621L196 337H334Q394 337 432.5 366.5Q471 396 480 448L487 491Q497 551 469 586Q441 621 384 621Z" glyph-name="R" horiz-adv-x="597" unicode="R" /><glyph d="M207 47Q285 47 328.5 82.5Q372 118 372 182Q372 224 350 254Q328 284 281 304L210 335Q148 362 119 402Q90 442 90 501Q90 589 147 639.5Q204 690 307 690Q357 690 403.5 679Q450 668 491 647L469 590Q426 612 387 622.5Q348 633 307 633Q236 633 196.5 598.5Q157 564 157 503Q157 463 178 436.5Q199 410 245 390L316 359Q379 331 409.5 289Q440 247 440 187Q440 96 379 43Q318 -10 207 -10Q156 -10 105 1.5Q54 13 8 36L30 93Q77 70 121 58.5Q165 47 207 47Z" glyph-name="S" horiz-adv-x="499" unicode="S" /><glyph d="M283 621 79 621L90 680H563L552 621H348L239 0H174Z" glyph-name="T" horiz-adv-x="499" unicode="T" /><glyph d="M102 244 179 680H247L170 244Q154 153 187 101Q220 49 297 49Q371 49 417 98Q463 147 480 244L557 680H625L548 244Q526 119 461.5 54.5Q397 -10 295 -10Q186 -10 134 60.5Q82 131 102 244Z" glyph-name="U" horiz-adv-x="650" unicode="U" /><glyph d="M536 680 603 680L265 0H200L101 680H166L215 334L248 93L366 334Z" glyph-name="V" horiz-adv-x="550" unicode="V" /><glyph d="M183 680 194 380L201 106L471 680H536L603 103L708 380L825 680H890L623 0H556L489 584L214 0H146L120 680Z" glyph-name="W" horiz-adv-x="856" unicode="W" /><glyph d="M461 0 395 0L275 292L55 0H-19L247 353L111 680H177L293 401L503 680H577L321 341Z" glyph-name="X" horiz-adv-x="528" unicode="X" /><glyph d="M501 680 573 680L294 270L246 0H181L229 271L93 680H160L271 337Z" glyph-name="Y" horiz-adv-x="512" unicode="Y" /><glyph d="M92 59 435 59L425 0H0L8 47L443 621H119L130 680H535L527 633Z" glyph-name="Z" horiz-adv-x="508" unicode="Z" /><glyph d="M37 0 -38 0L459 680H852L841 621H546L503 374H768L758 315H493L447 59H752L742 0H372L403 175H164ZM480 611 206 233H413Z" glyph-name="AE" horiz-adv-x="828" unicode="Æ" /><glyph d="M93 283 118 426Q139 546 211 613Q283 680 392 680H894L883 621H589L545 374H810L800 315H535L489 59H794L784 0H297Q182 0 126 77.5Q70 155 93 283ZM298 59 424 59L524 621H391Q311 621 256.5 569Q202 517 186 426L161 283Q142 177 178.5 118Q215 59 298 59Z" glyph-name="OE" horiz-adv-x="870" unicode="Œ" /><glyph d="M157 59 451 59L441 0H82L132 283L34 239L46 306L144 349L202 680H267L214 381L374 452L362 385L202 314Z" glyph-name="Lslash" horiz-adv-x="516" unicode="Ł" /><glyph d="M296 -10Q253 -10 216.5 2Q180 14 153 37L104 -30H38L118 80Q95 119 88.5 171Q82 223 93 284L118 427Q140 551 211.5 620.5Q283 690 390 690Q433 690 469 678Q505 666 532 642L582 710H648L568 600Q592 562 598.5 510Q605 458 594 397L569 254Q547 130 475.5 60Q404 -10 296 -10ZM186 427 161 284Q153 241 154 205.5Q155 170 164 142L494 590Q475 610 448.5 620.5Q422 631 389 631Q310 631 256.5 577.5Q203 524 186 427ZM501 254 526 397Q533 439 532 474.5Q531 510 522 539L193 90Q212 70 238 59.5Q264 49 297 49Q376 49 430 103.5Q484 158 501 254Z" glyph-name="Oslash" horiz-adv-x="653" unicode="Ø" /><glyph d="M48 315 58 374H148L202 680H384Q499 680 555 602.5Q611 525 588 397L563 254Q542 134 470 67Q398 0 289 0H82L138 315ZM362 374 352 315H203L157 59H290Q370 59 424.5 111Q479 163 495 254L520 397Q539 503 502.5 562Q466 621 383 621H257L213 374Z" glyph-name="Eth" horiz-adv-x="647" unicode="Ð" /><glyph d="M308 135 161 135L137 0H72L192 680H257L235 555H362Q456 555 502 501.5Q548 448 532 362L522 309Q506 224 451.5 179.5Q397 135 308 135ZM361 496 225 496L171 194H308Q368 194 405.5 223.5Q443 253 454 309L464 362Q476 425 449 460.5Q422 496 361 496Z" glyph-name="Thorn" horiz-adv-x="558" unicode="Þ" /><glyph d="M539 169 536 151Q523 74 474.5 32Q426 -10 348 -10Q310 -10 270.5 0Q231 10 194 28L220 84Q255 66 286 57.5Q317 49 349 49Q401 49 430 74.5Q459 100 469 156L472 174Q480 223 463 254Q446 285 400 304L320 337L329 389L476 601Q453 615 424 623Q395 631 365 631Q300 631 260 592Q220 553 206 477L122 0H57L141 477Q159 582 217 636Q275 690 368 690Q420 690 468 672.5Q516 655 544 627L536 584L391 375L431 359Q495 334 522.5 285Q550 236 539 169Z" glyph-name="uni1E9E" horiz-adv-x="598" unicode="ẞ" /><glyph d="M467 -5 451 -5Q408 -5 385.5 20Q363 45 365 89Q326 40 283.5 15Q241 -10 195 -10Q124 -10 89.5 55.5Q55 121 69 224L76 275Q90 377 150 437Q210 497 300 497Q344 497 389 482Q434 467 482 436L428 131Q420 88 428 69Q436 50 461 50H477ZM139 275 132 224Q121 139 140 91Q159 43 205 43Q246 43 290 78Q334 113 377 180L418 409Q386 426 357.5 434Q329 442 302 442Q235 442 192 397.5Q149 353 139 275Z" glyph-name="a" horiz-adv-x="544" unicode="a" /><glyph d="M479 263 472 212Q458 106 399 48Q340 -10 246 -10Q199 -10 152.5 5Q106 20 58 51L180 740H240L179 399Q218 448 260.5 472.5Q303 497 349 497Q422 497 457.5 432Q493 367 479 263ZM339 444Q296 444 251 409Q206 374 163 307L122 78Q155 61 185 53Q215 45 244 45Q314 45 356 87.5Q398 130 409 212L416 263Q427 348 407 396Q387 444 339 444Z" glyph-name="b" horiz-adv-x="549" unicode="b" /><glyph d="M290 442Q229 442 189.5 400.5Q150 359 138 284L130 234Q115 140 143.5 92.5Q172 45 242 45Q268 45 300 51.5Q332 58 367 70L378 18Q342 4 306.5 -3Q271 -10 239 -10Q138 -10 94.5 54Q51 118 69 234L77 284Q93 383 148.5 440Q204 497 287 497Q323 497 360.5 486.5Q398 476 434 457L411 407Q373 425 343.5 433.5Q314 442 290 442Z" glyph-name="c" horiz-adv-x="452" unicode="c" /><glyph d="M414 0 357 0L373 93Q334 42 290 16Q246 -10 200 -10Q127 -10 91.5 55Q56 120 70 224L77 275Q91 381 150 439Q209 497 303 497Q336 497 369 489Q402 481 436 464L485 740H545ZM140 275 133 224Q122 139 142 91Q162 43 210 43Q253 43 298 78Q343 113 386 180L427 409Q394 426 364 434Q334 442 305 442Q235 442 193 399.5Q151 357 140 275Z" glyph-name="d" horiz-adv-x="553" unicode="d" /><glyph d="M389 70 400 18Q365 5 326 -2.5Q287 -10 250 -10Q143 -10 96.5 53.5Q50 117 69 234L77 284Q93 383 151 440Q209 497 296 497Q368 497 412.5 459.5Q457 422 457 357Q457 325 447.5 292.5Q438 260 419 226H129Q116 135 147 90Q178 45 253 45Q284 45 320 51.5Q356 58 389 70ZM294 442Q232 442 191 400.5Q150 359 138 284L137 279H378Q388 296 393 315Q398 334 398 354Q398 396 370 419Q342 442 294 442Z" glyph-name="e" horiz-adv-x="495" unicode="e" /><glyph d="M376 487 367 434H202L125 0H65L142 434H53L62 487H151L169 589Q183 669 225 709.5Q267 750 336 750Q366 750 395.5 742Q425 734 451 720L425 675Q401 686 380 691.5Q359 697 340 697Q294 697 266 670Q238 643 229 590L211 487Z" glyph-name="f" horiz-adv-x="330" unicode="f" /><glyph d="M491 436 414 0Q392 -126 338 -174.5Q284 -223 185 -223Q144 -223 107 -215Q70 -207 33 -190L51 -139Q84 -154 115.5 -161Q147 -168 183 -168Q260 -168 298 -134Q336 -100 354 0L370 88Q331 39 288.5 14.5Q246 -10 200 -10Q127 -10 91.5 55Q56 120 70 224L77 275Q91 381 150 439Q209 497 303 497Q350 497 396.5 482Q443 467 491 436ZM140 275 133 224Q122 139 142 91Q162 43 210 43Q253 43 298 78Q343 113 386 180L427 409Q394 426 364 434Q334 442 305 442Q235 442 193 399.5Q151 357 140 275Z" glyph-name="g" horiz-adv-x="550" unicode="g" /><glyph d="M362 440Q317 440 269 410Q221 380 168 319L112 0H52L182 740H242L182 397Q230 447 277 472Q324 497 372 497Q437 497 469 450.5Q501 404 488 327L430 0H370L426 316Q437 377 420.5 408.5Q404 440 362 440Z" glyph-name="h" horiz-adv-x="563" unicode="h" /><glyph d="M242 699 230 626H157L169 699ZM198 487 112 0H52L138 487Z" glyph-name="i" horiz-adv-x="252" unicode="i" /><glyph d="M241 699 229 626H156L168 699ZM-100 -223 -90 -166Q-27 -166 3 -136.5Q33 -107 45 -37L138 487H198L106 -37Q88 -138 39.5 -180.5Q-9 -223 -100 -223Z" glyph-name="j" horiz-adv-x="251" unicode="j" /><glyph d="M427 0 358 0L252 240Q242 231 213.5 209.5Q185 188 139 153L112 0H52L182 740H242L151 220Q249 298 312 360.5Q375 423 424 487H496Q452 431 405.5 381Q359 331 299 276Z" glyph-name="k" horiz-adv-x="493" unicode="k" /><glyph d="M71 110 182 740H242L132 112Q125 73 132 61.5Q139 50 168 50H184L174 -5H158Q103 -5 82 23Q61 51 71 110Z" glyph-name="l" horiz-adv-x="256" unicode="l" /><glyph d="M357 440Q314 440 267.5 410Q221 380 168 318L112 0H52L138 487H195L179 394Q227 446 273 471.5Q319 497 367 497Q415 497 445 469Q475 441 481 391Q530 445 578 471Q626 497 676 497Q739 497 769.5 450.5Q800 404 787 327L729 0H669L725 316Q736 376 720.5 408Q705 440 666 440Q623 440 576.5 410Q530 380 476 318L420 0H360L416 316Q427 376 411.5 408Q396 440 357 440Z" glyph-name="m" horiz-adv-x="862" unicode="m" /><glyph d="M362 440Q317 440 269 410Q221 380 168 319L112 0H52L138 487H195L178 393Q227 446 274.5 471.5Q322 497 372 497Q437 497 469 450.5Q501 404 488 327L430 0H370L426 316Q437 377 420.5 408.5Q404 440 362 440Z" glyph-name="n" horiz-adv-x="563" unicode="n" /><glyph d="M297 497Q397 497 445 430Q493 363 475 254L467 204Q450 99 393.5 44.5Q337 -10 244 -10Q144 -10 97 56.5Q50 123 67 234L75 284Q91 386 148.5 441.5Q206 497 297 497ZM404 204 412 254Q425 340 394.5 391Q364 442 298 442Q233 442 191.5 401Q150 360 138 284L130 234Q116 146 146 95.5Q176 45 243 45Q310 45 350.5 85Q391 125 404 204Z" glyph-name="o" horiz-adv-x="542" unicode="o" /><glyph d="M249 -10Q216 -10 183 -2Q150 6 116 23L74 -213H14L138 487H195L179 394Q218 445 262 471Q306 497 352 497Q425 497 460.5 432Q496 367 482 263L475 212Q461 106 402 48Q343 -10 249 -10ZM342 444Q299 444 254 409Q209 374 166 307L125 78Q158 61 188 53Q218 45 247 45Q317 45 359 87.5Q401 130 412 212L419 263Q430 348 410 396Q390 444 342 444Z" glyph-name="p" horiz-adv-x="552" unicode="p" /><glyph d="M303 497Q350 497 396.5 482Q443 467 491 436L376 -213H316L370 88Q331 39 288.5 14.5Q246 -10 200 -10Q127 -10 91.5 55Q56 120 70 224L77 275Q91 381 150 439Q209 497 303 497ZM140 275 133 224Q122 139 142 91Q162 43 210 43Q253 43 298 78Q343 113 386 180L427 409Q394 426 364 434Q334 442 305 442Q235 442 193 399.5Q151 357 140 275Z" glyph-name="q" horiz-adv-x="550" unicode="q" /><glyph d="M382 497 371 436Q313 436 260 403.5Q207 371 166 309L112 0H52L138 487H195L178 389Q222 442 274 469.5Q326 497 382 497Z" glyph-name="r" horiz-adv-x="354" unicode="r" /><glyph d="M162 45Q223 45 254.5 67Q286 89 286 131Q286 160 269 178.5Q252 197 209 215L165 233Q114 254 90.5 284Q67 314 67 357Q67 423 110 460Q153 497 232 497Q271 497 308.5 488Q346 479 383 461L364 410Q330 427 298.5 434.5Q267 442 232 442Q180 442 153.5 421.5Q127 401 127 362Q127 334 143 316Q159 298 194 284L239 266Q297 243 322 213Q347 183 347 138Q347 71 298.5 30.5Q250 -10 163 -10Q123 -10 84 -1.5Q45 7 5 25L24 76Q60 60 94 52.5Q128 45 162 45Z" glyph-name="s" horiz-adv-x="415" unicode="s" /><glyph d="M287 69 306 21Q273 6 243 -2Q213 -10 186 -10Q128 -10 101.5 30Q75 70 86 135L139 434H50L59 487H148L173 629H233L208 487H373L364 434H199L146 134Q138 89 150.5 66Q163 43 195 43Q215 43 238.5 49.5Q262 56 287 69Z" glyph-name="t" horiz-adv-x="370" unicode="t" /><glyph d="M415 0 358 0L374 93Q326 41 280 15.5Q234 -10 186 -10Q123 -10 92.5 36.5Q62 83 75 160L133 487H193L137 171Q126 111 141.5 79Q157 47 196 47Q239 47 285.5 77Q332 107 385 169L441 487H501Z" glyph-name="u" horiz-adv-x="553" unicode="u" /><glyph d="M409 487 472 487L214 0H157L68 487H128L168 254L196 75L288 254Z" glyph-name="v" horiz-adv-x="454" unicode="v" /><glyph d="M648 487 712 487L501 0H426L383 421L190 0H115L77 487H136L150 276L164 64L359 487H428L472 62L561 276Z" glyph-name="w" horiz-adv-x="703" unicode="w" /><glyph d="M373 0 310 0L214 205L48 0H-18L190 254L81 487H144L231 300L383 487H449L256 251Z" glyph-name="x" horiz-adv-x="443" unicode="x" /><glyph d="M215 0 188 -50Q134 -150 85.5 -186.5Q37 -223 -39 -223L-29 -166Q28 -166 61 -137Q94 -108 138 -30L156 3L68 487H128L168 254L197 73L288 254L409 487H473Z" glyph-name="y" horiz-adv-x="455" unicode="y" /><glyph d="M74 53 333 53L324 0H-8L0 48L318 434H79L88 487H400L391 439Z" glyph-name="z" horiz-adv-x="399" unicode="z" /><glyph d="M657 70 668 18Q632 4 593.5 -3Q555 -10 518 -10Q450 -10 406.5 15.5Q363 41 345 92Q302 41 251.5 15.5Q201 -10 145 -10Q87 -10 56.5 22.5Q26 55 26 116Q26 190 70.5 229.5Q115 269 200 269Q226 269 262.5 265.5Q299 262 340 255L345 282V284Q346 287 347 292.5Q348 298 348 301L353 328Q363 384 336 413Q309 442 249 442Q220 442 187.5 437.5Q155 433 117 423L105 472Q149 485 185 491Q221 497 253 497Q307 497 345.5 477Q384 457 402 421Q432 458 473.5 477.5Q515 497 564 497Q636 497 680.5 459.5Q725 422 725 357Q725 325 715.5 292.5Q706 260 687 226H397Q383 136 414.5 90.5Q446 45 521 45Q552 45 587.5 51.5Q623 58 657 70ZM562 442Q500 442 459 400.5Q418 359 406 284L405 279H646Q656 296 661 315Q666 334 666 354Q666 396 638 419Q610 442 562 442ZM202 216Q145 216 117.5 192.5Q90 169 90 119Q90 81 106.5 62Q123 43 156 43Q202 43 248.5 71Q295 99 333 152Q332 160 332 170.5Q332 181 333 203Q300 209 263.5 212.5Q227 216 202 216Z" glyph-name="ae" horiz-adv-x="763" unicode="æ" /><glyph d="M731 70 742 18Q706 4 667.5 -3Q629 -10 592 -10Q526 -10 483.5 16.5Q441 43 425 95Q397 43 351.5 16.5Q306 -10 244 -10Q144 -10 97 56.5Q50 123 67 234L75 284Q91 386 148.5 441.5Q206 497 297 497Q358 497 400 468.5Q442 440 460 386Q488 439 534 468Q580 497 638 497Q710 497 754.5 459.5Q799 422 799 357Q799 325 789.5 292.5Q780 260 761 226H471Q457 136 488.5 90.5Q520 45 595 45Q626 45 661.5 51.5Q697 58 731 70ZM404 204 412 254Q425 340 394.5 391Q364 442 298 442Q233 442 191.5 401Q150 360 138 284L130 234Q116 146 146 95.5Q176 45 243 45Q310 45 350.5 85Q391 125 404 204ZM636 442Q574 442 533 400.5Q492 359 480 284L479 279H720Q730 296 735 315Q740 334 740 354Q740 396 712 419Q684 442 636 442Z" glyph-name="oe" horiz-adv-x="837" unicode="œ" /><glyph d="M183 50 199 50L189 -5H173Q118 -5 97 23Q76 51 86 110L123 317L24 263L35 326L134 380L197 740H257L200 417L299 472L288 409L189 354L147 112Q140 73 147 61.5Q154 50 183 50Z" glyph-name="lslash" horiz-adv-x="285" unicode="ł" /><glyph d="M244 -10Q209 -10 179.5 -1.5Q150 7 128 24L85 -30H21L94 61Q72 94 65.5 138Q59 182 67 234L75 284Q91 386 148.5 441.5Q206 497 297 497Q332 497 361 488Q390 479 413 462L457 517H521L448 425Q470 392 476.5 348.5Q483 305 475 254L467 204Q450 99 393.5 44.5Q337 -10 244 -10ZM138 284 130 234Q125 198 126.5 168.5Q128 139 137 115L376 415Q360 429 340.5 435.5Q321 442 298 442Q233 442 191.5 401Q150 360 138 284ZM404 204 412 254Q417 288 415.5 317.5Q414 347 405 371L166 71Q180 58 199.5 51.5Q219 45 243 45Q310 45 350.5 85Q391 125 404 204Z" glyph-name="oslash" horiz-adv-x="542" unicode="ø" /><glyph d="M482 284 475 244Q452 116 392 53Q332 -10 232 -10Q133 -10 86.5 51.5Q40 113 58 217L65 257Q80 344 136 395.5Q192 447 271 447Q325 447 364.5 421.5Q404 396 427 346Q432 413 414.5 471.5Q397 530 358 583L216 491L228 559L325 622Q302 645 278 665.5Q254 686 227 704L260 750Q294 728 322.5 704Q351 680 375 654L522 750L510 682L408 615Q461 544 479.5 461.5Q498 379 482 284ZM127 246 120 206Q107 132 137 88.5Q167 45 232 45Q305 45 350 96Q395 147 413 251L417 273Q392 332 355 362Q318 392 271 392Q216 392 177.5 353Q139 314 127 246Z" glyph-name="eth" horiz-adv-x="541" unicode="ð" /><glyph d="M249 -10Q216 -10 183 -2Q150 6 116 23L74 -213H14L182 740H242L182 398Q221 447 264 472Q307 497 352 497Q425 497 460.5 432Q496 367 482 263L475 212Q461 106 402 48Q343 -10 249 -10ZM342 444Q299 444 254 408.5Q209 373 166 306L125 78Q158 61 188 53Q218 45 247 45Q317 45 359 87.5Q401 130 412 212L419 263Q430 348 410 396Q390 444 342 444Z" glyph-name="thorn" horiz-adv-x="552" unicode="þ" /><glyph d="M545 148Q545 75 499.5 32.5Q454 -10 371 -10Q334 -10 299.5 -1.5Q265 7 229 25L251 77Q283 60 311 52.5Q339 45 369 45Q424 45 453.5 70.5Q483 96 483 143Q483 167 473.5 185.5Q464 204 443 220L393 258Q365 279 351 307Q337 335 337 369Q337 399 349.5 429Q362 459 400 511Q434 556 444 579Q454 602 454 624Q454 658 428.5 677.5Q403 697 359 697Q301 697 269.5 667.5Q238 638 227 576L125 0H65L141 434H53L62 487H151L166 575Q182 664 229.5 707Q277 750 359 750Q431 750 473.5 716.5Q516 683 516 625Q516 595 504 566Q492 537 454 487Q420 442 409.5 418.5Q399 395 399 372Q399 352 407 336.5Q415 321 433 307L483 269Q515 244 530 215.5Q545 187 545 148Z" glyph-name="germandbls" horiz-adv-x="597" unicode="ß" /><glyph d="M198 487 112 0H52L138 487Z" glyph-name="dotlessi" horiz-adv-x="250" unicode="ı" /><glyph d="M-100 -223 -90 -166Q-27 -166 3 -136.5Q33 -107 45 -37L138 487H198L106 -37Q88 -138 39.5 -180.5Q-9 -223 -100 -223Z" glyph-name="dotlessj" horiz-adv-x="251" unicode="ȷ" /><glyph d="M377 697Q313 697 275 667.5Q237 638 227 580L211 487H518L432 0H372L449 434H201L125 0H65L141 434H53L62 487H151L167 579Q182 666 234 708Q286 750 377 750Q420 750 462.5 741Q505 732 545 714L524 666Q488 681 450 689Q412 697 377 697Z" glyph-name="fi" horiz-adv-x="570" unicode="ﬁ" /><glyph d="M432 0 372 0L448 434H201L125 0H65L141 434H53L62 487H151L167 579Q181 659 222 699.5Q263 740 330 740Q360 740 389.5 732Q419 724 445 710L423 665Q399 676 378 681.5Q357 687 338 687Q292 687 264 660Q236 633 227 580L211 487H458L474 579Q489 666 541 708Q593 750 684 750Q727 750 769.5 741Q812 732 852 714L831 666Q795 681 757 689Q719 697 684 697Q620 697 582 667.5Q544 638 534 580L518 487H825L739 0H679L756 434H508Z" glyph-name="ffi" horiz-adv-x="877" unicode="ﬃ" /><glyph d="M490 50 506 50L496 -5H480Q425 -5 404 23Q383 51 393 110L493 678Q464 687 434 692Q404 697 377 697Q313 697 275 667.5Q237 638 227 580L211 487H366L357 434H201L125 0H65L141 434H53L62 487H151L167 579Q182 666 234 708Q286 750 377 750Q422 750 468.5 739.5Q515 729 559 709L454 112Q447 72 454.5 61Q462 50 490 50Z" glyph-name="fl" horiz-adv-x="578" unicode="ﬂ" /><glyph d="M338 687Q292 687 264 660Q236 633 227 580L211 487H458L474 579Q489 666 541 708Q593 750 684 750Q729 750 775.5 739.5Q822 729 866 709L761 112Q754 72 761.5 61Q769 50 797 50H813L803 -5H787Q732 -5 711 23Q690 51 700 110L800 678Q771 687 741 692Q711 697 684 697Q620 697 582 667.5Q544 638 534 580L518 487H683L674 434H508L432 0H372L448 434H201L125 0H65L141 434H53L62 487H151L167 579Q181 659 222 699.5Q263 740 330 740Q360 740 389.5 732Q419 724 445 710L423 665Q399 676 378 681.5Q357 687 338 687Z" glyph-name="ffl" horiz-adv-x="885" unicode="ﬄ" /><glyph d="M498 -10Q440 -10 413.5 30Q387 70 398 135L451 434H201L125 0H65L141 434H53L62 487H151L167 579Q182 666 234 708Q286 750 377 750Q422 750 468.5 739.5Q515 729 559 709L520 487H685L676 434H511L458 134Q450 89 462.5 66Q475 43 507 43Q527 43 550.5 49.5Q574 56 599 69L618 21Q585 6 555 -2Q525 -10 498 -10ZM377 697Q313 697 275 667.5Q237 638 227 580L211 487H460L493 678Q464 687 434 692Q404 697 377 697Z" glyph-name="ft" horiz-adv-x="682" unicode="" /><glyph d="M338 687Q292 687 264 660Q236 633 227 580L211 487H458L474 579Q489 666 541 708Q593 750 684 750Q729 750 775.5 739.5Q822 729 866 709L827 487H992L983 434H818L765 134Q757 89 769.5 66Q782 43 814 43Q834 43 857.5 49.5Q881 56 906 69L925 21Q892 6 862 -2Q832 -10 805 -10Q747 -10 720.5 30Q694 70 705 135L758 434H508L432 0H372L448 434H201L125 0H65L141 434H53L62 487H151L167 579Q181 659 222 699.5Q263 740 330 740Q360 740 389.5 732Q419 724 445 710L423 665Q399 676 378 681.5Q357 687 338 687ZM684 697Q620 697 582 667.5Q544 638 534 580L518 487H767L800 678Q771 687 741 692Q711 697 684 697Z" glyph-name="fft" horiz-adv-x="989" unicode="" /><glyph d="M803 263 796 212Q782 106 723 48Q664 -10 570 -10Q523 -10 476.5 5Q430 20 382 51L493 678Q464 687 434 692Q404 697 377 697Q313 697 275 667.5Q237 638 227 580L211 487H366L357 434H201L125 0H65L141 434H53L62 487H151L167 579Q182 666 234 708Q286 750 377 750Q422 750 468.5 739.5Q515 729 559 709L504 399Q542 448 584.5 472.5Q627 497 673 497Q746 497 781.5 432Q817 367 803 263ZM663 444Q620 444 575 409Q530 374 487 308L446 78Q479 61 509 53Q539 45 568 45Q638 45 680 87.5Q722 130 733 212L740 263Q751 348 731 396Q711 444 663 444Z" glyph-name="fb" horiz-adv-x="873" unicode="" /><glyph d="M338 687Q292 687 264 660Q236 633 227 580L211 487H458L474 579Q489 666 541 708Q593 750 684 750Q729 750 775.5 739.5Q822 729 866 709L811 399Q849 448 891.5 472.5Q934 497 980 497Q1053 497 1088.5 432Q1124 367 1110 263L1103 212Q1089 106 1030 48Q971 -10 877 -10Q830 -10 783.5 5Q737 20 689 51L800 678Q771 687 741 692Q711 697 684 697Q620 697 582 667.5Q544 638 534 580L518 487H683L674 434H508L432 0H372L448 434H201L125 0H65L141 434H53L62 487H151L167 579Q181 659 222 699.5Q263 740 330 740Q360 740 389.5 732Q419 724 445 710L423 665Q399 676 378 681.5Q357 687 338 687ZM970 444Q927 444 882 409Q837 374 794 308L753 78Q786 61 816 53Q846 45 875 45Q945 45 987 87.5Q1029 130 1040 212L1047 263Q1058 348 1038 396Q1018 444 970 444Z" glyph-name="ffb" horiz-adv-x="1180" unicode="" /><glyph d="M432 0 372 0L449 434H201L125 0H65L141 434H53L62 487H151L167 579Q181 659 222 699.5Q263 740 330 740Q360 740 389.5 732Q419 724 445 710L423 665Q399 676 378 681.5Q357 687 338 687Q292 687 264 660Q236 633 227 580L211 487H458L476 589Q490 669 532 709.5Q574 750 643 750Q673 750 702.5 742Q732 734 758 720L732 675Q708 686 687 691.5Q666 697 647 697Q601 697 573 670Q545 643 536 590L518 487H683L674 434H509Z" glyph-name="ff" horiz-adv-x="637" unicode="ﬀ" /><glyph d="M432 0 372 0L449 434H201L125 0H65L141 434H53L62 487H151L167 579Q181 659 222 699.5Q263 740 330 740Q360 740 389.5 732Q419 724 445 710L423 665Q399 676 378 681.5Q357 687 338 687Q292 687 264 660Q236 633 227 580L211 487H458L476 589Q490 669 531 709.5Q572 750 639 750Q669 750 698.5 742Q728 734 754 720L732 675Q708 686 687 691.5Q666 697 647 697Q601 697 573 670Q545 643 536 590L518 487H765L783 589Q797 669 839 709.5Q881 750 950 750Q980 750 1009.5 742Q1039 734 1065 720L1039 675Q1015 686 994 691.5Q973 697 954 697Q908 697 880 670Q852 643 843 590L825 487H990L981 434H816L739 0H679L756 434H509Z" glyph-name="fff" horiz-adv-x="944" unicode="" /><glyph d="M366 487 357 434H201L125 0H65L141 434H53L62 487H151L167 579Q182 666 234 708Q286 750 377 750Q422 750 468.5 739.5Q515 729 559 709L504 397Q552 447 599 472Q646 497 694 497Q759 497 791 450.5Q823 404 810 327L752 0H692L748 316Q759 377 742.5 408.5Q726 440 684 440Q639 440 591 410Q543 380 490 319L434 0H374L493 678Q464 687 434 692Q404 697 377 697Q313 697 275 667.5Q237 638 227 580L211 487Z" glyph-name="fh" horiz-adv-x="885" unicode="" /><glyph d="M432 0 372 0L448 434H201L125 0H65L141 434H53L62 487H151L167 579Q181 659 222 699.5Q263 740 330 740Q360 740 389.5 732Q419 724 445 710L423 665Q399 676 378 681.5Q357 687 338 687Q292 687 264 660Q236 633 227 580L211 487H458L474 579Q489 666 541 708Q593 750 684 750Q729 750 775.5 739.5Q822 729 866 709L811 397Q859 447 906 472Q953 497 1001 497Q1066 497 1098 450.5Q1130 404 1117 327L1059 0H999L1055 316Q1066 377 1049.5 408.5Q1033 440 991 440Q946 440 898 410Q850 380 797 319L741 0H681L800 678Q771 687 741 692Q711 697 684 697Q620 697 582 667.5Q544 638 534 580L518 487H683L674 434H508Z" glyph-name="ffh" horiz-adv-x="1192" unicode="" /><glyph d="M377 697Q313 697 275 667.5Q237 638 227 580L211 487H518L426 -37Q408 -138 359.5 -180.5Q311 -223 220 -223L230 -166Q293 -166 323 -136.5Q353 -107 365 -37L449 434H201L125 0H65L141 434H53L62 487H151L167 579Q182 666 234 708Q286 750 377 750Q420 750 462.5 741Q505 732 545 714L524 666Q488 681 450 689Q412 697 377 697Z" glyph-name="fj" horiz-adv-x="571" unicode="" /><glyph d="M684 697Q620 697 582 667.5Q544 638 534 580L518 487H825L733 -37Q715 -138 666.5 -180.5Q618 -223 527 -223L537 -166Q600 -166 630 -136.5Q660 -107 672 -37L756 434H508L432 0H372L448 434H201L125 0H65L141 434H53L62 487H151L167 579Q181 659 222 699.5Q263 740 330 740Q360 740 389.5 732Q419 724 445 710L423 665Q399 676 378 681.5Q357 687 338 687Q292 687 264 660Q236 633 227 580L211 487H458L474 579Q489 666 541 708Q593 750 684 750Q727 750 769.5 741Q812 732 852 714L831 666Q795 681 757 689Q719 697 684 697Z" glyph-name="ffj" horiz-adv-x="878" unicode="" /><glyph d="M366 487 357 434H201L125 0H65L141 434H53L62 487H151L167 579Q182 666 234 708Q286 750 377 750Q422 750 468.5 739.5Q515 729 559 709L473 220Q571 298 634 360.5Q697 423 746 487H818Q774 431 727.5 381Q681 331 621 276L749 0H680L574 240Q559 228 541.5 214Q524 200 461 153L434 0H374L493 678Q464 687 434 692Q404 697 377 697Q313 697 275 667.5Q237 638 227 580L211 487Z" glyph-name="fk" horiz-adv-x="815" unicode="" /><glyph d="M432 0 372 0L448 434H201L125 0H65L141 434H53L62 487H151L167 579Q181 659 222 699.5Q263 740 330 740Q360 740 389.5 732Q419 724 445 710L423 665Q399 676 378 681.5Q357 687 338 687Q292 687 264 660Q236 633 227 580L211 487H458L474 579Q489 666 541 708Q593 750 684 750Q729 750 775.5 739.5Q822 729 866 709L780 220Q878 298 941 360.5Q1004 423 1053 487H1125Q1081 431 1034.5 381Q988 331 928 276L1056 0H987L881 240Q866 228 848.5 214Q831 200 768 153L741 0H681L800 678Q771 687 741 692Q711 697 684 697Q620 697 582 667.5Q544 638 534 580L518 487H683L674 434H508Z" glyph-name="ffk" horiz-adv-x="1122" unicode="" /><glyph d="M497 0 432 0L405 175H134L46 0H-21L325 680H390ZM343 593 229 363L163 233H397L377 363ZM518 909 400 772H345L460 938Z" glyph-name="Aacute" horiz-adv-x="562" unicode="Á" /><glyph d="M497 0 432 0L405 175H134L46 0H-21L325 680H390ZM343 593 229 363L163 233H397L377 363ZM494 772 445 772L392 878L302 772H249L368 933H431Z" glyph-name="Acircumflex" horiz-adv-x="562" unicode="Â" /><glyph d="M497 0 432 0L405 175H134L46 0H-21L325 680H390ZM343 593 229 363L163 233H397L377 363ZM333 891 321 820H250L262 891ZM522 891 510 820H439L451 891Z" glyph-name="Adieresis" horiz-adv-x="562" unicode="Ä" /><glyph d="M497 0 432 0L405 175H134L46 0H-21L325 680H390ZM343 593 229 363L163 233H397L377 363ZM396 772 348 772L278 909L339 938Z" glyph-name="Agrave" horiz-adv-x="562" unicode="À" /><glyph d="M405 175 134 175L46 0H-21L306 643Q280 657 267.5 682.5Q255 708 259 740L261 754Q267 798 299 825Q331 852 379 852Q430 852 458 822Q486 792 479 746L477 732Q473 697 451.5 672Q430 647 397 637L497 0H432ZM426 736 428 750Q431 774 417 789.5Q403 805 377 805Q351 805 333.5 790Q316 775 312 749L310 735Q306 710 320 695Q334 680 361 680Q387 680 404.5 695Q422 710 426 736ZM343 593 229 363L163 233H397L377 363Z" glyph-name="Aring" horiz-adv-x="562" unicode="Å" /><glyph d="M497 0 432 0L405 175H134L46 0H-21L325 680H390ZM343 593 229 363L163 233H397L377 363ZM443 781Q420 781 402.5 792Q385 803 365 837Q353 859 345.5 865Q338 871 329 871Q314 871 303 852.5Q292 834 285 796H234Q246 861 269 892Q292 923 329 923Q352 923 369.5 912Q387 901 407 867Q420 846 427.5 839.5Q435 833 444 833Q459 833 469.5 851.5Q480 870 487 908H538Q526 843 503.5 812Q481 781 443 781Z" glyph-name="Atilde" horiz-adv-x="562" unicode="Ã" /><glyph d="M497 0 432 0L405 175H134L46 0H-21L325 680H390ZM343 593 229 363L163 233H397L377 363ZM380 829Q417 829 439.5 852Q462 875 475 924H528Q512 851 474.5 814.5Q437 778 378 778Q317 778 289.5 815Q262 852 270 924H319Q315 875 329.5 852Q344 829 380 829Z" glyph-name="Abreve" horiz-adv-x="562" unicode="Ă" /><glyph d="M497 0 432 0L405 175H134L46 0H-21L325 680H390ZM343 593 229 363L163 233H397L377 363ZM248 852 522 852L513 802H239Z" glyph-name="Amacron" horiz-adv-x="562" unicode="Ā" /><glyph d="M455 -157 466 -206Q444 -215 424.5 -219Q405 -223 386 -223Q344 -223 321.5 -204Q299 -185 299 -150Q299 -112 329.5 -74.5Q360 -37 430 11L405 175H134L46 0H-21L325 680H390L497 0Q422 -50 390.5 -81Q359 -112 359 -138Q359 -154 368.5 -162Q378 -170 396 -170Q408 -170 423 -166.5Q438 -163 455 -157ZM343 593 229 363L163 233H397L377 363Z" glyph-name="Aogonek" horiz-adv-x="562" unicode="Ą" /><glyph d="M349 -132Q349 -174 319.5 -198.5Q290 -223 238 -223Q218 -223 199 -219.5Q180 -216 161 -208L173 -162Q187 -168 203 -171Q219 -174 234 -174Q263 -174 279 -163.5Q295 -153 295 -135Q295 -119 283.5 -111.5Q272 -104 248 -104Q244 -104 239.5 -104.5Q235 -105 225 -106L210 -64L231 -6Q143 10 106 85.5Q69 161 91 283L115 417Q140 558 204.5 624Q269 690 381 690Q424 690 466.5 679.5Q509 669 548 649L526 591Q488 611 451.5 621Q415 631 380 631Q300 631 251.5 578Q203 525 183 417L159 283Q138 168 170 108.5Q202 49 285 49Q326 49 364 57Q402 65 439 81L457 26Q416 8 370 -1Q324 -10 277 -10L259 -58H263Q304 -58 326.5 -77Q349 -96 349 -132Z" glyph-name="Ccedilla" horiz-adv-x="531" unicode="Ç" /><glyph d="M183 417 159 283Q138 168 170 108.5Q202 49 285 49Q326 49 364 57Q402 65 439 81L457 26Q416 8 370 -1Q324 -10 278 -10Q166 -10 116 67.5Q66 145 91 283L115 417Q140 558 204.5 624Q269 690 381 690Q424 690 466.5 679.5Q509 669 548 649L526 591Q488 611 451.5 621Q415 631 380 631Q300 631 251.5 578Q203 525 183 417ZM553 909 435 772H380L495 938Z" glyph-name="Cacute" horiz-adv-x="531" unicode="Ć" /><glyph d="M183 417 159 283Q138 168 170 108.5Q202 49 285 49Q326 49 364 57Q402 65 439 81L457 26Q416 8 370 -1Q324 -10 278 -10Q166 -10 116 67.5Q66 145 91 283L115 417Q140 558 204.5 624Q269 690 381 690Q424 690 466.5 679.5Q509 669 548 649L526 591Q488 611 451.5 621Q415 631 380 631Q300 631 251.5 578Q203 525 183 417ZM505 933 558 933L439 772H376L313 933H362L415 827Z" glyph-name="Ccaron" horiz-adv-x="531" unicode="Č" /><glyph d="M183 417 159 283Q138 168 170 108.5Q202 49 285 49Q326 49 364 57Q402 65 439 81L457 26Q416 8 370 -1Q324 -10 278 -10Q166 -10 116 67.5Q66 145 91 283L115 417Q140 558 204.5 624Q269 690 381 690Q424 690 466.5 679.5Q509 669 548 649L526 591Q488 611 451.5 621Q415 631 380 631Q300 631 251.5 578Q203 525 183 417ZM530 772 481 772L428 878L338 772H285L404 933H467Z" glyph-name="Ccircumflex" horiz-adv-x="531" unicode="Ĉ" /><glyph d="M183 417 159 283Q138 168 170 108.5Q202 49 285 49Q326 49 364 57Q402 65 439 81L457 26Q416 8 370 -1Q324 -10 278 -10Q166 -10 116 67.5Q66 145 91 283L115 417Q140 558 204.5 624Q269 690 381 690Q424 690 466.5 679.5Q509 669 548 649L526 591Q488 611 451.5 621Q415 631 380 631Q300 631 251.5 578Q203 525 183 417ZM464 892 452 819H379L391 892Z" glyph-name="Cdotaccent" horiz-adv-x="531" unicode="Ċ" /><glyph d="M279 0 72 0L192 680H374Q489 680 545 602.5Q601 525 578 397L553 254Q532 134 460 67Q388 0 279 0ZM373 621 247 621L147 59H280Q360 59 414.5 111Q469 163 485 254L510 397Q529 503 492.5 562Q456 621 373 621ZM497 933 550 933L431 772H368L305 933H354L407 827Z" glyph-name="Dcaron" horiz-adv-x="637" unicode="Ď" /><glyph d="M48 315 58 374H148L202 680H384Q499 680 555 602.5Q611 525 588 397L563 254Q542 134 470 67Q398 0 289 0H82L138 315ZM362 374 352 315H203L157 59H290Q370 59 424.5 111Q479 163 495 254L520 397Q539 503 502.5 562Q466 621 383 621H257L213 374Z" glyph-name="Dcroat" horiz-adv-x="647" unicode="Đ" /><glyph d="M147 59 452 59L442 0H72L192 680H552L541 621H246L203 374H468L458 315H193ZM531 909 413 772H358L473 938Z" glyph-name="Eacute" horiz-adv-x="528" unicode="É" /><glyph d="M147 59 452 59L442 0H72L192 680H552L541 621H246L203 374H468L458 315H193ZM508 772 459 772L406 878L316 772H263L382 933H445Z" glyph-name="Ecircumflex" horiz-adv-x="528" unicode="Ê" /><glyph d="M147 59 452 59L442 0H72L192 680H552L541 621H246L203 374H468L458 315H193ZM347 891 335 820H264L276 891ZM536 891 524 820H453L465 891Z" glyph-name="Edieresis" horiz-adv-x="528" unicode="Ë" /><glyph d="M147 59 452 59L442 0H72L192 680H552L541 621H246L203 374H468L458 315H193ZM409 772 361 772L291 909L352 938Z" glyph-name="Egrave" horiz-adv-x="528" unicode="È" /><glyph d="M147 59 452 59L442 0H72L192 680H552L541 621H246L203 374H468L458 315H193ZM393 829Q430 829 452.5 852Q475 875 488 924H541Q525 851 487.5 814.5Q450 778 391 778Q330 778 302.5 815Q275 852 283 924H332Q328 875 342.5 852Q357 829 393 829Z" glyph-name="Ebreve" horiz-adv-x="528" unicode="Ĕ" /><glyph d="M147 59 452 59L442 0H72L192 680H552L541 621H246L203 374H468L458 315H193ZM483 933 536 933L417 772H354L291 933H340L393 827Z" glyph-name="Ecaron" horiz-adv-x="528" unicode="Ě" /><glyph d="M147 59 452 59L442 0H72L192 680H552L541 621H246L203 374H468L458 315H193ZM442 892 430 819H357L369 892Z" glyph-name="Edotaccent" horiz-adv-x="528" unicode="Ė" /><glyph d="M147 59 452 59L442 0H72L192 680H552L541 621H246L203 374H468L458 315H193ZM262 852 536 852L527 802H253Z" glyph-name="Emacron" horiz-adv-x="528" unicode="Ē" /><glyph d="M400 -157 411 -206Q389 -215 369.5 -219Q350 -223 331 -223Q289 -223 266.5 -204Q244 -185 244 -150Q244 -114 272 -79Q300 -44 362 0H72L192 680H552L541 621H246L203 374H468L458 315H193L147 59H452L442 0Q367 -50 335.5 -81Q304 -112 304 -138Q304 -154 313.5 -162Q323 -170 341 -170Q353 -170 368 -166.5Q383 -163 400 -157Z" glyph-name="Eogonek" horiz-adv-x="528" unicode="Ę" /><glyph d="M549 345 495 40Q442 14 392.5 2Q343 -10 290 -10Q172 -10 120 67.5Q68 145 93 283L117 417Q142 558 209.5 624Q277 690 394 690Q445 690 492.5 679Q540 668 581 647L559 590Q520 611 479 621Q438 631 393 631Q308 631 256 578Q204 525 185 417L161 283Q140 165 174 106Q208 47 297 47Q336 47 370 54.5Q404 62 441 79L477 286H340L351 345ZM429 829Q466 829 488.5 852Q511 875 524 924H577Q561 851 523.5 814.5Q486 778 427 778Q366 778 338.5 815Q311 852 319 924H368Q364 875 378.5 852Q393 829 429 829Z" glyph-name="Gbreve" horiz-adv-x="605" unicode="Ğ" /><glyph d="M549 345 495 40Q442 14 392.5 2Q343 -10 290 -10Q172 -10 120 67.5Q68 145 93 283L117 417Q142 558 209.5 624Q277 690 394 690Q445 690 492.5 679Q540 668 581 647L559 590Q520 611 479 621Q438 631 393 631Q308 631 256 578Q204 525 185 417L161 283Q140 165 174 106Q208 47 297 47Q336 47 370 54.5Q404 62 441 79L477 286H340L351 345ZM544 772 495 772L442 878L352 772H299L418 933H481Z" glyph-name="Gcircumflex" horiz-adv-x="605" unicode="Ĝ" /><glyph d="M549 345 495 40Q442 14 392.5 2Q343 -10 290 -10Q172 -10 120 67.5Q68 145 93 283L117 417Q142 558 209.5 624Q277 690 394 690Q445 690 492.5 679Q540 668 581 647L559 590Q520 611 479 621Q438 631 393 631Q308 631 256 578Q204 525 185 417L161 283Q140 165 174 106Q208 47 297 47Q336 47 370 54.5Q404 62 441 79L477 286H340L351 345ZM307 -77 210 -243L173 -232L234 -77Z" glyph-name="Gcommaaccent" horiz-adv-x="605" unicode="Ģ" /><glyph d="M549 345 495 40Q442 14 392.5 2Q343 -10 290 -10Q172 -10 120 67.5Q68 145 93 283L117 417Q142 558 209.5 624Q277 690 394 690Q445 690 492.5 679Q540 668 581 647L559 590Q520 611 479 621Q438 631 393 631Q308 631 256 578Q204 525 185 417L161 283Q140 165 174 106Q208 47 297 47Q336 47 370 54.5Q404 62 441 79L477 286H340L351 345ZM478 892 466 819H393L405 892Z" glyph-name="Gdotaccent" horiz-adv-x="605" unicode="Ġ" /><glyph d="M528 315 203 315L147 0H82L171 507H81L91 560H181L202 680H267L246 560H571L592 680H657L636 560H726L716 507H626L537 0H472ZM236 507 213 374H538L561 507Z" glyph-name="Hbar" horiz-adv-x="705" unicode="Ħ" /><glyph d="M527 0 462 0L518 315H193L137 0H72L192 680H257L203 374H528L582 680H647ZM556 772 507 772L454 878L364 772H311L430 933H493Z" glyph-name="Hcircumflex" horiz-adv-x="685" unicode="Ĥ" /><glyph d="M257 680 137 0H72L192 680ZM385 909 267 772H212L327 938Z" glyph-name="Iacute" horiz-adv-x="295" unicode="Í" /><glyph d="M257 680 137 0H72L192 680ZM361 772 312 772L259 878L169 772H116L235 933H298Z" glyph-name="Icircumflex" horiz-adv-x="295" unicode="Î" /><glyph d="M257 680 137 0H72L192 680ZM200 891 188 820H117L129 891ZM389 891 377 820H306L318 891Z" glyph-name="Idieresis" horiz-adv-x="295" unicode="Ï" /><glyph d="M257 680 137 0H72L192 680ZM263 772 215 772L145 909L206 938Z" glyph-name="Igrave" horiz-adv-x="295" unicode="Ì" /><glyph d="M257 680 137 0H72L192 680ZM247 829Q284 829 306.5 852Q329 875 342 924H395Q379 851 341.5 814.5Q304 778 245 778Q184 778 156.5 815Q129 852 137 924H186Q182 875 196.5 852Q211 829 247 829Z" glyph-name="Ibreve" horiz-adv-x="295" unicode="Ĭ" /><glyph d="M257 680 137 0H72L192 680ZM295 892 283 819H210L222 892Z" glyph-name="Idotaccent" horiz-adv-x="295" unicode="İ" /><glyph d="M257 680 137 0H72L192 680ZM115 852 389 852L380 802H106Z" glyph-name="Imacron" horiz-adv-x="295" unicode="Ī" /><glyph d="M124 -157 135 -206Q113 -215 93.5 -219Q74 -223 55 -223Q13 -223 -9.5 -204.5Q-32 -186 -32 -153Q-32 -119 -6.5 -81Q19 -43 73 4L192 680H257L137 0Q79 -51 53.5 -84Q28 -117 28 -141Q28 -155 37.5 -162.5Q47 -170 65 -170Q77 -170 92 -166.5Q107 -163 124 -157Z" glyph-name="Iogonek" horiz-adv-x="295" unicode="Į" /><glyph d="M257 680 137 0H72L192 680ZM310 781Q287 781 269.5 792Q252 803 232 837Q220 859 212.5 865Q205 871 196 871Q181 871 170 852.5Q159 834 152 796H101Q113 861 136 892Q159 923 196 923Q219 923 236.5 912Q254 901 274 867Q287 846 294.5 839.5Q302 833 311 833Q326 833 336.5 851.5Q347 870 354 908H405Q393 843 370.5 812Q348 781 310 781Z" glyph-name="Itilde" horiz-adv-x="295" unicode="Ĩ" /><glyph d="M-16 -5 -5 57Q85 57 124.5 91Q164 125 180 212L263 680H328L245 212Q223 89 163.5 42Q104 -5 -16 -5ZM431 772 382 772L329 878L239 772H186L305 933H368Z" glyph-name="Jcircumflex" horiz-adv-x="355" unicode="Ĵ" /><glyph d="M257 680 137 0H72L192 680ZM279 -5 290 57Q380 57 419.5 91Q459 125 475 212L558 680H623L540 212Q518 89 458.5 42Q399 -5 279 -5Z" glyph-name="IJ" horiz-adv-x="650" unicode="Ĳ" /><glyph d="M529 0 456 0L303 340Q280 319 251.5 295.5Q223 272 179 237L137 0H72L192 680H257L193 316Q309 412 394.5 501Q480 590 542 680H617Q557 596 493 523Q429 450 354 378ZM299 -77 202 -243L165 -232L226 -77Z" glyph-name="Kcommaaccent" horiz-adv-x="583" unicode="Ķ" /><glyph d="M623 519 720 685L757 674L696 519ZM529 0 456 0L303 340Q280 319 251.5 295.5Q223 272 179 237L137 0H72L192 680H257L193 316Q309 412 394.5 501Q480 590 542 680H617Q557 596 493 523Q429 450 354 378Z" glyph-name="kgreenlandic.case" horiz-adv-x="587" unicode="" /><glyph d="M147 59 441 59L431 0H72L192 680H257ZM392 909 274 772H219L334 938Z" glyph-name="Lacute" horiz-adv-x="506" unicode="Ĺ" /><glyph d="M147 59 441 59L431 0H72L192 680H257ZM413 680 355 487H315L349 680Z" glyph-name="Lcaron" horiz-adv-x="506" unicode="Ľ" /><glyph d="M147 59 441 59L431 0H72L192 680H257ZM284 -77 187 -243L150 -232L211 -77Z" glyph-name="Lcommaaccent" horiz-adv-x="506" unicode="Ļ" /><glyph d="M147 59 441 59L431 0H72L192 680H257ZM467 421 455 348H382L394 421Z" glyph-name="Ldot" horiz-adv-x="506" unicode="Ŀ" /><glyph d="M133 0 72 0L192 680H270Q348 504 400.5 363.5Q453 223 497 77L544 388L596 680H657L537 0H459Q407 169 353.5 314.5Q300 460 239 603L184 291ZM510 781Q487 781 469.5 792Q452 803 432 837Q420 859 412.5 865Q405 871 396 871Q381 871 370 852.5Q359 834 352 796H301Q313 861 336 892Q359 923 396 923Q419 923 436.5 912Q454 901 474 867Q487 846 494.5 839.5Q502 833 511 833Q526 833 536.5 851.5Q547 870 554 908H605Q593 843 570.5 812Q548 781 510 781Z" glyph-name="Ntilde" horiz-adv-x="695" unicode="Ñ" /><glyph d="M133 0 72 0L192 680H270Q348 504 400.5 363.5Q453 223 497 77L544 388L596 680H657L537 0H459Q407 169 353.5 314.5Q300 460 239 603L184 291ZM585 909 467 772H412L527 938Z" glyph-name="Nacute" horiz-adv-x="695" unicode="Ń" /><glyph d="M133 0 72 0L192 680H270Q348 504 400.5 363.5Q453 223 497 77L544 388L596 680H657L537 0H459Q407 169 353.5 314.5Q300 460 239 603L184 291ZM536 933 589 933L470 772H407L344 933H393L446 827Z" glyph-name="Ncaron" horiz-adv-x="695" unicode="Ň" /><glyph d="M133 0 72 0L192 680H270Q348 504 400.5 363.5Q453 223 497 77L544 388L596 680H657L537 0H459Q407 169 353.5 314.5Q300 460 239 603L184 291ZM327 -77 230 -243L193 -232L254 -77Z" glyph-name="Ncommaaccent" horiz-adv-x="695" unicode="Ņ" /><glyph d="M133 0 72 0L192 680H270Q370 454 416.5 332.5Q463 211 499 94L544 388L596 680H657L536 -6Q514 -129 454.5 -176Q395 -223 275 -223L286 -161Q375 -161 415 -128.5Q455 -96 470 -13Q421 146 370.5 280Q320 414 239 601L184 291Z" glyph-name="Eng" horiz-adv-x="695" unicode="Ŋ" /><glyph d="M171 0 110 0L230 680H308Q386 504 438.5 363.5Q491 223 535 77L582 388L634 680H695L575 0H497Q445 169 391.5 314.5Q338 460 277 603L222 291ZM80 680 142 680L139 661Q130 607 107.5 558Q85 509 39 448L0 470Q36 527 52.5 570.5Q69 614 80 680Z" glyph-name="napostrophe.case" horiz-adv-x="733" unicode="" /><glyph d="M387 690Q504 690 560.5 610Q617 530 594 397L569 254Q547 130 476 60Q405 -10 299 -10Q181 -10 125 70Q69 150 93 284L118 427Q140 551 210.5 620.5Q281 690 387 690ZM501 254 526 397Q545 507 508 569Q471 631 386 631Q308 631 255.5 577.5Q203 524 186 427L161 284Q141 174 178 111.5Q215 49 300 49Q378 49 431 103.5Q484 158 501 254ZM563 909 445 772H390L505 938Z" glyph-name="Oacute" horiz-adv-x="653" unicode="Ó" /><glyph d="M387 690Q504 690 560.5 610Q617 530 594 397L569 254Q547 130 476 60Q405 -10 299 -10Q181 -10 125 70Q69 150 93 284L118 427Q140 551 210.5 620.5Q281 690 387 690ZM501 254 526 397Q545 507 508 569Q471 631 386 631Q308 631 255.5 577.5Q203 524 186 427L161 284Q141 174 178 111.5Q215 49 300 49Q378 49 431 103.5Q484 158 501 254ZM540 772 491 772L438 878L348 772H295L414 933H477Z" glyph-name="Ocircumflex" horiz-adv-x="653" unicode="Ô" /><glyph d="M387 690Q504 690 560.5 610Q617 530 594 397L569 254Q547 130 476 60Q405 -10 299 -10Q181 -10 125 70Q69 150 93 284L118 427Q140 551 210.5 620.5Q281 690 387 690ZM501 254 526 397Q545 507 508 569Q471 631 386 631Q308 631 255.5 577.5Q203 524 186 427L161 284Q141 174 178 111.5Q215 49 300 49Q378 49 431 103.5Q484 158 501 254ZM379 891 367 820H296L308 891ZM568 891 556 820H485L497 891Z" glyph-name="Odieresis" horiz-adv-x="653" unicode="Ö" /><glyph d="M387 690Q504 690 560.5 610Q617 530 594 397L569 254Q547 130 476 60Q405 -10 299 -10Q181 -10 125 70Q69 150 93 284L118 427Q140 551 210.5 620.5Q281 690 387 690ZM501 254 526 397Q545 507 508 569Q471 631 386 631Q308 631 255.5 577.5Q203 524 186 427L161 284Q141 174 178 111.5Q215 49 300 49Q378 49 431 103.5Q484 158 501 254ZM441 772 393 772L323 909L384 938Z" glyph-name="Ograve" horiz-adv-x="653" unicode="Ò" /><glyph d="M387 690Q504 690 560.5 610Q617 530 594 397L569 254Q547 130 476 60Q405 -10 299 -10Q181 -10 125 70Q69 150 93 284L118 427Q140 551 210.5 620.5Q281 690 387 690ZM501 254 526 397Q545 507 508 569Q471 631 386 631Q308 631 255.5 577.5Q203 524 186 427L161 284Q141 174 178 111.5Q215 49 300 49Q378 49 431 103.5Q484 158 501 254ZM488 781Q465 781 447.5 792Q430 803 410 837Q398 859 390.5 865Q383 871 374 871Q359 871 348 852.5Q337 834 330 796H279Q291 861 314 892Q337 923 374 923Q397 923 414.5 912Q432 901 452 867Q465 846 472.5 839.5Q480 833 489 833Q504 833 514.5 851.5Q525 870 532 908H583Q571 843 548.5 812Q526 781 488 781Z" glyph-name="Otilde" horiz-adv-x="653" unicode="Õ" /><glyph d="M387 690Q504 690 560.5 610Q617 530 594 397L569 254Q547 130 476 60Q405 -10 299 -10Q181 -10 125 70Q69 150 93 284L118 427Q140 551 210.5 620.5Q281 690 387 690ZM501 254 526 397Q545 507 508 569Q471 631 386 631Q308 631 255.5 577.5Q203 524 186 427L161 284Q141 174 178 111.5Q215 49 300 49Q378 49 431 103.5Q484 158 501 254ZM425 829Q462 829 484.5 852Q507 875 520 924H573Q557 851 519.5 814.5Q482 778 423 778Q362 778 334.5 815Q307 852 315 924H364Q360 875 374.5 852Q389 829 425 829Z" glyph-name="Obreve" horiz-adv-x="653" unicode="Ŏ" /><glyph d="M387 690Q504 690 560.5 610Q617 530 594 397L569 254Q547 130 476 60Q405 -10 299 -10Q181 -10 125 70Q69 150 93 284L118 427Q140 551 210.5 620.5Q281 690 387 690ZM501 254 526 397Q545 507 508 569Q471 631 386 631Q308 631 255.5 577.5Q203 524 186 427L161 284Q141 174 178 111.5Q215 49 300 49Q378 49 431 103.5Q484 158 501 254ZM493 909 380 772H325L440 938ZM623 909 510 772H455L570 938Z" glyph-name="Ohungarumlaut" horiz-adv-x="653" unicode="Ő" /><glyph d="M387 690Q504 690 560.5 610Q617 530 594 397L569 254Q547 130 476 60Q405 -10 299 -10Q181 -10 125 70Q69 150 93 284L118 427Q140 551 210.5 620.5Q281 690 387 690ZM501 254 526 397Q545 507 508 569Q471 631 386 631Q308 631 255.5 577.5Q203 524 186 427L161 284Q141 174 178 111.5Q215 49 300 49Q378 49 431 103.5Q484 158 501 254ZM294 852 568 852L559 802H285Z" glyph-name="Omacron" horiz-adv-x="653" unicode="Ō" /><glyph d="M343 278 186 278L137 0H72L192 680H386Q474 680 521.5 627Q569 574 555 491L548 448Q538 387 501.5 345Q465 303 407 287Q439 220 464.5 148Q490 76 509 0H439Q423 65 399.5 134Q376 203 343 278ZM384 621 247 621L196 337H334Q394 337 432.5 366.5Q471 396 480 448L487 491Q497 551 469 586Q441 621 384 621ZM535 909 417 772H362L477 938Z" glyph-name="Racute" horiz-adv-x="597" unicode="Ŕ" /><glyph d="M343 278 186 278L137 0H72L192 680H386Q474 680 521.5 627Q569 574 555 491L548 448Q538 387 501.5 345Q465 303 407 287Q439 220 464.5 148Q490 76 509 0H439Q423 65 399.5 134Q376 203 343 278ZM384 621 247 621L196 337H334Q394 337 432.5 366.5Q471 396 480 448L487 491Q497 551 469 586Q441 621 384 621ZM487 933 540 933L421 772H358L295 933H344L397 827Z" glyph-name="Rcaron" horiz-adv-x="597" unicode="Ř" /><glyph d="M343 278 186 278L137 0H72L192 680H386Q474 680 521.5 627Q569 574 555 491L548 448Q538 387 501.5 345Q465 303 407 287Q439 220 464.5 148Q490 76 509 0H439Q423 65 399.5 134Q376 203 343 278ZM384 621 247 621L196 337H334Q394 337 432.5 366.5Q471 396 480 448L487 491Q497 551 469 586Q441 621 384 621ZM305 -77 208 -243L171 -232L232 -77Z" glyph-name="Rcommaaccent" horiz-adv-x="597" unicode="Ŗ" /><glyph d="M207 47Q285 47 328.5 82.5Q372 118 372 182Q372 224 350 254Q328 284 281 304L210 335Q148 362 119 402Q90 442 90 501Q90 589 147 639.5Q204 690 307 690Q357 690 403.5 679Q450 668 491 647L469 590Q426 612 387 622.5Q348 633 307 633Q236 633 196.5 598.5Q157 564 157 503Q157 463 178 436.5Q199 410 245 390L316 359Q379 331 409.5 289Q440 247 440 187Q440 96 379 43Q318 -10 207 -10Q156 -10 105 1.5Q54 13 8 36L30 93Q77 70 121 58.5Q165 47 207 47ZM441 933 494 933L375 772H312L249 933H298L351 827Z" glyph-name="Scaron" horiz-adv-x="499" unicode="Š" /><glyph d="M207 47Q285 47 328.5 82.5Q372 118 372 182Q372 224 350 254Q328 284 281 304L210 335Q148 362 119 402Q90 442 90 501Q90 589 147 639.5Q204 690 307 690Q357 690 403.5 679Q450 668 491 647L469 590Q426 612 387 622.5Q348 633 307 633Q236 633 196.5 598.5Q157 564 157 503Q157 463 178 436.5Q199 410 245 390L316 359Q379 331 409.5 289Q440 247 440 187Q440 96 379 43Q318 -10 207 -10Q156 -10 105 1.5Q54 13 8 36L30 93Q77 70 121 58.5Q165 47 207 47ZM490 909 372 772H317L432 938Z" glyph-name="Sacute" horiz-adv-x="499" unicode="Ś" /><glyph d="M282 -132Q282 -174 252.5 -198.5Q223 -223 171 -223Q151 -223 132 -219.5Q113 -216 94 -208L106 -162Q120 -168 136 -171Q152 -174 167 -174Q196 -174 212 -163.5Q228 -153 228 -135Q228 -119 216.5 -111.5Q205 -104 181 -104Q177 -104 172.5 -104.5Q168 -105 158 -106L143 -64L163 -8Q122 -4 82.5 7Q43 18 8 36L30 93Q77 70 121 58.5Q165 47 207 47Q285 47 328.5 82.5Q372 118 372 182Q372 224 350 254Q328 284 281 304L210 335Q148 362 119 402Q90 442 90 501Q90 589 147 639.5Q204 690 307 690Q357 690 403.5 679Q450 668 491 647L469 590Q426 612 387 622.5Q348 633 307 633Q236 633 196.5 598.5Q157 564 157 503Q157 463 178 436.5Q199 410 245 390L316 359Q379 331 409.5 289Q440 247 440 187Q440 97 379.5 43.5Q319 -10 210 -10L192 -58H196Q237 -58 259.5 -77Q282 -96 282 -132Z" glyph-name="Scedilla" horiz-adv-x="499" unicode="Ş" /><glyph d="M207 47Q285 47 328.5 82.5Q372 118 372 182Q372 224 350 254Q328 284 281 304L210 335Q148 362 119 402Q90 442 90 501Q90 589 147 639.5Q204 690 307 690Q357 690 403.5 679Q450 668 491 647L469 590Q426 612 387 622.5Q348 633 307 633Q236 633 196.5 598.5Q157 564 157 503Q157 463 178 436.5Q199 410 245 390L316 359Q379 331 409.5 289Q440 247 440 187Q440 96 379 43Q318 -10 207 -10Q156 -10 105 1.5Q54 13 8 36L30 93Q77 70 121 58.5Q165 47 207 47ZM466 772 417 772L364 878L274 772H221L340 933H403Z" glyph-name="Scircumflex" horiz-adv-x="499" unicode="Ŝ" /><glyph d="M207 47Q285 47 328.5 82.5Q372 118 372 182Q372 224 350 254Q328 284 281 304L210 335Q148 362 119 402Q90 442 90 501Q90 589 147 639.5Q204 690 307 690Q357 690 403.5 679Q450 668 491 647L469 590Q426 612 387 622.5Q348 633 307 633Q236 633 196.5 598.5Q157 564 157 503Q157 463 178 436.5Q199 410 245 390L316 359Q379 331 409.5 289Q440 247 440 187Q440 96 379 43Q318 -10 207 -10Q156 -10 105 1.5Q54 13 8 36L30 93Q77 70 121 58.5Q165 47 207 47ZM218 -77 121 -243L84 -232L145 -77Z" glyph-name="uni0218" horiz-adv-x="499" unicode="Ș" /><glyph d="M444 365 435 312H294L239 0H174L229 312H88L97 365H238L283 621H79L90 680H563L552 621H348L303 365Z" glyph-name="Tbar" horiz-adv-x="499" unicode="Ŧ" /><glyph d="M283 621 79 621L90 680H563L552 621H348L239 0H174ZM438 933 491 933L372 772H309L246 933H295L348 827Z" glyph-name="Tcaron" horiz-adv-x="499" unicode="Ť" /><glyph d="M283 621 79 621L90 680H563L552 621H348L239 0H174ZM229 -77 132 -243L95 -232L156 -77Z" glyph-name="uni0162" horiz-adv-x="499" unicode="Ţ" /><glyph d="M283 621 79 621L90 680H563L552 621H348L239 0H174ZM229 -77 132 -243L95 -232L156 -77Z" glyph-name="uni021A" horiz-adv-x="499" unicode="Ț" /><glyph d="M102 244 179 680H247L170 244Q154 153 187 101Q220 49 297 49Q371 49 417 98Q463 147 480 244L557 680H625L548 244Q526 119 461.5 54.5Q397 -10 295 -10Q186 -10 134 60.5Q82 131 102 244ZM562 909 444 772H389L504 938Z" glyph-name="Uacute" horiz-adv-x="650" unicode="Ú" /><glyph d="M102 244 179 680H247L170 244Q154 153 187 101Q220 49 297 49Q371 49 417 98Q463 147 480 244L557 680H625L548 244Q526 119 461.5 54.5Q397 -10 295 -10Q186 -10 134 60.5Q82 131 102 244ZM538 772 489 772L436 878L346 772H293L412 933H475Z" glyph-name="Ucircumflex" horiz-adv-x="650" unicode="Û" /><glyph d="M102 244 179 680H247L170 244Q154 153 187 101Q220 49 297 49Q371 49 417 98Q463 147 480 244L557 680H625L548 244Q526 119 461.5 54.5Q397 -10 295 -10Q186 -10 134 60.5Q82 131 102 244ZM377 891 365 820H294L306 891ZM566 891 554 820H483L495 891Z" glyph-name="Udieresis" horiz-adv-x="650" unicode="Ü" /><glyph d="M102 244 179 680H247L170 244Q154 153 187 101Q220 49 297 49Q371 49 417 98Q463 147 480 244L557 680H625L548 244Q526 119 461.5 54.5Q397 -10 295 -10Q186 -10 134 60.5Q82 131 102 244ZM440 772 392 772L322 909L383 938Z" glyph-name="Ugrave" horiz-adv-x="650" unicode="Ù" /><glyph d="M102 244 179 680H247L170 244Q154 153 187 101Q220 49 297 49Q371 49 417 98Q463 147 480 244L557 680H625L548 244Q526 119 461.5 54.5Q397 -10 295 -10Q186 -10 134 60.5Q82 131 102 244ZM424 829Q461 829 483.5 852Q506 875 519 924H572Q556 851 518.5 814.5Q481 778 422 778Q361 778 333.5 815Q306 852 314 924H363Q359 875 373.5 852Q388 829 424 829Z" glyph-name="Ubreve" horiz-adv-x="650" unicode="Ŭ" /><glyph d="M102 244 179 680H247L170 244Q154 153 187 101Q220 49 297 49Q371 49 417 98Q463 147 480 244L557 680H625L548 244Q526 119 461.5 54.5Q397 -10 295 -10Q186 -10 134 60.5Q82 131 102 244ZM492 909 379 772H324L439 938ZM622 909 509 772H454L569 938Z" glyph-name="Uhungarumlaut" horiz-adv-x="650" unicode="Ű" /><glyph d="M102 244 179 680H247L170 244Q154 153 187 101Q220 49 297 49Q371 49 417 98Q463 147 480 244L557 680H625L548 244Q526 119 461.5 54.5Q397 -10 295 -10Q186 -10 134 60.5Q82 131 102 244ZM292 852 566 852L557 802H283Z" glyph-name="Umacron" horiz-adv-x="650" unicode="Ū" /><glyph d="M378 -157 389 -206Q367 -215 347.5 -219Q328 -223 309 -223Q267 -223 244.5 -204Q222 -185 222 -150Q222 -117 243 -83.5Q264 -50 309 -10H295Q186 -10 134 60.5Q82 131 102 244L179 680H247L170 244Q154 153 187 101Q220 49 297 49Q371 49 417 98Q463 147 480 244L557 680H625L548 244Q535 172 509 120.5Q483 69 444 39Q354 -31 318 -70Q282 -109 282 -138Q282 -154 291.5 -162Q301 -170 319 -170Q331 -170 346 -166.5Q361 -163 378 -157Z" glyph-name="Uogonek" horiz-adv-x="650" unicode="Ų" /><glyph d="M102 244 179 680H247L170 244Q154 153 187 101Q220 49 297 49Q371 49 417 98Q463 147 480 244L557 680H625L548 244Q526 119 461.5 54.5Q397 -10 295 -10Q186 -10 134 60.5Q82 131 102 244ZM443 976Q494 976 522 946Q550 916 543 870L541 856Q535 811 503 783.5Q471 756 423 756Q372 756 344 786.5Q316 817 323 864L325 878Q331 922 363 949Q395 976 443 976ZM490 860 492 874Q495 898 481 913.5Q467 929 441 929Q415 929 397.5 914Q380 899 376 873L374 859Q370 834 384 819Q398 804 425 804Q451 804 468.5 819Q486 834 490 860Z" glyph-name="Uring" horiz-adv-x="650" unicode="Ů" /><glyph d="M102 244 179 680H247L170 244Q154 153 187 101Q220 49 297 49Q371 49 417 98Q463 147 480 244L557 680H625L548 244Q526 119 461.5 54.5Q397 -10 295 -10Q186 -10 134 60.5Q82 131 102 244ZM487 781Q464 781 446.5 792Q429 803 409 837Q397 859 389.5 865Q382 871 373 871Q358 871 347 852.5Q336 834 329 796H278Q290 861 313 892Q336 923 373 923Q396 923 413.5 912Q431 901 451 867Q464 846 471.5 839.5Q479 833 488 833Q503 833 513.5 851.5Q524 870 531 908H582Q570 843 547.5 812Q525 781 487 781Z" glyph-name="Utilde" horiz-adv-x="650" unicode="Ũ" /><glyph d="M183 680 194 380L201 106L471 680H536L603 103L708 380L825 680H890L623 0H556L489 584L214 0H146L120 680ZM665 909 547 772H492L607 938Z" glyph-name="Wacute" horiz-adv-x="856" unicode="Ẃ" /><glyph d="M183 680 194 380L201 106L471 680H536L603 103L708 380L825 680H890L623 0H556L489 584L214 0H146L120 680ZM642 772 593 772L540 878L450 772H397L516 933H579Z" glyph-name="Wcircumflex" horiz-adv-x="856" unicode="Ŵ" /><glyph d="M183 680 194 380L201 106L471 680H536L603 103L708 380L825 680H890L623 0H556L489 584L214 0H146L120 680ZM481 891 469 820H398L410 891ZM670 891 658 820H587L599 891Z" glyph-name="Wdieresis" horiz-adv-x="856" unicode="Ẅ" /><glyph d="M183 680 194 380L201 106L471 680H536L603 103L708 380L825 680H890L623 0H556L489 584L214 0H146L120 680ZM538 772 490 772L420 909L481 938Z" glyph-name="Wgrave" horiz-adv-x="856" unicode="Ẁ" /><glyph d="M501 680 573 680L294 270L246 0H181L229 271L93 680H160L271 337ZM493 909 375 772H320L435 938Z" glyph-name="Yacute" horiz-adv-x="512" unicode="Ý" /><glyph d="M501 680 573 680L294 270L246 0H181L229 271L93 680H160L271 337ZM309 891 297 820H226L238 891ZM498 891 486 820H415L427 891Z" glyph-name="Ydieresis" horiz-adv-x="512" unicode="Ÿ" /><glyph d="M501 680 573 680L294 270L246 0H181L229 271L93 680H160L271 337ZM470 772 421 772L368 878L278 772H225L344 933H407Z" glyph-name="Ycircumflex" horiz-adv-x="512" unicode="Ŷ" /><glyph d="M501 680 573 680L294 270L246 0H181L229 271L93 680H160L271 337ZM371 772 323 772L253 909L314 938Z" glyph-name="Ygrave" horiz-adv-x="512" unicode="Ỳ" /><glyph d="M92 59 435 59L425 0H0L8 47L443 621H119L130 680H535L527 633ZM445 933 498 933L379 772H316L253 933H302L355 827Z" glyph-name="Zcaron" horiz-adv-x="508" unicode="Ž" /><glyph d="M92 59 435 59L425 0H0L8 47L443 621H119L130 680H535L527 633ZM493 909 375 772H320L435 938Z" glyph-name="Zacute" horiz-adv-x="508" unicode="Ź" /><glyph d="M92 59 435 59L425 0H0L8 47L443 621H119L130 680H535L527 633ZM404 892 392 819H319L331 892Z" glyph-name="Zdotaccent" horiz-adv-x="508" unicode="Ż" /><glyph d="M467 -5 451 -5Q408 -5 385.5 20Q363 45 365 89Q326 40 283.5 15Q241 -10 195 -10Q124 -10 89.5 55.5Q55 121 69 224L76 275Q90 377 150 437Q210 497 300 497Q344 497 389 482Q434 467 482 436L428 131Q420 88 428 69Q436 50 461 50H477ZM139 275 132 224Q121 139 140 91Q159 43 205 43Q246 43 290 78Q334 113 377 180L418 409Q386 426 357.5 434Q329 442 302 442Q235 442 192 397.5Q149 353 139 275ZM477 716 359 579H304L419 745Z" glyph-name="aacute" horiz-adv-x="544" unicode="á" /><glyph d="M467 -5 451 -5Q408 -5 385.5 20Q363 45 365 89Q326 40 283.5 15Q241 -10 195 -10Q124 -10 89.5 55.5Q55 121 69 224L76 275Q90 377 150 437Q210 497 300 497Q344 497 389 482Q434 467 482 436L428 131Q420 88 428 69Q436 50 461 50H477ZM139 275 132 224Q121 139 140 91Q159 43 205 43Q246 43 290 78Q334 113 377 180L418 409Q386 426 357.5 434Q329 442 302 442Q235 442 192 397.5Q149 353 139 275ZM454 579 405 579L352 685L262 579H209L328 740H391Z" glyph-name="acircumflex" horiz-adv-x="544" unicode="â" /><glyph d="M467 -5 451 -5Q408 -5 385.5 20Q363 45 365 89Q326 40 283.5 15Q241 -10 195 -10Q124 -10 89.5 55.5Q55 121 69 224L76 275Q90 377 150 437Q210 497 300 497Q344 497 389 482Q434 467 482 436L428 131Q420 88 428 69Q436 50 461 50H477ZM139 275 132 224Q121 139 140 91Q159 43 205 43Q246 43 290 78Q334 113 377 180L418 409Q386 426 357.5 434Q329 442 302 442Q235 442 192 397.5Q149 353 139 275ZM293 698 281 627H210L222 698ZM482 698 470 627H399L411 698Z" glyph-name="adieresis" horiz-adv-x="544" unicode="ä" /><glyph d="M467 -5 451 -5Q408 -5 385.5 20Q363 45 365 89Q326 40 283.5 15Q241 -10 195 -10Q124 -10 89.5 55.5Q55 121 69 224L76 275Q90 377 150 437Q210 497 300 497Q344 497 389 482Q434 467 482 436L428 131Q420 88 428 69Q436 50 461 50H477ZM139 275 132 224Q121 139 140 91Q159 43 205 43Q246 43 290 78Q334 113 377 180L418 409Q386 426 357.5 434Q329 442 302 442Q235 442 192 397.5Q149 353 139 275ZM355 579 307 579L237 716L298 745Z" glyph-name="agrave" horiz-adv-x="544" unicode="à" /><glyph d="M467 -5 451 -5Q408 -5 385.5 20Q363 45 365 89Q326 40 283.5 15Q241 -10 195 -10Q124 -10 89.5 55.5Q55 121 69 224L76 275Q90 377 150 437Q210 497 300 497Q344 497 389 482Q434 467 482 436L428 131Q420 88 428 69Q436 50 461 50H477ZM139 275 132 224Q121 139 140 91Q159 43 205 43Q246 43 290 78Q334 113 377 180L418 409Q386 426 357.5 434Q329 442 302 442Q235 442 192 397.5Q149 353 139 275ZM358 783Q409 783 437 753Q465 723 458 677L456 663Q450 618 418 590.5Q386 563 338 563Q287 563 259 593.5Q231 624 238 671L240 685Q246 729 278 756Q310 783 358 783ZM405 667 407 681Q410 705 396 720.5Q382 736 356 736Q330 736 312.5 721Q295 706 291 680L289 666Q285 641 299 626Q313 611 340 611Q366 611 383.5 626Q401 641 405 667Z" glyph-name="aring" horiz-adv-x="544" unicode="å" /><glyph d="M467 -5 451 -5Q408 -5 385.5 20Q363 45 365 89Q326 40 283.5 15Q241 -10 195 -10Q124 -10 89.5 55.5Q55 121 69 224L76 275Q90 377 150 437Q210 497 300 497Q344 497 389 482Q434 467 482 436L428 131Q420 88 428 69Q436 50 461 50H477ZM139 275 132 224Q121 139 140 91Q159 43 205 43Q246 43 290 78Q334 113 377 180L418 409Q386 426 357.5 434Q329 442 302 442Q235 442 192 397.5Q149 353 139 275ZM402 588Q379 588 361.5 599Q344 610 324 644Q312 666 304.5 672Q297 678 288 678Q273 678 262 659.5Q251 641 244 603H193Q205 668 228 699Q251 730 288 730Q311 730 328.5 719Q346 708 366 674Q379 653 386.5 646.5Q394 640 403 640Q418 640 428.5 658.5Q439 677 446 715H497Q485 650 462.5 619Q440 588 402 588Z" glyph-name="atilde" horiz-adv-x="544" unicode="ã" /><glyph d="M467 -5 451 -5Q408 -5 385.5 20Q363 45 365 89Q326 40 283.5 15Q241 -10 195 -10Q124 -10 89.5 55.5Q55 121 69 224L76 275Q90 377 150 437Q210 497 300 497Q344 497 389 482Q434 467 482 436L428 131Q420 88 428 69Q436 50 461 50H477ZM139 275 132 224Q121 139 140 91Q159 43 205 43Q246 43 290 78Q334 113 377 180L418 409Q386 426 357.5 434Q329 442 302 442Q235 442 192 397.5Q149 353 139 275ZM339 636Q376 636 398.5 659Q421 682 434 731H487Q471 658 433.5 621.5Q396 585 337 585Q276 585 248.5 622Q221 659 229 731H278Q274 682 288.5 659Q303 636 339 636Z" glyph-name="abreve" horiz-adv-x="544" unicode="ă" /><glyph d="M467 -5 451 -5Q408 -5 385.5 20Q363 45 365 89Q326 40 283.5 15Q241 -10 195 -10Q124 -10 89.5 55.5Q55 121 69 224L76 275Q90 377 150 437Q210 497 300 497Q344 497 389 482Q434 467 482 436L428 131Q420 88 428 69Q436 50 461 50H477ZM139 275 132 224Q121 139 140 91Q159 43 205 43Q246 43 290 78Q334 113 377 180L418 409Q386 426 357.5 434Q329 442 302 442Q235 442 192 397.5Q149 353 139 275ZM208 659 482 659L473 609H199Z" glyph-name="amacron" horiz-adv-x="544" unicode="ā" /><glyph d="M425 -157 436 -206Q414 -215 394.5 -219Q375 -223 356 -223Q314 -223 291.5 -204Q269 -185 269 -150Q269 -114 299.5 -78Q330 -42 402 7Q382 18 372.5 39Q363 60 365 89Q326 40 283.5 15Q241 -10 195 -10Q124 -10 89.5 55.5Q55 121 69 224L76 275Q90 377 150 437Q210 497 300 497Q344 497 389 482Q434 467 482 436L428 131Q420 88 428 69Q436 50 461 50H477L467 -5Q390 -56 359.5 -85Q329 -114 329 -138Q329 -154 338.5 -162Q348 -170 366 -170Q378 -170 393 -166.5Q408 -163 425 -157ZM139 275 132 224Q121 139 140 91Q159 43 205 43Q246 43 290 78Q334 113 377 180L418 409Q386 426 357.5 434Q329 442 302 442Q235 442 192 397.5Q149 353 139 275Z" glyph-name="aogonek" horiz-adv-x="544" unicode="ą" /><glyph d="M287 -132Q287 -174 257.5 -198.5Q228 -223 176 -223Q156 -223 137 -219.5Q118 -216 99 -208L111 -162Q125 -168 141 -171Q157 -174 172 -174Q201 -174 217 -163.5Q233 -153 233 -135Q233 -119 221.5 -111.5Q210 -104 186 -104Q182 -104 177.5 -104.5Q173 -105 163 -106L148 -64L171 -1Q106 19 80 79.5Q54 140 69 234L77 284Q93 383 148.5 440Q204 497 287 497Q323 497 360.5 486.5Q398 476 434 457L411 407Q373 425 343.5 433.5Q314 442 290 442Q229 442 189.5 400.5Q150 359 138 284L130 234Q115 140 143.5 92.5Q172 45 242 45Q268 45 300 51.5Q332 58 367 70L378 18Q342 4 306.5 -3Q271 -10 239 -10Q229 -10 224.5 -10Q220 -10 216 -9L197 -58H201Q242 -58 264.5 -77Q287 -96 287 -132Z" glyph-name="ccedilla" horiz-adv-x="452" unicode="ç" /><glyph d="M290 442Q229 442 189.5 400.5Q150 359 138 284L130 234Q115 140 143.5 92.5Q172 45 242 45Q268 45 300 51.5Q332 58 367 70L378 18Q342 4 306.5 -3Q271 -10 239 -10Q138 -10 94.5 54Q51 118 69 234L77 284Q93 383 148.5 440Q204 497 287 497Q323 497 360.5 486.5Q398 476 434 457L411 407Q373 425 343.5 433.5Q314 442 290 442ZM455 716 337 579H282L397 745Z" glyph-name="cacute" horiz-adv-x="452" unicode="ć" /><glyph d="M290 442Q229 442 189.5 400.5Q150 359 138 284L130 234Q115 140 143.5 92.5Q172 45 242 45Q268 45 300 51.5Q332 58 367 70L378 18Q342 4 306.5 -3Q271 -10 239 -10Q138 -10 94.5 54Q51 118 69 234L77 284Q93 383 148.5 440Q204 497 287 497Q323 497 360.5 486.5Q398 476 434 457L411 407Q373 425 343.5 433.5Q314 442 290 442ZM406 740 459 740L340 579H277L214 740H263L316 634Z" glyph-name="ccaron" horiz-adv-x="452" unicode="č" /><glyph d="M290 442Q229 442 189.5 400.5Q150 359 138 284L130 234Q115 140 143.5 92.5Q172 45 242 45Q268 45 300 51.5Q332 58 367 70L378 18Q342 4 306.5 -3Q271 -10 239 -10Q138 -10 94.5 54Q51 118 69 234L77 284Q93 383 148.5 440Q204 497 287 497Q323 497 360.5 486.5Q398 476 434 457L411 407Q373 425 343.5 433.5Q314 442 290 442ZM431 579 382 579L329 685L239 579H186L305 740H368Z" glyph-name="ccircumflex" horiz-adv-x="452" unicode="ĉ" /><glyph d="M290 442Q229 442 189.5 400.5Q150 359 138 284L130 234Q115 140 143.5 92.5Q172 45 242 45Q268 45 300 51.5Q332 58 367 70L378 18Q342 4 306.5 -3Q271 -10 239 -10Q138 -10 94.5 54Q51 118 69 234L77 284Q93 383 148.5 440Q204 497 287 497Q323 497 360.5 486.5Q398 476 434 457L411 407Q373 425 343.5 433.5Q314 442 290 442ZM365 699 353 626H280L292 699Z" glyph-name="cdotaccent" horiz-adv-x="452" unicode="ċ" /><glyph d="M414 0 357 0L373 93Q334 42 290 16Q246 -10 200 -10Q127 -10 91.5 55Q56 120 70 224L77 275Q91 381 150 439Q209 497 303 497Q336 497 369 489Q402 481 436 464L485 740H545ZM140 275 133 224Q122 139 142 91Q162 43 210 43Q253 43 298 78Q343 113 386 180L427 409Q394 426 364 434Q334 442 305 442Q235 442 193 399.5Q151 357 140 275ZM699 740 641 547H601L635 740Z" glyph-name="dcaron" horiz-adv-x="596" unicode="ď" /><glyph d="M414 0 357 0L373 93Q334 42 290 16Q246 -10 200 -10Q127 -10 91.5 55Q56 120 70 224L77 275Q91 381 150 439Q209 497 303 497Q336 497 369 489Q402 481 436 464L457 584H298L307 637H467L485 740H545L527 637H615L606 584H517ZM140 275 133 224Q122 139 142 91Q162 43 210 43Q253 43 298 78Q343 113 386 180L427 409Q394 426 364 434Q334 442 305 442Q235 442 193 399.5Q151 357 140 275Z" glyph-name="dcroat" horiz-adv-x="551" unicode="đ" /><glyph d="M389 70 400 18Q365 5 326 -2.5Q287 -10 250 -10Q143 -10 96.5 53.5Q50 117 69 234L77 284Q93 383 151 440Q209 497 296 497Q368 497 412.5 459.5Q457 422 457 357Q457 325 447.5 292.5Q438 260 419 226H129Q116 135 147 90Q178 45 253 45Q284 45 320 51.5Q356 58 389 70ZM294 442Q232 442 191 400.5Q150 359 138 284L137 279H378Q388 296 393 315Q398 334 398 354Q398 396 370 419Q342 442 294 442ZM469 716 351 579H296L411 745Z" glyph-name="eacute" horiz-adv-x="495" unicode="é" /><glyph d="M389 70 400 18Q365 5 326 -2.5Q287 -10 250 -10Q143 -10 96.5 53.5Q50 117 69 234L77 284Q93 383 151 440Q209 497 296 497Q368 497 412.5 459.5Q457 422 457 357Q457 325 447.5 292.5Q438 260 419 226H129Q116 135 147 90Q178 45 253 45Q284 45 320 51.5Q356 58 389 70ZM294 442Q232 442 191 400.5Q150 359 138 284L137 279H378Q388 296 393 315Q398 334 398 354Q398 396 370 419Q342 442 294 442ZM445 579 396 579L343 685L253 579H200L319 740H382Z" glyph-name="ecircumflex" horiz-adv-x="495" unicode="ê" /><glyph d="M389 70 400 18Q365 5 326 -2.5Q287 -10 250 -10Q143 -10 96.5 53.5Q50 117 69 234L77 284Q93 383 151 440Q209 497 296 497Q368 497 412.5 459.5Q457 422 457 357Q457 325 447.5 292.5Q438 260 419 226H129Q116 135 147 90Q178 45 253 45Q284 45 320 51.5Q356 58 389 70ZM294 442Q232 442 191 400.5Q150 359 138 284L137 279H378Q388 296 393 315Q398 334 398 354Q398 396 370 419Q342 442 294 442ZM284 698 272 627H201L213 698ZM473 698 461 627H390L402 698Z" glyph-name="edieresis" horiz-adv-x="495" unicode="ë" /><glyph d="M389 70 400 18Q365 5 326 -2.5Q287 -10 250 -10Q143 -10 96.5 53.5Q50 117 69 234L77 284Q93 383 151 440Q209 497 296 497Q368 497 412.5 459.5Q457 422 457 357Q457 325 447.5 292.5Q438 260 419 226H129Q116 135 147 90Q178 45 253 45Q284 45 320 51.5Q356 58 389 70ZM294 442Q232 442 191 400.5Q150 359 138 284L137 279H378Q388 296 393 315Q398 334 398 354Q398 396 370 419Q342 442 294 442ZM347 579 299 579L229 716L290 745Z" glyph-name="egrave" horiz-adv-x="495" unicode="è" /><glyph d="M389 70 400 18Q365 5 326 -2.5Q287 -10 250 -10Q143 -10 96.5 53.5Q50 117 69 234L77 284Q93 383 151 440Q209 497 296 497Q368 497 412.5 459.5Q457 422 457 357Q457 325 447.5 292.5Q438 260 419 226H129Q116 135 147 90Q178 45 253 45Q284 45 320 51.5Q356 58 389 70ZM294 442Q232 442 191 400.5Q150 359 138 284L137 279H378Q388 296 393 315Q398 334 398 354Q398 396 370 419Q342 442 294 442ZM331 636Q368 636 390.5 659Q413 682 426 731H479Q463 658 425.5 621.5Q388 585 329 585Q268 585 240.5 622Q213 659 221 731H270Q266 682 280.5 659Q295 636 331 636Z" glyph-name="ebreve" horiz-adv-x="495" unicode="ĕ" /><glyph d="M389 70 400 18Q365 5 326 -2.5Q287 -10 250 -10Q143 -10 96.5 53.5Q50 117 69 234L77 284Q93 383 151 440Q209 497 296 497Q368 497 412.5 459.5Q457 422 457 357Q457 325 447.5 292.5Q438 260 419 226H129Q116 135 147 90Q178 45 253 45Q284 45 320 51.5Q356 58 389 70ZM294 442Q232 442 191 400.5Q150 359 138 284L137 279H378Q388 296 393 315Q398 334 398 354Q398 396 370 419Q342 442 294 442ZM420 740 473 740L354 579H291L228 740H277L330 634Z" glyph-name="ecaron" horiz-adv-x="495" unicode="ě" /><glyph d="M389 70 400 18Q365 5 326 -2.5Q287 -10 250 -10Q143 -10 96.5 53.5Q50 117 69 234L77 284Q93 383 151 440Q209 497 296 497Q368 497 412.5 459.5Q457 422 457 357Q457 325 447.5 292.5Q438 260 419 226H129Q116 135 147 90Q178 45 253 45Q284 45 320 51.5Q356 58 389 70ZM294 442Q232 442 191 400.5Q150 359 138 284L137 279H378Q388 296 393 315Q398 334 398 354Q398 396 370 419Q342 442 294 442ZM379 699 367 626H294L306 699Z" glyph-name="edotaccent" horiz-adv-x="495" unicode="ė" /><glyph d="M389 70 400 18Q365 5 326 -2.5Q287 -10 250 -10Q143 -10 96.5 53.5Q50 117 69 234L77 284Q93 383 151 440Q209 497 296 497Q368 497 412.5 459.5Q457 422 457 357Q457 325 447.5 292.5Q438 260 419 226H129Q116 135 147 90Q178 45 253 45Q284 45 320 51.5Q356 58 389 70ZM294 442Q232 442 191 400.5Q150 359 138 284L137 279H378Q388 296 393 315Q398 334 398 354Q398 396 370 419Q342 442 294 442ZM199 659 473 659L464 609H190Z" glyph-name="emacron" horiz-adv-x="495" unicode="ē" /><glyph d="M349 -157 360 -206Q338 -215 318.5 -219Q299 -223 280 -223Q238 -223 215.5 -204Q193 -185 193 -150Q193 -116 215.5 -82Q238 -48 287 -8Q273 -9 265 -9.5Q257 -10 250 -10Q143 -10 96.5 53.5Q50 117 69 234L77 284Q93 383 151 440Q209 497 296 497Q368 497 412.5 459.5Q457 422 457 357Q457 325 447.5 292.5Q438 260 419 226H129Q116 135 147 90Q178 45 253 45Q284 45 320 51.5Q356 58 389 70L400 18Q321 -38 287 -73.5Q253 -109 253 -138Q253 -154 262.5 -162Q272 -170 290 -170Q302 -170 317 -166.5Q332 -163 349 -157ZM294 442Q232 442 191 400.5Q150 359 138 284L137 279H378Q388 296 393 315Q398 334 398 354Q398 396 370 419Q342 442 294 442Z" glyph-name="eogonek" horiz-adv-x="495" unicode="ę" /><glyph d="M491 436 414 0Q392 -126 338 -174.5Q284 -223 185 -223Q144 -223 107 -215Q70 -207 33 -190L51 -139Q84 -154 115.5 -161Q147 -168 183 -168Q260 -168 298 -134Q336 -100 354 0L370 88Q331 39 288.5 14.5Q246 -10 200 -10Q127 -10 91.5 55Q56 120 70 224L77 275Q91 381 150 439Q209 497 303 497Q350 497 396.5 482Q443 467 491 436ZM140 275 133 224Q122 139 142 91Q162 43 210 43Q253 43 298 78Q343 113 386 180L427 409Q394 426 364 434Q334 442 305 442Q235 442 193 399.5Q151 357 140 275ZM346 636Q383 636 405.5 659Q428 682 441 731H494Q478 658 440.5 621.5Q403 585 344 585Q283 585 255.5 622Q228 659 236 731H285Q281 682 295.5 659Q310 636 346 636Z" glyph-name="gbreve" horiz-adv-x="550" unicode="ğ" /><glyph d="M491 436 414 0Q392 -126 338 -174.5Q284 -223 185 -223Q144 -223 107 -215Q70 -207 33 -190L51 -139Q84 -154 115.5 -161Q147 -168 183 -168Q260 -168 298 -134Q336 -100 354 0L370 88Q331 39 288.5 14.5Q246 -10 200 -10Q127 -10 91.5 55Q56 120 70 224L77 275Q91 381 150 439Q209 497 303 497Q350 497 396.5 482Q443 467 491 436ZM140 275 133 224Q122 139 142 91Q162 43 210 43Q253 43 298 78Q343 113 386 180L427 409Q394 426 364 434Q334 442 305 442Q235 442 193 399.5Q151 357 140 275ZM460 579 411 579L358 685L268 579H215L334 740H397Z" glyph-name="gcircumflex" horiz-adv-x="550" unicode="ĝ" /><glyph d="M491 436 414 0Q392 -126 338 -174.5Q284 -223 185 -223Q144 -223 107 -215Q70 -207 33 -190L51 -139Q84 -154 115.5 -161Q147 -168 183 -168Q260 -168 298 -134Q336 -100 354 0L370 88Q331 39 288.5 14.5Q246 -10 200 -10Q127 -10 91.5 55Q56 120 70 224L77 275Q91 381 150 439Q209 497 303 497Q350 497 396.5 482Q443 467 491 436ZM140 275 133 224Q122 139 142 91Q162 43 210 43Q253 43 298 78Q343 113 386 180L427 409Q394 426 364 434Q334 442 305 442Q235 442 193 399.5Q151 357 140 275ZM301 579 398 745L435 734L374 579Z" glyph-name="gcommaaccent" horiz-adv-x="550" unicode="ģ" /><glyph d="M491 436 414 0Q392 -126 338 -174.5Q284 -223 185 -223Q144 -223 107 -215Q70 -207 33 -190L51 -139Q84 -154 115.5 -161Q147 -168 183 -168Q260 -168 298 -134Q336 -100 354 0L370 88Q331 39 288.5 14.5Q246 -10 200 -10Q127 -10 91.5 55Q56 120 70 224L77 275Q91 381 150 439Q209 497 303 497Q350 497 396.5 482Q443 467 491 436ZM140 275 133 224Q122 139 142 91Q162 43 210 43Q253 43 298 78Q343 113 386 180L427 409Q394 426 364 434Q334 442 305 442Q235 442 193 399.5Q151 357 140 275ZM395 699 383 626H310L322 699Z" glyph-name="gdotaccent" horiz-adv-x="550" unicode="ġ" /><glyph d="M362 440Q317 440 269 410Q221 380 168 319L112 0H52L155 587H66L74 637H164L182 740H242L224 637H382L374 587H215L182 397Q230 447 277 472Q324 497 372 497Q437 497 469 450.5Q501 404 488 327L430 0H370L426 316Q437 377 420.5 408.5Q404 440 362 440Z" glyph-name="hbar" horiz-adv-x="563" unicode="ħ" /><glyph d="M362 440Q317 440 269 410Q221 380 168 319L112 0H52L182 740H242L182 397Q230 447 277 472Q324 497 372 497Q437 497 469 450.5Q501 404 488 327L430 0H370L426 316Q437 377 420.5 408.5Q404 440 362 440ZM446 832 397 832L344 938L254 832H201L320 993H383Z" glyph-name="hcircumflex" horiz-adv-x="563" unicode="ĥ" /><glyph d="M198 487 112 0H52L138 487ZM331 716 213 579H158L273 745Z" glyph-name="iacute" horiz-adv-x="250" unicode="í" /><glyph d="M198 487 112 0H52L138 487ZM307 579 258 579L205 685L115 579H62L181 740H244Z" glyph-name="icircumflex" horiz-adv-x="250" unicode="î" /><glyph d="M198 487 112 0H52L138 487ZM146 698 134 627H63L75 698ZM335 698 323 627H252L264 698Z" glyph-name="idieresis" horiz-adv-x="250" unicode="ï" /><glyph d="M198 487 112 0H52L138 487ZM209 579 161 579L91 716L152 745Z" glyph-name="igrave" horiz-adv-x="250" unicode="ì" /><glyph d="M198 487 112 0H52L138 487ZM193 636Q230 636 252.5 659Q275 682 288 731H341Q325 658 287.5 621.5Q250 585 191 585Q130 585 102.5 622Q75 659 83 731H132Q128 682 142.5 659Q157 636 193 636Z" glyph-name="ibreve" horiz-adv-x="250" unicode="ĭ" /><glyph d="M242 699 230 626H157L169 699ZM198 487 112 0H52L138 487Z" glyph-name="i.dot" horiz-adv-x="252" unicode="" /><glyph d="M198 487 112 0H52L138 487ZM61 659 335 659L326 609H52Z" glyph-name="imacron" horiz-adv-x="250" unicode="ī" /><glyph d="M238 696 226 629H160L172 696ZM99 -157 110 -206Q88 -215 68.5 -219Q49 -223 30 -223Q-12 -223 -34.5 -204.5Q-57 -186 -57 -153Q-57 -118 -30.5 -79Q-4 -40 54 9L138 487H198L112 0Q54 -51 28.5 -84Q3 -117 3 -141Q3 -155 12.5 -162.5Q22 -170 40 -170Q52 -170 67 -166.5Q82 -163 99 -157Z" glyph-name="iogonek" horiz-adv-x="252" unicode="į" /><glyph d="M198 487 112 0H52L138 487ZM256 588Q233 588 215.5 599Q198 610 178 644Q166 666 158.5 672Q151 678 142 678Q127 678 116 659.5Q105 641 98 603H47Q59 668 82 699Q105 730 142 730Q165 730 182.5 719Q200 708 220 674Q233 653 240.5 646.5Q248 640 257 640Q272 640 282.5 658.5Q293 677 300 715H351Q339 650 316.5 619Q294 588 256 588Z" glyph-name="itilde" horiz-adv-x="250" unicode="ĩ" /><glyph d="M-100 -223 -90 -166Q-27 -166 3 -136.5Q33 -107 45 -37L138 487H198L106 -37Q88 -138 39.5 -180.5Q-9 -223 -100 -223ZM306 579 257 579L204 685L114 579H61L180 740H243Z" glyph-name="jcircumflex" horiz-adv-x="250" unicode="ĵ" /><glyph d="M242 699 230 626H157L169 699ZM198 487 112 0H52L138 487ZM492 699 480 626H407L419 699ZM151 -223 161 -166Q224 -166 254 -136.5Q284 -107 296 -37L389 487H449L357 -37Q339 -138 290.5 -180.5Q242 -223 151 -223Z" glyph-name="ij" horiz-adv-x="502" unicode="ĳ" /><glyph d="M427 0 358 0L252 240Q242 231 213.5 209.5Q185 188 139 153L112 0H52L182 740H242L151 220Q249 298 312 360.5Q375 423 424 487H496Q452 431 405.5 381Q359 331 299 276ZM247 -77 150 -243L113 -232L174 -77Z" glyph-name="kcommaaccent" horiz-adv-x="493" unicode="ķ" /><glyph d="M427 0 358 0L252 240Q237 228 219.5 214Q202 200 139 153L112 0H52L138 487H198L151 220Q249 298 312 360.5Q375 423 424 487H496Q452 431 405.5 381Q359 331 299 276Z" glyph-name="kgreenlandic" horiz-adv-x="493" unicode="ĸ" /><glyph d="M71 110 182 740H242L132 112Q125 73 132 61.5Q139 50 168 50H184L174 -5H158Q103 -5 82 23Q61 51 71 110ZM374 969 256 832H201L316 998Z" glyph-name="lacute" horiz-adv-x="256" unicode="ĺ" /><glyph d="M71 110 182 740H242L132 112Q125 73 132 61.5Q139 50 168 50H184L174 -5H158Q103 -5 82 23Q61 51 71 110ZM398 740 340 547H300L334 740Z" glyph-name="lcaron" horiz-adv-x="295" unicode="ľ" /><glyph d="M71 110 182 740H242L132 112Q125 73 132 61.5Q139 50 168 50H184L174 -5H158Q103 -5 82 23Q61 51 71 110ZM137 -77 40 -243L3 -232L64 -77Z" glyph-name="lcommaaccent" horiz-adv-x="256" unicode="ļ" /><glyph d="M71 110 182 740H242L132 112Q125 73 132 61.5Q139 50 168 50H184L174 -5H158Q103 -5 82 23Q61 51 71 110ZM320 421 308 348H235L247 421Z" glyph-name="ldot" horiz-adv-x="256" unicode="ŀ" /><glyph d="M362 440Q317 440 269 410Q221 380 168 319L112 0H52L138 487H195L178 393Q227 446 274.5 471.5Q322 497 372 497Q437 497 469 450.5Q501 404 488 327L430 0H370L426 316Q437 377 420.5 408.5Q404 440 362 440ZM414 588Q391 588 373.5 599Q356 610 336 644Q324 666 316.5 672Q309 678 300 678Q285 678 274 659.5Q263 641 256 603H205Q217 668 240 699Q263 730 300 730Q323 730 340.5 719Q358 708 378 674Q391 653 398.5 646.5Q406 640 415 640Q430 640 440.5 658.5Q451 677 458 715H509Q497 650 474.5 619Q452 588 414 588Z" glyph-name="ntilde" horiz-adv-x="563" unicode="ñ" /><glyph d="M362 440Q317 440 269 410Q221 380 168 319L112 0H52L138 487H195L178 393Q227 446 274.5 471.5Q322 497 372 497Q437 497 469 450.5Q501 404 488 327L430 0H370L426 316Q437 377 420.5 408.5Q404 440 362 440ZM489 716 371 579H316L431 745Z" glyph-name="nacute" horiz-adv-x="563" unicode="ń" /><glyph d="M362 440Q317 440 269 410Q221 380 168 319L112 0H52L138 487H195L178 393Q227 446 274.5 471.5Q322 497 372 497Q437 497 469 450.5Q501 404 488 327L430 0H370L426 316Q437 377 420.5 408.5Q404 440 362 440ZM441 740 494 740L375 579H312L249 740H298L351 634Z" glyph-name="ncaron" horiz-adv-x="563" unicode="ň" /><glyph d="M362 440Q317 440 269 410Q221 380 168 319L112 0H52L138 487H195L178 393Q227 446 274.5 471.5Q322 497 372 497Q437 497 469 450.5Q501 404 488 327L430 0H370L426 316Q437 377 420.5 408.5Q404 440 362 440ZM264 -77 167 -243L130 -232L191 -77Z" glyph-name="ncommaaccent" horiz-adv-x="563" unicode="ņ" /><glyph d="M488 327 424 -37Q406 -138 357.5 -180.5Q309 -223 218 -223L228 -166Q291 -166 320.5 -136.5Q350 -107 363 -37L426 316Q437 377 420.5 408.5Q404 440 362 440Q317 440 269 409.5Q221 379 168 318L112 0H52L138 487H195L179 394Q227 446 274.5 471.5Q322 497 372 497Q438 497 471 449.5Q504 402 488 327Z" glyph-name="eng" horiz-adv-x="563" unicode="ŋ" /><glyph d="M401 440Q356 440 308 410Q260 380 207 319L151 0H91L177 487H234L217 393Q266 446 313.5 471.5Q361 497 411 497Q476 497 508 450.5Q540 404 527 327L469 0H409L465 316Q476 377 459.5 408.5Q443 440 401 440ZM93 680 155 680L152 661Q143 607 120.5 558Q98 509 52 448L13 470Q49 527 65.5 570.5Q82 614 93 680Z" glyph-name="napostrophe" horiz-adv-x="602" unicode="ŉ" /><glyph d="M297 497Q397 497 445 430Q493 363 475 254L467 204Q450 99 393.5 44.5Q337 -10 244 -10Q144 -10 97 56.5Q50 123 67 234L75 284Q91 386 148.5 441.5Q206 497 297 497ZM404 204 412 254Q425 340 394.5 391Q364 442 298 442Q233 442 191.5 401Q150 360 138 284L130 234Q116 146 146 95.5Q176 45 243 45Q310 45 350.5 85Q391 125 404 204ZM463 716 345 579H290L405 745Z" glyph-name="oacute" horiz-adv-x="540" unicode="ó" /><glyph d="M297 497Q397 497 445 430Q493 363 475 254L467 204Q450 99 393.5 44.5Q337 -10 244 -10Q144 -10 97 56.5Q50 123 67 234L75 284Q91 386 148.5 441.5Q206 497 297 497ZM404 204 412 254Q425 340 394.5 391Q364 442 298 442Q233 442 191.5 401Q150 360 138 284L130 234Q116 146 146 95.5Q176 45 243 45Q310 45 350.5 85Q391 125 404 204ZM440 579 391 579L338 685L248 579H195L314 740H377Z" glyph-name="ocircumflex" horiz-adv-x="540" unicode="ô" /><glyph d="M297 497Q397 497 445 430Q493 363 475 254L467 204Q450 99 393.5 44.5Q337 -10 244 -10Q144 -10 97 56.5Q50 123 67 234L75 284Q91 386 148.5 441.5Q206 497 297 497ZM404 204 412 254Q425 340 394.5 391Q364 442 298 442Q233 442 191.5 401Q150 360 138 284L130 234Q116 146 146 95.5Q176 45 243 45Q310 45 350.5 85Q391 125 404 204ZM279 698 267 627H196L208 698ZM468 698 456 627H385L397 698Z" glyph-name="odieresis" horiz-adv-x="540" unicode="ö" /><glyph d="M297 497Q397 497 445 430Q493 363 475 254L467 204Q450 99 393.5 44.5Q337 -10 244 -10Q144 -10 97 56.5Q50 123 67 234L75 284Q91 386 148.5 441.5Q206 497 297 497ZM404 204 412 254Q425 340 394.5 391Q364 442 298 442Q233 442 191.5 401Q150 360 138 284L130 234Q116 146 146 95.5Q176 45 243 45Q310 45 350.5 85Q391 125 404 204ZM341 579 293 579L223 716L284 745Z" glyph-name="ograve" horiz-adv-x="540" unicode="ò" /><glyph d="M297 497Q397 497 445 430Q493 363 475 254L467 204Q450 99 393.5 44.5Q337 -10 244 -10Q144 -10 97 56.5Q50 123 67 234L75 284Q91 386 148.5 441.5Q206 497 297 497ZM404 204 412 254Q425 340 394.5 391Q364 442 298 442Q233 442 191.5 401Q150 360 138 284L130 234Q116 146 146 95.5Q176 45 243 45Q310 45 350.5 85Q391 125 404 204ZM388 588Q365 588 347.5 599Q330 610 310 644Q298 666 290.5 672Q283 678 274 678Q259 678 248 659.5Q237 641 230 603H179Q191 668 214 699Q237 730 274 730Q297 730 314.5 719Q332 708 352 674Q365 653 372.5 646.5Q380 640 389 640Q404 640 414.5 658.5Q425 677 432 715H483Q471 650 448.5 619Q426 588 388 588Z" glyph-name="otilde" horiz-adv-x="540" unicode="õ" /><glyph d="M297 497Q397 497 445 430Q493 363 475 254L467 204Q450 99 393.5 44.5Q337 -10 244 -10Q144 -10 97 56.5Q50 123 67 234L75 284Q91 386 148.5 441.5Q206 497 297 497ZM404 204 412 254Q425 340 394.5 391Q364 442 298 442Q233 442 191.5 401Q150 360 138 284L130 234Q116 146 146 95.5Q176 45 243 45Q310 45 350.5 85Q391 125 404 204ZM325 636Q362 636 384.5 659Q407 682 420 731H473Q457 658 419.5 621.5Q382 585 323 585Q262 585 234.5 622Q207 659 215 731H264Q260 682 274.5 659Q289 636 325 636Z" glyph-name="obreve" horiz-adv-x="540" unicode="ŏ" /><glyph d="M297 497Q397 497 445 430Q493 363 475 254L467 204Q450 99 393.5 44.5Q337 -10 244 -10Q144 -10 97 56.5Q50 123 67 234L75 284Q91 386 148.5 441.5Q206 497 297 497ZM404 204 412 254Q425 340 394.5 391Q364 442 298 442Q233 442 191.5 401Q150 360 138 284L130 234Q116 146 146 95.5Q176 45 243 45Q310 45 350.5 85Q391 125 404 204ZM393 716 280 579H225L340 745ZM523 716 410 579H355L470 745Z" glyph-name="ohungarumlaut" horiz-adv-x="540" unicode="ő" /><glyph d="M297 497Q397 497 445 430Q493 363 475 254L467 204Q450 99 393.5 44.5Q337 -10 244 -10Q144 -10 97 56.5Q50 123 67 234L75 284Q91 386 148.5 441.5Q206 497 297 497ZM404 204 412 254Q425 340 394.5 391Q364 442 298 442Q233 442 191.5 401Q150 360 138 284L130 234Q116 146 146 95.5Q176 45 243 45Q310 45 350.5 85Q391 125 404 204ZM194 659 468 659L459 609H185Z" glyph-name="omacron" horiz-adv-x="540" unicode="ō" /><glyph d="M382 497 371 436Q313 436 260 403.5Q207 371 166 309L112 0H52L138 487H195L178 389Q222 442 274 469.5Q326 497 382 497ZM424 716 306 579H251L366 745Z" glyph-name="racute" horiz-adv-x="354" unicode="ŕ" /><glyph d="M382 497 371 436Q313 436 260 403.5Q207 371 166 309L112 0H52L138 487H195L178 389Q222 442 274 469.5Q326 497 382 497ZM375 740 428 740L309 579H246L183 740H232L285 634Z" glyph-name="rcaron" horiz-adv-x="354" unicode="ř" /><glyph d="M382 497 371 436Q313 436 260 403.5Q207 371 166 309L112 0H52L138 487H195L178 389Q222 442 274 469.5Q326 497 382 497ZM104 -77 7 -243L-30 -232L31 -77Z" glyph-name="rcommaaccent" horiz-adv-x="354" unicode="ŗ" /><glyph d="M162 45Q223 45 254.5 67Q286 89 286 131Q286 160 269 178.5Q252 197 209 215L165 233Q114 254 90.5 284Q67 314 67 357Q67 423 110 460Q153 497 232 497Q271 497 308.5 488Q346 479 383 461L364 410Q330 427 298.5 434.5Q267 442 232 442Q180 442 153.5 421.5Q127 401 127 362Q127 334 143 316Q159 298 194 284L239 266Q297 243 322 213Q347 183 347 138Q347 71 298.5 30.5Q250 -10 163 -10Q123 -10 84 -1.5Q45 7 5 25L24 76Q60 60 94 52.5Q128 45 162 45ZM361 740 414 740L295 579H232L169 740H218L271 634Z" glyph-name="scaron" horiz-adv-x="415" unicode="š" /><glyph d="M162 45Q223 45 254.5 67Q286 89 286 131Q286 160 269 178.5Q252 197 209 215L165 233Q114 254 90.5 284Q67 314 67 357Q67 423 110 460Q153 497 232 497Q271 497 308.5 488Q346 479 383 461L364 410Q330 427 298.5 434.5Q267 442 232 442Q180 442 153.5 421.5Q127 401 127 362Q127 334 143 316Q159 298 194 284L239 266Q297 243 322 213Q347 183 347 138Q347 71 298.5 30.5Q250 -10 163 -10Q123 -10 84 -1.5Q45 7 5 25L24 76Q60 60 94 52.5Q128 45 162 45ZM409 716 291 579H236L351 745Z" glyph-name="sacute" horiz-adv-x="415" unicode="ś" /><glyph d="M235 -132Q235 -174 205.5 -198.5Q176 -223 124 -223Q104 -223 85 -219.5Q66 -216 47 -208L59 -162Q73 -168 89 -171Q105 -174 120 -174Q149 -174 165 -163.5Q181 -153 181 -135Q181 -119 169.5 -111.5Q158 -104 134 -104Q130 -104 125.5 -104.5Q121 -105 111 -106L96 -64L116 -7Q89 -3 61.5 5Q34 13 5 25L24 76Q60 60 94 52.5Q128 45 162 45Q223 45 254.5 67Q286 89 286 131Q286 160 269 178.5Q252 197 209 215L165 233Q114 254 90.5 284Q67 314 67 357Q67 423 110 460Q153 497 232 497Q271 497 308.5 488Q346 479 383 461L364 410Q330 427 298.5 434.5Q267 442 232 442Q180 442 153.5 421.5Q127 401 127 362Q127 334 143 316Q159 298 194 284L239 266Q297 243 322 213Q347 183 347 138Q347 71 298.5 30.5Q250 -10 163 -10L145 -58H149Q190 -58 212.5 -77Q235 -96 235 -132Z" glyph-name="scedilla" horiz-adv-x="415" unicode="ş" /><glyph d="M162 45Q223 45 254.5 67Q286 89 286 131Q286 160 269 178.5Q252 197 209 215L165 233Q114 254 90.5 284Q67 314 67 357Q67 423 110 460Q153 497 232 497Q271 497 308.5 488Q346 479 383 461L364 410Q330 427 298.5 434.5Q267 442 232 442Q180 442 153.5 421.5Q127 401 127 362Q127 334 143 316Q159 298 194 284L239 266Q297 243 322 213Q347 183 347 138Q347 71 298.5 30.5Q250 -10 163 -10Q123 -10 84 -1.5Q45 7 5 25L24 76Q60 60 94 52.5Q128 45 162 45ZM386 579 337 579L284 685L194 579H141L260 740H323Z" glyph-name="scircumflex" horiz-adv-x="415" unicode="ŝ" /><glyph d="M162 45Q223 45 254.5 67Q286 89 286 131Q286 160 269 178.5Q252 197 209 215L165 233Q114 254 90.5 284Q67 314 67 357Q67 423 110 460Q153 497 232 497Q271 497 308.5 488Q346 479 383 461L364 410Q330 427 298.5 434.5Q267 442 232 442Q180 442 153.5 421.5Q127 401 127 362Q127 334 143 316Q159 298 194 284L239 266Q297 243 322 213Q347 183 347 138Q347 71 298.5 30.5Q250 -10 163 -10Q123 -10 84 -1.5Q45 7 5 25L24 76Q60 60 94 52.5Q128 45 162 45ZM171 -77 74 -243L37 -232L98 -77Z" glyph-name="uni0219" horiz-adv-x="415" unicode="ș" /><glyph d="M304 69 323 21Q290 6 260 -2Q230 -10 203 -10Q145 -10 118.5 30Q92 70 103 135L121 236H32L40 286H130L156 434H67L76 487H165L190 629H250L225 487H390L381 434H216L190 286H327L319 236H181L163 134Q155 89 167.5 66Q180 43 212 43Q232 43 255.5 49.5Q279 56 304 69Z" glyph-name="tbar" horiz-adv-x="387" unicode="ŧ" /><glyph d="M287 69 306 21Q273 6 243 -2Q213 -10 186 -10Q128 -10 101.5 30Q75 70 86 135L139 434H50L59 487H148L173 629H233L208 487H373L364 434H199L146 134Q138 89 150.5 66Q163 43 195 43Q215 43 238.5 49.5Q262 56 287 69ZM397 760 339 567H299L333 760Z" glyph-name="tcaron" horiz-adv-x="370" unicode="ť" /><glyph d="M287 69 306 21Q273 6 243 -2Q213 -10 186 -10Q128 -10 101.5 30Q75 70 86 135L139 434H50L59 487H148L173 629H233L208 487H373L364 434H199L146 134Q138 89 150.5 66Q163 43 195 43Q215 43 238.5 49.5Q262 56 287 69ZM189 -77 92 -243L55 -232L116 -77Z" glyph-name="uni0163" horiz-adv-x="370" unicode="ţ" /><glyph d="M287 69 306 21Q273 6 243 -2Q213 -10 186 -10Q128 -10 101.5 30Q75 70 86 135L139 434H50L59 487H148L173 629H233L208 487H373L364 434H199L146 134Q138 89 150.5 66Q163 43 195 43Q215 43 238.5 49.5Q262 56 287 69ZM189 -77 92 -243L55 -232L116 -77Z" glyph-name="uni021B" horiz-adv-x="370" unicode="ț" /><glyph d="M415 0 358 0L374 93Q326 41 280 15.5Q234 -10 186 -10Q123 -10 92.5 36.5Q62 83 75 160L133 487H193L137 171Q126 111 141.5 79Q157 47 196 47Q239 47 285.5 77Q332 107 385 169L441 487H501ZM479 716 361 579H306L421 745Z" glyph-name="uacute" horiz-adv-x="553" unicode="ú" /><glyph d="M415 0 358 0L374 93Q326 41 280 15.5Q234 -10 186 -10Q123 -10 92.5 36.5Q62 83 75 160L133 487H193L137 171Q126 111 141.5 79Q157 47 196 47Q239 47 285.5 77Q332 107 385 169L441 487H501ZM456 579 407 579L354 685L264 579H211L330 740H393Z" glyph-name="ucircumflex" horiz-adv-x="553" unicode="û" /><glyph d="M415 0 358 0L374 93Q326 41 280 15.5Q234 -10 186 -10Q123 -10 92.5 36.5Q62 83 75 160L133 487H193L137 171Q126 111 141.5 79Q157 47 196 47Q239 47 285.5 77Q332 107 385 169L441 487H501ZM295 698 283 627H212L224 698ZM484 698 472 627H401L413 698Z" glyph-name="udieresis" horiz-adv-x="553" unicode="ü" /><glyph d="M415 0 358 0L374 93Q326 41 280 15.5Q234 -10 186 -10Q123 -10 92.5 36.5Q62 83 75 160L133 487H193L137 171Q126 111 141.5 79Q157 47 196 47Q239 47 285.5 77Q332 107 385 169L441 487H501ZM357 579 309 579L239 716L300 745Z" glyph-name="ugrave" horiz-adv-x="553" unicode="ù" /><glyph d="M415 0 358 0L374 93Q326 41 280 15.5Q234 -10 186 -10Q123 -10 92.5 36.5Q62 83 75 160L133 487H193L137 171Q126 111 141.5 79Q157 47 196 47Q239 47 285.5 77Q332 107 385 169L441 487H501ZM341 636Q378 636 400.5 659Q423 682 436 731H489Q473 658 435.5 621.5Q398 585 339 585Q278 585 250.5 622Q223 659 231 731H280Q276 682 290.5 659Q305 636 341 636Z" glyph-name="ubreve" horiz-adv-x="553" unicode="ŭ" /><glyph d="M415 0 358 0L374 93Q326 41 280 15.5Q234 -10 186 -10Q123 -10 92.5 36.5Q62 83 75 160L133 487H193L137 171Q126 111 141.5 79Q157 47 196 47Q239 47 285.5 77Q332 107 385 169L441 487H501ZM409 716 296 579H241L356 745ZM539 716 426 579H371L486 745Z" glyph-name="uhungarumlaut" horiz-adv-x="553" unicode="ű" /><glyph d="M415 0 358 0L374 93Q326 41 280 15.5Q234 -10 186 -10Q123 -10 92.5 36.5Q62 83 75 160L133 487H193L137 171Q126 111 141.5 79Q157 47 196 47Q239 47 285.5 77Q332 107 385 169L441 487H501ZM210 659 484 659L475 609H201Z" glyph-name="umacron" horiz-adv-x="553" unicode="ū" /><glyph d="M373 -157 384 -206Q362 -215 342.5 -219Q323 -223 304 -223Q262 -223 239.5 -204Q217 -185 217 -150Q217 -111 250.5 -72Q284 -33 361 19L374 93Q326 41 280 15.5Q234 -10 186 -10Q123 -10 92.5 36.5Q62 83 75 160L133 487H193L137 171Q126 111 141.5 79Q157 47 196 47Q239 47 285.5 77Q332 107 385 169L441 487H501L415 0Q340 -50 308.5 -81Q277 -112 277 -138Q277 -154 286.5 -162Q296 -170 314 -170Q326 -170 341 -166.5Q356 -163 373 -157Z" glyph-name="uogonek" horiz-adv-x="553" unicode="ų" /><glyph d="M415 0 358 0L374 93Q326 41 280 15.5Q234 -10 186 -10Q123 -10 92.5 36.5Q62 83 75 160L133 487H193L137 171Q126 111 141.5 79Q157 47 196 47Q239 47 285.5 77Q332 107 385 169L441 487H501ZM360 783Q411 783 439 753Q467 723 460 677L458 663Q452 618 420 590.5Q388 563 340 563Q289 563 261 593.5Q233 624 240 671L242 685Q248 729 280 756Q312 783 360 783ZM407 667 409 681Q412 705 398 720.5Q384 736 358 736Q332 736 314.5 721Q297 706 293 680L291 666Q287 641 301 626Q315 611 342 611Q368 611 385.5 626Q403 641 407 667Z" glyph-name="uring" horiz-adv-x="553" unicode="ů" /><glyph d="M415 0 358 0L374 93Q326 41 280 15.5Q234 -10 186 -10Q123 -10 92.5 36.5Q62 83 75 160L133 487H193L137 171Q126 111 141.5 79Q157 47 196 47Q239 47 285.5 77Q332 107 385 169L441 487H501ZM404 588Q381 588 363.5 599Q346 610 326 644Q314 666 306.5 672Q299 678 290 678Q275 678 264 659.5Q253 641 246 603H195Q207 668 230 699Q253 730 290 730Q313 730 330.5 719Q348 708 368 674Q381 653 388.5 646.5Q396 640 405 640Q420 640 430.5 658.5Q441 677 448 715H499Q487 650 464.5 619Q442 588 404 588Z" glyph-name="utilde" horiz-adv-x="553" unicode="ũ" /><glyph d="M648 487 712 487L501 0H426L383 421L190 0H115L77 487H136L150 276L164 64L359 487H428L472 62L561 276ZM551 716 433 579H378L493 745Z" glyph-name="wacute" horiz-adv-x="703" unicode="ẃ" /><glyph d="M648 487 712 487L501 0H426L383 421L190 0H115L77 487H136L150 276L164 64L359 487H428L472 62L561 276ZM528 579 479 579L426 685L336 579H283L402 740H465Z" glyph-name="wcircumflex" horiz-adv-x="703" unicode="ŵ" /><glyph d="M648 487 712 487L501 0H426L383 421L190 0H115L77 487H136L150 276L164 64L359 487H428L472 62L561 276ZM367 698 355 627H284L296 698ZM556 698 544 627H473L485 698Z" glyph-name="wdieresis" horiz-adv-x="703" unicode="ẅ" /><glyph d="M648 487 712 487L501 0H426L383 421L190 0H115L77 487H136L150 276L164 64L359 487H428L472 62L561 276ZM429 579 381 579L311 716L372 745Z" glyph-name="wgrave" horiz-adv-x="703" unicode="ẁ" /><glyph d="M215 0 188 -50Q134 -150 85.5 -186.5Q37 -223 -39 -223L-29 -166Q28 -166 61 -137Q94 -108 138 -30L156 3L68 487H128L168 254L197 73L288 254L409 487H473ZM427 716 309 579H254L369 745Z" glyph-name="yacute" horiz-adv-x="455" unicode="ý" /><glyph d="M215 0 188 -50Q134 -150 85.5 -186.5Q37 -223 -39 -223L-29 -166Q28 -166 61 -137Q94 -108 138 -30L156 3L68 487H128L168 254L197 73L288 254L409 487H473ZM243 698 231 627H160L172 698ZM432 698 420 627H349L361 698Z" glyph-name="ydieresis" horiz-adv-x="455" unicode="ÿ" /><glyph d="M215 0 188 -50Q134 -150 85.5 -186.5Q37 -223 -39 -223L-29 -166Q28 -166 61 -137Q94 -108 138 -30L156 3L68 487H128L168 254L197 73L288 254L409 487H473ZM404 579 355 579L302 685L212 579H159L278 740H341Z" glyph-name="ycircumflex" horiz-adv-x="455" unicode="ŷ" /><glyph d="M215 0 188 -50Q134 -150 85.5 -186.5Q37 -223 -39 -223L-29 -166Q28 -166 61 -137Q94 -108 138 -30L156 3L68 487H128L168 254L197 73L288 254L409 487H473ZM305 579 257 579L187 716L248 745Z" glyph-name="ygrave" horiz-adv-x="455" unicode="ỳ" /><glyph d="M74 53 333 53L324 0H-8L0 48L318 434H79L88 487H400L391 439ZM353 740 406 740L287 579H224L161 740H210L263 634Z" glyph-name="zcaron" horiz-adv-x="399" unicode="ž" /><glyph d="M74 53 333 53L324 0H-8L0 48L318 434H79L88 487H400L391 439ZM401 716 283 579H228L343 745Z" glyph-name="zacute" horiz-adv-x="399" unicode="ź" /><glyph d="M74 53 333 53L324 0H-8L0 48L318 434H79L88 487H400L391 439ZM312 699 300 626H227L239 699Z" glyph-name="zdotaccent" horiz-adv-x="399" unicode="ż" /><glyph d="M401 716 283 579H228L343 745Z" glyph-name="acute" horiz-adv-x="500" unicode="´" /><glyph d="M305 579 257 579L187 716L248 745Z" glyph-name="grave" horiz-adv-x="500" unicode="`" /><glyph d="M404 579 355 579L302 685L212 579H159L278 740H341Z" glyph-name="circumflex" horiz-adv-x="500" unicode="ˆ" /><glyph d="M353 740 406 740L287 579H224L161 740H210L263 634Z" glyph-name="caron" horiz-adv-x="500" unicode="ˇ" /><glyph d="M404 588Q381 588 363.5 599Q346 610 326 644Q314 666 306.5 672Q299 678 290 678Q275 678 264 659.5Q253 641 246 603H195Q207 668 230 699Q253 730 290 730Q313 730 330.5 719Q348 708 368 674Q381 653 388.5 646.5Q396 640 405 640Q420 640 430.5 658.5Q441 677 448 715H499Q487 650 464.5 619Q442 588 404 588Z" glyph-name="tilde" horiz-adv-x="500" unicode="˜" /><glyph d="M243 698 231 627H160L172 698ZM432 698 420 627H349L361 698Z" glyph-name="dieresis" horiz-adv-x="500" unicode="¨" /><glyph d="M360 783Q411 783 439 753Q467 723 460 677L458 663Q452 618 420 590.5Q388 563 340 563Q289 563 261 593.5Q233 624 240 671L242 685Q248 729 280 756Q312 783 360 783ZM407 667 409 681Q412 705 398 720.5Q384 736 358 736Q332 736 314.5 721Q297 706 293 680L291 666Q287 641 301 626Q315 611 342 611Q368 611 385.5 626Q403 641 407 667Z" glyph-name="ring" horiz-adv-x="500" unicode="˚" /><glyph d="M274 -132Q274 -174 244.5 -198.5Q215 -223 163 -223Q143 -223 124 -219.5Q105 -216 86 -208L98 -162Q112 -168 128 -171Q144 -174 159 -174Q188 -174 204 -163.5Q220 -153 220 -135Q220 -119 208.5 -111.5Q197 -104 173 -104Q169 -104 164.5 -104.5Q160 -105 150 -106L135 -64L158 0H206L184 -58H188Q229 -58 251.5 -77Q274 -96 274 -132Z" glyph-name="cedilla" horiz-adv-x="500" unicode="¸" /><glyph d="M409 716 296 579H241L356 745ZM539 716 426 579H371L486 745Z" glyph-name="hungarumlaut" horiz-adv-x="500" unicode="˝" /><glyph d="M341 636Q378 636 400.5 659Q423 682 436 731H489Q473 658 435.5 621.5Q398 585 339 585Q278 585 250.5 622Q223 659 231 731H280Q276 682 290.5 659Q305 636 341 636Z" glyph-name="breve" horiz-adv-x="500" unicode="˘" /><glyph d="M210 659 484 659L475 609H201Z" glyph-name="macron" horiz-adv-x="500" unicode="¯" /><glyph d="M312 699 300 626H227L239 699Z" glyph-name="dotaccent" horiz-adv-x="500" unicode="˙" /><glyph d="M320 421 308 348H235L247 421Z" glyph-name="periodcentered" horiz-adv-x="500" unicode="·" /><glyph d="M158 -138Q158 -154 167.5 -162Q177 -170 195 -170Q207 -170 222 -166.5Q237 -163 254 -157L265 -206Q243 -215 223.5 -219Q204 -223 185 -223Q143 -223 120.5 -204Q98 -185 98 -150Q98 -106 139.5 -62.5Q181 -19 279 43L296 0Q221 -50 189.5 -81Q158 -112 158 -138Z" glyph-name="ogonek" horiz-adv-x="500" unicode="˛" /><glyph d="M189 -77 92 -243L55 -232L116 -77Z" glyph-name="commaaccent" horiz-adv-x="500" unicode="" /><glyph d="M397 760 339 567H299L333 760Z" glyph-name="caron.alt" horiz-adv-x="500" unicode="" /><glyph d="M301 579 398 745L435 734L374 579Z" glyph-name="revcommaaccent" horiz-adv-x="500" unicode="" /><glyph d="M96 73 83 0H11L24 73Z" glyph-name="period" horiz-adv-x="180" unicode="." /><glyph d="M29 73 91 73L88 54Q77 -17 49 -75.5Q21 -134 -34 -199L-72 -173Q-27 -108 -6.5 -57.5Q14 -7 29 73Z" glyph-name="comma" horiz-adv-x="180" unicode="," /><glyph d="M169 487 156 414H84L97 487ZM96 73 83 0H11L24 73Z" glyph-name="colon" horiz-adv-x="180" unicode=":" /><glyph d="M169 487 156 414H84L97 487ZM29 73 91 73L88 54Q77 -17 49 -75.5Q21 -134 -34 -199L-72 -173Q-27 -108 -6.5 -57.5Q14 -7 29 73Z" glyph-name="semicolon" horiz-adv-x="180" unicode=";" /><glyph d="M496 73 483 0H411L424 73ZM496 73 483 0H411L424 73ZM496 73 483 0H411L424 73Z" glyph-name="ellipsis" horiz-adv-x="580" unicode="…" /><glyph d="M262 635Q222 635 180.5 625.5Q139 616 94 596L81 649Q127 669 173 679.5Q219 690 261 690Q353 690 399.5 641.5Q446 593 432 514L429 497Q422 455 402.5 424Q383 393 318 337L281 305Q248 277 234.5 255Q221 233 215 198L210 172H150L155 197Q164 247 182.5 278Q201 309 256 355L294 387Q327 414 344 443Q361 472 368 509L371 526Q380 577 351 606Q322 635 262 635ZM201 73 188 0H116L129 73Z" glyph-name="question" horiz-adv-x="422" unicode="?" /><glyph d="M199 410 152 172H102L139 410L187 680H247ZM146 73 133 0H61L74 73Z" glyph-name="exclam" horiz-adv-x="280" unicode="!" /><glyph d="M234 414 247 487H319L306 414ZM173 -148Q213 -148 254.5 -138.5Q296 -129 341 -109L354 -162Q308 -182 262 -192.5Q216 -203 174 -203Q82 -203 35.5 -154.5Q-11 -106 3 -27L6 -10Q13 32 32.5 63Q52 94 117 150L154 182Q187 210 200.5 232Q214 254 220 289L225 315H285L280 290Q271 240 252.5 209Q234 178 179 132L141 100Q108 73 91 44Q74 15 67 -22L64 -39Q55 -90 84 -119Q113 -148 173 -148Z" glyph-name="questiondown" horiz-adv-x="423" unicode="¿" /><glyph d="M134 414 147 487H219L206 414ZM81 77 128 315H178L141 77L93 -193H33Z" glyph-name="exclamdown" horiz-adv-x="280" unicode="¡" /><glyph d="M131 225 131 200Q131 118 159 35Q187 -48 237 -116L192 -153Q135 -81 103 12.5Q71 106 71 199V223Q71 368 144.5 508Q218 648 350 750L382 703Q258 600 194.5 479Q131 358 131 225Z" glyph-name="parenleft" horiz-adv-x="304" unicode="(" /><glyph d="M191 372 191 397Q191 479 163 562Q135 645 85 713L130 750Q187 678 219 584.5Q251 491 251 398V374Q251 229 177.5 89Q104 -51 -28 -153L-60 -106Q64 -3 127.5 118Q191 239 191 372Z" glyph-name="parenright" horiz-adv-x="303" unicode=")" /><glyph d="M227 -91 312 -91L303 -144H225Q137 -144 106.5 -95Q76 -46 108 41L147 147Q171 213 159.5 242.5Q148 272 99 272H26L35 325H108Q157 325 179 354Q201 383 200 449L199 555Q197 651 236.5 695.5Q276 740 361 740H458L449 687H364Q312 687 285.5 657.5Q259 628 260 574L262 468Q263 395 243 352Q223 309 182 295Q216 279 221 237.5Q226 196 202 128L163 22Q143 -33 159.5 -62Q176 -91 227 -91Z" glyph-name="braceleft" horiz-adv-x="375" unicode="{" /><glyph d="M194 147 195 41Q197 -55 157.5 -99.5Q118 -144 33 -144H-64L-55 -91H30Q82 -91 108.5 -61.5Q135 -32 134 22L132 128Q131 201 151 244Q171 287 212 301Q178 317 173 358.5Q168 400 192 468L231 574Q251 629 234.5 658Q218 687 167 687H82L91 740H169Q257 740 287.5 691Q318 642 286 555L247 449Q223 383 234.5 353.5Q246 324 295 324H368L359 271H286Q237 271 215 242Q193 213 194 147Z" glyph-name="braceright" horiz-adv-x="375" unicode="}" /><glyph d="M116 -90 281 -90L272 -143H47L202 740H427L418 687H253Z" glyph-name="bracketleft" horiz-adv-x="344" unicode="[" /><glyph d="M91 740 316 740L161 -143H-64L-55 -90H110L247 687H82Z" glyph-name="bracketright" horiz-adv-x="344" unicode="]" /><glyph d="M-107 -143 377 740H440L-44 -143Z" glyph-name="slash" horiz-adv-x="344" unicode="/" /><glyph d="M78 740 136 740L315 -143H257Z" glyph-name="backslash" horiz-adv-x="344" unicode="\" /><glyph d="M299 -153 -65 -153L-56 -100H308Z" glyph-name="underscore" horiz-adv-x="374" unicode="_" /><glyph d="M328 269 64 269L74 322H338Z" glyph-name="hyphen" horiz-adv-x="384" unicode="-" /><glyph d="" glyph-name="uni00AD" horiz-adv-x="0" unicode="­" /><glyph d="M528 269 64 269L74 322H538Z" glyph-name="endash" horiz-adv-x="584" unicode="–" /><glyph d="M728 269 64 269L74 322H738Z" glyph-name="emdash" horiz-adv-x="784" unicode="—" /><glyph d="M132 357 199 740H259L192 357ZM31 -213 99 170H159L91 -213Z" glyph-name="brokenbar" horiz-adv-x="284" unicode="¦" /><glyph d="M34 -213 202 740H262L94 -213Z" glyph-name="bar" horiz-adv-x="290" unicode="|" /><glyph d="M101 242 283 80L271 14L33 229L40 266L353 478L340 402ZM371 242 553 80L541 14L303 229L310 266L623 478L610 402Z" glyph-name="guillemotleft" horiz-adv-x="638" unicode="«" /><glyph d="M336 263 329 226L16 14L29 90L268 250L86 412L98 478ZM606 263 599 226L286 14L299 90L538 250L356 412L368 478Z" glyph-name="guillemotright" horiz-adv-x="638" unicode="»" /><glyph d="M101 242 283 80L271 14L33 229L40 266L353 478L340 402Z" glyph-name="guilsinglleft" horiz-adv-x="368" unicode="‹" /><glyph d="M336 263 329 226L16 14L29 90L268 250L86 412L98 478Z" glyph-name="guilsinglright" horiz-adv-x="368" unicode="›" /><glyph d="M29 73 91 73L88 54Q79 0 56.5 -49Q34 -98 -12 -159L-51 -137Q-15 -80 1.5 -36.5Q18 7 29 73Z" glyph-name="quotesinglbase" horiz-adv-x="180" unicode="‚" /><glyph d="M29 73 91 73L88 54Q79 0 56.5 -49Q34 -98 -12 -159L-51 -137Q-15 -80 1.5 -36.5Q18 7 29 73ZM179 73 241 73L238 54Q229 0 206.5 -49Q184 -98 138 -159L99 -137Q135 -80 151.5 -36.5Q168 7 179 73Z" glyph-name="quotedblbase" horiz-adv-x="330" unicode="„" /><glyph d="M141 458 79 458L82 477Q91 531 113.5 580Q136 629 182 690L221 668Q185 611 168.5 567.5Q152 524 141 458Z" glyph-name="quoteleft" horiz-adv-x="180" unicode="‘" /><glyph d="M291 458 229 458L232 477Q241 531 263.5 580Q286 629 332 690L371 668Q335 611 318.5 567.5Q302 524 291 458ZM141 458 79 458L82 477Q91 531 113.5 580Q136 629 182 690L221 668Q185 611 168.5 567.5Q152 524 141 458Z" glyph-name="quotedblleft" horiz-adv-x="330" unicode="“" /><glyph d="M93 680 155 680L152 661Q143 607 120.5 558Q98 509 52 448L13 470Q49 527 65.5 570.5Q82 614 93 680Z" glyph-name="quoteright" horiz-adv-x="180" unicode="’" /><glyph d="M154 680 216 680L213 661Q204 607 181.5 558Q159 509 113 448L74 470Q110 527 126.5 570.5Q143 614 154 680ZM304 680 366 680L363 661Q354 607 331.5 558Q309 509 263 448L224 470Q260 527 276.5 570.5Q293 614 304 680Z" glyph-name="quotedblright" horiz-adv-x="330" unicode="”" /><glyph d="M186 614 151 458H105L124 614L136 680H198Z" glyph-name="quotesingle" horiz-adv-x="180" unicode="'" /><glyph d="M186 614 151 458H105L124 614L136 680H198ZM338 614 303 458H257L276 614L288 680H350Z" glyph-name="quotedbl" horiz-adv-x="332" unicode="&quot;" /><glyph d="M204 390 184 277H72L92 390Z" glyph-name="bullet" horiz-adv-x="244" unicode="•" /><glyph d="M455 188Q455 97 390 43.5Q325 -10 217 -10Q122 -10 69.5 32.5Q17 75 17 153Q17 225 63.5 271.5Q110 318 212 346Q161 385 136 430.5Q111 476 111 527Q111 603 160.5 646.5Q210 690 295 690Q392 690 438 633Q484 576 456 493L396 478Q418 553 391 595Q364 637 294 637Q235 637 204 609Q173 581 173 528Q173 483 196.5 442.5Q220 402 270 360L360 380Q433 396 481 411Q529 426 568 446L587 391Q552 375 512.5 362.5Q473 350 403 334L396 333Q425 300 440 263Q455 226 455 188ZM80 155Q80 101 115.5 73Q151 45 218 45Q299 45 345.5 83.5Q392 122 392 190Q392 225 379.5 258Q367 291 342 320L272 305Q166 282 123 248Q80 214 80 155Z" glyph-name="ampersand" horiz-adv-x="574" unicode="&amp;" /><glyph d="M83 453 93 506Q109 591 163.5 635.5Q218 680 307 680H610L600 621H509L375 -143H310L444 621H373L309 260H253Q159 260 113 313.5Q67 367 83 453Z" glyph-name="paragraph" horiz-adv-x="558" unicode="¶" /><glyph d="M252 269 249 251L169 -143H125L183 251L186 269L190 289L229 453L69 443H49L60 507H80L237 497L255 660L259 680H325L321 660L282 497L442 507H462L451 443H431L274 453L256 289Z" glyph-name="dagger" horiz-adv-x="430" unicode="†" /><glyph d="M213 40 194 -123L191 -143H125L128 -123L167 40L7 30H-13L-1 94H19L175 84L194 248L201 289L240 453L80 443H60L71 507H91L248 497L266 660L270 680H336L332 660L293 497L453 507H473L462 443H442L285 453L267 289L260 248L220 84L381 94H401L389 30H369Z" glyph-name="daggerdbl" horiz-adv-x="452" unicode="‡" /><glyph d="M341 73Q365 51 376.5 22.5Q388 -6 388 -41Q388 -125 328.5 -174Q269 -223 162 -223Q113 -223 65 -212Q17 -201 -27 -180L-5 -123Q39 -145 80.5 -155.5Q122 -166 162 -166Q238 -166 280.5 -134.5Q323 -103 323 -46Q323 -7 302.5 19Q282 45 236 63L165 91Q104 115 74.5 151.5Q45 188 45 239Q45 296 79.5 339.5Q114 383 176 405Q150 426 137.5 453.5Q125 481 125 516Q125 597 178 643.5Q231 690 327 690Q374 690 418 680Q462 670 501 650L479 593Q439 614 402 623.5Q365 633 327 633Q262 633 225.5 602.5Q189 572 189 518Q189 484 209.5 461.5Q230 439 280 419L340 395Q400 371 430 331Q460 291 460 236Q460 185 428 141Q396 97 341 73ZM200 143 271 115Q278 112 283 110Q288 108 293 105Q344 127 369.5 157Q395 187 395 227Q395 269 373.5 296.5Q352 324 305 343L245 367Q240 369 236 370.5Q232 372 229 374Q167 354 138 322.5Q109 291 109 245Q109 209 130.5 185.5Q152 162 200 143Z" glyph-name="section" horiz-adv-x="502" unicode="§" /><glyph d="M345 355 354 337L300 310L291 328L239 466L145 353L130 340L88 384L103 397L219 488L82 544L65 554L92 607L110 597L233 516L244 663L248 682L307 672L303 652L263 511L407 545L427 548L435 489L415 485L267 480Z" glyph-name="asterisk" horiz-adv-x="402" unicode="*" /><glyph d="M389 680 445 680L511 435L665 680H724L664 340H616L634 445L661 595L525 380H480L422 595L395 445L377 340H329ZM178 633 74 633L82 680H341L333 633H229L177 340H126Z" glyph-name="trademark" horiz-adv-x="705" unicode="™" /><glyph d="M552 479Q552 377 485 309Q418 241 318 241Q218 241 151 309Q84 377 84 479Q84 582 150.5 649.5Q217 717 318 717Q419 717 485.5 649.5Q552 582 552 479ZM131 479Q131 395 184 339.5Q237 284 318 284Q399 284 452 339.5Q505 395 505 479Q505 564 452 619Q399 674 318 674Q237 674 184 619Q131 564 131 479ZM286 353 241 353V608H323Q360 608 381.5 588.5Q403 569 403 535V518Q403 496 393.5 479Q384 462 366 452Q380 430 393 405.5Q406 381 418 353H367Q357 376 346 398.5Q335 421 322 443H286ZM323 566 286 566V486H323Q338 486 347 494.5Q356 503 356 518V535Q356 549 347 557.5Q338 566 323 566Z" glyph-name="registered" horiz-adv-x="554" unicode="®" /><glyph d="M811 340Q811 177 705.5 70Q600 -37 439 -37Q278 -37 172.5 70Q67 177 67 340Q67 503 172.5 610Q278 717 439 717Q600 717 705.5 610Q811 503 811 340ZM123 340Q123 197 212 105Q301 13 439 13Q577 13 666 105Q755 197 755 340Q755 482 665.5 574.5Q576 667 439 667Q302 667 212.5 574.5Q123 482 123 340ZM443 502Q385 502 356.5 467Q328 432 328 361V320Q328 248 356.5 213Q385 178 443 178Q471 178 500 185Q529 192 560 207L580 158Q547 141 510.5 132Q474 123 438 123Q354 123 309.5 174Q265 225 265 320V361Q265 455 309.5 506Q354 557 438 557Q473 557 507 548.5Q541 540 571 525L551 476Q523 489 496 495.5Q469 502 443 502Z" glyph-name="copyright" horiz-adv-x="844" unicode="©" /><glyph d="M712 -115 736 -167Q676 -194 608 -208.5Q540 -223 474 -223Q282 -223 169.5 -106Q57 11 57 207Q57 416 181 553Q305 690 496 690Q672 690 786.5 573.5Q901 457 901 281Q901 159 841 77Q781 -5 691 -5Q640 -5 610.5 17Q581 39 575 82Q537 37 494 13.5Q451 -10 407 -10Q337 -10 302.5 48.5Q268 107 281 199L290 260Q304 359 359.5 413Q415 467 502 467Q546 467 590 452.5Q634 438 681 407L636 150Q627 97 641 72Q655 47 695 47Q755 47 797.5 114.5Q840 182 840 281Q840 434 743 535.5Q646 637 496 637Q332 637 225 515Q118 393 118 207Q118 33 213.5 -68.5Q309 -170 474 -170Q535 -170 597.5 -155.5Q660 -141 712 -115ZM353 260 344 199Q333 126 352 84.5Q371 43 415 43Q456 43 499 75Q542 107 580 167L616 380Q586 396 558.5 404Q531 412 504 412Q440 412 402 374Q364 336 353 260Z" glyph-name="at" horiz-adv-x="954" unicode="@" /><glyph d="M357 338 346 338Q315 338 298 353Q281 368 279 397Q254 366 226.5 350.5Q199 335 169 335Q118 335 93 380Q68 425 78 496L83 531Q93 602 135.5 643.5Q178 685 242 685Q274 685 306 674.5Q338 664 371 642L334 432Q330 408 335 398Q340 388 355 388H366ZM138 531 133 496Q125 444 136.5 413.5Q148 383 176 383Q203 383 231.5 404.5Q260 426 288 468L315 617Q295 626 277.5 630.5Q260 635 243 635Q200 635 172 607.5Q144 580 138 531Z" glyph-name="ordfeminine" horiz-adv-x="369" unicode="ª" /><glyph d="M241 685Q311 685 346 638Q381 591 368 517L362 482Q350 410 310 372.5Q270 335 204 335Q133 335 99 381Q65 427 78 503L84 538Q96 609 136.5 647Q177 685 241 685ZM308 482 313 517Q321 571 302 603Q283 635 242 635Q199 635 172 609.5Q145 584 138 538L133 503Q125 447 143.5 416Q162 385 204 385Q248 385 274.5 410Q301 435 308 482Z" glyph-name="ordmasculine" horiz-adv-x="352" unicode="º" /><glyph d="M318 0 258 0L356 202H172L74 0H14L112 202H10L19 254H137L221 426H119L128 478H246L344 680H404L306 478H490L588 680H648L550 478H652L643 426H525L441 254H543L534 202H416ZM281 426 197 254H381L465 426Z" glyph-name="numbersign" horiz-adv-x="628" unicode="#" /><glyph d="M946 685Q1022 685 1059.5 640Q1097 595 1087 519L1082 482Q1071 401 1027 358Q983 315 911 315Q835 315 797.5 360Q760 405 770 481L775 518Q786 599 830 642Q874 685 946 685ZM133 0 72 0L192 680H270Q348 504 400.5 363.5Q453 223 497 77L544 388L596 680H657L537 0H459Q407 169 353.5 314.5Q300 460 239 603L184 291ZM1024 482 1029 517Q1036 570 1014.5 600.5Q993 631 946 631Q899 631 870 602Q841 573 833 518L828 483Q821 430 842.5 399.5Q864 369 911 369Q958 369 987.5 398Q1017 427 1024 482ZM1008 168 734 168L743 221H1017Z" glyph-name="uni2116" horiz-adv-x="1090" unicode="№" /><glyph d="M475 81 493 26Q452 8 406 -1Q360 -10 314 -10Q217 -10 166 49Q115 108 119 215H25L35 271H125L146 387H55L65 443H156Q183 570 247 630Q311 690 417 690Q460 690 502.5 679.5Q545 669 584 649L562 591Q524 611 487.5 621Q451 631 416 631Q341 631 293.5 584.5Q246 538 224 443H471L450 387H214L193 271H413L392 215H187Q184 132 217.5 90.5Q251 49 321 49Q362 49 400 57Q438 65 475 81Z" glyph-name="Euro" horiz-adv-x="567" unicode="€" /><glyph d="M440 187Q440 104 388.5 52Q337 0 242 -9L222 -125H162L182 -9Q136 -7 92 4.5Q48 16 8 36L30 93Q77 70 121 58.5Q165 47 207 47Q285 47 328.5 82.5Q372 118 372 182Q372 224 350 254Q328 284 281 304L210 335Q148 362 119 402Q90 442 90 501Q90 589 146.5 639.5Q203 690 305 690L326 805H386L365 686Q400 681 431.5 671.5Q463 662 491 647L469 590Q426 612 387 622.5Q348 633 307 633Q236 633 196.5 598.5Q157 564 157 503Q157 463 178 436.5Q199 410 245 390L316 359Q379 331 409.5 289Q440 247 440 187Z" glyph-name="dollar" horiz-adv-x="499" unicode="$" /><glyph d="M487 174 294 174L263 0H198L229 174H36L46 230H239L246 271L221 346H66L76 402H202L110 680H177L288 337L518 680H590L401 402H527L517 346H363L311 270L304 230H497Z" glyph-name="yen" horiz-adv-x="546" unicode="¥" /><glyph d="M134 59 427 59L417 0H32L40 46Q111 120 139.5 166.5Q168 213 168 259Q168 263 167.5 267.5Q167 272 166 285H74L85 344H154Q135 412 131 438.5Q127 465 127 490Q127 585 181.5 637.5Q236 690 338 690Q384 690 428 679.5Q472 669 512 649L487 592Q449 612 413 621.5Q377 631 340 631Q269 631 232 594.5Q195 558 195 487Q195 470 197.5 452.5Q200 435 204 414Q208 400 215 376.5Q222 353 224 344H409L398 285H235Q236 281 236 277Q236 273 236 264Q236 215 211.5 165.5Q187 116 134 59Z" glyph-name="sterling" horiz-adv-x="486" unicode="£" /><glyph d="M367 70 378 18Q343 5 309.5 -2Q276 -9 246 -10L225 -125H165L186 -5Q113 11 83.5 73Q54 135 69 234L77 284Q92 379 144.5 436Q197 493 275 497L295 612H355L334 493Q359 489 384.5 479.5Q410 470 434 457L411 407Q373 425 343.5 433.5Q314 442 290 442Q229 442 189.5 400.5Q150 359 138 284L130 234Q115 140 143.5 92.5Q172 45 242 45Q268 45 300 51.5Q332 58 367 70Z" glyph-name="cent" horiz-adv-x="443" unicode="¢" /><glyph d="M215 331 109 -68Q86 -154 50 -188.5Q14 -223 -46 -223Q-70 -223 -93.5 -217.5Q-117 -212 -137 -202L-114 -153Q-95 -162 -79.5 -166Q-64 -170 -47 -170Q-11 -170 11 -146Q33 -122 47 -69L153 331H29L39 384H167L223 595Q246 681 282 715.5Q318 750 378 750Q402 750 425.5 744.5Q449 739 469 729L446 680Q427 689 411.5 693Q396 697 379 697Q343 697 321 673Q299 649 285 596L229 384H353L343 331Z" glyph-name="florin" horiz-adv-x="342" unicode="ƒ" /><glyph d="M226 278 160 278Q230 216 288.5 150.5Q347 85 407 0H324Q264 81 204.5 145.5Q145 210 69 278L79 331H236Q292 331 332 364.5Q372 398 382 453H99L109 506H391Q399 562 371 594.5Q343 627 287 627H130L137 665L140 680H580L570 627H422Q447 605 456.5 574Q466 543 459 506H549L539 453H450Q434 372 374 325Q314 278 226 278Z" glyph-name="uni20B9" horiz-adv-x="535" unicode="₹" /><glyph d="M444 169 521 72L479 35L401 133Q376 118 348 110.5Q320 103 290 103Q254 103 223.5 113Q193 123 170 143L46 35L10 75L135 184Q123 205 116.5 229.5Q110 254 110 282Q110 324 124 362Q138 400 165 429L87 528L129 565L208 466Q232 481 261 489Q290 497 321 497Q355 497 385.5 487.5Q416 478 440 459L562 565L598 525L475 418Q488 397 494.5 372Q501 347 501 318Q501 275 486 236.5Q471 198 444 169ZM446 317Q446 378 413 412.5Q380 447 321 447Q253 447 209 400.5Q165 354 165 283Q165 222 198 187.5Q231 153 290 153Q358 153 402 199.5Q446 246 446 317Z" glyph-name="currency" horiz-adv-x="588" unicode="¤" /><glyph d="M371 690Q480 690 531.5 611Q583 532 559 397L534 254Q511 125 445.5 57.5Q380 -10 277 -10Q167 -10 116.5 68.5Q66 147 90 284L115 427Q137 555 203 622.5Q269 690 371 690ZM468 254 493 397Q513 509 480.5 571Q448 633 370 633Q295 633 247 580.5Q199 528 181 427L156 284Q136 171 168 109Q200 47 278 47Q353 47 401.5 100Q450 153 468 254Z" glyph-name="zero" horiz-adv-x="616" unicode="0" /><glyph d="M107 538 86 588L257 680H322L202 0H139L247 613Z" glyph-name="one" horiz-adv-x="360" unicode="1" /><glyph d="M83 57 392 57L382 0H9L17 47Q36 151 77.5 212.5Q119 274 201 313L270 346Q344 381 372 412Q400 443 407 488L410 506Q420 567 389.5 600Q359 633 292 633Q257 633 215 623.5Q173 614 130 596L112 649Q159 669 205.5 679.5Q252 690 294 690Q390 690 438 639.5Q486 589 473 507L470 488Q460 424 426.5 383.5Q393 343 294 296L225 263Q163 233 131 187Q99 141 83 57Z" glyph-name="two" horiz-adv-x="485" unicode="2" /><glyph d="M413 180 410 163Q394 75 336.5 32.5Q279 -10 177 -10Q129 -10 82.5 0.5Q36 11 -5 32L17 84Q54 65 94 56Q134 47 178 47Q251 47 292.5 76Q334 105 344 163L347 180Q358 245 330 280.5Q302 316 238 316H142L152 371H248Q310 371 347.5 400Q385 429 393 483L395 497Q405 566 377.5 599.5Q350 633 283 633Q244 633 203.5 624Q163 615 120 596L103 648Q149 669 196.5 679.5Q244 690 289 690Q386 690 430 640Q474 590 461 497L459 483Q451 431 422 395Q393 359 345 340Q387 318 405 277Q423 236 413 180Z" glyph-name="three" horiz-adv-x="497" unicode="3" /><glyph d="M462 226 452 170H375L345 0H285L315 170H23L32 216Q141 347 220 458.5Q299 570 361 680H432Q358 552 282.5 444.5Q207 337 114 226H325L349 364H409L385 226Z" glyph-name="four" horiz-adv-x="496" unicode="4" /><glyph d="M126 328 90 356L167 680H498L487 623H212L159 398Q185 408 209.5 412.5Q234 417 259 417Q354 417 404 360.5Q454 304 439 212L434 180Q419 85 360 37.5Q301 -10 197 -10Q149 -10 103 0.5Q57 11 16 32L40 85Q76 66 115.5 56.5Q155 47 198 47Q272 47 315 80.5Q358 114 368 180L373 212Q384 283 353 321.5Q322 360 253 360Q224 360 192 352Q160 344 126 328Z" glyph-name="five" horiz-adv-x="500" unicode="5" /><glyph d="M501 218 495 181Q480 90 422 40Q364 -10 275 -10Q164 -10 116 67.5Q68 145 93 285L119 429Q142 558 208.5 624Q275 690 382 690Q426 690 468 680Q510 670 548 651L526 598Q491 615 454.5 624Q418 633 383 633Q299 633 249 582.5Q199 532 180 429L165 345Q201 381 243 399.5Q285 418 331 418Q422 418 469 362.5Q516 307 501 218ZM325 361Q276 361 232 336.5Q188 312 150 263Q134 155 166 101Q198 47 277 47Q340 47 382 82.5Q424 118 434 181L440 218Q450 285 420 323Q390 361 325 361Z" glyph-name="six" horiz-adv-x="561" unicode="6" /><glyph d="M508 680 500 633Q396 479 316 320.5Q236 162 181 0H112Q167 159 246 314.5Q325 470 427 623H100L111 680Z" glyph-name="seven" horiz-adv-x="474" unicode="7" /><glyph d="M384 336Q434 307 456 271.5Q478 236 478 186Q478 98 417.5 44Q357 -10 250 -10Q159 -10 105.5 34Q52 78 52 146Q52 205 91.5 259Q131 313 205 355Q167 380 148 416.5Q129 453 129 500Q129 582 184.5 636Q240 690 335 690Q419 690 468 648Q517 606 517 536Q517 480 483.5 429.5Q450 379 384 336ZM193 505Q193 463 214.5 435Q236 407 285 384L335 360Q395 398 424 439.5Q453 481 453 529Q453 579 421.5 607Q390 635 335 635Q272 635 232.5 600Q193 565 193 505ZM116 158Q116 106 152 75.5Q188 45 253 45Q326 45 370 81Q414 117 414 176Q414 219 390.5 247.5Q367 276 307 304L253 329Q182 288 149 247Q116 206 116 158Z" glyph-name="eight" horiz-adv-x="558" unicode="8" /><glyph d="M502 395 476 251Q453 122 386.5 56Q320 -10 213 -10Q169 -10 127 0Q85 10 47 29L69 82Q104 65 140.5 56Q177 47 212 47Q296 47 346 97.5Q396 148 415 251L430 335Q394 299 352 280.5Q310 262 264 262Q173 262 126 317.5Q79 373 94 462L100 499Q115 590 173 640Q231 690 320 690Q431 690 479 612.5Q527 535 502 395ZM161 499 155 462Q145 395 175 357Q205 319 270 319Q319 319 363 343.5Q407 368 445 417Q461 525 429 579Q397 633 318 633Q255 633 213 597.5Q171 562 161 499Z" glyph-name="nine" horiz-adv-x="561" unicode="9" /><glyph d="M319 690Q428 690 479.5 611Q531 532 507 397L482 254Q459 125 393.5 57.5Q328 -10 225 -10Q115 -10 64.5 68.5Q14 147 38 284L63 427Q85 555 151 622.5Q217 690 319 690ZM416 254 441 397Q461 509 428.5 571Q396 633 318 633Q243 633 195 580.5Q147 528 129 427L104 284Q84 171 116 109Q148 47 226 47Q301 47 349.5 100Q398 153 416 254Z" glyph-name="zero.tlf" horiz-adv-x="516" unicode="" /><glyph d="M158 526 137 576L331 680H396L286 59H407L397 0H50L60 59H223L321 613Z" glyph-name="one.tlf" horiz-adv-x="516" unicode="" /><glyph d="M98 57 407 57L397 0H24L32 47Q51 151 92.5 212.5Q134 274 216 313L285 346Q359 381 387 412Q415 443 422 488L425 506Q435 567 404.5 600Q374 633 307 633Q272 633 230 623.5Q188 614 145 596L127 649Q174 669 220.5 679.5Q267 690 309 690Q405 690 453 639.5Q501 589 488 507L485 488Q475 424 441.5 383.5Q408 343 309 296L240 263Q178 233 146 187Q114 141 98 57Z" glyph-name="two.tlf" horiz-adv-x="516" unicode="" /><glyph d="M423 180 420 163Q404 75 346.5 32.5Q289 -10 187 -10Q139 -10 92.5 0.5Q46 11 5 32L27 84Q64 65 104 56Q144 47 188 47Q261 47 302.5 76Q344 105 354 163L357 180Q368 245 340 280.5Q312 316 248 316H152L162 371H258Q320 371 357.5 400Q395 429 403 483L405 497Q415 566 387.5 599.5Q360 633 293 633Q254 633 213.5 624Q173 615 130 596L113 648Q159 669 206.5 679.5Q254 690 299 690Q396 690 440 640Q484 590 471 497L469 483Q461 431 432 395Q403 359 355 340Q397 318 415 277Q433 236 423 180Z" glyph-name="three.tlf" horiz-adv-x="516" unicode="" /><glyph d="M475 226 465 170H388L358 0H298L328 170H36L45 216Q154 347 233 458.5Q312 570 374 680H445Q371 552 295.5 444.5Q220 337 127 226H338L362 364H422L398 226Z" glyph-name="four.tlf" horiz-adv-x="516" unicode="" /><glyph d="M133 328 97 356L174 680H505L494 623H219L166 398Q192 408 216.5 412.5Q241 417 266 417Q361 417 411 360.5Q461 304 446 212L441 180Q426 85 367 37.5Q308 -10 204 -10Q156 -10 110 0.5Q64 11 23 32L47 85Q83 66 122.5 56.5Q162 47 205 47Q279 47 322 80.5Q365 114 375 180L380 212Q391 283 360 321.5Q329 360 260 360Q231 360 199 352Q167 344 133 328Z" glyph-name="five.tlf" horiz-adv-x="516" unicode="" /><glyph d="M474 218 468 181Q453 90 395 40Q337 -10 248 -10Q137 -10 89 67.5Q41 145 66 285L92 429Q115 558 181.5 624Q248 690 355 690Q399 690 441 680Q483 670 521 651L499 598Q464 615 427.5 624Q391 633 356 633Q272 633 222 582.5Q172 532 153 429L138 345Q174 381 216 399.5Q258 418 304 418Q395 418 442 362.5Q489 307 474 218ZM298 361Q249 361 205 336.5Q161 312 123 263Q107 155 139 101Q171 47 250 47Q313 47 355 82.5Q397 118 407 181L413 218Q423 285 393 323Q363 361 298 361Z" glyph-name="six.tlf" horiz-adv-x="516" unicode="" /><glyph d="M521 680 513 633Q409 479 329 320.5Q249 162 194 0H125Q180 159 259 314.5Q338 470 440 623H113L124 680Z" glyph-name="seven.tlf" horiz-adv-x="516" unicode="" /><glyph d="M363 336Q413 307 435 271.5Q457 236 457 186Q457 98 396.5 44Q336 -10 229 -10Q138 -10 84.5 34Q31 78 31 146Q31 205 70.5 259Q110 313 184 355Q146 380 127 416.5Q108 453 108 500Q108 582 163.5 636Q219 690 314 690Q398 690 447 648Q496 606 496 536Q496 480 462.5 429.5Q429 379 363 336ZM172 505Q172 463 193.5 435Q215 407 264 384L314 360Q374 398 403 439.5Q432 481 432 529Q432 579 400.5 607Q369 635 314 635Q251 635 211.5 600Q172 565 172 505ZM95 158Q95 106 131 75.5Q167 45 232 45Q305 45 349 81Q393 117 393 176Q393 219 369.5 247.5Q346 276 286 304L232 329Q161 288 128 247Q95 206 95 158Z" glyph-name="eight.tlf" horiz-adv-x="516" unicode="" /><glyph d="M484 395 458 251Q435 122 368.5 56Q302 -10 195 -10Q151 -10 109 0Q67 10 29 29L51 82Q86 65 122.5 56Q159 47 194 47Q278 47 328 97.5Q378 148 397 251L412 335Q376 299 334 280.5Q292 262 246 262Q155 262 108 317.5Q61 373 76 462L82 499Q97 590 155 640Q213 690 302 690Q413 690 461 612.5Q509 535 484 395ZM143 499 137 462Q127 395 157 357Q187 319 252 319Q301 319 345 343.5Q389 368 427 417Q443 525 411 579Q379 633 300 633Q237 633 195 597.5Q153 562 143 499Z" glyph-name="nine.tlf" horiz-adv-x="516" unicode="" /><glyph d="M312 497Q419 497 471 430Q523 363 505 254L497 204Q480 100 419.5 45Q359 -10 259 -10Q152 -10 100.5 56Q49 122 67 234L75 284Q91 386 153 441.5Q215 497 312 497ZM431 204 439 254Q453 339 419 389.5Q385 440 313 440Q242 440 197.5 399.5Q153 359 141 284L133 234Q119 146 152 96.5Q185 47 258 47Q331 47 375 87Q419 127 431 204Z" glyph-name="zero.posf" horiz-adv-x="572" unicode="" /><glyph d="M67 345 46 395L217 487H282L196 0H133L207 420Z" glyph-name="one.posf" horiz-adv-x="334" unicode="" /><glyph d="M91 57 359 57L349 0H17L25 47Q39 126 73 169Q107 212 178 237L245 261Q294 278 317.5 299Q341 320 345 349L347 363Q352 401 327.5 420.5Q303 440 251 440Q220 440 185.5 432Q151 424 111 408L93 460Q135 478 176 487.5Q217 497 257 497Q336 497 377 458.5Q418 420 409 358L407 344Q400 298 369.5 267.5Q339 237 260 208L193 184Q146 167 123.5 139Q101 111 91 57Z" glyph-name="two.posf" horiz-adv-x="449" unicode="" /><glyph d="M354 -13 351 -30Q335 -118 277.5 -160.5Q220 -203 118 -203Q70 -203 23.5 -192.5Q-23 -182 -64 -161L-42 -109Q-5 -128 35 -137Q75 -146 119 -146Q192 -146 233.5 -117Q275 -88 285 -30L288 -13Q299 52 271 87.5Q243 123 179 123H83L93 178H189Q251 178 288.5 207Q326 236 334 290L336 304Q346 373 318.5 406.5Q291 440 224 440Q185 440 144.5 431Q104 422 61 403L44 455Q90 476 137.5 486.5Q185 497 230 497Q327 497 371 447Q415 397 402 304L400 290Q392 238 363 202Q334 166 286 147Q328 125 346 84Q364 43 354 -13Z" glyph-name="three.posf" horiz-adv-x="463" unicode="" /><glyph d="M422 56 412 0H335L301 -193H241L275 0H-17L-8 46Q130 210 199 304.5Q268 399 317 487H388Q329 385 256.5 284.5Q184 184 75 56H285L306 174H366L345 56Z" glyph-name="four.posf" horiz-adv-x="472" unicode="" /><glyph d="M76 135 40 163L117 487H448L437 430H162L109 205Q135 215 159.5 219.5Q184 224 209 224Q304 224 354 167.5Q404 111 389 19L384 -13Q369 -108 310 -155.5Q251 -203 147 -203Q99 -203 53 -192.5Q7 -182 -34 -161L-10 -108Q26 -127 65.5 -136.5Q105 -146 148 -146Q222 -146 265 -112.5Q308 -79 318 -13L323 19Q334 90 303 128.5Q272 167 203 167Q174 167 142 159Q110 151 76 135Z" glyph-name="five.posf" horiz-adv-x="480" unicode="" /><glyph d="M486 218 480 181Q465 90 407 40Q349 -10 260 -10Q149 -10 101 67.5Q53 145 78 285L104 429Q127 558 193.5 624Q260 690 367 690Q411 690 453 680Q495 670 533 651L511 598Q476 615 439.5 624Q403 633 368 633Q284 633 234 582.5Q184 532 165 429L150 345Q186 381 228 399.5Q270 418 316 418Q407 418 454 362.5Q501 307 486 218ZM310 361Q261 361 217 336.5Q173 312 135 263Q119 155 151 101Q183 47 262 47Q325 47 367 82.5Q409 118 419 181L425 218Q435 285 405 323Q375 361 310 361Z" glyph-name="six.posf" horiz-adv-x="548" unicode="" /><glyph d="M457 487 449 440Q345 286 265 127.5Q185 -31 130 -193H61Q116 -34 195 121.5Q274 277 376 430H49L60 487Z" glyph-name="seven.posf" horiz-adv-x="447" unicode="" /><glyph d="M370 336Q420 307 442 271.5Q464 236 464 186Q464 98 403.5 44Q343 -10 236 -10Q145 -10 91.5 34Q38 78 38 146Q38 205 77.5 259Q117 313 191 355Q153 380 134 416.5Q115 453 115 500Q115 582 170.5 636Q226 690 321 690Q405 690 454 648Q503 606 503 536Q503 480 469.5 429.5Q436 379 370 336ZM179 505Q179 463 200.5 435Q222 407 271 384L321 360Q381 398 410 439.5Q439 481 439 529Q439 579 407.5 607Q376 635 321 635Q258 635 218.5 600Q179 565 179 505ZM102 158Q102 106 138 75.5Q174 45 239 45Q312 45 356 81Q400 117 400 176Q400 219 376.5 247.5Q353 276 293 304L239 329Q168 288 135 247Q102 206 102 158Z" glyph-name="eight.posf" horiz-adv-x="531" unicode="" /><glyph d="M468 202 442 58Q419 -71 352.5 -137Q286 -203 179 -203Q135 -203 93 -193Q51 -183 13 -164L35 -111Q70 -128 106.5 -137Q143 -146 178 -146Q262 -146 312 -95.5Q362 -45 381 58L396 142Q360 106 318 87.5Q276 69 230 69Q139 69 92 124.5Q45 180 60 269L66 306Q81 397 139 447Q197 497 286 497Q397 497 445 419.5Q493 342 468 202ZM127 306 121 269Q111 202 141 164Q171 126 236 126Q285 126 329 150.5Q373 175 411 224Q427 332 395 386Q363 440 284 440Q221 440 179 404.5Q137 369 127 306Z" glyph-name="nine.posf" horiz-adv-x="548" unicode="" /><glyph d="M397 544Q397 468 348 417Q299 366 225 366Q157 366 116.5 406Q76 446 76 512Q76 588 125 639Q174 690 248 690Q316 690 356.5 650Q397 610 397 544ZM340 543Q340 588 315.5 613Q291 638 248 638Q198 638 165.5 603Q133 568 133 513Q133 469 157.5 443.5Q182 418 225 418Q275 418 307.5 453Q340 488 340 543Z" glyph-name="degree" horiz-adv-x="374" unicode="°" /><glyph d="M361 537 355 500Q345 437 309.5 406Q274 375 212 375Q148 375 115.5 416Q83 457 94 523L100 560Q110 623 145.5 654Q181 685 243 685Q307 685 339.5 644Q372 603 361 537ZM137 0 614 680H676L199 0ZM213 425Q251 425 273.5 444.5Q296 464 301 502L306 537Q313 584 296.5 609.5Q280 635 242 635Q204 635 181.5 615.5Q159 596 154 558L149 523Q142 476 158.5 450.5Q175 425 213 425ZM719 157 713 120Q703 57 667.5 26Q632 -5 570 -5Q506 -5 473.5 36Q441 77 452 143L458 180Q468 243 503.5 274Q539 305 601 305Q665 305 697.5 264Q730 223 719 157ZM571 45Q609 45 631.5 64.5Q654 84 659 122L664 157Q671 204 654.5 229.5Q638 255 600 255Q562 255 539.5 235.5Q517 216 512 178L507 143Q500 96 516.5 70.5Q533 45 571 45Z" glyph-name="percent" horiz-adv-x="779" unicode="%" /><glyph d="M361 537 355 500Q345 437 309.5 406Q274 375 212 375Q148 375 115.5 416Q83 457 94 523L100 560Q110 623 145.5 654Q181 685 243 685Q307 685 339.5 644Q372 603 361 537ZM137 0 614 680H676L199 0ZM213 425Q251 425 273.5 444.5Q296 464 301 502L306 537Q313 584 296.5 609.5Q280 635 242 635Q204 635 181.5 615.5Q159 596 154 558L149 523Q142 476 158.5 450.5Q175 425 213 425ZM719 157 713 120Q703 57 667.5 26Q632 -5 570 -5Q506 -5 473.5 36Q441 77 452 143L458 180Q468 243 503.5 274Q539 305 601 305Q665 305 697.5 264Q730 223 719 157ZM1053 157 1047 120Q1037 57 1001.5 26Q966 -5 904 -5Q840 -5 807.5 36Q775 77 786 143L792 180Q802 243 837.5 274Q873 305 935 305Q999 305 1031.5 264Q1064 223 1053 157ZM571 45Q609 45 631.5 64.5Q654 84 659 122L664 157Q671 204 654.5 229.5Q638 255 600 255Q562 255 539.5 235.5Q517 216 512 178L507 143Q500 96 516.5 70.5Q533 45 571 45ZM905 45Q943 45 965.5 64.5Q988 84 993 122L998 157Q1005 204 988.5 229.5Q972 255 934 255Q896 255 873.5 235.5Q851 216 846 178L841 143Q834 96 850.5 70.5Q867 45 905 45Z" glyph-name="perthousand" horiz-adv-x="1113" unicode="‰" /><glyph d="M-197 0 280 680H342L-135 0Z" glyph-name="fraction" horiz-adv-x="111" unicode="⁄" /><glyph d="M-197 0 280 680H342L-135 0Z" glyph-name="uni2215" horiz-adv-x="111" unicode="∕" /><glyph d="M254 790Q319 790 349 752Q379 714 368 644L357 572Q347 509 311.5 474.5Q276 440 220 440Q155 440 125.5 478Q96 516 107 587L118 659Q128 722 163 756Q198 790 254 790ZM302 572 313 644Q320 691 305 715Q290 739 253 739Q220 739 199.5 718Q179 697 173 659L162 587Q154 540 169.5 516Q185 492 222 492Q254 492 275 513Q296 534 302 572Z" glyph-name="zerosuperior" horiz-adv-x="344" unicode="⁰" /><glyph d="M133 692 111 734L207 785H261L201 445H147L196 726Z" glyph-name="onesuperior" horiz-adv-x="224" unicode="¹" /><glyph d="M126 497 283 497L274 445H61L65 469Q75 528 94 555.5Q113 583 169 610L204 627Q238 643 249 654.5Q260 666 262 683L264 697Q267 719 255 729Q243 739 214 739Q193 739 168.5 734Q144 729 118 719L108 770Q137 780 163 785Q189 790 215 790Q272 790 299 765.5Q326 741 319 697L317 683Q312 650 294 628Q276 606 214 577L180 561Q155 549 143.5 535Q132 521 126 497Z" glyph-name="twosuperior" horiz-adv-x="271" unicode="²" /><glyph d="M282 544 281 536Q272 486 241.5 463Q211 440 154 440Q128 440 104.5 445.5Q81 451 62 461L80 510Q97 501 115 496.5Q133 492 157 492Q188 492 204.5 502.5Q221 513 225 536L226 544Q230 567 216 579.5Q202 592 170 592H132L141 642H179Q210 642 227.5 653.5Q245 665 249 688L250 695Q253 717 241 728Q229 739 202 739Q183 739 164.5 734.5Q146 730 126 721L112 770Q135 780 159.5 785Q184 790 208 790Q262 790 287 766Q312 742 306 696L305 689Q300 662 285.5 643Q271 624 247 614Q269 604 278 586.5Q287 569 282 544Z" glyph-name="threesuperior" horiz-adv-x="274" unicode="³" /><glyph d="M305 565 297 517H258L245 445H195L208 517H60L66 550Q120 615 159.5 671.5Q199 728 231 785H288Q256 727 219.5 674.5Q183 622 137 565H216L227 627H277L266 565Z" glyph-name="foursuperior" horiz-adv-x="259" unicode="⁴" /><glyph d="M299 561 297 544Q291 494 257 467Q223 440 166 440Q141 440 117.5 445.5Q94 451 72 461L89 510Q106 501 124 496.5Q142 492 163 492Q199 492 218.5 505Q238 518 241 544L243 561Q247 587 233.5 600.5Q220 614 190 614Q176 614 161.5 611Q147 608 129 601L104 623L143 785H328L319 734H183L165 661Q172 663 180.5 664Q189 665 199 665Q252 665 278.5 638Q305 611 299 561Z" glyph-name="fivesuperior" horiz-adv-x="273" unicode="⁵" /><glyph d="M330 559 326 536Q318 491 286 465.5Q254 440 205 440Q148 440 120.5 479Q93 518 105 583L118 654Q131 726 163.5 758Q196 790 257 790Q281 790 303 784.5Q325 779 349 767L330 720Q316 729 297.5 734Q279 739 262 739Q224 739 203 718.5Q182 698 174 654L171 640Q191 652 209.5 658Q228 664 247 664Q292 664 315 634.5Q338 605 330 559ZM162 587 161 583Q153 536 164.5 513Q176 490 208 490Q233 490 249 502.5Q265 515 270 538L274 559Q279 585 268.5 600Q258 615 235 615Q218 615 199.5 608Q181 601 162 587Z" glyph-name="sixsuperior" horiz-adv-x="305" unicode="⁶" /><glyph d="M314 785 306 740Q257 668 220 594Q183 520 158 445H102Q127 519 162.5 591.5Q198 664 245 734H94L103 785Z" glyph-name="sevensuperior" horiz-adv-x="230" unicode="⁷" /><glyph d="M279 617Q302 602 312 583Q322 564 322 535Q322 491 289 465.5Q256 440 199 440Q149 440 122 461Q95 482 95 520Q95 549 113 573Q131 597 169 619Q150 633 141.5 651.5Q133 670 133 695Q133 737 163.5 763.5Q194 790 245 790Q292 790 317.5 768.5Q343 747 343 709Q343 682 327.5 660Q312 638 279 617ZM186 698Q186 684 194.5 672Q203 660 220 651L248 636Q268 652 278.5 669.5Q289 687 289 704Q289 722 276.5 732Q264 742 242 742Q216 742 201 730Q186 718 186 698ZM149 529Q149 510 162.5 499.5Q176 489 201 489Q232 489 250 501Q268 513 268 534Q268 550 259.5 561Q251 572 227 585L198 601Q173 584 161 566.5Q149 549 149 529Z" glyph-name="eightsuperior" horiz-adv-x="310" unicode="⁸" /><glyph d="M330 647 317 576Q304 504 271.5 472Q239 440 178 440Q154 440 132 445.5Q110 451 86 463L105 510Q119 501 137.5 496Q156 491 173 491Q211 491 232 511.5Q253 532 261 576L264 590Q244 578 225.5 572Q207 566 188 566Q143 566 120 595.5Q97 625 105 671L109 694Q117 739 149 764.5Q181 790 230 790Q287 790 314.5 751Q342 712 330 647ZM165 692 161 671Q156 645 166.5 630Q177 615 200 615Q217 615 235.5 622Q254 629 273 643L274 647Q282 694 270.5 717Q259 740 227 740Q202 740 186 727.5Q170 715 165 692Z" glyph-name="ninesuperior" horiz-adv-x="305" unicode="⁹" /><glyph d="M158 240Q223 240 253 202Q283 164 272 94L261 22Q251 -41 215.5 -75.5Q180 -110 124 -110Q59 -110 29.5 -72Q0 -34 11 37L22 109Q32 172 67 206Q102 240 158 240ZM206 22 217 94Q224 141 209 165Q194 189 157 189Q124 189 103.5 168Q83 147 77 109L66 37Q58 -10 73.5 -34Q89 -58 126 -58Q158 -58 179 -37Q200 -16 206 22Z" glyph-name="zeroinferior" horiz-adv-x="344" unicode="₀" /><glyph d="M37 142 15 184L111 235H165L105 -105H51L100 176Z" glyph-name="oneinferior" horiz-adv-x="224" unicode="₁" /><glyph d="M30 -53 187 -53L178 -105H-35L-31 -81Q-21 -22 -2 5.5Q17 33 73 60L108 77Q142 93 153 104.5Q164 116 166 133L168 147Q171 169 159 179Q147 189 118 189Q97 189 72.5 184Q48 179 22 169L12 220Q41 230 67 235Q93 240 119 240Q176 240 203 215.5Q230 191 223 147L221 133Q216 100 198 78Q180 56 118 27L84 11Q59 -1 47.5 -15Q36 -29 30 -53Z" glyph-name="twoinferior" horiz-adv-x="271" unicode="₂" /><glyph d="M186 -6 185 -14Q176 -64 145.5 -87Q115 -110 58 -110Q32 -110 8.5 -104.5Q-15 -99 -34 -89L-16 -40Q1 -49 19 -53.5Q37 -58 61 -58Q92 -58 108.5 -47.5Q125 -37 129 -14L130 -6Q134 17 120 29.5Q106 42 74 42H36L45 92H83Q114 92 131.5 103.5Q149 115 153 138L154 145Q157 167 145 178Q133 189 106 189Q87 189 68.5 184.5Q50 180 30 171L16 220Q39 230 63.5 235Q88 240 112 240Q166 240 191 216Q216 192 210 146L209 139Q204 112 189.5 93Q175 74 151 64Q173 54 182 36.5Q191 19 186 -6Z" glyph-name="threeinferior" horiz-adv-x="274" unicode="₃" /><glyph d="M208 15 200 -33H161L148 -105H98L111 -33H-37L-31 0Q23 65 62.5 121.5Q102 178 134 235H191Q159 177 122.5 124.5Q86 72 40 15H119L130 77H180L169 15Z" glyph-name="fourinferior" horiz-adv-x="259" unicode="₄" /><glyph d="M203 11 201 -6Q195 -56 161 -83Q127 -110 70 -110Q45 -110 21.5 -104.5Q-2 -99 -24 -89L-7 -40Q10 -49 28 -53.5Q46 -58 67 -58Q103 -58 122.5 -45Q142 -32 145 -6L147 11Q151 37 137.5 50.5Q124 64 94 64Q80 64 65.5 61Q51 58 33 51L8 73L47 235H232L223 184H87L69 111Q76 113 84.5 114Q93 115 103 115Q156 115 182.5 88Q209 61 203 11Z" glyph-name="fiveinferior" horiz-adv-x="273" unicode="₅" /><glyph d="M234 9 230 -14Q222 -59 190 -84.5Q158 -110 109 -110Q52 -110 24.5 -71Q-3 -32 9 33L22 104Q35 176 67.5 208Q100 240 161 240Q185 240 207 234.5Q229 229 253 217L234 170Q220 179 201.5 184Q183 189 166 189Q128 189 107 168.5Q86 148 78 104L75 90Q95 102 113.5 108Q132 114 151 114Q196 114 219 84.5Q242 55 234 9ZM66 37 65 33Q57 -14 68.5 -37Q80 -60 112 -60Q137 -60 153 -47.5Q169 -35 174 -12L178 9Q183 35 172.5 50Q162 65 139 65Q122 65 103.5 58Q85 51 66 37Z" glyph-name="sixinferior" horiz-adv-x="305" unicode="₆" /><glyph d="M217 235 209 190Q160 118 123 44Q86 -30 61 -105H5Q30 -31 65.5 41.5Q101 114 148 184H-3L6 235Z" glyph-name="seveninferior" horiz-adv-x="230" unicode="₇" /><glyph d="M183 67Q206 52 216 33Q226 14 226 -15Q226 -59 193 -84.5Q160 -110 103 -110Q53 -110 26 -89Q-1 -68 -1 -30Q-1 -1 17 23Q35 47 73 69Q54 83 45.5 101.5Q37 120 37 145Q37 187 67.5 213.5Q98 240 149 240Q196 240 221.5 218.5Q247 197 247 159Q247 132 231.5 110Q216 88 183 67ZM90 148Q90 134 98.5 122Q107 110 124 101L152 86Q172 102 182.5 119.5Q193 137 193 154Q193 172 180.5 182Q168 192 146 192Q120 192 105 180Q90 168 90 148ZM53 -21Q53 -40 66.5 -50.5Q80 -61 105 -61Q136 -61 154 -49Q172 -37 172 -16Q172 0 163.5 11Q155 22 131 35L102 51Q77 34 65 16.5Q53 -1 53 -21Z" glyph-name="eightinferior" horiz-adv-x="310" unicode="₈" /><glyph d="M234 97 221 26Q208 -46 175.5 -78Q143 -110 82 -110Q58 -110 36 -104.5Q14 -99 -10 -87L9 -40Q23 -49 41.5 -54Q60 -59 77 -59Q115 -59 136 -38.5Q157 -18 165 26L168 40Q148 28 129.5 22Q111 16 92 16Q47 16 24 45.5Q1 75 9 121L13 144Q21 189 53 214.5Q85 240 134 240Q191 240 218.5 201Q246 162 234 97ZM69 142 65 121Q60 95 70.5 80Q81 65 104 65Q121 65 139.5 72Q158 79 177 93L178 97Q186 144 174.5 167Q163 190 131 190Q106 190 90 177.5Q74 165 69 142Z" glyph-name="nineinferior" horiz-adv-x="305" unicode="₉" /><glyph d="M158 240Q223 240 253 202Q283 164 272 94L261 22Q251 -41 215.5 -75.5Q180 -110 124 -110Q59 -110 29.5 -72Q0 -34 11 37L22 109Q32 172 67 206Q102 240 158 240ZM206 22 217 94Q224 141 209 165Q194 189 157 189Q124 189 103.5 168Q83 147 77 109L66 37Q58 -10 73.5 -34Q89 -58 126 -58Q158 -58 179 -37Q200 -16 206 22Z" glyph-name="zero.numerator" horiz-adv-x="344" unicode="" /><glyph d="M37 142 15 184L111 235H165L105 -105H51L100 176Z" glyph-name="one.numerator" horiz-adv-x="224" unicode="" /><glyph d="M30 -53 187 -53L178 -105H-35L-31 -81Q-21 -22 -2 5.5Q17 33 73 60L108 77Q142 93 153 104.5Q164 116 166 133L168 147Q171 169 159 179Q147 189 118 189Q97 189 72.5 184Q48 179 22 169L12 220Q41 230 67 235Q93 240 119 240Q176 240 203 215.5Q230 191 223 147L221 133Q216 100 198 78Q180 56 118 27L84 11Q59 -1 47.5 -15Q36 -29 30 -53Z" glyph-name="two.numerator" horiz-adv-x="271" unicode="" /><glyph d="M186 -6 185 -14Q176 -64 145.5 -87Q115 -110 58 -110Q32 -110 8.5 -104.5Q-15 -99 -34 -89L-16 -40Q1 -49 19 -53.5Q37 -58 61 -58Q92 -58 108.5 -47.5Q125 -37 129 -14L130 -6Q134 17 120 29.5Q106 42 74 42H36L45 92H83Q114 92 131.5 103.5Q149 115 153 138L154 145Q157 167 145 178Q133 189 106 189Q87 189 68.5 184.5Q50 180 30 171L16 220Q39 230 63.5 235Q88 240 112 240Q166 240 191 216Q216 192 210 146L209 139Q204 112 189.5 93Q175 74 151 64Q173 54 182 36.5Q191 19 186 -6Z" glyph-name="three.numerator" horiz-adv-x="274" unicode="" /><glyph d="M208 15 200 -33H161L148 -105H98L111 -33H-37L-31 0Q23 65 62.5 121.5Q102 178 134 235H191Q159 177 122.5 124.5Q86 72 40 15H119L130 77H180L169 15Z" glyph-name="four.numerator" horiz-adv-x="259" unicode="" /><glyph d="M203 11 201 -6Q195 -56 161 -83Q127 -110 70 -110Q45 -110 21.5 -104.5Q-2 -99 -24 -89L-7 -40Q10 -49 28 -53.5Q46 -58 67 -58Q103 -58 122.5 -45Q142 -32 145 -6L147 11Q151 37 137.5 50.5Q124 64 94 64Q80 64 65.5 61Q51 58 33 51L8 73L47 235H232L223 184H87L69 111Q76 113 84.5 114Q93 115 103 115Q156 115 182.5 88Q209 61 203 11Z" glyph-name="five.numerator" horiz-adv-x="273" unicode="" /><glyph d="M234 9 230 -14Q222 -59 190 -84.5Q158 -110 109 -110Q52 -110 24.5 -71Q-3 -32 9 33L22 104Q35 176 67.5 208Q100 240 161 240Q185 240 207 234.5Q229 229 253 217L234 170Q220 179 201.5 184Q183 189 166 189Q128 189 107 168.5Q86 148 78 104L75 90Q95 102 113.5 108Q132 114 151 114Q196 114 219 84.5Q242 55 234 9ZM66 37 65 33Q57 -14 68.5 -37Q80 -60 112 -60Q137 -60 153 -47.5Q169 -35 174 -12L178 9Q183 35 172.5 50Q162 65 139 65Q122 65 103.5 58Q85 51 66 37Z" glyph-name="six.numerator" horiz-adv-x="305" unicode="" /><glyph d="M217 235 209 190Q160 118 123 44Q86 -30 61 -105H5Q30 -31 65.5 41.5Q101 114 148 184H-3L6 235Z" glyph-name="seven.numerator" horiz-adv-x="230" unicode="" /><glyph d="M183 67Q206 52 216 33Q226 14 226 -15Q226 -59 193 -84.5Q160 -110 103 -110Q53 -110 26 -89Q-1 -68 -1 -30Q-1 -1 17 23Q35 47 73 69Q54 83 45.5 101.5Q37 120 37 145Q37 187 67.5 213.5Q98 240 149 240Q196 240 221.5 218.5Q247 197 247 159Q247 132 231.5 110Q216 88 183 67ZM90 148Q90 134 98.5 122Q107 110 124 101L152 86Q172 102 182.5 119.5Q193 137 193 154Q193 172 180.5 182Q168 192 146 192Q120 192 105 180Q90 168 90 148ZM53 -21Q53 -40 66.5 -50.5Q80 -61 105 -61Q136 -61 154 -49Q172 -37 172 -16Q172 0 163.5 11Q155 22 131 35L102 51Q77 34 65 16.5Q53 -1 53 -21Z" glyph-name="eight.numerator" horiz-adv-x="310" unicode="" /><glyph d="M234 97 221 26Q208 -46 175.5 -78Q143 -110 82 -110Q58 -110 36 -104.5Q14 -99 -10 -87L9 -40Q23 -49 41.5 -54Q60 -59 77 -59Q115 -59 136 -38.5Q157 -18 165 26L168 40Q148 28 129.5 22Q111 16 92 16Q47 16 24 45.5Q1 75 9 121L13 144Q21 189 53 214.5Q85 240 134 240Q191 240 218.5 201Q246 162 234 97ZM69 142 65 121Q60 95 70.5 80Q81 65 104 65Q121 65 139.5 72Q158 79 177 93L178 97Q186 144 174.5 167Q163 190 131 190Q106 190 90 177.5Q74 165 69 142Z" glyph-name="nine.numerator" horiz-adv-x="305" unicode="" /><glyph d="M177 345Q242 345 272 307Q302 269 291 199L280 127Q270 64 234.5 29.5Q199 -5 143 -5Q78 -5 48.5 33Q19 71 30 142L41 214Q51 277 86 311Q121 345 177 345ZM225 127 236 199Q243 246 228 270Q213 294 176 294Q143 294 122.5 273Q102 252 96 214L85 142Q77 95 92.5 71Q108 47 145 47Q177 47 198 68Q219 89 225 127Z" glyph-name="zero.denominator" horiz-adv-x="344" unicode="" /><glyph d="M56 247 34 289L130 340H184L124 0H70L119 281Z" glyph-name="one.denominator" horiz-adv-x="224" unicode="" /><glyph d="M49 52 206 52L197 0H-16L-12 24Q-2 83 17 110.5Q36 138 92 165L127 182Q161 198 172 209.5Q183 221 185 238L187 252Q190 274 178 284Q166 294 137 294Q116 294 91.5 289Q67 284 41 274L31 325Q60 335 86 340Q112 345 138 345Q195 345 222 320.5Q249 296 242 252L240 238Q235 205 217 183Q199 161 137 132L103 116Q78 104 66.5 90Q55 76 49 52Z" glyph-name="two.denominator" horiz-adv-x="271" unicode="" /><glyph d="M205 99 204 91Q195 41 164.5 18Q134 -5 77 -5Q51 -5 27.5 0.5Q4 6 -15 16L3 65Q20 56 38 51.5Q56 47 80 47Q111 47 127.5 57.5Q144 68 148 91L149 99Q153 122 139 134.5Q125 147 93 147H55L64 197H102Q133 197 150.5 208.5Q168 220 172 243L173 250Q176 272 164 283Q152 294 125 294Q106 294 87.5 289.5Q69 285 49 276L35 325Q58 335 82.5 340Q107 345 131 345Q185 345 210 321Q235 297 229 251L228 244Q223 217 208.5 198Q194 179 170 169Q192 159 201 141.5Q210 124 205 99Z" glyph-name="three.denominator" horiz-adv-x="274" unicode="" /><glyph d="M227 120 219 72H180L167 0H117L130 72H-18L-12 105Q42 170 81.5 226.5Q121 283 153 340H210Q178 282 141.5 229.5Q105 177 59 120H138L149 182H199L188 120Z" glyph-name="four.denominator" horiz-adv-x="259" unicode="" /><glyph d="M222 116 220 99Q214 49 180 22Q146 -5 89 -5Q64 -5 40.5 0.5Q17 6 -5 16L12 65Q29 56 47 51.5Q65 47 86 47Q122 47 141.5 60Q161 73 164 99L166 116Q170 142 156.5 155.5Q143 169 113 169Q99 169 84.5 166Q70 163 52 156L27 178L66 340H251L242 289H106L88 216Q95 218 103.5 219Q112 220 122 220Q175 220 201.5 193Q228 166 222 116Z" glyph-name="five.denominator" horiz-adv-x="273" unicode="" /><glyph d="M253 114 249 91Q241 46 209 20.5Q177 -5 128 -5Q71 -5 43.5 34Q16 73 28 138L41 209Q54 281 86.5 313Q119 345 180 345Q204 345 226 339.5Q248 334 272 322L253 275Q239 284 220.5 289Q202 294 185 294Q147 294 126 273.5Q105 253 97 209L94 195Q114 207 132.5 213Q151 219 170 219Q215 219 238 189.5Q261 160 253 114ZM85 142 84 138Q76 91 87.5 68Q99 45 131 45Q156 45 172 57.5Q188 70 193 93L197 114Q202 140 191.5 155Q181 170 158 170Q141 170 122.5 163Q104 156 85 142Z" glyph-name="six.denominator" horiz-adv-x="305" unicode="" /><glyph d="M236 340 228 295Q179 223 142 149Q105 75 80 0H24Q49 74 84.5 146.5Q120 219 167 289H16L25 340Z" glyph-name="seven.denominator" horiz-adv-x="230" unicode="" /><glyph d="M202 172Q225 157 235 138Q245 119 245 90Q245 46 212 20.5Q179 -5 122 -5Q72 -5 45 16Q18 37 18 75Q18 104 36 128Q54 152 92 174Q73 188 64.5 206.5Q56 225 56 250Q56 292 86.5 318.5Q117 345 168 345Q215 345 240.5 323.5Q266 302 266 264Q266 237 250.5 215Q235 193 202 172ZM109 253Q109 239 117.5 227Q126 215 143 206L171 191Q191 207 201.5 224.5Q212 242 212 259Q212 277 199.5 287Q187 297 165 297Q139 297 124 285Q109 273 109 253ZM72 84Q72 65 85.5 54.5Q99 44 124 44Q155 44 173 56Q191 68 191 89Q191 105 182.5 116Q174 127 150 140L121 156Q96 139 84 121.5Q72 104 72 84Z" glyph-name="eight.denominator" horiz-adv-x="310" unicode="" /><glyph d="M253 202 240 131Q227 59 194.5 27Q162 -5 101 -5Q77 -5 55 0.5Q33 6 9 18L28 65Q42 56 60.5 51Q79 46 96 46Q134 46 155 66.5Q176 87 184 131L187 145Q167 133 148.5 127Q130 121 111 121Q66 121 43 150.5Q20 180 28 226L32 249Q40 294 72 319.5Q104 345 153 345Q210 345 237.5 306Q265 267 253 202ZM88 247 84 226Q79 200 89.5 185Q100 170 123 170Q140 170 158.5 177Q177 184 196 198L197 202Q205 249 193.5 272Q182 295 150 295Q125 295 109 282.5Q93 270 88 247Z" glyph-name="nine.denominator" horiz-adv-x="305" unicode="" /><glyph d="M115 587 93 629L189 680H243L183 340H129L178 621ZM57 0 534 680H596L119 0ZM439 52 596 52L587 0H374L378 24Q388 83 407 110.5Q426 138 482 165L517 182Q551 198 562 209.5Q573 221 575 238L577 252Q580 274 568 284Q556 294 527 294Q506 294 481.5 289Q457 284 431 274L421 325Q450 335 476 340Q502 345 528 345Q585 345 612 320.5Q639 296 632 252L630 238Q625 205 607 183Q589 161 527 132L493 116Q468 104 456.5 90Q445 76 439 52Z" glyph-name="onehalf" horiz-adv-x="661" unicode="½" /><glyph d="M115 587 93 629L189 680H243L183 340H129L178 621ZM57 0 534 680H596L119 0ZM595 99 594 91Q585 41 554.5 18Q524 -5 467 -5Q441 -5 417.5 0.5Q394 6 375 16L393 65Q410 56 428 51.5Q446 47 470 47Q501 47 517.5 57.5Q534 68 538 91L539 99Q543 122 529 134.5Q515 147 483 147H445L454 197H492Q523 197 540.5 208.5Q558 220 562 243L563 250Q566 272 554 283Q542 294 515 294Q496 294 477.5 289.5Q459 285 439 276L425 325Q448 335 472.5 340Q497 345 521 345Q575 345 600 321Q625 297 619 251L618 244Q613 217 598.5 198Q584 179 560 169Q582 159 591 141.5Q600 124 595 99Z" glyph-name="onethird" horiz-adv-x="664" unicode="⅓" /><glyph d="M115 587 93 629L189 680H243L183 340H129L178 621ZM57 0 534 680H596L119 0ZM587 120 579 72H540L527 0H477L490 72H342L348 105Q402 170 441.5 226.5Q481 283 513 340H570Q538 282 501.5 229.5Q465 177 419 120H498L509 182H559L548 120Z" glyph-name="onequarter" horiz-adv-x="614" unicode="¼" /><glyph d="M115 587 93 629L189 680H243L183 340H129L178 621ZM57 0 534 680H596L119 0ZM602 116 600 99Q594 49 560 22Q526 -5 469 -5Q444 -5 420.5 0.5Q397 6 375 16L392 65Q409 56 427 51.5Q445 47 466 47Q502 47 521.5 60Q541 73 544 99L546 116Q550 142 536.5 155.5Q523 169 493 169Q479 169 464.5 166Q450 163 432 156L407 178L446 340H631L622 289H486L468 216Q475 218 483.5 219Q492 220 502 220Q555 220 581.5 193Q608 166 602 116Z" glyph-name="onefifth" horiz-adv-x="653" unicode="" /><glyph d="M115 587 93 629L189 680H243L183 340H129L178 621ZM57 0 534 680H596L119 0ZM618 114 614 91Q606 46 574 20.5Q542 -5 493 -5Q436 -5 408.5 34Q381 73 393 138L406 209Q419 281 451.5 313Q484 345 545 345Q569 345 591 339.5Q613 334 637 322L618 275Q604 284 585.5 289Q567 294 550 294Q512 294 491 273.5Q470 253 462 209L459 195Q479 207 497.5 213Q516 219 535 219Q580 219 603 189.5Q626 160 618 114ZM450 142 449 138Q441 91 452.5 68Q464 45 496 45Q521 45 537 57.5Q553 70 558 93L562 114Q567 140 556.5 155Q546 170 523 170Q506 170 487.5 163Q469 156 450 142Z" glyph-name="onesixth" horiz-adv-x="670" unicode="" /><glyph d="M115 587 93 629L189 680H243L183 340H129L178 621ZM57 0 534 680H596L119 0ZM652 340 644 295Q595 223 558 149Q521 75 496 0H440Q465 74 500.5 146.5Q536 219 583 289H432L441 340Z" glyph-name="oneseventh" horiz-adv-x="645" unicode="" /><glyph d="M115 587 93 629L189 680H243L183 340H129L178 621ZM57 0 534 680H596L119 0ZM567 172Q590 157 600 138Q610 119 610 90Q610 46 577 20.5Q544 -5 487 -5Q437 -5 410 16Q383 37 383 75Q383 104 401 128Q419 152 457 174Q438 188 429.5 206.5Q421 225 421 250Q421 292 451.5 318.5Q482 345 533 345Q580 345 605.5 323.5Q631 302 631 264Q631 237 615.5 215Q600 193 567 172ZM474 253Q474 239 482.5 227Q491 215 508 206L536 191Q556 207 566.5 224.5Q577 242 577 259Q577 277 564.5 287Q552 297 530 297Q504 297 489 285Q474 273 474 253ZM437 84Q437 65 450.5 54.5Q464 44 489 44Q520 44 538 56Q556 68 556 89Q556 105 547.5 116Q539 127 515 140L486 156Q461 139 449 121.5Q437 104 437 84Z" glyph-name="oneeighth" horiz-adv-x="675" unicode="⅛" /><glyph d="M115 587 93 629L189 680H243L183 340H129L178 621ZM57 0 534 680H596L119 0ZM633 202 620 131Q607 59 574.5 27Q542 -5 481 -5Q457 -5 435 0.5Q413 6 389 18L408 65Q422 56 440.5 51Q459 46 476 46Q514 46 535 66.5Q556 87 564 131L567 145Q547 133 528.5 127Q510 121 491 121Q446 121 423 150.5Q400 180 408 226L412 249Q420 294 452 319.5Q484 345 533 345Q590 345 617.5 306Q645 267 633 202ZM468 247 464 226Q459 200 469.5 185Q480 170 503 170Q520 170 538.5 177Q557 184 576 198L577 202Q585 249 573.5 272Q562 295 530 295Q505 295 489 282.5Q473 270 468 247Z" glyph-name="oneninth" horiz-adv-x="685" unicode="" /><glyph d="M108 392 265 392L256 340H43L47 364Q57 423 76 450.5Q95 478 151 505L186 522Q220 538 231 549.5Q242 561 244 578L246 592Q249 614 237 624Q225 634 196 634Q175 634 150.5 629Q126 624 100 614L90 665Q119 675 145 680Q171 685 197 685Q254 685 281 660.5Q308 636 301 592L299 578Q294 545 276 523Q258 501 196 472L162 456Q137 444 125.5 430Q114 416 108 392ZM94 0 571 680H633L156 0ZM632 99 631 91Q622 41 591.5 18Q561 -5 504 -5Q478 -5 454.5 0.5Q431 6 412 16L430 65Q447 56 465 51.5Q483 47 507 47Q538 47 554.5 57.5Q571 68 575 91L576 99Q580 122 566 134.5Q552 147 520 147H482L491 197H529Q560 197 577.5 208.5Q595 220 599 243L600 250Q603 272 591 283Q579 294 552 294Q533 294 514.5 289.5Q496 285 476 276L462 325Q485 335 509.5 340Q534 345 558 345Q612 345 637 321Q662 297 656 251L655 244Q650 217 635.5 198Q621 179 597 169Q619 159 628 141.5Q637 124 632 99Z" glyph-name="twothirds" horiz-adv-x="701" unicode="⅔" /><glyph d="M108 392 265 392L256 340H43L47 364Q57 423 76 450.5Q95 478 151 505L186 522Q220 538 231 549.5Q242 561 244 578L246 592Q249 614 237 624Q225 634 196 634Q175 634 150.5 629Q126 624 100 614L90 665Q119 675 145 680Q171 685 197 685Q254 685 281 660.5Q308 636 301 592L299 578Q294 545 276 523Q258 501 196 472L162 456Q137 444 125.5 430Q114 416 108 392ZM94 0 571 680H633L156 0ZM639 116 637 99Q631 49 597 22Q563 -5 506 -5Q481 -5 457.5 0.5Q434 6 412 16L429 65Q446 56 464 51.5Q482 47 503 47Q539 47 558.5 60Q578 73 581 99L583 116Q587 142 573.5 155.5Q560 169 530 169Q516 169 501.5 166Q487 163 469 156L444 178L483 340H668L659 289H523L505 216Q512 218 520.5 219Q529 220 539 220Q592 220 618.5 193Q645 166 639 116Z" glyph-name="twofifths" horiz-adv-x="690" unicode="" /><glyph d="M108 392 265 392L256 340H43L47 364Q57 423 76 450.5Q95 478 151 505L186 522Q220 538 231 549.5Q242 561 244 578L246 592Q249 614 237 624Q225 634 196 634Q175 634 150.5 629Q126 624 100 614L90 665Q119 675 145 680Q171 685 197 685Q254 685 281 660.5Q308 636 301 592L299 578Q294 545 276 523Q258 501 196 472L162 456Q137 444 125.5 430Q114 416 108 392ZM94 0 571 680H633L156 0ZM689 340 681 295Q632 223 595 149Q558 75 533 0H477Q502 74 537.5 146.5Q573 219 620 289H469L478 340Z" glyph-name="twosevenths" horiz-adv-x="682" unicode="" /><glyph d="M108 392 265 392L256 340H43L47 364Q57 423 76 450.5Q95 478 151 505L186 522Q220 538 231 549.5Q242 561 244 578L246 592Q249 614 237 624Q225 634 196 634Q175 634 150.5 629Q126 624 100 614L90 665Q119 675 145 680Q171 685 197 685Q254 685 281 660.5Q308 636 301 592L299 578Q294 545 276 523Q258 501 196 472L162 456Q137 444 125.5 430Q114 416 108 392ZM94 0 571 680H633L156 0ZM670 202 657 131Q644 59 611.5 27Q579 -5 518 -5Q494 -5 472 0.5Q450 6 426 18L445 65Q459 56 477.5 51Q496 46 513 46Q551 46 572 66.5Q593 87 601 131L604 145Q584 133 565.5 127Q547 121 528 121Q483 121 460 150.5Q437 180 445 226L449 249Q457 294 489 319.5Q521 345 570 345Q627 345 654.5 306Q682 267 670 202ZM505 247 501 226Q496 200 506.5 185Q517 170 540 170Q557 170 575.5 177Q594 184 613 198L614 202Q622 249 610.5 272Q599 295 567 295Q542 295 526 282.5Q510 270 505 247Z" glyph-name="twoninths" horiz-adv-x="723" unicode="" /><glyph d="M264 439 263 431Q254 381 223.5 358Q193 335 136 335Q110 335 86.5 340.5Q63 346 44 356L62 405Q79 396 97 391.5Q115 387 139 387Q170 387 186.5 397.5Q203 408 207 431L208 439Q212 462 198 474.5Q184 487 152 487H114L123 537H161Q192 537 209.5 548.5Q227 560 231 583L232 590Q235 612 223 623Q211 634 184 634Q165 634 146.5 629.5Q128 625 108 616L94 665Q117 675 141.5 680Q166 685 190 685Q244 685 269 661Q294 637 288 591L287 584Q282 557 267.5 538Q253 519 229 509Q251 499 260 481.5Q269 464 264 439ZM90 0 567 680H629L152 0ZM621 120 613 72H574L561 0H511L524 72H376L382 105Q436 170 475.5 226.5Q515 283 547 340H604Q572 282 535.5 229.5Q499 177 453 120H532L543 182H593L582 120Z" glyph-name="threequarters" horiz-adv-x="647" unicode="¾" /><glyph d="M264 439 263 431Q254 381 223.5 358Q193 335 136 335Q110 335 86.5 340.5Q63 346 44 356L62 405Q79 396 97 391.5Q115 387 139 387Q170 387 186.5 397.5Q203 408 207 431L208 439Q212 462 198 474.5Q184 487 152 487H114L123 537H161Q192 537 209.5 548.5Q227 560 231 583L232 590Q235 612 223 623Q211 634 184 634Q165 634 146.5 629.5Q128 625 108 616L94 665Q117 675 141.5 680Q166 685 190 685Q244 685 269 661Q294 637 288 591L287 584Q282 557 267.5 538Q253 519 229 509Q251 499 260 481.5Q269 464 264 439ZM90 0 567 680H629L152 0ZM635 116 633 99Q627 49 593 22Q559 -5 502 -5Q477 -5 453.5 0.5Q430 6 408 16L425 65Q442 56 460 51.5Q478 47 499 47Q535 47 554.5 60Q574 73 577 99L579 116Q583 142 569.5 155.5Q556 169 526 169Q512 169 497.5 166Q483 163 465 156L440 178L479 340H664L655 289H519L501 216Q508 218 516.5 219Q525 220 535 220Q588 220 614.5 193Q641 166 635 116Z" glyph-name="threefifths" horiz-adv-x="686" unicode="" /><glyph d="M264 439 263 431Q254 381 223.5 358Q193 335 136 335Q110 335 86.5 340.5Q63 346 44 356L62 405Q79 396 97 391.5Q115 387 139 387Q170 387 186.5 397.5Q203 408 207 431L208 439Q212 462 198 474.5Q184 487 152 487H114L123 537H161Q192 537 209.5 548.5Q227 560 231 583L232 590Q235 612 223 623Q211 634 184 634Q165 634 146.5 629.5Q128 625 108 616L94 665Q117 675 141.5 680Q166 685 190 685Q244 685 269 661Q294 637 288 591L287 584Q282 557 267.5 538Q253 519 229 509Q251 499 260 481.5Q269 464 264 439ZM90 0 567 680H629L152 0ZM685 340 677 295Q628 223 591 149Q554 75 529 0H473Q498 74 533.5 146.5Q569 219 616 289H465L474 340Z" glyph-name="threesevenths" horiz-adv-x="678" unicode="" /><glyph d="M264 439 263 431Q254 381 223.5 358Q193 335 136 335Q110 335 86.5 340.5Q63 346 44 356L62 405Q79 396 97 391.5Q115 387 139 387Q170 387 186.5 397.5Q203 408 207 431L208 439Q212 462 198 474.5Q184 487 152 487H114L123 537H161Q192 537 209.5 548.5Q227 560 231 583L232 590Q235 612 223 623Q211 634 184 634Q165 634 146.5 629.5Q128 625 108 616L94 665Q117 675 141.5 680Q166 685 190 685Q244 685 269 661Q294 637 288 591L287 584Q282 557 267.5 538Q253 519 229 509Q251 499 260 481.5Q269 464 264 439ZM90 0 567 680H629L152 0ZM600 172Q623 157 633 138Q643 119 643 90Q643 46 610 20.5Q577 -5 520 -5Q470 -5 443 16Q416 37 416 75Q416 104 434 128Q452 152 490 174Q471 188 462.5 206.5Q454 225 454 250Q454 292 484.5 318.5Q515 345 566 345Q613 345 638.5 323.5Q664 302 664 264Q664 237 648.5 215Q633 193 600 172ZM507 253Q507 239 515.5 227Q524 215 541 206L569 191Q589 207 599.5 224.5Q610 242 610 259Q610 277 597.5 287Q585 297 563 297Q537 297 522 285Q507 273 507 253ZM470 84Q470 65 483.5 54.5Q497 44 522 44Q553 44 571 56Q589 68 589 89Q589 105 580.5 116Q572 127 548 140L519 156Q494 139 482 121.5Q470 104 470 84Z" glyph-name="threeeighths" horiz-adv-x="708" unicode="⅜" /><glyph d="M287 460 279 412H240L227 340H177L190 412H42L48 445Q102 510 141.5 566.5Q181 623 213 680H270Q238 622 201.5 569.5Q165 517 119 460H198L209 522H259L248 460ZM92 0 569 680H631L154 0ZM637 116 635 99Q629 49 595 22Q561 -5 504 -5Q479 -5 455.5 0.5Q432 6 410 16L427 65Q444 56 462 51.5Q480 47 501 47Q537 47 556.5 60Q576 73 579 99L581 116Q585 142 571.5 155.5Q558 169 528 169Q514 169 499.5 166Q485 163 467 156L442 178L481 340H666L657 289H521L503 216Q510 218 518.5 219Q527 220 537 220Q590 220 616.5 193Q643 166 637 116Z" glyph-name="fourfifths" horiz-adv-x="687" unicode="" /><glyph d="M287 460 279 412H240L227 340H177L190 412H42L48 445Q102 510 141.5 566.5Q181 623 213 680H270Q238 622 201.5 569.5Q165 517 119 460H198L209 522H259L248 460ZM92 0 569 680H631L154 0ZM687 340 679 295Q630 223 593 149Q556 75 531 0H475Q500 74 535.5 146.5Q571 219 618 289H467L476 340Z" glyph-name="foursevenths" horiz-adv-x="680" unicode="" /><glyph d="M287 460 279 412H240L227 340H177L190 412H42L48 445Q102 510 141.5 566.5Q181 623 213 680H270Q238 622 201.5 569.5Q165 517 119 460H198L209 522H259L248 460ZM92 0 569 680H631L154 0ZM668 202 655 131Q642 59 609.5 27Q577 -5 516 -5Q492 -5 470 0.5Q448 6 424 18L443 65Q457 56 475.5 51Q494 46 511 46Q549 46 570 66.5Q591 87 599 131L602 145Q582 133 563.5 127Q545 121 526 121Q481 121 458 150.5Q435 180 443 226L447 249Q455 294 487 319.5Q519 345 568 345Q625 345 652.5 306Q680 267 668 202ZM503 247 499 226Q494 200 504.5 185Q515 170 538 170Q555 170 573.5 177Q592 184 611 198L612 202Q620 249 608.5 272Q597 295 565 295Q540 295 524 282.5Q508 270 503 247Z" glyph-name="fourninths" horiz-adv-x="720" unicode="" /><glyph d="M281 456 279 439Q273 389 239 362Q205 335 148 335Q123 335 99.5 340.5Q76 346 54 356L71 405Q88 396 106 391.5Q124 387 145 387Q181 387 200.5 400Q220 413 223 439L225 456Q229 482 215.5 495.5Q202 509 172 509Q158 509 143.5 506Q129 503 111 496L86 518L125 680H310L301 629H165L147 556Q154 558 162.5 559Q171 560 181 560Q234 560 260.5 533Q287 506 281 456ZM96 0 573 680H635L158 0ZM657 114 653 91Q645 46 613 20.5Q581 -5 532 -5Q475 -5 447.5 34Q420 73 432 138L445 209Q458 281 490.5 313Q523 345 584 345Q608 345 630 339.5Q652 334 676 322L657 275Q643 284 624.5 289Q606 294 589 294Q551 294 530 273.5Q509 253 501 209L498 195Q518 207 536.5 213Q555 219 574 219Q619 219 642 189.5Q665 160 657 114ZM489 142 488 138Q480 91 491.5 68Q503 45 535 45Q560 45 576 57.5Q592 70 597 93L601 114Q606 140 595.5 155Q585 170 562 170Q545 170 526.5 163Q508 156 489 142Z" glyph-name="fivesixths" horiz-adv-x="709" unicode="" /><glyph d="M281 456 279 439Q273 389 239 362Q205 335 148 335Q123 335 99.5 340.5Q76 346 54 356L71 405Q88 396 106 391.5Q124 387 145 387Q181 387 200.5 400Q220 413 223 439L225 456Q229 482 215.5 495.5Q202 509 172 509Q158 509 143.5 506Q129 503 111 496L86 518L125 680H310L301 629H165L147 556Q154 558 162.5 559Q171 560 181 560Q234 560 260.5 533Q287 506 281 456ZM96 0 573 680H635L158 0ZM691 340 683 295Q634 223 597 149Q560 75 535 0H479Q504 74 539.5 146.5Q575 219 622 289H471L480 340Z" glyph-name="fivesevenths" horiz-adv-x="684" unicode="" /><glyph d="M281 456 279 439Q273 389 239 362Q205 335 148 335Q123 335 99.5 340.5Q76 346 54 356L71 405Q88 396 106 391.5Q124 387 145 387Q181 387 200.5 400Q220 413 223 439L225 456Q229 482 215.5 495.5Q202 509 172 509Q158 509 143.5 506Q129 503 111 496L86 518L125 680H310L301 629H165L147 556Q154 558 162.5 559Q171 560 181 560Q234 560 260.5 533Q287 506 281 456ZM96 0 573 680H635L158 0ZM606 172Q629 157 639 138Q649 119 649 90Q649 46 616 20.5Q583 -5 526 -5Q476 -5 449 16Q422 37 422 75Q422 104 440 128Q458 152 496 174Q477 188 468.5 206.5Q460 225 460 250Q460 292 490.5 318.5Q521 345 572 345Q619 345 644.5 323.5Q670 302 670 264Q670 237 654.5 215Q639 193 606 172ZM513 253Q513 239 521.5 227Q530 215 547 206L575 191Q595 207 605.5 224.5Q616 242 616 259Q616 277 603.5 287Q591 297 569 297Q543 297 528 285Q513 273 513 253ZM476 84Q476 65 489.5 54.5Q503 44 528 44Q559 44 577 56Q595 68 595 89Q595 105 586.5 116Q578 127 554 140L525 156Q500 139 488 121.5Q476 104 476 84Z" glyph-name="fiveeighths" horiz-adv-x="714" unicode="⅝" /><glyph d="M281 456 279 439Q273 389 239 362Q205 335 148 335Q123 335 99.5 340.5Q76 346 54 356L71 405Q88 396 106 391.5Q124 387 145 387Q181 387 200.5 400Q220 413 223 439L225 456Q229 482 215.5 495.5Q202 509 172 509Q158 509 143.5 506Q129 503 111 496L86 518L125 680H310L301 629H165L147 556Q154 558 162.5 559Q171 560 181 560Q234 560 260.5 533Q287 506 281 456ZM96 0 573 680H635L158 0ZM672 202 659 131Q646 59 613.5 27Q581 -5 520 -5Q496 -5 474 0.5Q452 6 428 18L447 65Q461 56 479.5 51Q498 46 515 46Q553 46 574 66.5Q595 87 603 131L606 145Q586 133 567.5 127Q549 121 530 121Q485 121 462 150.5Q439 180 447 226L451 249Q459 294 491 319.5Q523 345 572 345Q629 345 656.5 306Q684 267 672 202ZM507 247 503 226Q498 200 508.5 185Q519 170 542 170Q559 170 577.5 177Q596 184 615 198L616 202Q624 249 612.5 272Q601 295 569 295Q544 295 528 282.5Q512 270 507 247Z" glyph-name="fiveninths" horiz-adv-x="724" unicode="" /><glyph d="M312 454 308 431Q300 386 268 360.5Q236 335 187 335Q130 335 102.5 374Q75 413 87 478L100 549Q113 621 145.5 653Q178 685 239 685Q263 685 285 679.5Q307 674 331 662L312 615Q298 624 279.5 629Q261 634 244 634Q206 634 185 613.5Q164 593 156 549L153 535Q173 547 191.5 553Q210 559 229 559Q274 559 297 529.5Q320 500 312 454ZM144 482 143 478Q135 431 146.5 408Q158 385 190 385Q215 385 231 397.5Q247 410 252 433L256 454Q261 480 250.5 495Q240 510 217 510Q200 510 181.5 503Q163 496 144 482ZM121 0 598 680H660L183 0ZM716 340 708 295Q659 223 622 149Q585 75 560 0H504Q529 74 564.5 146.5Q600 219 647 289H496L505 340Z" glyph-name="sixsevenths" horiz-adv-x="709" unicode="" /><glyph d="M296 680 288 635Q239 563 202 489Q165 415 140 340H84Q109 414 144.5 486.5Q180 559 227 629H76L85 680ZM43 0 520 680H582L105 0ZM553 172Q576 157 586 138Q596 119 596 90Q596 46 563 20.5Q530 -5 473 -5Q423 -5 396 16Q369 37 369 75Q369 104 387 128Q405 152 443 174Q424 188 415.5 206.5Q407 225 407 250Q407 292 437.5 318.5Q468 345 519 345Q566 345 591.5 323.5Q617 302 617 264Q617 237 601.5 215Q586 193 553 172ZM460 253Q460 239 468.5 227Q477 215 494 206L522 191Q542 207 552.5 224.5Q563 242 563 259Q563 277 550.5 287Q538 297 516 297Q490 297 475 285Q460 273 460 253ZM423 84Q423 65 436.5 54.5Q450 44 475 44Q506 44 524 56Q542 68 542 89Q542 105 533.5 116Q525 127 501 140L472 156Q447 139 435 121.5Q423 104 423 84Z" glyph-name="seveneighths" horiz-adv-x="661" unicode="⅞" /><glyph d="M296 680 288 635Q239 563 202 489Q165 415 140 340H84Q109 414 144.5 486.5Q180 559 227 629H76L85 680ZM43 0 520 680H582L105 0ZM619 202 606 131Q593 59 560.5 27Q528 -5 467 -5Q443 -5 421 0.5Q399 6 375 18L394 65Q408 56 426.5 51Q445 46 462 46Q500 46 521 66.5Q542 87 550 131L553 145Q533 133 514.5 127Q496 121 477 121Q432 121 409 150.5Q386 180 394 226L398 249Q406 294 438 319.5Q470 345 519 345Q576 345 603.5 306Q631 267 619 202ZM454 247 450 226Q445 200 455.5 185Q466 170 489 170Q506 170 524.5 177Q543 184 562 198L563 202Q571 249 559.5 272Q548 295 516 295Q491 295 475 282.5Q459 270 454 247Z" glyph-name="sevenninths" horiz-adv-x="671" unicode="" /><glyph d="M261 512Q284 497 294 478Q304 459 304 430Q304 386 271 360.5Q238 335 181 335Q131 335 104 356Q77 377 77 415Q77 444 95 468Q113 492 151 514Q132 528 123.5 546.5Q115 565 115 590Q115 632 145.5 658.5Q176 685 227 685Q274 685 299.5 663.5Q325 642 325 604Q325 577 309.5 555Q294 533 261 512ZM168 593Q168 579 176.5 567Q185 555 202 546L230 531Q250 547 260.5 564.5Q271 582 271 599Q271 617 258.5 627Q246 637 224 637Q198 637 183 625Q168 613 168 593ZM131 424Q131 405 144.5 394.5Q158 384 183 384Q214 384 232 396Q250 408 250 429Q250 445 241.5 456Q233 467 209 480L180 496Q155 479 143 461.5Q131 444 131 424ZM125 0 602 680H664L187 0ZM701 202 688 131Q675 59 642.5 27Q610 -5 549 -5Q525 -5 503 0.5Q481 6 457 18L476 65Q490 56 508.5 51Q527 46 544 46Q582 46 603 66.5Q624 87 632 131L635 145Q615 133 596.5 127Q578 121 559 121Q514 121 491 150.5Q468 180 476 226L480 249Q488 294 520 319.5Q552 345 601 345Q658 345 685.5 306Q713 267 701 202ZM536 247 532 226Q527 200 537.5 185Q548 170 571 170Q588 170 606.5 177Q625 184 644 198L645 202Q653 249 641.5 272Q630 295 598 295Q573 295 557 282.5Q541 270 536 247Z" glyph-name="eightninths" horiz-adv-x="753" unicode="" /><glyph d="M515 321 505 268H326L294 83H238L270 268H91L101 321H280L312 506H368L336 321Z" glyph-name="plus" horiz-adv-x="588" unicode="+" /><glyph d="M505 268 91 268L101 321H515Z" glyph-name="minus" horiz-adv-x="588" unicode="−" /><glyph d="M469 139 429 104L300 258L118 102L85 141L267 297L138 451L178 487L307 332L489 489L522 449L340 293Z" glyph-name="multiply" horiz-adv-x="588" unicode="×" /><glyph d="M382 535 369 462H296L309 535ZM505 268 91 268L101 321H515ZM310 123 297 50H224L237 123Z" glyph-name="divide" horiz-adv-x="588" unicode="÷" /><glyph d="M523 368 109 368L118 421H532ZM488 168 74 168L83 221H497Z" glyph-name="equal" horiz-adv-x="588" unicode="=" /><glyph d="M469 378 111 378L120 431H534L493 197H437Z" glyph-name="logicalnot" horiz-adv-x="588" unicode="¬" /><glyph d="M388 208Q356 208 332.5 221.5Q309 235 280 276Q259 306 245.5 315Q232 324 215 324Q188 324 166 300Q144 276 123 223L76 236Q99 308 133 342.5Q167 377 216 377Q248 377 271.5 363.5Q295 350 324 309Q345 279 358.5 270Q372 261 389 261Q416 261 437.5 285Q459 309 482 363L530 350Q506 278 471 243Q436 208 388 208Z" glyph-name="asciitilde" horiz-adv-x="588" unicode="~" /><glyph d="M184 290 487 165L477 106L92 274L99 311L542 476L530 412Z" glyph-name="less" horiz-adv-x="588" unicode="&lt;" /><glyph d="M513 308 506 271L63 106L75 170L421 292L118 417L128 476Z" glyph-name="greater" horiz-adv-x="588" unicode="&gt;" /><glyph d="M522 361 512 308H333L301 123H245L277 308H98L108 361H287L319 546H375L343 361ZM458 0 44 0L53 53H467Z" glyph-name="plusminus" horiz-adv-x="588" unicode="±" /><glyph d="M483 266 423 266L356 589L177 266H113L351 680H388Z" glyph-name="asciicircum" horiz-adv-x="588" unicode="^" /><glyph d="M497 221 488 168H243L150 42L107 71L178 168H74L83 221H217L325 368H109L118 421H364L456 546L499 517L428 421H532L523 368H390L282 221Z" glyph-name="notequal" horiz-adv-x="588" unicode="≠" /><glyph d="M406 308Q374 308 350.5 321.5Q327 335 298 376Q277 406 263.5 415Q250 424 233 424Q206 424 184 400Q162 376 141 323L94 336Q117 408 151 442.5Q185 477 234 477Q266 477 289.5 463.5Q313 450 342 409Q363 379 376.5 370Q390 361 407 361Q434 361 455.5 385Q477 409 500 463L548 450Q524 378 489 343Q454 308 406 308ZM370 108Q338 108 314.5 121.5Q291 135 262 176Q241 206 227.5 215Q214 224 197 224Q170 224 148 200Q126 176 105 123L58 136Q81 208 115 242.5Q149 277 198 277Q230 277 253.5 263.5Q277 250 306 209Q327 179 340.5 170Q354 161 371 161Q398 161 419.5 185Q441 209 464 263L512 250Q488 178 453 143Q418 108 370 108Z" glyph-name="approxequal" horiz-adv-x="588" unicode="≈" /><glyph d="M191 330 494 205L484 146L99 314L106 351L549 516L537 452ZM458 0 44 0L53 53H467Z" glyph-name="lessequal" horiz-adv-x="588" unicode="≤" /><glyph d="M520 348 513 311L70 146L82 210L428 332L125 457L135 516ZM458 0 44 0L53 53H467Z" glyph-name="greaterequal" horiz-adv-x="588" unicode="≥" /><glyph d="M606 497Q675 497 713.5 452Q752 407 752 325Q752 228 700 165.5Q648 103 560 103Q499 103 455.5 136Q412 169 388 233Q340 165 294 134.5Q248 104 196 104Q127 104 88.5 149Q50 194 50 276Q50 373 102 435.5Q154 498 242 498Q303 498 346.5 465Q390 432 414 368Q462 436 508 466.5Q554 497 606 497ZM240 433Q180 433 143.5 390Q107 347 107 284Q107 228 131.5 198.5Q156 169 202 169Q244 169 282 197Q320 225 369 291L360 319Q341 378 312 405.5Q283 433 240 433ZM433 310 442 282Q461 223 490 195.5Q519 168 562 168Q622 168 658.5 211Q695 254 695 317Q695 373 670.5 402.5Q646 432 600 432Q558 432 520 404Q482 376 433 310Z" glyph-name="infinity" horiz-adv-x="782" unicode="∞" /><glyph d="M271 0 234 0L126 340L351 680H388L496 340ZM359 597 189 333L263 83L435 347Z" glyph-name="lozenge" horiz-adv-x="588" unicode="◊" /><glyph d="M148 309 54 309L64 362H195L252 95L583 680H648L257 0H220Z" glyph-name="radical" horiz-adv-x="588" unicode="√" /><glyph d="M-48 -170Q-12 -170 10 -146Q32 -122 46 -69L222 595Q245 681 281 715.5Q317 750 377 750Q401 750 424.5 744.5Q448 739 468 729L445 680Q426 689 410.5 693Q395 697 378 697Q342 697 320 673Q298 649 284 596L108 -68Q85 -154 49 -188.5Q13 -223 -47 -223Q-71 -223 -94.5 -217.5Q-118 -212 -138 -202L-115 -153Q-96 -162 -80.5 -166Q-65 -170 -48 -170Z" glyph-name="integral" horiz-adv-x="335" unicode="∫" /><glyph d="M473 280 463 240Q432 115 370 52.5Q308 -10 216 -10Q117 -10 71 59Q25 128 50 231L60 271Q81 353 135.5 400Q190 447 265 447Q319 447 359.5 421Q400 395 422 346Q433 453 390 545.5Q347 638 253 707L286 750Q408 666 457 539.5Q506 413 473 280ZM121 260 112 220Q94 143 122.5 94Q151 45 217 45Q284 45 331.5 97Q379 149 404 251L409 272Q387 331 350.5 361.5Q314 392 267 392Q214 392 174.5 356Q135 320 121 260Z" glyph-name="partialdiff" horiz-adv-x="535" unicode="∂" /><glyph d="M191 621 101 621L112 680H747L736 621H646L512 -143H447L581 621H256L122 -143H57Z" glyph-name="product" horiz-adv-x="705" unicode="∏" /><glyph d="M457 50 478 50L468 -5H447Q390 -5 365.5 24Q341 53 351 110L408 434H204L127 0H67L144 434H67L76 487H555L546 434H468L412 112Q406 77 415.5 63.5Q425 50 457 50Z" glyph-name="pi" horiz-adv-x="547" unicode="π" /><glyph d="M107 30 90 -125L74 -213H14L138 487H198L142 171Q131 111 146.5 79Q162 47 201 47Q244 47 290.5 77Q337 107 390 168L446 487H506L443 131Q435 88 443 69Q451 50 476 50H492L482 -5H466Q421 -5 399 21Q377 47 380 94Q331 41 285 15.5Q239 -10 191 -10Q163 -10 142 0Q121 10 107 30Z" glyph-name="mu" horiz-adv-x="562" unicode="µ" /><glyph d="M-36 -143 -28 -96L327 272L106 633L114 680H564L553 621H187L389 293L380 240L66 -84H446L436 -143Z" glyph-name="summation" horiz-adv-x="522" unicode="∑" /><glyph d="M262 164 233 0H24L34 59H184L196 125Q132 156 105 224Q78 292 95 381L103 424Q126 549 202.5 619.5Q279 690 393 690Q518 690 575.5 613.5Q633 537 609 405L601 362Q584 270 535.5 207.5Q487 145 413 119L402 59H552L542 0H333L362 162V164Q431 179 476 233.5Q521 288 536 374L544 417Q561 519 522 575Q483 631 394 631Q305 631 246 575Q187 519 170 417L162 374Q147 287 173 233Q199 179 262 164Z" glyph-name="Omega" horiz-adv-x="652" unicode="Ω" /><glyph d="M387 680 483 46L475 0H-5L3 46L322 680ZM340 591 226 363L76 58H416L374 363Z" glyph-name="Delta" horiz-adv-x="556" unicode="∆" /><glyph d="M263 69 280 22Q250 6 221 -2Q192 -10 162 -10Q99 -10 73 26Q47 62 59 132L130 535Q143 612 182.5 651Q222 690 286 690Q344 690 376 660Q408 630 408 574Q408 496 341 407Q274 318 133 206L118 124Q110 81 122 62Q134 43 170 43Q193 43 216.5 49.5Q240 56 263 69ZM286 637Q249 637 224.5 611Q200 585 191 536L146 283Q245 364 295.5 436.5Q346 509 346 568Q346 601 330.5 619Q315 637 286 637Z" glyph-name="uni2113" horiz-adv-x="378" unicode="ℓ" /><glyph d="M155 331 313 184L286 149L60 339V376L286 563L313 528L154 384H601V331Z" glyph-name="arrowleft" horiz-adv-x="651" unicode="←" /><glyph d="M538 401 503 374L359 533V86H306V532L159 374L124 401L314 627H351Z" glyph-name="arrowup" horiz-adv-x="651" unicode="↑" /><glyph d="M601 374 601 337L375 150L348 185L507 329H60V382H506L348 529L375 564Z" glyph-name="arrowright" horiz-adv-x="651" unicode="→" /><glyph d="M503 340 538 313L348 87H311L124 313L159 340L303 181V628H356V182Z" glyph-name="arrowdown" horiz-adv-x="651" unicode="↓" /><glyph d="M155 331 313 184L286 149L60 339V376L286 563L313 528L154 384H639L481 531L508 566L734 376V339L508 152L481 187L640 331Z" glyph-name="uni2194" horiz-adv-x="774" unicode="↔" /><glyph d="M509 274 544 247L354 21H317L130 247L165 274L309 115V600L162 442L127 469L317 695H354L541 469L506 442L362 601V116Z" glyph-name="uni2195" horiz-adv-x="651" unicode="↕" /><glyph d="M226 501 542 185L504 147L189 462L197 247L153 241L127 536L154 562L446 534L440 490Z" glyph-name="uni2196" horiz-adv-x="651" unicode="↖" /><glyph d="M508 242 465 247L475 462L159 146L122 183L437 498L221 491L216 534L510 560L536 534Z" glyph-name="uni2197" horiz-adv-x="651" unicode="↗" /><glyph d="M508 472 534 178L508 152L216 180L221 223L436 213L120 529L157 566L472 251L465 467Z" glyph-name="uni2198" horiz-adv-x="651" unicode="↘" /><glyph d="M440 224 446 180L151 154L125 181L153 473L197 467L186 253L502 569L540 531L225 216Z" glyph-name="uni2199" horiz-adv-x="651" unicode="↙" /><glyph d="M787 314 787 305H204Q201 305 200 304Q199 303 199 301V125Q199 119 201 114Q203 109 207 105Q251 59 308 34Q365 9 428 9Q495 9 555 37Q615 65 660 116H712Q661 57 586 23.5Q511 -10 427 -10Q278 -10 172.5 85Q67 180 67 314Q67 448 172.5 543Q278 638 427 638Q576 638 681.5 543Q787 448 787 314ZM655 328 655 506Q655 512 653 517.5Q651 523 646 527Q602 571 545.5 595Q489 619 428 619Q366 619 309 594.5Q252 570 208 524Q203 519 201 514Q199 509 199 502V328Q199 326 200.5 324.5Q202 323 204 323H651Q653 323 654 324.5Q655 326 655 328Z" glyph-name="estimated" horiz-adv-x="813" unicode="℮" /><glyph d="M700 -45 724 -97Q664 -124 596 -138.5Q528 -153 462 -153Q270 -153 157.5 -36Q45 81 45 277Q45 486 169 623Q293 760 484 760Q660 760 774.5 643.5Q889 527 889 351Q889 229 829 147Q769 65 679 65Q628 65 598.5 87Q569 109 563 152Q525 107 482 83.5Q439 60 395 60Q325 60 290.5 118.5Q256 177 269 269L278 330Q292 429 347.5 483Q403 537 490 537Q534 537 578 522.5Q622 508 669 477L624 220Q615 167 629 142Q643 117 683 117Q743 117 785.5 184.5Q828 252 828 351Q828 504 731 605.5Q634 707 484 707Q320 707 213 585Q106 463 106 277Q106 103 201.5 1.5Q297 -100 462 -100Q523 -100 585.5 -85.5Q648 -71 700 -45ZM341 330 332 269Q321 196 340 154.5Q359 113 403 113Q444 113 487 145Q530 177 568 237L604 450Q574 466 546.5 474Q519 482 492 482Q428 482 390 444Q352 406 341 330Z" glyph-name="at.case" horiz-adv-x="954" unicode="" /><glyph d="M251 607 264 680H336L323 607ZM190 45Q230 45 271.5 54.5Q313 64 358 84L371 31Q325 11 279 0.5Q233 -10 191 -10Q99 -10 52.5 38.5Q6 87 20 166L23 183Q30 225 49.5 256Q69 287 134 343L171 375Q204 403 217.5 425Q231 447 237 482L242 508H302L297 483Q288 433 269.5 402Q251 371 196 325L158 293Q125 266 108 237Q91 208 84 171L81 154Q72 103 101 74Q130 45 190 45Z" glyph-name="questiondown.case" horiz-adv-x="422" unicode="" /><glyph d="M168 607 181 680H253L240 607ZM115 270 162 508H212L175 270L127 0H67Z" glyph-name="exclamdown.case" horiz-adv-x="280" unicode="" /><glyph d="M138 267 138 242Q138 160 166 77Q194 -6 244 -74L199 -111Q142 -39 110 54.5Q78 148 78 241V265Q78 410 151.5 550Q225 690 357 792L389 745Q265 642 201.5 521Q138 400 138 267Z" glyph-name="parenleft.case" horiz-adv-x="304" unicode="" /><glyph d="M199 413 199 438Q199 520 171 603Q143 686 93 754L138 791Q195 719 227 625.5Q259 532 259 439V415Q259 270 185.5 130Q112 -10 -20 -112L-52 -65Q72 38 135.5 159Q199 280 199 413Z" glyph-name="parenright.case" horiz-adv-x="304" unicode="" /><glyph d="M235 -49 320 -49L311 -102H233Q145 -102 114.5 -53Q84 -4 116 83L155 189Q179 255 167.5 284.5Q156 314 107 314H34L43 367H116Q165 367 187 396Q209 425 208 491L207 597Q205 693 244.5 737.5Q284 782 369 782H466L457 729H372Q320 729 293.5 699.5Q267 670 268 616L270 510Q271 437 251 394Q231 351 190 337Q224 321 229 279.5Q234 238 210 170L171 64Q151 9 167.5 -20Q184 -49 235 -49Z" glyph-name="braceleft.case" horiz-adv-x="376" unicode="" /><glyph d="M202 189 203 83Q205 -13 165.5 -57.5Q126 -102 41 -102H-56L-47 -49H38Q90 -49 116.5 -19.5Q143 10 142 64L140 170Q139 243 159 286Q179 329 220 343Q186 359 181 400.5Q176 442 200 510L239 616Q259 671 242.5 700Q226 729 175 729H90L99 782H177Q265 782 295.5 733Q326 684 294 597L255 491Q231 425 242.5 395.5Q254 366 303 366H376L367 313H294Q245 313 223 284Q201 255 202 189Z" glyph-name="braceright.case" horiz-adv-x="376" unicode="" /><glyph d="M123 -49 288 -49L279 -102H54L209 781H434L425 728H260Z" glyph-name="bracketleft.case" horiz-adv-x="344" unicode="" /><glyph d="M99 781 324 781L169 -102H-56L-47 -49H118L255 728H90Z" glyph-name="bracketright.case" horiz-adv-x="345" unicode="" /><glyph d="M332 289 68 289L78 342H342Z" glyph-name="hyphen.case" horiz-adv-x="384" unicode="" /><glyph d="M532 289 68 289L78 342H542Z" glyph-name="endash.case" horiz-adv-x="584" unicode="" /><glyph d="M732 289 68 289L78 342H742Z" glyph-name="emdash.case" horiz-adv-x="784" unicode="" /><glyph d="M145 433 212 816H272L205 433ZM44 -137 112 246H172L104 -137Z" glyph-name="brokenbar.case" horiz-adv-x="284" unicode="" /><glyph d="M47 -137 215 816H275L107 -137Z" glyph-name="bar.case" horiz-adv-x="290" unicode="" /><glyph d="M117 332 299 170L287 104L49 319L56 356L369 568L356 492ZM387 332 569 170L557 104L319 319L326 356L639 568L626 492Z" glyph-name="guillemotleft.case" horiz-adv-x="638" unicode="" /><glyph d="M352 353 345 316L32 104L45 180L284 340L102 502L114 568ZM622 353 615 316L302 104L315 180L554 340L372 502L384 568Z" glyph-name="guillemotright.case" horiz-adv-x="639" unicode="" /><glyph d="M117 332 299 170L287 104L49 319L56 356L369 568L356 492Z" glyph-name="guilsinglleft.case" horiz-adv-x="368" unicode="" /><glyph d="M352 353 345 316L32 104L45 180L284 340L102 502L114 568Z" glyph-name="guilsinglright.case" horiz-adv-x="369" unicode="" /><glyph d="M109 422 45 422Q67 551 142.5 615.5Q218 680 347 680H514L621 0H556L529 175H258L254 167Q208 76 171.5 13.5Q135 -49 102 -91Q46 -163 -11.5 -193Q-69 -223 -153 -223L-142 -161Q-77 -161 -31 -134Q15 -107 62 -45Q90 -8 121 44Q152 96 188 167L419 621H336Q239 621 183.5 572.5Q128 524 109 422ZM467 593 353 363L287 233H521L501 363Z" glyph-name="A.alt" horiz-adv-x="686" unicode="" /><glyph d="M109 422 45 422Q67 551 142.5 615.5Q218 680 347 680H541Q629 680 672.5 630Q716 580 702 497L699 479Q691 433 664.5 399Q638 365 596 347Q644 327 665.5 285Q687 243 678 187L675 169Q662 89 607.5 44.5Q553 0 466 0H236L346 621H336Q239 621 183.5 572.5Q128 524 109 422ZM540 621 411 621L367 375H497Q553 375 588 402Q623 429 631 479L634 497Q644 557 619.5 589Q595 621 540 621ZM512 316 357 316L311 59H466Q524 59 561 87.5Q598 116 607 169L610 187Q620 247 594 281.5Q568 316 512 316Z" glyph-name="B.alt" horiz-adv-x="750" unicode="" /><glyph d="M109 422 45 422Q67 551 142.5 615.5Q218 680 347 680H538Q653 680 709 602.5Q765 525 742 397L717 254Q696 134 624 67Q552 0 443 0H236L346 621H336Q239 621 183.5 572.5Q128 524 109 422ZM537 621 411 621L311 59H444Q524 59 578.5 111Q633 163 649 254L674 397Q693 503 656.5 562Q620 621 537 621Z" glyph-name="D.alt" horiz-adv-x="801" unicode="" /><glyph d="M109 422 45 422Q67 551 142.5 615.5Q218 680 347 680H716L705 621H410L367 374H632L622 315H357L311 59H616L606 0H236L345 621H336Q239 621 183.5 572.5Q128 524 109 422Z" glyph-name="E.alt" horiz-adv-x="692" unicode="" /><glyph d="M109 422 45 422Q67 551 142.5 615.5Q218 680 347 680H710L699 621H410L365 363H624L614 304H355L301 0H236L345 621H336Q239 621 183.5 572.5Q128 524 109 422Z" glyph-name="F.alt" horiz-adv-x="671" unicode="" /><glyph d="M549 345 487 -6Q466 -128 406 -175.5Q346 -223 226 -223L237 -161Q329 -161 370 -126.5Q411 -92 426 -6L429 13Q395 1 360.5 -4.5Q326 -10 290 -10Q172 -10 120 67.5Q68 145 93 283L117 417Q142 558 209.5 624Q277 690 394 690Q445 690 492.5 679Q540 668 581 647L559 590Q520 611 479 621Q438 631 393 631Q308 631 256 578Q204 525 185 417L161 283Q140 165 174 106Q208 47 297 47Q336 47 370 54.5Q404 62 441 79L477 286H340L351 345Z" glyph-name="G.alt" horiz-adv-x="605" unicode="" /><glyph d="M109 422 45 422Q67 551 142.5 615.5Q218 680 347 680H421L367 374H692L746 680H811L691 0H626L682 315H357L301 0H236L345 621H336Q239 621 183.5 572.5Q128 524 109 422Z" glyph-name="H.alt" horiz-adv-x="849" unicode="" /><glyph d="M109 422 45 422Q67 551 142.5 615.5Q218 680 347 680H422L339 212Q317 89 257.5 42Q198 -5 78 -5L89 57Q179 57 218.5 91Q258 125 274 212L347 621H336Q239 621 183.5 572.5Q128 524 109 422Z" glyph-name="J.alt" horiz-adv-x="449" unicode="" /><glyph d="M109 422 45 422Q67 551 142.5 615.5Q218 680 347 680H421L357 316Q473 412 558.5 501Q644 590 706 680H781Q721 596 657 523Q593 450 518 378L693 0H620L467 340Q444 319 415.5 295.5Q387 272 343 237L301 0H236L346 621H336Q239 621 183.5 572.5Q128 524 109 422Z" glyph-name="K.alt" horiz-adv-x="747" unicode="" /><glyph d="M109 422 45 422Q67 551 142.5 615.5Q218 680 347 680H421L311 59H605L595 0H236L345 621H336Q239 621 183.5 572.5Q128 524 109 422Z" glyph-name="L.alt" horiz-adv-x="670" unicode="" /><glyph d="M347 680 435 680L559 151L876 680H955L835 0H774L829 312L880 580L580 80H515L397 591L352 312L297 0H236L346 621H336Q239 621 183.5 572.5Q128 524 109 422H45Q67 551 142.5 615.5Q218 680 347 680Z" glyph-name="M.alt" horiz-adv-x="993" unicode="" /><glyph d="M109 422 45 422Q67 551 142.5 615.5Q218 680 347 680H434Q512 504 564.5 363.5Q617 223 661 77L708 388L760 680H821L701 0H623Q571 169 517.5 314.5Q464 460 403 603L348 291L297 0H236L346 621H336Q239 621 183.5 572.5Q128 524 109 422Z" glyph-name="N.alt" horiz-adv-x="859" unicode="" /><glyph d="M109 422 45 422Q67 551 142.5 615.5Q218 680 347 680H549Q643 680 689 626.5Q735 573 719 487L709 434Q693 349 638.5 304.5Q584 260 495 260H347L301 0H236L346 621H336Q239 621 183.5 572.5Q128 524 109 422ZM548 621 411 621L357 319H495Q555 319 592.5 348.5Q630 378 641 434L651 487Q663 550 636 585.5Q609 621 548 621Z" glyph-name="P.alt" horiz-adv-x="723" unicode="" /><glyph d="M507 278 350 278L301 0H236L346 621H336Q239 621 183.5 572.5Q128 524 109 422H45Q67 551 142.5 615.5Q218 680 347 680H550Q638 680 685.5 627Q733 574 719 491L712 448Q702 387 665.5 345Q629 303 571 287Q603 220 628.5 148Q654 76 673 0H603Q587 65 563.5 134Q540 203 507 278ZM548 621 411 621L360 337H498Q558 337 596.5 366.5Q635 396 644 448L651 491Q661 551 633 586Q605 621 548 621Z" glyph-name="R.alt" horiz-adv-x="761" unicode="" /><glyph d="M109 422 45 422Q67 551 142.5 615.5Q218 680 347 680H667L656 621H452L343 0H278L387 621H336Q239 621 183.5 572.5Q128 524 109 422Z" glyph-name="T.alt" horiz-adv-x="603" unicode="" /><glyph d="M109 422 45 422Q67 551 142.5 615.5Q218 680 347 680H422L345 244Q329 153 362 101Q395 49 472 49Q546 49 592 98Q638 147 655 244L732 680H800L723 244Q701 119 636.5 54.5Q572 -10 470 -10Q361 -10 309 60.5Q257 131 277 244L344 621H336Q239 621 183.5 572.5Q128 524 109 422Z" glyph-name="U.alt" horiz-adv-x="825" unicode="" /><glyph d="M109 422 45 422Q67 551 142.5 615.5Q218 680 347 680H390L439 334L472 93L590 334L678 513Q723 604 759.5 667Q796 730 830 773Q885 843 942.5 873Q1000 903 1086 903L1075 841Q1010 841 963 814Q916 787 869 726Q841 689 810 636.5Q779 584 744 513L489 0H424L334 621Q238 620 183 571.5Q128 523 109 422Z" glyph-name="V.alt" horiz-adv-x="774" unicode="" /><glyph d="M780 0 713 584L438 0H370L346 621H336Q239 621 183.5 572.5Q128 524 109 422H45Q67 551 142 615.5Q217 680 344 680H407L418 380L425 106L695 680H760L827 103L932 380L984 513Q1020 605 1054.5 671.5Q1089 738 1125 783Q1175 847 1234.5 875Q1294 903 1390 903L1379 841Q1306 841 1256.5 815.5Q1207 790 1164 735Q1134 696 1105.5 641Q1077 586 1048 513L847 0Z" glyph-name="W.alt" horiz-adv-x="1080" unicode="" /><glyph d="M109 422 45 422Q68 557 135.5 618.5Q203 680 327 680H347L463 401L673 680H747L491 341L631 0H565L445 292L225 0H151L417 353L306 621Q219 618 173.5 573Q128 528 109 422Z" glyph-name="X.alt" horiz-adv-x="698" unicode="" /><glyph d="M777 680 498 270L450 0H385L433 271L316 621Q225 621 177 576Q129 531 109 422H45Q68 557 135.5 618.5Q203 680 327 680H364L475 337L705 680Z" glyph-name="Y.alt" horiz-adv-x="716" unicode="" /><glyph d="M109 422 45 422Q67 551 142.5 615.5Q218 680 347 680H514L621 0H556L529 175H258L254 167Q208 76 171.5 13.5Q135 -49 102 -91Q46 -163 -11.5 -193Q-69 -223 -153 -223L-142 -161Q-77 -161 -31 -134Q15 -107 62 -45Q90 -8 121 44Q152 96 188 167L419 621H336Q239 621 183.5 572.5Q128 524 109 422ZM467 593 353 363L287 233H521L501 363ZM642 909 524 772H469L584 938Z" glyph-name="Aacute.alt" horiz-adv-x="686" unicode="" /><glyph d="M109 422 45 422Q67 551 142.5 615.5Q218 680 347 680H514L621 0H556L529 175H258L254 167Q208 76 171.5 13.5Q135 -49 102 -91Q46 -163 -11.5 -193Q-69 -223 -153 -223L-142 -161Q-77 -161 -31 -134Q15 -107 62 -45Q90 -8 121 44Q152 96 188 167L419 621H336Q239 621 183.5 572.5Q128 524 109 422ZM467 593 353 363L287 233H521L501 363ZM619 772 570 772L517 878L427 772H374L493 933H556Z" glyph-name="Acircumflex.alt" horiz-adv-x="686" unicode="" /><glyph d="M109 422 45 422Q67 551 142.5 615.5Q218 680 347 680H514L621 0H556L529 175H258L254 167Q208 76 171.5 13.5Q135 -49 102 -91Q46 -163 -11.5 -193Q-69 -223 -153 -223L-142 -161Q-77 -161 -31 -134Q15 -107 62 -45Q90 -8 121 44Q152 96 188 167L419 621H336Q239 621 183.5 572.5Q128 524 109 422ZM467 593 353 363L287 233H521L501 363ZM458 891 446 820H375L387 891ZM647 891 635 820H564L576 891Z" glyph-name="Adieresis.alt" horiz-adv-x="686" unicode="" /><glyph d="M109 422 45 422Q67 551 142.5 615.5Q218 680 347 680H514L621 0H556L529 175H258L254 167Q208 76 171.5 13.5Q135 -49 102 -91Q46 -163 -11.5 -193Q-69 -223 -153 -223L-142 -161Q-77 -161 -31 -134Q15 -107 62 -45Q90 -8 121 44Q152 96 188 167L419 621H336Q239 621 183.5 572.5Q128 524 109 422ZM467 593 353 363L287 233H521L501 363ZM520 772 472 772L402 909L463 938Z" glyph-name="Agrave.alt" horiz-adv-x="686" unicode="" /><glyph d="M158 175 154 167Q108 76 71.5 13.5Q35 -49 2 -91Q-54 -163 -111.5 -193Q-169 -223 -253 -223L-242 -161Q-177 -161 -131 -134Q-85 -107 -38 -45Q-10 -8 21 44Q52 96 88 167L330 643Q304 657 291.5 682.5Q279 708 283 740L285 754Q291 798 323 825Q355 852 403 852Q454 852 482 822Q510 792 503 746L501 732Q497 697 475.5 672Q454 647 421 637L521 0H456L429 175ZM450 736 452 750Q455 774 441 789.5Q427 805 401 805Q375 805 357.5 790Q340 775 336 749L334 735Q330 710 344 695Q358 680 385 680Q411 680 428.5 695Q446 710 450 736ZM367 593 253 363L187 233H421L401 363Z" glyph-name="Aring.alt" horiz-adv-x="586" unicode="" /><glyph d="M109 422 45 422Q67 551 142.5 615.5Q218 680 347 680H514L621 0H556L529 175H258L254 167Q208 76 171.5 13.5Q135 -49 102 -91Q46 -163 -11.5 -193Q-69 -223 -153 -223L-142 -161Q-77 -161 -31 -134Q15 -107 62 -45Q90 -8 121 44Q152 96 188 167L419 621H336Q239 621 183.5 572.5Q128 524 109 422ZM467 593 353 363L287 233H521L501 363ZM567 781Q544 781 526.5 792Q509 803 489 837Q477 859 469.5 865Q462 871 453 871Q438 871 427 852.5Q416 834 409 796H358Q370 861 393 892Q416 923 453 923Q476 923 493.5 912Q511 901 531 867Q544 846 551.5 839.5Q559 833 568 833Q583 833 593.5 851.5Q604 870 611 908H662Q650 843 627.5 812Q605 781 567 781Z" glyph-name="Atilde.alt" horiz-adv-x="686" unicode="" /><glyph d="M109 422 45 422Q67 551 142.5 615.5Q218 680 347 680H514L621 0H556L529 175H258L254 167Q208 76 171.5 13.5Q135 -49 102 -91Q46 -163 -11.5 -193Q-69 -223 -153 -223L-142 -161Q-77 -161 -31 -134Q15 -107 62 -45Q90 -8 121 44Q152 96 188 167L419 621H336Q239 621 183.5 572.5Q128 524 109 422ZM467 593 353 363L287 233H521L501 363ZM504 829Q541 829 563.5 852Q586 875 599 924H652Q636 851 598.5 814.5Q561 778 502 778Q441 778 413.5 815Q386 852 394 924H443Q439 875 453.5 852Q468 829 504 829Z" glyph-name="Abreve.alt" horiz-adv-x="686" unicode="" /><glyph d="M109 422 45 422Q67 551 142.5 615.5Q218 680 347 680H514L621 0H556L529 175H258L254 167Q208 76 171.5 13.5Q135 -49 102 -91Q46 -163 -11.5 -193Q-69 -223 -153 -223L-142 -161Q-77 -161 -31 -134Q15 -107 62 -45Q90 -8 121 44Q152 96 188 167L419 621H336Q239 621 183.5 572.5Q128 524 109 422ZM467 593 353 363L287 233H521L501 363ZM373 852 647 852L638 802H364Z" glyph-name="Amacron.alt" horiz-adv-x="686" unicode="" /><glyph d="M109 422 45 422Q67 551 142.5 615.5Q218 680 347 680H514L621 0Q546 -50 514.5 -81Q483 -112 483 -138Q483 -154 492.5 -162Q502 -170 520 -170Q532 -170 547 -166.5Q562 -163 579 -157L590 -206Q568 -215 548.5 -219Q529 -223 510 -223Q468 -223 445.5 -204Q423 -185 423 -150Q423 -112 453.5 -74.5Q484 -37 554 11L529 175H258L254 167Q208 76 171.5 13.5Q135 -49 102 -91Q46 -163 -11.5 -193Q-69 -223 -153 -223L-142 -161Q-77 -161 -31 -134Q15 -107 62 -45Q90 -8 121 44Q152 96 188 167L419 621H336Q239 621 183.5 572.5Q128 524 109 422ZM467 593 353 363L287 233H521L501 363Z" glyph-name="Aogonek.alt" horiz-adv-x="686" unicode="" /><glyph d="M109 422 45 422Q67 551 142.5 615.5Q218 680 347 680H538Q653 680 709 602.5Q765 525 742 397L717 254Q696 134 624 67Q552 0 443 0H236L346 621H336Q239 621 183.5 572.5Q128 524 109 422ZM537 621 411 621L311 59H444Q524 59 578.5 111Q633 163 649 254L674 397Q693 503 656.5 562Q620 621 537 621ZM661 933 714 933L595 772H532L469 933H518L571 827Z" glyph-name="Dcaron.alt" horiz-adv-x="801" unicode="" /><glyph d="M109 422 45 422Q67 551 142.5 615.5Q218 680 347 680H716L705 621H410L367 374H632L622 315H357L311 59H616L606 0H236L345 621H336Q239 621 183.5 572.5Q128 524 109 422ZM695 909 577 772H522L637 938Z" glyph-name="Eacute.alt" horiz-adv-x="692" unicode="" /><glyph d="M109 422 45 422Q67 551 142.5 615.5Q218 680 347 680H716L705 621H410L367 374H632L622 315H357L311 59H616L606 0H236L345 621H336Q239 621 183.5 572.5Q128 524 109 422ZM672 772 623 772L570 878L480 772H427L546 933H609Z" glyph-name="Ecircumflex.alt" horiz-adv-x="692" unicode="" /><glyph d="M109 422 45 422Q67 551 142.5 615.5Q218 680 347 680H716L705 621H410L367 374H632L622 315H357L311 59H616L606 0H236L345 621H336Q239 621 183.5 572.5Q128 524 109 422ZM511 891 499 820H428L440 891ZM700 891 688 820H617L629 891Z" glyph-name="Edieresis.alt" horiz-adv-x="692" unicode="" /><glyph d="M109 422 45 422Q67 551 142.5 615.5Q218 680 347 680H716L705 621H410L367 374H632L622 315H357L311 59H616L606 0H236L345 621H336Q239 621 183.5 572.5Q128 524 109 422ZM573 772 525 772L455 909L516 938Z" glyph-name="Egrave.alt" horiz-adv-x="692" unicode="" /><glyph d="M109 422 45 422Q67 551 142.5 615.5Q218 680 347 680H716L705 621H410L367 374H632L622 315H357L311 59H616L606 0H236L345 621H336Q239 621 183.5 572.5Q128 524 109 422ZM557 829Q594 829 616.5 852Q639 875 652 924H705Q689 851 651.5 814.5Q614 778 555 778Q494 778 466.5 815Q439 852 447 924H496Q492 875 506.5 852Q521 829 557 829Z" glyph-name="Ebreve.alt" horiz-adv-x="692" unicode="" /><glyph d="M109 422 45 422Q67 551 142.5 615.5Q218 680 347 680H716L705 621H410L367 374H632L622 315H357L311 59H616L606 0H236L345 621H336Q239 621 183.5 572.5Q128 524 109 422ZM647 933 700 933L581 772H518L455 933H504L557 827Z" glyph-name="Ecaron.alt" horiz-adv-x="692" unicode="" /><glyph d="M109 422 45 422Q67 551 142.5 615.5Q218 680 347 680H716L705 621H410L367 374H632L622 315H357L311 59H616L606 0H236L345 621H336Q239 621 183.5 572.5Q128 524 109 422ZM606 892 594 819H521L533 892Z" glyph-name="Edotaccent.alt" horiz-adv-x="692" unicode="" /><glyph d="M109 422 45 422Q67 551 142.5 615.5Q218 680 347 680H716L705 621H410L367 374H632L622 315H357L311 59H616L606 0H236L345 621H336Q239 621 183.5 572.5Q128 524 109 422ZM426 852 700 852L691 802H417Z" glyph-name="Emacron.alt" horiz-adv-x="692" unicode="" /><glyph d="M109 422 45 422Q67 551 142.5 615.5Q218 680 347 680H716L705 621H410L367 374H632L622 315H357L311 59H616L606 0Q531 -50 499.5 -81Q468 -112 468 -138Q468 -154 477.5 -162Q487 -170 505 -170Q517 -170 532 -166.5Q547 -163 564 -157L575 -206Q553 -215 533.5 -219Q514 -223 495 -223Q453 -223 430.5 -204Q408 -185 408 -150Q408 -115 436.5 -80.5Q465 -46 532 0H236L345 621H336Q239 621 183.5 572.5Q128 524 109 422Z" glyph-name="Eogonek.alt" horiz-adv-x="692" unicode="" /><glyph d="M549 345 487 -6Q466 -128 406 -175.5Q346 -223 226 -223L237 -161Q329 -161 370 -126.5Q411 -92 426 -6L429 13Q395 1 360.5 -4.5Q326 -10 290 -10Q172 -10 120 67.5Q68 145 93 283L117 417Q142 558 209.5 624Q277 690 394 690Q445 690 492.5 679Q540 668 581 647L559 590Q520 611 479 621Q438 631 393 631Q308 631 256 578Q204 525 185 417L161 283Q140 165 174 106Q208 47 297 47Q336 47 370 54.5Q404 62 441 79L477 286H340L351 345ZM430 829Q467 829 489.5 852Q512 875 525 924H578Q562 851 524.5 814.5Q487 778 428 778Q367 778 339.5 815Q312 852 320 924H369Q365 875 379.5 852Q394 829 430 829Z" glyph-name="Gbreve.alt" horiz-adv-x="605" unicode="" /><glyph d="M549 345 487 -6Q466 -128 406 -175.5Q346 -223 226 -223L237 -161Q329 -161 370 -126.5Q411 -92 426 -6L429 13Q395 1 360.5 -4.5Q326 -10 290 -10Q172 -10 120 67.5Q68 145 93 283L117 417Q142 558 209.5 624Q277 690 394 690Q445 690 492.5 679Q540 668 581 647L559 590Q520 611 479 621Q438 631 393 631Q308 631 256 578Q204 525 185 417L161 283Q140 165 174 106Q208 47 297 47Q336 47 370 54.5Q404 62 441 79L477 286H340L351 345ZM544 772 495 772L442 878L352 772H299L418 933H481Z" glyph-name="Gcircumflex.alt" horiz-adv-x="605" unicode="" /><glyph d="M549 345 487 -6Q466 -128 406 -175.5Q346 -223 226 -223L237 -161Q329 -161 370 -126.5Q411 -92 426 -6L429 13Q395 1 360.5 -4.5Q326 -10 290 -10Q172 -10 120 67.5Q68 145 93 283L117 417Q142 558 209.5 624Q277 690 394 690Q445 690 492.5 679Q540 668 581 647L559 590Q520 611 479 621Q438 631 393 631Q308 631 256 578Q204 525 185 417L161 283Q140 165 174 106Q208 47 297 47Q336 47 370 54.5Q404 62 441 79L477 286H340L351 345ZM478 892 466 819H393L405 892Z" glyph-name="Gdotaccent.alt" horiz-adv-x="605" unicode="" /><glyph d="M109 422 45 422Q67 551 142.5 615.5Q218 680 347 680H421L367 374H692L746 680H811L691 0H626L682 315H357L301 0H236L345 621H336Q239 621 183.5 572.5Q128 524 109 422ZM720 772 671 772L618 878L528 772H475L594 933H657Z" glyph-name="Hcircumflex.alt" horiz-adv-x="849" unicode="" /><glyph d="M109 422 45 422Q67 551 142.5 615.5Q218 680 347 680H422L339 212Q317 89 257.5 42Q198 -5 78 -5L89 57Q179 57 218.5 91Q258 125 274 212L347 621H336Q239 621 183.5 572.5Q128 524 109 422ZM525 772 476 772L423 878L333 772H280L399 933H462Z" glyph-name="Jcircumflex.alt" horiz-adv-x="449" unicode="" /><glyph d="M109 422 45 422Q67 551 142.5 615.5Q218 680 347 680H421L357 316Q473 412 558.5 501Q644 590 706 680H781Q721 596 657 523Q593 450 518 378L693 0H620L467 340Q444 319 415.5 295.5Q387 272 343 237L301 0H236L346 621H336Q239 621 183.5 572.5Q128 524 109 422ZM463 -77 366 -243L329 -232L390 -77Z" glyph-name="Kcommaaccent.alt" horiz-adv-x="747" unicode="" /><glyph d="M109 422 45 422Q67 551 142.5 615.5Q218 680 347 680H421L311 59H605L595 0H236L345 621H336Q239 621 183.5 572.5Q128 524 109 422ZM556 909 438 772H383L498 938Z" glyph-name="Lacute.alt" horiz-adv-x="670" unicode="" /><glyph d="M109 422 45 422Q67 551 142.5 615.5Q218 680 347 680H421L311 59H605L595 0H236L345 621H336Q239 621 183.5 572.5Q128 524 109 422ZM598 680 540 487H500L534 680Z" glyph-name="Lcaron.alt" horiz-adv-x="670" unicode="" /><glyph d="M109 422 45 422Q67 551 142.5 615.5Q218 680 347 680H421L311 59H605L595 0H236L345 621H336Q239 621 183.5 572.5Q128 524 109 422ZM437 -77 340 -243L303 -232L364 -77Z" glyph-name="Lcommaaccent.alt" horiz-adv-x="670" unicode="" /><glyph d="M109 422 45 422Q67 551 142.5 615.5Q218 680 347 680H434Q512 504 564.5 363.5Q617 223 661 77L708 388L760 680H821L701 0H623Q571 169 517.5 314.5Q464 460 403 603L348 291L297 0H236L346 621H336Q239 621 183.5 572.5Q128 524 109 422ZM674 781Q651 781 633.5 792Q616 803 596 837Q584 859 576.5 865Q569 871 560 871Q545 871 534 852.5Q523 834 516 796H465Q477 861 500 892Q523 923 560 923Q583 923 600.5 912Q618 901 638 867Q651 846 658.5 839.5Q666 833 675 833Q690 833 700.5 851.5Q711 870 718 908H769Q757 843 734.5 812Q712 781 674 781Z" glyph-name="Ntilde.alt" horiz-adv-x="859" unicode="" /><glyph d="M109 422 45 422Q67 551 142.5 615.5Q218 680 347 680H434Q512 504 564.5 363.5Q617 223 661 77L708 388L760 680H821L701 0H623Q571 169 517.5 314.5Q464 460 403 603L348 291L297 0H236L346 621H336Q239 621 183.5 572.5Q128 524 109 422ZM749 909 631 772H576L691 938Z" glyph-name="Nacute.alt" horiz-adv-x="859" unicode="" /><glyph d="M109 422 45 422Q67 551 142.5 615.5Q218 680 347 680H434Q512 504 564.5 363.5Q617 223 661 77L708 388L760 680H821L701 0H623Q571 169 517.5 314.5Q464 460 403 603L348 291L297 0H236L346 621H336Q239 621 183.5 572.5Q128 524 109 422ZM700 933 753 933L634 772H571L508 933H557L610 827Z" glyph-name="Ncaron.alt" horiz-adv-x="859" unicode="" /><glyph d="M109 422 45 422Q67 551 142.5 615.5Q218 680 347 680H434Q512 504 564.5 363.5Q617 223 661 77L708 388L760 680H821L701 0H623Q571 169 517.5 314.5Q464 460 403 603L348 291L297 0H236L346 621H336Q239 621 183.5 572.5Q128 524 109 422ZM491 -77 394 -243L357 -232L418 -77Z" glyph-name="Ncommaaccent.alt" horiz-adv-x="859" unicode="" /><glyph d="M109 422 45 422Q67 551 142.5 615.5Q218 680 347 680H434Q535 452 582 331Q629 210 664 94L708 388L760 680H821L700 -6Q678 -129 618.5 -176Q559 -223 439 -223L450 -161Q539 -161 579 -128.5Q619 -96 634 -13Q585 146 534.5 280Q484 414 403 601L348 291L297 0H236L346 621H336Q239 621 183.5 572.5Q128 524 109 422Z" glyph-name="Eng.alt" horiz-adv-x="859" unicode="" /><glyph d="M507 278 350 278L301 0H236L346 621H336Q239 621 183.5 572.5Q128 524 109 422H45Q67 551 142.5 615.5Q218 680 347 680H550Q638 680 685.5 627Q733 574 719 491L712 448Q702 387 665.5 345Q629 303 571 287Q603 220 628.5 148Q654 76 673 0H603Q587 65 563.5 134Q540 203 507 278ZM548 621 411 621L360 337H498Q558 337 596.5 366.5Q635 396 644 448L651 491Q661 551 633 586Q605 621 548 621ZM700 909 582 772H527L642 938Z" glyph-name="Racute.alt" horiz-adv-x="761" unicode="" /><glyph d="M507 278 350 278L301 0H236L346 621H336Q239 621 183.5 572.5Q128 524 109 422H45Q67 551 142.5 615.5Q218 680 347 680H550Q638 680 685.5 627Q733 574 719 491L712 448Q702 387 665.5 345Q629 303 571 287Q603 220 628.5 148Q654 76 673 0H603Q587 65 563.5 134Q540 203 507 278ZM548 621 411 621L360 337H498Q558 337 596.5 366.5Q635 396 644 448L651 491Q661 551 633 586Q605 621 548 621ZM651 933 704 933L585 772H522L459 933H508L561 827Z" glyph-name="Rcaron.alt" horiz-adv-x="761" unicode="" /><glyph d="M507 278 350 278L301 0H236L346 621H336Q239 621 183.5 572.5Q128 524 109 422H45Q67 551 142.5 615.5Q218 680 347 680H550Q638 680 685.5 627Q733 574 719 491L712 448Q702 387 665.5 345Q629 303 571 287Q603 220 628.5 148Q654 76 673 0H603Q587 65 563.5 134Q540 203 507 278ZM548 621 411 621L360 337H498Q558 337 596.5 366.5Q635 396 644 448L651 491Q661 551 633 586Q605 621 548 621ZM469 -77 372 -243L335 -232L396 -77Z" glyph-name="Rcommaaccent.alt" horiz-adv-x="761" unicode="" /><glyph d="M548 365 538 306H397L343 0H278L332 306H191L201 365H342L387 621H336Q239 621 183.5 572.5Q128 524 109 422H45Q67 551 142.5 615.5Q218 680 347 680H667L656 621H452L407 365Z" glyph-name="Tbar.alt" horiz-adv-x="603" unicode="" /><glyph d="M109 422 45 422Q67 551 142.5 615.5Q218 680 347 680H667L656 621H452L343 0H278L387 621H336Q239 621 183.5 572.5Q128 524 109 422ZM542 933 595 933L476 772H413L350 933H399L452 827Z" glyph-name="Tcaron.alt" horiz-adv-x="603" unicode="" /><glyph d="M109 422 45 422Q67 551 142.5 615.5Q218 680 347 680H667L656 621H452L343 0H278L387 621H336Q239 621 183.5 572.5Q128 524 109 422ZM333 -77 236 -243L199 -232L260 -77Z" glyph-name="uni0162.alt" horiz-adv-x="603" unicode="" /><glyph d="M109 422 45 422Q67 551 142.5 615.5Q218 680 347 680H667L656 621H452L343 0H278L387 621H336Q239 621 183.5 572.5Q128 524 109 422ZM333 -77 236 -243L199 -232L260 -77Z" glyph-name="uni021A.alt" horiz-adv-x="603" unicode="" /><glyph d="M109 422 45 422Q67 551 142.5 615.5Q218 680 347 680H422L345 244Q329 153 362 101Q395 49 472 49Q546 49 592 98Q638 147 655 244L732 680H800L723 244Q701 119 636.5 54.5Q572 -10 470 -10Q361 -10 309 60.5Q257 131 277 244L344 621H336Q239 621 183.5 572.5Q128 524 109 422ZM737 909 619 772H564L679 938Z" glyph-name="Uacute.alt" horiz-adv-x="825" unicode="" /><glyph d="M109 422 45 422Q67 551 142.5 615.5Q218 680 347 680H422L345 244Q329 153 362 101Q395 49 472 49Q546 49 592 98Q638 147 655 244L732 680H800L723 244Q701 119 636.5 54.5Q572 -10 470 -10Q361 -10 309 60.5Q257 131 277 244L344 621H336Q239 621 183.5 572.5Q128 524 109 422ZM714 772 665 772L612 878L522 772H469L588 933H651Z" glyph-name="Ucircumflex.alt" horiz-adv-x="825" unicode="" /><glyph d="M109 422 45 422Q67 551 142.5 615.5Q218 680 347 680H422L345 244Q329 153 362 101Q395 49 472 49Q546 49 592 98Q638 147 655 244L732 680H800L723 244Q701 119 636.5 54.5Q572 -10 470 -10Q361 -10 309 60.5Q257 131 277 244L344 621H336Q239 621 183.5 572.5Q128 524 109 422ZM553 891 541 820H470L482 891ZM742 891 730 820H659L671 891Z" glyph-name="Udieresis.alt" horiz-adv-x="825" unicode="" /><glyph d="M109 422 45 422Q67 551 142.5 615.5Q218 680 347 680H422L345 244Q329 153 362 101Q395 49 472 49Q546 49 592 98Q638 147 655 244L732 680H800L723 244Q701 119 636.5 54.5Q572 -10 470 -10Q361 -10 309 60.5Q257 131 277 244L344 621H336Q239 621 183.5 572.5Q128 524 109 422ZM615 772 567 772L497 909L558 938Z" glyph-name="Ugrave.alt" horiz-adv-x="825" unicode="" /><glyph d="M109 422 45 422Q67 551 142.5 615.5Q218 680 347 680H422L345 244Q329 153 362 101Q395 49 472 49Q546 49 592 98Q638 147 655 244L732 680H800L723 244Q701 119 636.5 54.5Q572 -10 470 -10Q361 -10 309 60.5Q257 131 277 244L344 621H336Q239 621 183.5 572.5Q128 524 109 422ZM599 829Q636 829 658.5 852Q681 875 694 924H747Q731 851 693.5 814.5Q656 778 597 778Q536 778 508.5 815Q481 852 489 924H538Q534 875 548.5 852Q563 829 599 829Z" glyph-name="Ubreve.alt" horiz-adv-x="825" unicode="" /><glyph d="M109 422 45 422Q67 551 142.5 615.5Q218 680 347 680H422L345 244Q329 153 362 101Q395 49 472 49Q546 49 592 98Q638 147 655 244L732 680H800L723 244Q701 119 636.5 54.5Q572 -10 470 -10Q361 -10 309 60.5Q257 131 277 244L344 621H336Q239 621 183.5 572.5Q128 524 109 422ZM667 909 554 772H499L614 938ZM797 909 684 772H629L744 938Z" glyph-name="Uhungarumlaut.alt" horiz-adv-x="825" unicode="" /><glyph d="M109 422 45 422Q67 551 142.5 615.5Q218 680 347 680H422L345 244Q329 153 362 101Q395 49 472 49Q546 49 592 98Q638 147 655 244L732 680H800L723 244Q701 119 636.5 54.5Q572 -10 470 -10Q361 -10 309 60.5Q257 131 277 244L344 621H336Q239 621 183.5 572.5Q128 524 109 422ZM468 852 742 852L733 802H459Z" glyph-name="Umacron.alt" horiz-adv-x="825" unicode="" /><glyph d="M109 422 45 422Q67 551 142.5 615.5Q218 680 347 680H422L345 244Q329 153 362 101Q395 49 472 49Q546 49 592 98Q638 147 655 244L732 680H800L723 244Q710 172 684 120.5Q658 69 619 39Q529 -31 493 -70Q457 -109 457 -138Q457 -154 466.5 -162Q476 -170 494 -170Q506 -170 521 -166.5Q536 -163 553 -157L564 -206Q542 -215 522.5 -219Q503 -223 484 -223Q442 -223 419.5 -204Q397 -185 397 -150Q397 -117 418 -83.5Q439 -50 484 -10H470Q361 -10 309 60.5Q257 131 277 244L344 621H336Q239 621 183.5 572.5Q128 524 109 422Z" glyph-name="Uogonek.alt" horiz-adv-x="825" unicode="" /><glyph d="M109 422 45 422Q67 551 142.5 615.5Q218 680 347 680H422L345 244Q329 153 362 101Q395 49 472 49Q546 49 592 98Q638 147 655 244L732 680H800L723 244Q701 119 636.5 54.5Q572 -10 470 -10Q361 -10 309 60.5Q257 131 277 244L344 621H336Q239 621 183.5 572.5Q128 524 109 422ZM618 976Q669 976 697 946Q725 916 718 870L716 856Q710 811 678 783.5Q646 756 598 756Q547 756 519 786.5Q491 817 498 864L500 878Q506 922 538 949Q570 976 618 976ZM665 860 667 874Q670 898 656 913.5Q642 929 616 929Q590 929 572.5 914Q555 899 551 873L549 859Q545 834 559 819Q573 804 600 804Q626 804 643.5 819Q661 834 665 860Z" glyph-name="Uring.alt" horiz-adv-x="825" unicode="" /><glyph d="M109 422 45 422Q67 551 142.5 615.5Q218 680 347 680H422L345 244Q329 153 362 101Q395 49 472 49Q546 49 592 98Q638 147 655 244L732 680H800L723 244Q701 119 636.5 54.5Q572 -10 470 -10Q361 -10 309 60.5Q257 131 277 244L344 621H336Q239 621 183.5 572.5Q128 524 109 422ZM662 781Q639 781 621.5 792Q604 803 584 837Q572 859 564.5 865Q557 871 548 871Q533 871 522 852.5Q511 834 504 796H453Q465 861 488 892Q511 923 548 923Q571 923 588.5 912Q606 901 626 867Q639 846 646.5 839.5Q654 833 663 833Q678 833 688.5 851.5Q699 870 706 908H757Q745 843 722.5 812Q700 781 662 781Z" glyph-name="Utilde.alt" horiz-adv-x="825" unicode="" /><glyph d="M780 0 713 584L438 0H370L346 621H336Q239 621 183.5 572.5Q128 524 109 422H45Q67 551 142 615.5Q217 680 344 680H407L418 380L425 106L695 680H760L827 103L932 380L984 513Q1020 605 1054.5 671.5Q1089 738 1125 783Q1175 847 1234.5 875Q1294 903 1390 903L1379 841Q1306 841 1256.5 815.5Q1207 790 1164 735Q1134 696 1105.5 641Q1077 586 1048 513L847 0ZM889 909 771 772H716L831 938Z" glyph-name="Wacute.alt" horiz-adv-x="1080" unicode="" /><glyph d="M780 0 713 584L438 0H370L346 621H336Q239 621 183.5 572.5Q128 524 109 422H45Q67 551 142 615.5Q217 680 344 680H407L418 380L425 106L695 680H760L827 103L932 380L984 513Q1020 605 1054.5 671.5Q1089 738 1125 783Q1175 847 1234.5 875Q1294 903 1390 903L1379 841Q1306 841 1256.5 815.5Q1207 790 1164 735Q1134 696 1105.5 641Q1077 586 1048 513L847 0ZM866 772 817 772L764 878L674 772H621L740 933H803Z" glyph-name="Wcircumflex.alt" horiz-adv-x="1080" unicode="" /></font>
</defs>
</svg>
